<svg width="260" height="260" viewBox="0 0 260 260" fill="none" xmlns="http://www.w3.org/2000/svg">
<path fill-rule="evenodd" clip-rule="evenodd" d="M45.8824 68.8086H79.5294V191.162H45.8824V68.8086ZM0 114.691H33.6471V191.162H0V114.691ZM125.412 68.8086H91.7647V191.162H125.412V68.8086Z" fill="#654AEC"/>
<rect y="68.8086" width="33.6471" height="33.6471" fill="#FF58BE"/>
<path fill-rule="evenodd" clip-rule="evenodd" d="M226.353 129.985C226.353 145.189 214.028 157.514 198.823 157.514C183.619 157.514 171.294 145.189 171.294 129.985C171.294 114.781 183.619 102.456 198.823 102.456C214.028 102.456 226.353 114.781 226.353 129.985ZM226.353 184.632C218.078 188.809 208.726 191.162 198.823 191.162C165.037 191.162 137.647 163.772 137.647 129.985C137.647 96.1982 165.037 68.8086 198.823 68.8086C232.61 68.8086 260 96.1982 260 129.985H260V191.162H226.353V184.632Z" fill="#654AEC"/>
</svg>
