<svg width="276" height="188" viewBox="0 0 276 188" fill="none" xmlns="http://www.w3.org/2000/svg">
<g clip-path="url(#clip0_4824_2698)">
<rect width="276" height="188" rx="16" fill="#FF7C32"/>
<path d="M34.642 38H32.392L36.4886 26.3636H39.0909L43.1932 38H40.9432L37.8352 28.75H37.7443L34.642 38ZM34.7159 33.4375H40.8523V35.1307H34.7159V33.4375ZM47.608 38.1534C46.9223 38.1534 46.3087 37.9773 45.767 37.625C45.2254 37.2727 44.7973 36.7614 44.483 36.0909C44.1686 35.4205 44.0114 34.6061 44.0114 33.6477C44.0114 32.678 44.1705 31.8598 44.4886 31.1932C44.8106 30.5227 45.2443 30.017 45.7898 29.6761C46.3352 29.3314 46.9432 29.1591 47.6136 29.1591C48.125 29.1591 48.5455 29.2462 48.875 29.4205C49.2045 29.5909 49.4659 29.7973 49.6591 30.0398C49.8523 30.2784 50.0019 30.5038 50.108 30.7159H50.1932V26.3636H52.2557V38H50.233V36.625H50.108C50.0019 36.8371 49.8485 37.0625 49.6477 37.3011C49.447 37.536 49.1818 37.7367 48.8523 37.9034C48.5227 38.0701 48.108 38.1534 47.608 38.1534ZM48.1818 36.4659C48.6174 36.4659 48.9886 36.3485 49.2955 36.1136C49.6023 35.875 49.8352 35.5436 49.9943 35.1193C50.1534 34.6951 50.233 34.2008 50.233 33.6364C50.233 33.072 50.1534 32.5814 49.9943 32.1648C49.839 31.7481 49.608 31.4242 49.3011 31.1932C48.9981 30.9621 48.625 30.8466 48.1818 30.8466C47.7235 30.8466 47.3409 30.9659 47.0341 31.2045C46.7273 31.4432 46.4962 31.7727 46.3409 32.1932C46.1856 32.6136 46.108 33.0947 46.108 33.6364C46.108 34.1818 46.1856 34.6686 46.3409 35.0966C46.5 35.5208 46.733 35.8561 47.0398 36.1023C47.3504 36.3447 47.7311 36.4659 48.1818 36.4659ZM54.4474 38V29.2727H56.4134V30.7557H56.5156C56.6974 30.2557 56.9986 29.8655 57.419 29.5852C57.8395 29.3011 58.3414 29.1591 58.9247 29.1591C59.5156 29.1591 60.0137 29.303 60.419 29.5909C60.8281 29.875 61.116 30.2633 61.2827 30.7557H61.3736C61.5668 30.2708 61.8925 29.8845 62.3509 29.5966C62.813 29.3049 63.3603 29.1591 63.9929 29.1591C64.7959 29.1591 65.4512 29.4129 65.9588 29.9205C66.4664 30.428 66.7202 31.1686 66.7202 32.142V38H64.6577V32.4602C64.6577 31.9186 64.5137 31.5227 64.2259 31.2727C63.938 31.0189 63.5857 30.892 63.169 30.892C62.6728 30.892 62.2846 31.0473 62.0043 31.358C61.7277 31.6648 61.5895 32.0644 61.5895 32.5568V38H59.5724V32.375C59.5724 31.9242 59.4361 31.5644 59.1634 31.2955C58.8944 31.0265 58.5421 30.892 58.1065 30.892C57.8111 30.892 57.5421 30.9678 57.2997 31.1193C57.0573 31.267 56.8641 31.4773 56.7202 31.75C56.5762 32.0189 56.5043 32.3333 56.5043 32.6932V38H54.4474ZM68.8068 38V29.2727H70.8636V38H68.8068ZM69.8409 28.0341C69.5152 28.0341 69.2348 27.9261 69 27.7102C68.7652 27.4905 68.6477 27.2273 68.6477 26.9205C68.6477 26.6098 68.7652 26.3466 69 26.1307C69.2348 25.911 69.5152 25.8011 69.8409 25.8011C70.1705 25.8011 70.4508 25.911 70.6818 26.1307C70.9167 26.3466 71.0341 26.6098 71.0341 26.9205C71.0341 27.2273 70.9167 27.4905 70.6818 27.7102C70.4508 27.9261 70.1705 28.0341 69.8409 28.0341ZM75.0355 32.8864V38H72.9787V29.2727H74.9446V30.7557H75.0469C75.2476 30.267 75.5677 29.8788 76.0071 29.5909C76.4503 29.303 76.9976 29.1591 77.6491 29.1591C78.2514 29.1591 78.776 29.2879 79.223 29.5455C79.6738 29.803 80.0223 30.1761 80.2685 30.6648C80.5185 31.1534 80.6416 31.7462 80.6378 32.4432V38H78.581V32.7614C78.581 32.178 78.4295 31.7216 78.1264 31.392C77.8272 31.0625 77.4124 30.8977 76.8821 30.8977C76.5223 30.8977 76.2022 30.9773 75.9219 31.1364C75.6454 31.2917 75.4276 31.517 75.2685 31.8125C75.1132 32.108 75.0355 32.4659 75.0355 32.8864ZM86.6974 41.2727V29.2727H88.7202V30.7159H88.8395C88.9455 30.5038 89.0952 30.2784 89.2884 30.0398C89.4815 29.7973 89.7429 29.5909 90.0724 29.4205C90.402 29.2462 90.8224 29.1591 91.3338 29.1591C92.008 29.1591 92.616 29.3314 93.1577 29.6761C93.7031 30.017 94.1349 30.5227 94.4531 31.1932C94.7751 31.8598 94.9361 32.678 94.9361 33.6477C94.9361 34.6061 94.7789 35.4205 94.4645 36.0909C94.1501 36.7614 93.7221 37.2727 93.1804 37.625C92.6387 37.9773 92.0251 38.1534 91.3395 38.1534C90.8395 38.1534 90.4247 38.0701 90.0952 37.9034C89.7656 37.7367 89.5005 37.536 89.2997 37.3011C89.1027 37.0625 88.9493 36.8371 88.8395 36.625H88.7543V41.2727H86.6974ZM88.7145 33.6364C88.7145 34.2008 88.794 34.6951 88.9531 35.1193C89.116 35.5436 89.349 35.875 89.652 36.1136C89.9588 36.3485 90.33 36.4659 90.7656 36.4659C91.2202 36.4659 91.6009 36.3447 91.9077 36.1023C92.2145 35.8561 92.4455 35.5208 92.6009 35.0966C92.7599 34.6686 92.8395 34.1818 92.8395 33.6364C92.8395 33.0947 92.7618 32.6136 92.6065 32.1932C92.4512 31.7727 92.2202 31.4432 91.9134 31.2045C91.6065 30.9659 91.224 30.8466 90.7656 30.8466C90.3262 30.8466 89.9531 30.9621 89.6463 31.1932C89.3395 31.4242 89.1065 31.7481 88.9474 32.1648C88.7921 32.5814 88.7145 33.072 88.7145 33.6364ZM99.2088 38.1761C98.6558 38.1761 98.1577 38.0777 97.7145 37.8807C97.2751 37.6799 96.9266 37.3845 96.669 36.9943C96.4152 36.6042 96.2884 36.1231 96.2884 35.5511C96.2884 35.0587 96.3793 34.6515 96.5611 34.3295C96.7429 34.0076 96.991 33.75 97.3054 33.5568C97.6198 33.3636 97.974 33.2178 98.3679 33.1193C98.7656 33.017 99.1766 32.9432 99.6009 32.8977C100.112 32.8447 100.527 32.7973 100.845 32.7557C101.163 32.7102 101.394 32.642 101.538 32.5511C101.686 32.4564 101.76 32.3106 101.76 32.1136V32.0795C101.76 31.6515 101.633 31.3201 101.379 31.0852C101.125 30.8504 100.76 30.733 100.283 30.733C99.7789 30.733 99.3793 30.8428 99.0838 31.0625C98.7921 31.2822 98.5952 31.5417 98.4929 31.8409L96.5724 31.5682C96.724 31.0379 96.974 30.5947 97.3224 30.2386C97.6709 29.8788 98.0971 29.6098 98.6009 29.4318C99.1046 29.25 99.6615 29.1591 100.271 29.1591C100.692 29.1591 101.11 29.2083 101.527 29.3068C101.944 29.4053 102.324 29.5682 102.669 29.7955C103.014 30.0189 103.29 30.3239 103.499 30.7102C103.711 31.0966 103.817 31.5795 103.817 32.1591V38H101.839V36.8011H101.771C101.646 37.0436 101.47 37.2708 101.243 37.483C101.019 37.6913 100.737 37.8598 100.396 37.9886C100.059 38.1136 99.6634 38.1761 99.2088 38.1761ZM99.7429 36.6648C100.156 36.6648 100.514 36.5833 100.817 36.4205C101.12 36.2538 101.353 36.0341 101.516 35.7614C101.682 35.4886 101.766 35.1913 101.766 34.8693V33.8409C101.701 33.8939 101.591 33.9432 101.436 33.9886C101.285 34.0341 101.114 34.0739 100.925 34.108C100.735 34.142 100.548 34.1723 100.362 34.1989C100.177 34.2254 100.016 34.2481 99.8793 34.267C99.5724 34.3087 99.2978 34.3769 99.0554 34.4716C98.813 34.5663 98.6217 34.6989 98.4815 34.8693C98.3414 35.036 98.2713 35.2519 98.2713 35.517C98.2713 35.8958 98.4096 36.1818 98.6861 36.375C98.9626 36.5682 99.3149 36.6648 99.7429 36.6648ZM107.942 32.8864V38H105.885V29.2727H107.851V30.7557H107.953C108.154 30.267 108.474 29.8788 108.913 29.5909C109.357 29.303 109.904 29.1591 110.555 29.1591C111.158 29.1591 111.682 29.2879 112.129 29.5455C112.58 29.803 112.929 30.1761 113.175 30.6648C113.425 31.1534 113.548 31.7462 113.544 32.4432V38H111.487V32.7614C111.487 32.178 111.336 31.7216 111.033 31.392C110.733 31.0625 110.319 30.8977 109.788 30.8977C109.429 30.8977 109.108 30.9773 108.828 31.1364C108.552 31.2917 108.334 31.517 108.175 31.8125C108.019 32.108 107.942 32.4659 107.942 32.8864ZM119.499 38.1705C118.624 38.1705 117.868 37.9886 117.232 37.625C116.599 37.2576 116.112 36.7386 115.771 36.0682C115.43 35.3939 115.26 34.6004 115.26 33.6875C115.26 32.7898 115.43 32.0019 115.771 31.3239C116.116 30.642 116.597 30.1117 117.214 29.733C117.832 29.3504 118.557 29.1591 119.391 29.1591C119.929 29.1591 120.436 29.2462 120.913 29.4205C121.394 29.5909 121.819 29.8561 122.186 30.2159C122.557 30.5758 122.849 31.0341 123.061 31.5909C123.273 32.1439 123.379 32.803 123.379 33.5682V34.1989H116.226V32.8125H121.408C121.404 32.4186 121.319 32.0682 121.152 31.7614C120.985 31.4508 120.752 31.2064 120.453 31.0284C120.158 30.8504 119.813 30.7614 119.419 30.7614C118.999 30.7614 118.629 30.8636 118.311 31.0682C117.993 31.2689 117.745 31.5341 117.567 31.8636C117.393 32.1894 117.304 32.5473 117.3 32.9375V34.1477C117.3 34.6553 117.393 35.0909 117.578 35.4545C117.764 35.8144 118.023 36.0909 118.357 36.2841C118.69 36.4735 119.08 36.5682 119.527 36.5682C119.826 36.5682 120.097 36.5265 120.339 36.4432C120.582 36.3561 120.792 36.2292 120.97 36.0625C121.148 35.8958 121.283 35.6894 121.374 35.4432L123.294 35.6591C123.173 36.1667 122.942 36.6098 122.601 36.9886C122.264 37.3636 121.832 37.6553 121.305 37.8636C120.779 38.0682 120.177 38.1705 119.499 38.1705ZM127.176 26.3636V38H125.119V26.3636H127.176Z" fill="white"/>
<path d="M32 64C32 59.5817 35.5817 56 40 56H276V213H32V64Z" fill="white"/>
<rect x="49" y="76" width="60" height="16" rx="8" fill="#F2F3F5"/>
<rect x="123" y="76" width="60" height="16" rx="8" fill="#F2F3F5"/>
<rect x="197" y="76" width="60" height="16" rx="8" fill="#F2F3F5"/>
<rect x="49" y="102" width="134" height="16" rx="8" fill="#F2F3F5"/>
<rect x="49" y="128" width="134" height="16" rx="8" fill="#F2F3F5"/>
<rect x="49" y="154" width="134" height="16" rx="8" fill="#F2F3F5"/>
<path d="M219.5 111L224.148 116.422C224.886 117.284 226.192 117.359 227.025 116.588L239 105.5" stroke="#FF9882" stroke-width="3" stroke-linecap="round" stroke-linejoin="round"/>
<path d="M219.5 133.5L224.148 138.922C224.886 139.784 226.192 139.859 227.025 139.088L239 128" stroke="#FF9882" stroke-width="3" stroke-linecap="round" stroke-linejoin="round"/>
<path d="M219.5 159L224.148 164.422C224.886 165.284 226.192 165.359 227.025 164.588L239 153.5" stroke="#FF9882" stroke-width="3" stroke-linecap="round" stroke-linejoin="round"/>
</g>
<rect x="0.5" y="0.5" width="275" height="187" rx="15.5" stroke="#E5E6EB"/>
<defs>
<clipPath id="clip0_4824_2698">
<rect width="276" height="188" rx="16" fill="white"/>
</clipPath>
</defs>
</svg>
