<svg width="276" height="188" viewBox="0 0 276 188" fill="none" xmlns="http://www.w3.org/2000/svg">
<rect width="276" height="188" rx="16" fill="#5A51D8"/>
<path d="M188 61.5C188 66.6928 184.052 72.7196 174.728 77.7976C165.634 82.7509 152.659 86 138 86C123.341 86 110.366 82.7509 101.272 77.7976C91.9483 72.7196 88 66.6928 88 61.5C88 56.3072 91.9483 50.2804 101.272 45.2024C110.366 40.2491 123.341 37 138 37C152.659 37 165.634 40.2491 174.728 45.2024C184.052 50.2804 188 56.3072 188 61.5Z" stroke="#EEBFFF" stroke-opacity="0.6" stroke-width="12"/>
<path fill-rule="evenodd" clip-rule="evenodd" d="M82 62H82.0074C82.4977 78.6141 107.379 92 138 92C168.621 92 193.502 78.6141 193.993 62H194V126H193.993C193.998 126.166 194 126.333 194 126.5C194 143.345 168.928 157 138 157C107.072 157 82 143.345 82 126.5C82 126.333 82.0025 126.166 82.0074 126H82V62Z" fill="url(#paint0_linear_4817_2760)"/>
<ellipse cx="138" cy="126.5" rx="56" ry="30.5" stroke="white" stroke-opacity="0.24" stroke-linecap="round" stroke-dasharray="4 4"/>
<ellipse cx="138" cy="95.5" rx="56" ry="30.5" stroke="white" stroke-opacity="0.24" stroke-linecap="round" stroke-dasharray="4 4"/>
<line x1="137.5" y1="31.5" x2="137.5" y2="156.5" stroke="white" stroke-opacity="0.24" stroke-linecap="round" stroke-dasharray="4 4"/>
<defs>
<linearGradient id="paint0_linear_4817_2760" x1="138" y1="62" x2="138" y2="157" gradientUnits="userSpaceOnUse">
<stop stop-color="#EEBFFF" stop-opacity="0.32"/>
<stop offset="1" stop-color="#EEBFFF" stop-opacity="0"/>
</linearGradient>
</defs>
</svg>
