<svg width="276" height="188" viewBox="0 0 276 188" fill="none" xmlns="http://www.w3.org/2000/svg">
<rect width="276" height="188" rx="16" fill="#0ABDE4"/>
<path d="M101.267 155.199L93.4943 158.79V156.773L99.017 154.403L98.9545 154.511V154.25L99.017 154.358L93.4943 151.989V149.972L101.267 153.562V155.199ZM110.271 159V160.642H102.754V159H110.271ZM119.957 147.364H122.048V155.545C122.045 156.295 121.885 156.941 121.571 157.483C121.257 158.021 120.817 158.436 120.253 158.727C119.692 159.015 119.039 159.159 118.293 159.159C117.611 159.159 116.997 159.038 116.452 158.795C115.91 158.549 115.48 158.186 115.162 157.705C114.844 157.223 114.685 156.625 114.685 155.909H116.781C116.785 156.223 116.853 156.494 116.986 156.722C117.122 156.949 117.31 157.123 117.548 157.244C117.787 157.366 118.062 157.426 118.372 157.426C118.709 157.426 118.995 157.356 119.23 157.216C119.465 157.072 119.643 156.86 119.764 156.58C119.889 156.299 119.954 155.955 119.957 155.545V147.364ZM130.659 150.562C130.606 150.066 130.383 149.68 129.989 149.403C129.598 149.127 129.091 148.989 128.466 148.989C128.027 148.989 127.65 149.055 127.335 149.188C127.021 149.32 126.78 149.5 126.614 149.727C126.447 149.955 126.362 150.214 126.358 150.506C126.358 150.748 126.413 150.958 126.523 151.136C126.636 151.314 126.79 151.466 126.983 151.591C127.176 151.712 127.39 151.814 127.625 151.898C127.86 151.981 128.097 152.051 128.335 152.108L129.426 152.381C129.866 152.483 130.288 152.621 130.693 152.795C131.102 152.97 131.468 153.189 131.79 153.455C132.116 153.72 132.373 154.04 132.562 154.415C132.752 154.79 132.847 155.229 132.847 155.733C132.847 156.415 132.672 157.015 132.324 157.534C131.975 158.049 131.472 158.453 130.812 158.744C130.157 159.032 129.364 159.176 128.432 159.176C127.527 159.176 126.741 159.036 126.074 158.756C125.411 158.475 124.892 158.066 124.517 157.528C124.146 156.991 123.945 156.335 123.915 155.562H125.989C126.019 155.968 126.144 156.305 126.364 156.574C126.583 156.843 126.869 157.044 127.222 157.176C127.578 157.309 127.975 157.375 128.415 157.375C128.873 157.375 129.275 157.307 129.619 157.17C129.968 157.03 130.241 156.837 130.438 156.591C130.634 156.341 130.735 156.049 130.739 155.716C130.735 155.413 130.646 155.163 130.472 154.966C130.297 154.765 130.053 154.598 129.739 154.466C129.428 154.33 129.064 154.208 128.648 154.102L127.324 153.761C126.366 153.515 125.608 153.142 125.051 152.642C124.498 152.138 124.222 151.47 124.222 150.636C124.222 149.951 124.407 149.35 124.778 148.835C125.153 148.32 125.663 147.92 126.307 147.636C126.951 147.348 127.68 147.205 128.494 147.205C129.32 147.205 130.044 147.348 130.665 147.636C131.29 147.92 131.78 148.316 132.136 148.824C132.492 149.328 132.676 149.907 132.688 150.562H130.659ZM142.467 159.17C141.592 159.17 140.837 158.989 140.2 158.625C139.568 158.258 139.081 157.739 138.74 157.068C138.399 156.394 138.229 155.6 138.229 154.688C138.229 153.79 138.399 153.002 138.74 152.324C139.085 151.642 139.566 151.112 140.183 150.733C140.801 150.35 141.526 150.159 142.359 150.159C142.897 150.159 143.405 150.246 143.882 150.42C144.363 150.591 144.787 150.856 145.155 151.216C145.526 151.576 145.818 152.034 146.03 152.591C146.242 153.144 146.348 153.803 146.348 154.568V155.199H139.195V153.812H144.376C144.373 153.419 144.287 153.068 144.121 152.761C143.954 152.451 143.721 152.206 143.422 152.028C143.126 151.85 142.782 151.761 142.388 151.761C141.967 151.761 141.598 151.864 141.28 152.068C140.962 152.269 140.714 152.534 140.536 152.864C140.361 153.189 140.272 153.547 140.268 153.938V155.148C140.268 155.655 140.361 156.091 140.547 156.455C140.732 156.814 140.992 157.091 141.325 157.284C141.659 157.473 142.049 157.568 142.496 157.568C142.795 157.568 143.066 157.527 143.308 157.443C143.551 157.356 143.761 157.229 143.939 157.062C144.117 156.896 144.251 156.689 144.342 156.443L146.263 156.659C146.142 157.167 145.911 157.61 145.57 157.989C145.232 158.364 144.801 158.655 144.274 158.864C143.748 159.068 143.145 159.17 142.467 159.17ZM151.327 159.153C150.641 159.153 150.027 158.977 149.486 158.625C148.944 158.273 148.516 157.761 148.202 157.091C147.887 156.42 147.73 155.606 147.73 154.648C147.73 153.678 147.889 152.86 148.207 152.193C148.529 151.523 148.963 151.017 149.509 150.676C150.054 150.331 150.662 150.159 151.332 150.159C151.844 150.159 152.264 150.246 152.594 150.42C152.923 150.591 153.185 150.797 153.378 151.04C153.571 151.278 153.721 151.504 153.827 151.716H153.912V147.364H155.974V159H153.952V157.625H153.827C153.721 157.837 153.567 158.062 153.366 158.301C153.166 158.536 152.901 158.737 152.571 158.903C152.241 159.07 151.827 159.153 151.327 159.153ZM151.901 157.466C152.336 157.466 152.707 157.348 153.014 157.114C153.321 156.875 153.554 156.544 153.713 156.119C153.872 155.695 153.952 155.201 153.952 154.636C153.952 154.072 153.872 153.581 153.713 153.165C153.558 152.748 153.327 152.424 153.02 152.193C152.717 151.962 152.344 151.847 151.901 151.847C151.442 151.847 151.06 151.966 150.753 152.205C150.446 152.443 150.215 152.773 150.06 153.193C149.904 153.614 149.827 154.095 149.827 154.636C149.827 155.182 149.904 155.669 150.06 156.097C150.219 156.521 150.452 156.856 150.759 157.102C151.069 157.345 151.45 157.466 151.901 157.466ZM158.166 159V150.273H160.223V159H158.166ZM159.2 149.034C158.875 149.034 158.594 148.926 158.359 148.71C158.125 148.491 158.007 148.227 158.007 147.92C158.007 147.61 158.125 147.347 158.359 147.131C158.594 146.911 158.875 146.801 159.2 146.801C159.53 146.801 159.81 146.911 160.041 147.131C160.276 147.347 160.393 147.61 160.393 147.92C160.393 148.227 160.276 148.491 160.041 148.71C159.81 148.926 159.53 149.034 159.2 149.034ZM166.696 150.273V151.864H161.679V150.273H166.696ZM162.918 148.182H164.974V156.375C164.974 156.652 165.016 156.864 165.099 157.011C165.187 157.155 165.3 157.254 165.44 157.307C165.58 157.36 165.736 157.386 165.906 157.386C166.035 157.386 166.152 157.377 166.259 157.358C166.368 157.339 166.452 157.322 166.509 157.307L166.855 158.915C166.745 158.953 166.588 158.994 166.384 159.04C166.183 159.085 165.937 159.112 165.645 159.119C165.13 159.134 164.666 159.057 164.253 158.886C163.84 158.712 163.512 158.443 163.27 158.08C163.031 157.716 162.914 157.261 162.918 156.716V148.182ZM172.129 159.17C171.277 159.17 170.538 158.983 169.913 158.608C169.288 158.233 168.804 157.708 168.459 157.034C168.118 156.36 167.947 155.572 167.947 154.67C167.947 153.769 168.118 152.979 168.459 152.301C168.804 151.623 169.288 151.097 169.913 150.722C170.538 150.347 171.277 150.159 172.129 150.159C172.982 150.159 173.72 150.347 174.345 150.722C174.97 151.097 175.453 151.623 175.794 152.301C176.139 152.979 176.311 153.769 176.311 154.67C176.311 155.572 176.139 156.36 175.794 157.034C175.453 157.708 174.97 158.233 174.345 158.608C173.72 158.983 172.982 159.17 172.129 159.17ZM172.141 157.523C172.603 157.523 172.989 157.396 173.3 157.142C173.61 156.884 173.841 156.54 173.993 156.108C174.148 155.676 174.226 155.195 174.226 154.665C174.226 154.131 174.148 153.648 173.993 153.216C173.841 152.78 173.61 152.434 173.3 152.176C172.989 151.919 172.603 151.79 172.141 151.79C171.667 151.79 171.273 151.919 170.959 152.176C170.648 152.434 170.415 152.78 170.26 153.216C170.108 153.648 170.033 154.131 170.033 154.665C170.033 155.195 170.108 155.676 170.26 156.108C170.415 156.54 170.648 156.884 170.959 157.142C171.273 157.396 171.667 157.523 172.141 157.523ZM178.057 159V150.273H180.051V151.727H180.142C180.301 151.223 180.574 150.835 180.96 150.562C181.35 150.286 181.795 150.148 182.295 150.148C182.409 150.148 182.536 150.153 182.676 150.165C182.82 150.172 182.939 150.186 183.034 150.205V152.097C182.947 152.066 182.809 152.04 182.619 152.017C182.434 151.991 182.254 151.977 182.08 151.977C181.705 151.977 181.367 152.059 181.068 152.222C180.773 152.381 180.54 152.602 180.369 152.886C180.199 153.17 180.114 153.498 180.114 153.869V159H178.057Z" fill="white"/>
<rect x="82" y="48" width="48" height="8" rx="4" fill="url(#paint0_linear_4815_2651)"/>
<rect x="82" y="64" width="48" height="8" rx="4" fill="url(#paint1_linear_4815_2651)"/>
<rect x="82" y="80" width="51" height="8" rx="4" fill="url(#paint2_linear_4815_2651)"/>
<rect x="82" y="96" width="61" height="8" rx="4" fill="url(#paint3_linear_4815_2651)"/>
<rect x="82" y="112" width="48" height="8" rx="4" fill="url(#paint4_linear_4815_2651)"/>
<rect x="138" y="48" width="32" height="8" rx="4" fill="url(#paint5_linear_4815_2651)"/>
<rect x="138" y="64" width="32" height="8" rx="4" fill="url(#paint6_linear_4815_2651)"/>
<rect x="141" y="80" width="34" height="8" rx="4" fill="url(#paint7_linear_4815_2651)"/>
<rect x="153" y="96" width="41" height="8" rx="4" fill="url(#paint8_linear_4815_2651)"/>
<rect x="138" y="112" width="32" height="8" rx="4" fill="url(#paint9_linear_4815_2651)"/>
<circle cx="84" cy="40" r="2" fill="white"/>
<circle cx="91" cy="40" r="2" fill="white"/>
<circle cx="99" cy="40" r="2" fill="white"/>
<rect x="73.5" y="32.5" width="129" height="95" rx="7.5" stroke="white"/>
<defs>
<linearGradient id="paint0_linear_4815_2651" x1="106" y1="48" x2="106" y2="56" gradientUnits="userSpaceOnUse">
<stop stop-color="#EEFFBE"/>
<stop offset="1" stop-color="#92D8FF" stop-opacity="0"/>
</linearGradient>
<linearGradient id="paint1_linear_4815_2651" x1="106" y1="64" x2="106" y2="72" gradientUnits="userSpaceOnUse">
<stop stop-color="#EEFFBE"/>
<stop offset="1" stop-color="#92D8FF" stop-opacity="0"/>
</linearGradient>
<linearGradient id="paint2_linear_4815_2651" x1="107.5" y1="80" x2="107.5" y2="88" gradientUnits="userSpaceOnUse">
<stop stop-color="#EEFFBE"/>
<stop offset="1" stop-color="#92D8FF" stop-opacity="0"/>
</linearGradient>
<linearGradient id="paint3_linear_4815_2651" x1="112.5" y1="96" x2="112.5" y2="104" gradientUnits="userSpaceOnUse">
<stop stop-color="#EEFFBE"/>
<stop offset="1" stop-color="#92D8FF" stop-opacity="0"/>
</linearGradient>
<linearGradient id="paint4_linear_4815_2651" x1="106" y1="112" x2="106" y2="120" gradientUnits="userSpaceOnUse">
<stop stop-color="#EEFFBE"/>
<stop offset="1" stop-color="#92D8FF" stop-opacity="0"/>
</linearGradient>
<linearGradient id="paint5_linear_4815_2651" x1="154" y1="48" x2="154" y2="56" gradientUnits="userSpaceOnUse">
<stop stop-color="#EEFFBE"/>
<stop offset="1" stop-color="#92D8FF" stop-opacity="0"/>
</linearGradient>
<linearGradient id="paint6_linear_4815_2651" x1="154" y1="64" x2="154" y2="72" gradientUnits="userSpaceOnUse">
<stop stop-color="#EEFFBE"/>
<stop offset="1" stop-color="#92D8FF" stop-opacity="0"/>
</linearGradient>
<linearGradient id="paint7_linear_4815_2651" x1="158" y1="80" x2="158" y2="88" gradientUnits="userSpaceOnUse">
<stop stop-color="#EEFFBE"/>
<stop offset="1" stop-color="#92D8FF" stop-opacity="0"/>
</linearGradient>
<linearGradient id="paint8_linear_4815_2651" x1="173.5" y1="96" x2="173.5" y2="104" gradientUnits="userSpaceOnUse">
<stop stop-color="#EEFFBE"/>
<stop offset="1" stop-color="#92D8FF" stop-opacity="0"/>
</linearGradient>
<linearGradient id="paint9_linear_4815_2651" x1="154" y1="112" x2="154" y2="120" gradientUnits="userSpaceOnUse">
<stop stop-color="#EEFFBE"/>
<stop offset="1" stop-color="#92D8FF" stop-opacity="0"/>
</linearGradient>
</defs>
</svg>
