<svg width="276" height="188" viewBox="0 0 276 188" fill="none" xmlns="http://www.w3.org/2000/svg">
<g clip-path="url(#clip0_4824_2672)">
<rect width="276" height="188" rx="16" fill="#5A51D8"/>
<path d="M37.0909 38H33.1477V26.3636H37.1705C38.3258 26.3636 39.3182 26.5966 40.1477 27.0625C40.9811 27.5246 41.6212 28.1894 42.0682 29.0568C42.5152 29.9242 42.7386 30.9621 42.7386 32.1705C42.7386 33.3826 42.5133 34.4242 42.0625 35.2955C41.6155 36.1667 40.9697 36.8352 40.125 37.3011C39.2841 37.767 38.2727 38 37.0909 38ZM35.2557 36.1761H36.9886C37.7992 36.1761 38.4754 36.0284 39.017 35.733C39.5587 35.4337 39.9659 34.9886 40.2386 34.3977C40.5114 33.803 40.6477 33.0606 40.6477 32.1705C40.6477 31.2803 40.5114 30.5417 40.2386 29.9545C39.9659 29.3636 39.5625 28.9223 39.0284 28.6307C38.4981 28.3352 37.839 28.1875 37.0511 28.1875H35.2557V36.1761ZM47.1619 38.1761C46.6089 38.1761 46.1108 38.0777 45.6676 37.8807C45.2282 37.6799 44.8797 37.3845 44.6222 36.9943C44.3684 36.6042 44.2415 36.1231 44.2415 35.5511C44.2415 35.0587 44.3324 34.6515 44.5142 34.3295C44.696 34.0076 44.9441 33.75 45.2585 33.5568C45.5729 33.3636 45.9271 33.2178 46.321 33.1193C46.7188 33.017 47.1297 32.9432 47.554 32.8977C48.0653 32.8447 48.4801 32.7973 48.7983 32.7557C49.1165 32.7102 49.3475 32.642 49.4915 32.5511C49.6392 32.4564 49.7131 32.3106 49.7131 32.1136V32.0795C49.7131 31.6515 49.5862 31.3201 49.3324 31.0852C49.0786 30.8504 48.7131 30.733 48.2358 30.733C47.732 30.733 47.3324 30.8428 47.0369 31.0625C46.7453 31.2822 46.5483 31.5417 46.446 31.8409L44.5256 31.5682C44.6771 31.0379 44.9271 30.5947 45.2756 30.2386C45.6241 29.8788 46.0502 29.6098 46.554 29.4318C47.0578 29.25 47.6146 29.1591 48.2244 29.1591C48.6449 29.1591 49.0634 29.2083 49.4801 29.3068C49.8968 29.4053 50.2775 29.5682 50.6222 29.7955C50.9669 30.0189 51.2434 30.3239 51.4517 30.7102C51.6638 31.0966 51.7699 31.5795 51.7699 32.1591V38H49.7926V36.8011H49.7244C49.5994 37.0436 49.4233 37.2708 49.196 37.483C48.9725 37.6913 48.6903 37.8598 48.3494 37.9886C48.0123 38.1136 47.6165 38.1761 47.1619 38.1761ZM47.696 36.6648C48.1089 36.6648 48.4669 36.5833 48.7699 36.4205C49.0729 36.2538 49.3059 36.0341 49.4688 35.7614C49.6354 35.4886 49.7188 35.1913 49.7188 34.8693V33.8409C49.6544 33.8939 49.5445 33.9432 49.3892 33.9886C49.2377 34.0341 49.0672 34.0739 48.8778 34.108C48.6884 34.142 48.5009 34.1723 48.3153 34.1989C48.1297 34.2254 47.9688 34.2481 47.8324 34.267C47.5256 34.3087 47.2509 34.3769 47.0085 34.4716C46.7661 34.5663 46.5748 34.6989 46.4347 34.8693C46.2945 35.036 46.2244 35.2519 46.2244 35.517C46.2244 35.8958 46.3627 36.1818 46.6392 36.375C46.9157 36.5682 47.268 36.6648 47.696 36.6648ZM60.7358 31.5795L58.8608 31.7841C58.8078 31.5947 58.715 31.4167 58.5824 31.25C58.4536 31.0833 58.2794 30.9489 58.0597 30.8466C57.84 30.7443 57.571 30.6932 57.2528 30.6932C56.8248 30.6932 56.465 30.786 56.1733 30.9716C55.8854 31.1572 55.7434 31.3977 55.7472 31.6932C55.7434 31.947 55.8362 32.1534 56.0256 32.3125C56.2188 32.4716 56.5369 32.6023 56.9801 32.7045L58.4688 33.0227C59.2945 33.2008 59.9081 33.483 60.3097 33.8693C60.715 34.2557 60.9195 34.7614 60.9233 35.3864C60.9195 35.9356 60.7585 36.4205 60.4403 36.8409C60.1259 37.2576 59.6884 37.5833 59.1278 37.8182C58.5672 38.053 57.9233 38.1705 57.196 38.1705C56.1278 38.1705 55.268 37.947 54.6165 37.5C53.965 37.0492 53.5767 36.4223 53.4517 35.6193L55.4574 35.4261C55.5483 35.8201 55.7415 36.1174 56.0369 36.3182C56.3324 36.5189 56.7169 36.6193 57.1903 36.6193C57.679 36.6193 58.071 36.5189 58.3665 36.3182C58.6657 36.1174 58.8153 35.8693 58.8153 35.5739C58.8153 35.3239 58.7188 35.1174 58.5256 34.9545C58.3362 34.7917 58.0407 34.6667 57.6392 34.5795L56.1506 34.267C55.3134 34.0928 54.6941 33.7992 54.2926 33.3864C53.8911 32.9697 53.6922 32.4432 53.696 31.8068C53.6922 31.2689 53.8381 30.803 54.1335 30.4091C54.4328 30.0114 54.8475 29.7045 55.3778 29.4886C55.9119 29.2689 56.5275 29.1591 57.2244 29.1591C58.2472 29.1591 59.0521 29.3769 59.6392 29.8125C60.2301 30.2481 60.5956 30.8371 60.7358 31.5795ZM64.6761 32.8864V38H62.6193V26.3636H64.6307V30.7557H64.733C64.9375 30.2633 65.2538 29.875 65.6818 29.5909C66.1136 29.303 66.6629 29.1591 67.3295 29.1591C67.9356 29.1591 68.464 29.286 68.9148 29.5398C69.3655 29.7936 69.714 30.1648 69.9602 30.6534C70.2102 31.142 70.3352 31.7386 70.3352 32.4432V38H68.2784V32.7614C68.2784 32.1742 68.1269 31.7178 67.8239 31.392C67.5246 31.0625 67.1042 30.8977 66.5625 30.8977C66.1989 30.8977 65.8731 30.9773 65.5852 31.1364C65.3011 31.2917 65.0777 31.517 64.9148 31.8125C64.7557 32.108 64.6761 32.4659 64.6761 32.8864ZM72.5227 38V26.3636H74.5795V30.7159H74.6648C74.7708 30.5038 74.9205 30.2784 75.1136 30.0398C75.3068 29.7973 75.5682 29.5909 75.8977 29.4205C76.2273 29.2462 76.6477 29.1591 77.1591 29.1591C77.8333 29.1591 78.4413 29.3314 78.983 29.6761C79.5284 30.017 79.9602 30.5227 80.2784 31.1932C80.6004 31.8598 80.7614 32.678 80.7614 33.6477C80.7614 34.6061 80.6042 35.4205 80.2898 36.0909C79.9754 36.7614 79.5473 37.2727 79.0057 37.625C78.464 37.9773 77.8504 38.1534 77.1648 38.1534C76.6648 38.1534 76.25 38.0701 75.9205 37.9034C75.5909 37.7367 75.3258 37.536 75.125 37.3011C74.928 37.0625 74.7746 36.8371 74.6648 36.625H74.5455V38H72.5227ZM74.5398 33.6364C74.5398 34.2008 74.6193 34.6951 74.7784 35.1193C74.9413 35.5436 75.1742 35.875 75.4773 36.1136C75.7841 36.3485 76.1553 36.4659 76.5909 36.4659C77.0455 36.4659 77.4261 36.3447 77.733 36.1023C78.0398 35.8561 78.2708 35.5208 78.4261 35.0966C78.5852 34.6686 78.6648 34.1818 78.6648 33.6364C78.6648 33.0947 78.5871 32.6136 78.4318 32.1932C78.2765 31.7727 78.0455 31.4432 77.7386 31.2045C77.4318 30.9659 77.0492 30.8466 76.5909 30.8466C76.1515 30.8466 75.7784 30.9621 75.4716 31.1932C75.1648 31.4242 74.9318 31.7481 74.7727 32.1648C74.6174 32.5814 74.5398 33.072 74.5398 33.6364ZM86.3168 38.1705C85.4645 38.1705 84.7259 37.983 84.1009 37.608C83.4759 37.233 82.991 36.7083 82.6463 36.0341C82.3054 35.3598 82.1349 34.572 82.1349 33.6705C82.1349 32.7689 82.3054 31.9792 82.6463 31.3011C82.991 30.6231 83.4759 30.0966 84.1009 29.7216C84.7259 29.3466 85.4645 29.1591 86.3168 29.1591C87.169 29.1591 87.9077 29.3466 88.5327 29.7216C89.1577 30.0966 89.6406 30.6231 89.9815 31.3011C90.3262 31.9792 90.4986 32.7689 90.4986 33.6705C90.4986 34.572 90.3262 35.3598 89.9815 36.0341C89.6406 36.7083 89.1577 37.233 88.5327 37.608C87.9077 37.983 87.169 38.1705 86.3168 38.1705ZM86.3281 36.5227C86.7902 36.5227 87.1766 36.3958 87.4872 36.142C87.7978 35.8845 88.0289 35.5398 88.1804 35.108C88.3357 34.6761 88.4134 34.1951 88.4134 33.6648C88.4134 33.1307 88.3357 32.6477 88.1804 32.2159C88.0289 31.7803 87.7978 31.4337 87.4872 31.1761C87.1766 30.9186 86.7902 30.7898 86.3281 30.7898C85.8546 30.7898 85.4607 30.9186 85.1463 31.1761C84.8357 31.4337 84.6027 31.7803 84.4474 32.2159C84.2959 32.6477 84.2202 33.1307 84.2202 33.6648C84.2202 34.1951 84.2959 34.6761 84.4474 35.108C84.6027 35.5398 84.8357 35.8845 85.1463 36.142C85.4607 36.3958 85.8546 36.5227 86.3281 36.5227ZM94.7557 38.1761C94.2027 38.1761 93.7045 38.0777 93.2614 37.8807C92.822 37.6799 92.4735 37.3845 92.2159 36.9943C91.9621 36.6042 91.8352 36.1231 91.8352 35.5511C91.8352 35.0587 91.9261 34.6515 92.108 34.3295C92.2898 34.0076 92.5379 33.75 92.8523 33.5568C93.1667 33.3636 93.5208 33.2178 93.9148 33.1193C94.3125 33.017 94.7235 32.9432 95.1477 32.8977C95.6591 32.8447 96.0739 32.7973 96.392 32.7557C96.7102 32.7102 96.9413 32.642 97.0852 32.5511C97.233 32.4564 97.3068 32.3106 97.3068 32.1136V32.0795C97.3068 31.6515 97.1799 31.3201 96.9261 31.0852C96.6723 30.8504 96.3068 30.733 95.8295 30.733C95.3258 30.733 94.9261 30.8428 94.6307 31.0625C94.339 31.2822 94.142 31.5417 94.0398 31.8409L92.1193 31.5682C92.2708 31.0379 92.5208 30.5947 92.8693 30.2386C93.2178 29.8788 93.6439 29.6098 94.1477 29.4318C94.6515 29.25 95.2083 29.1591 95.8182 29.1591C96.2386 29.1591 96.6572 29.2083 97.0739 29.3068C97.4905 29.4053 97.8712 29.5682 98.2159 29.7955C98.5606 30.0189 98.8371 30.3239 99.0455 30.7102C99.2576 31.0966 99.3636 31.5795 99.3636 32.1591V38H97.3864V36.8011H97.3182C97.1932 37.0436 97.017 37.2708 96.7898 37.483C96.5663 37.6913 96.2841 37.8598 95.9432 37.9886C95.6061 38.1136 95.2102 38.1761 94.7557 38.1761ZM95.2898 36.6648C95.7027 36.6648 96.0606 36.5833 96.3636 36.4205C96.6667 36.2538 96.8996 36.0341 97.0625 35.7614C97.2292 35.4886 97.3125 35.1913 97.3125 34.8693V33.8409C97.2481 33.8939 97.1383 33.9432 96.983 33.9886C96.8314 34.0341 96.661 34.0739 96.4716 34.108C96.2822 34.142 96.0947 34.1723 95.9091 34.1989C95.7235 34.2254 95.5625 34.2481 95.4261 34.267C95.1193 34.3087 94.8447 34.3769 94.6023 34.4716C94.3598 34.5663 94.1686 34.6989 94.0284 34.8693C93.8883 35.036 93.8182 35.2519 93.8182 35.517C93.8182 35.8958 93.9564 36.1818 94.233 36.375C94.5095 36.5682 94.8617 36.6648 95.2898 36.6648ZM101.432 38V29.2727H103.426V30.7273H103.517C103.676 30.2235 103.949 29.8352 104.335 29.5625C104.725 29.286 105.17 29.1477 105.67 29.1477C105.784 29.1477 105.911 29.1534 106.051 29.1648C106.195 29.1723 106.314 29.1856 106.409 29.2045V31.0966C106.322 31.0663 106.184 31.0398 105.994 31.017C105.809 30.9905 105.629 30.9773 105.455 30.9773C105.08 30.9773 104.742 31.0587 104.443 31.2216C104.148 31.3807 103.915 31.6023 103.744 31.8864C103.574 32.1705 103.489 32.4981 103.489 32.8693V38H101.432ZM110.655 38.1534C109.969 38.1534 109.356 37.9773 108.814 37.625C108.272 37.2727 107.844 36.7614 107.53 36.0909C107.215 35.4205 107.058 34.6061 107.058 33.6477C107.058 32.678 107.217 31.8598 107.536 31.1932C107.857 30.5227 108.291 30.017 108.837 29.6761C109.382 29.3314 109.99 29.1591 110.661 29.1591C111.172 29.1591 111.592 29.2462 111.922 29.4205C112.251 29.5909 112.513 29.7973 112.706 30.0398C112.899 30.2784 113.049 30.5038 113.155 30.7159H113.24V26.3636H115.303V38H113.28V36.625H113.155C113.049 36.8371 112.895 37.0625 112.695 37.3011C112.494 37.536 112.229 37.7367 111.899 37.9034C111.57 38.0701 111.155 38.1534 110.655 38.1534ZM111.229 36.4659C111.664 36.4659 112.036 36.3485 112.342 36.1136C112.649 35.875 112.882 35.5436 113.041 35.1193C113.2 34.6951 113.28 34.2008 113.28 33.6364C113.28 33.072 113.2 32.5814 113.041 32.1648C112.886 31.7481 112.655 31.4242 112.348 31.1932C112.045 30.9621 111.672 30.8466 111.229 30.8466C110.77 30.8466 110.388 30.9659 110.081 31.2045C109.774 31.4432 109.543 31.7727 109.388 32.1932C109.232 32.6136 109.155 33.0947 109.155 33.6364C109.155 34.1818 109.232 34.6686 109.388 35.0966C109.547 35.5208 109.78 35.8561 110.087 36.1023C110.397 36.3447 110.778 36.4659 111.229 36.4659Z" fill="white"/>
<path d="M32 64C32 59.5817 35.5817 56 40 56H276V213H32V64Z" fill="white"/>
<rect x="49" y="76" width="60" height="16" rx="8" fill="#F2F3F5"/>
<rect x="123" y="76" width="60" height="16" rx="8" fill="#F2F3F5"/>
<rect x="197" y="76" width="60" height="16" rx="8" fill="#F2F3F5"/>
<rect x="197" y="102" width="60" height="74" rx="8" fill="#F2F3F5"/>
<rect x="49" y="102" width="134" height="74" rx="8" fill="#F2F3F5"/>
</g>
<rect x="0.5" y="0.5" width="275" height="187" rx="15.5" stroke="#E5E6EB"/>
<defs>
<clipPath id="clip0_4824_2672">
<rect width="276" height="188" rx="16" fill="white"/>
</clipPath>
</defs>
</svg>
