<svg width="276" height="188" viewBox="0 0 276 188" fill="none" xmlns="http://www.w3.org/2000/svg">
<g clip-path="url(#clip0_4824_2690)">
<rect width="276" height="188" rx="16" fill="#0E5FD9"/>
<path d="M39.4716 29.5625C39.4186 29.0663 39.1951 28.6799 38.8011 28.4034C38.411 28.1269 37.9034 27.9886 37.2784 27.9886C36.839 27.9886 36.4621 28.0549 36.1477 28.1875C35.8333 28.3201 35.5928 28.5 35.4261 28.7273C35.2595 28.9545 35.1742 29.214 35.1705 29.5057C35.1705 29.7481 35.2254 29.9583 35.3352 30.1364C35.4489 30.3144 35.6023 30.4659 35.7955 30.5909C35.9886 30.7121 36.2027 30.8144 36.4375 30.8977C36.6723 30.9811 36.9091 31.0511 37.1477 31.108L38.2386 31.3807C38.678 31.483 39.1004 31.6212 39.5057 31.7955C39.9148 31.9697 40.2803 32.1894 40.6023 32.4545C40.928 32.7197 41.1856 33.0398 41.375 33.4148C41.5644 33.7898 41.6591 34.2292 41.6591 34.733C41.6591 35.4148 41.4848 36.0152 41.1364 36.5341C40.7879 37.0492 40.2841 37.4527 39.625 37.7443C38.9697 38.0322 38.1761 38.1761 37.2443 38.1761C36.339 38.1761 35.553 38.036 34.8864 37.7557C34.2235 37.4754 33.7045 37.0663 33.3295 36.5284C32.9583 35.9905 32.7576 35.3352 32.7273 34.5625H34.8011C34.8314 34.9678 34.9564 35.3049 35.1761 35.5739C35.3958 35.8428 35.6818 36.0436 36.0341 36.1761C36.3902 36.3087 36.7879 36.375 37.2273 36.375C37.6856 36.375 38.0871 36.3068 38.4318 36.1705C38.7803 36.0303 39.053 35.8371 39.25 35.5909C39.447 35.3409 39.5473 35.0492 39.5511 34.7159C39.5473 34.4129 39.4583 34.1629 39.2841 33.9659C39.1098 33.7652 38.8655 33.5985 38.5511 33.4659C38.2405 33.3295 37.8769 33.2083 37.4602 33.1023L36.1364 32.7614C35.178 32.5152 34.4205 32.142 33.8636 31.642C33.3106 31.1383 33.0341 30.4697 33.0341 29.6364C33.0341 28.9508 33.2197 28.3504 33.5909 27.8352C33.9659 27.3201 34.4754 26.9205 35.1193 26.6364C35.7633 26.3485 36.4924 26.2045 37.3068 26.2045C38.1326 26.2045 38.8561 26.3485 39.4773 26.6364C40.1023 26.9205 40.5928 27.3163 40.9489 27.8239C41.3049 28.3277 41.4886 28.9072 41.5 29.5625H39.4716ZM49.0099 34.3295V29.2727H51.0668V38H49.0724V36.4489H48.9815C48.7846 36.9375 48.4607 37.3371 48.0099 37.6477C47.563 37.9583 47.0118 38.1136 46.3565 38.1136C45.7846 38.1136 45.2789 37.9867 44.8395 37.733C44.4039 37.4754 44.063 37.1023 43.8168 36.6136C43.5705 36.1212 43.4474 35.5265 43.4474 34.8295V29.2727H45.5043V34.5114C45.5043 35.0644 45.6558 35.5038 45.9588 35.8295C46.2618 36.1553 46.6596 36.3182 47.152 36.3182C47.455 36.3182 47.7486 36.2443 48.0327 36.0966C48.3168 35.9489 48.5497 35.7292 48.7315 35.4375C48.9171 35.142 49.0099 34.7727 49.0099 34.3295ZM53.1818 38V29.2727H55.1761V30.7273H55.267C55.4261 30.2235 55.6989 29.8352 56.0852 29.5625C56.4754 29.286 56.9205 29.1477 57.4205 29.1477C57.5341 29.1477 57.661 29.1534 57.8011 29.1648C57.9451 29.1723 58.0644 29.1856 58.1591 29.2045V31.0966C58.072 31.0663 57.9337 31.0398 57.7443 31.017C57.5587 30.9905 57.3788 30.9773 57.2045 30.9773C56.8295 30.9773 56.4924 31.0587 56.1932 31.2216C55.8977 31.3807 55.6648 31.6023 55.4943 31.8864C55.3239 32.1705 55.2386 32.4981 55.2386 32.8693V38H53.1818ZM67.5866 29.2727L64.4787 38H62.206L59.098 29.2727H61.2912L63.2969 35.7557H63.3878L65.3991 29.2727H67.5866ZM72.5767 38.1705C71.7017 38.1705 70.946 37.9886 70.3097 37.625C69.6771 37.2576 69.1903 36.7386 68.8494 36.0682C68.5085 35.3939 68.3381 34.6004 68.3381 33.6875C68.3381 32.7898 68.5085 32.0019 68.8494 31.3239C69.1941 30.642 69.6752 30.1117 70.2926 29.733C70.91 29.3504 71.6354 29.1591 72.4688 29.1591C73.0066 29.1591 73.5142 29.2462 73.9915 29.4205C74.4725 29.5909 74.8968 29.8561 75.2642 30.2159C75.6354 30.5758 75.9271 31.0341 76.1392 31.5909C76.3513 32.1439 76.4574 32.803 76.4574 33.5682V34.1989H69.304V32.8125H74.4858C74.482 32.4186 74.3968 32.0682 74.2301 31.7614C74.0634 31.4508 73.8305 31.2064 73.5312 31.0284C73.2358 30.8504 72.8911 30.7614 72.4972 30.7614C72.0767 30.7614 71.7074 30.8636 71.3892 31.0682C71.071 31.2689 70.8229 31.5341 70.6449 31.8636C70.4706 32.1894 70.3816 32.5473 70.3778 32.9375V34.1477C70.3778 34.6553 70.4706 35.0909 70.6562 35.4545C70.8419 35.8144 71.1013 36.0909 71.4347 36.2841C71.768 36.4735 72.1581 36.5682 72.6051 36.5682C72.9044 36.5682 73.1752 36.5265 73.4176 36.4432C73.66 36.3561 73.8703 36.2292 74.0483 36.0625C74.2263 35.8958 74.3608 35.6894 74.4517 35.4432L76.3722 35.6591C76.2509 36.1667 76.0199 36.6098 75.679 36.9886C75.3419 37.3636 74.91 37.6553 74.3835 37.8636C73.857 38.0682 73.2547 38.1705 72.5767 38.1705ZM79.2259 41.2727C78.9455 41.2727 78.6861 41.25 78.4474 41.2045C78.2126 41.1629 78.0251 41.1136 77.8849 41.0568L78.3622 39.4545C78.6615 39.5417 78.9285 39.5833 79.1634 39.5795C79.3982 39.5758 79.6046 39.5019 79.7827 39.358C79.9645 39.2178 80.1179 38.983 80.2429 38.6534L80.419 38.1818L77.2543 29.2727H79.4361L81.4474 35.8636H81.5384L83.5554 29.2727H85.7429L82.2486 39.0568C82.0857 39.5189 81.8698 39.9148 81.6009 40.2443C81.3319 40.5777 81.0024 40.8314 80.6122 41.0057C80.2259 41.1837 79.7637 41.2727 79.2259 41.2727Z" fill="white"/>
<path d="M32 64C32 59.5817 35.5817 56 40 56H276V213H32V64Z" fill="white"/>
<rect x="49" y="76" width="60" height="16" rx="8" fill="#F2F3F5"/>
<rect x="49" y="102" width="208" height="16" rx="8" fill="#F2F3F5"/>
<rect x="49" y="128" width="208" height="16" rx="8" fill="#F2F3F5"/>
<rect x="49" y="154" width="208" height="16" rx="8" fill="#F2F3F5"/>
<rect x="123" y="76" width="60" height="16" rx="8" fill="#F2F3F5"/>
<rect x="197" y="76" width="60" height="16" rx="8" fill="#F2F3F5"/>
</g>
<rect x="0.5" y="0.5" width="275" height="187" rx="15.5" stroke="#E5E6EB"/>
<defs>
<clipPath id="clip0_4824_2690">
<rect width="276" height="188" rx="16" fill="white"/>
</clipPath>
</defs>
</svg>
