<svg width="39" height="40" viewBox="0 0 39 40" fill="none" xmlns="http://www.w3.org/2000/svg">
<path d="M14.0364 3.32962C16.3827 0.98332 20.8798 1.37437 22.835 1.86318C27.7231 0.39672 37.4994 -0.189904 37.4994 9.19527C37.4994 15.6637 34.8244 17.674 32.4244 19.8965C31.6721 22.1952 37.4994 23.7073 37.4994 25.3262C37.4994 26.9449 33.8821 29.7254 28.6859 29.7254C28.5216 37.3867 26.9801 39.9904 22.835 39.9904C19.3156 39.9904 18.4357 36.5687 18.4357 34.1247C18.4357 33.4874 18.336 32.6734 18.1886 31.8184H12.8559C10.5096 31.8184 10.4119 29.2652 9.92307 28.2589C8.95669 28.5877 6.76114 29.7254 5.52376 28.8857C1.68657 26.2819 -0.627883 6.26239 2.30498 3.32962C4.65126 0.983382 11.1036 2.35202 14.0364 3.32962Z" fill="#3D6288"/>
<path d="M22.835 1.86318C20.8798 1.37437 16.3827 0.98332 14.0364 3.32962M22.835 1.86318L14.0364 3.32962M22.835 1.86318C27.7231 0.39672 37.4994 -0.189904 37.4994 9.19527C37.4994 15.6637 34.8244 17.674 32.4244 19.8965M22.835 1.86318L32.4244 19.8965M22.835 1.86318C24.8029 3.43744 28.5451 6.84962 30.5411 9.95654M22.835 1.86318L30.5411 9.95654M14.0364 3.32962C11.1036 2.35202 4.65126 0.983382 2.30498 3.32962C-0.627883 6.26239 1.68657 26.2819 5.52376 28.8857C6.76114 29.7254 8.95669 28.5877 9.92306 28.2589M14.0364 3.32962L9.92306 28.2589M14.0364 3.32962C13.3483 5.04992 12.1758 8.56237 11.5418 12.1282M14.0364 3.32962L11.5418 12.1282M32.4244 19.8965C31.6721 22.1952 37.4994 23.7073 37.4994 25.3262C37.4994 26.9449 33.8821 29.7254 28.6859 29.7254M32.4244 19.8965L28.6859 29.7254M32.4244 19.8965C31.1479 21.0787 29.9489 22.321 29.2716 24.3262M32.4244 19.8965L29.2716 24.3262M30.5411 9.95654C31.0244 10.7084 31.4051 11.4424 31.6336 12.1282C32.8069 15.6476 28.7006 23.8597 28.7006 28.2589M30.5411 9.95654L28.7006 28.2589M30.5411 9.95654C28.9501 9.70279 25.4746 9.78189 24.3015 12.1282C23.1283 14.4745 27.1261 21.2378 29.2716 24.3262M30.5411 9.95654L29.2716 24.3262M9.92306 28.2589C11.1036 27.4192 13.3268 25.3042 14.0364 23.7073M9.92306 28.2589L14.0364 23.7073M9.92306 28.2589C10.4119 29.2652 10.5096 31.8184 12.8559 31.8184C15.7888 31.8184 17.3887 31.8184 18.1886 31.8184M11.5418 12.1282C11.275 13.6283 11.1036 15.1379 11.1036 16.5275C11.1036 21.2201 13.0588 22.7297 14.0364 23.7073M11.5418 12.1282L14.0364 23.7073M11.5418 12.1282C12.8621 11.6394 15.7962 10.955 16.9693 12.1282C18.4357 13.5946 19.3632 17.6054 18.4357 19.4604C16.9693 22.3932 17.2075 23.849 16.5934 26.1194M11.5418 12.1282L16.5934 26.1194M14.0364 23.7073C15.0503 24.2143 16.0641 25.4222 16.5934 26.1194M14.0364 23.7073L16.5934 26.1194M16.5934 26.1194C16.6507 26.1949 16.7024 26.2647 16.7477 26.3267C16.898 26.5322 17.0055 26.7642 17.0736 27.0094C17.3043 27.8399 17.8629 29.9297 18.1886 31.8184M16.5934 26.1194L18.1886 31.8184M28.7006 28.2589C28.7006 28.7672 28.6959 29.2557 28.6859 29.7254M28.7006 28.2589L28.6859 29.7254M28.7006 28.2589C28.7006 26.6644 28.9131 25.3884 29.2716 24.3262M28.7006 28.2589L29.2716 24.3262M28.6859 29.7254C28.5216 37.3867 26.9801 39.9904 22.835 39.9904C19.3156 39.9904 18.4357 36.5687 18.4357 34.1247C18.4357 33.4874 18.336 32.6734 18.1886 31.8184M28.6859 29.7254L18.1886 31.8184" stroke="white" stroke-width="1.75" stroke-linecap="round" stroke-linejoin="round"/>
</svg>
