<svg width="40" height="40" viewBox="0 0 40 40" fill="none" xmlns="http://www.w3.org/2000/svg">
<g clip-path="url(#clip0_4493_8908)">
<path d="M36.8196 30.6581C34.6449 30.6038 32.9594 30.8214 31.5458 31.4194C31.138 31.5824 30.4855 31.5826 30.4311 32.099C30.6487 32.3166 30.6758 32.67 30.8662 32.9689C31.1926 33.5124 31.7632 34.2466 32.2798 34.6273C32.8506 35.0621 33.4216 35.497 34.0195 35.8777C35.0798 36.5302 36.2759 36.9107 37.3089 37.5631C37.9072 37.9434 38.5049 38.4331 39.103 38.8408C39.4022 39.0581 39.5923 39.4116 39.973 39.5476V39.4661C39.7826 39.2213 39.7282 38.868 39.5381 38.5961C39.2664 38.3243 38.9944 38.0795 38.7225 37.8077C37.9341 36.7476 36.9556 35.8233 35.8953 35.0621C35.0255 34.4641 33.1225 33.6485 32.7691 32.6427C32.7691 32.6427 32.7418 32.6155 32.7147 32.5884C33.3128 32.534 34.0195 32.3166 34.5905 32.1534C35.5148 31.9087 36.3575 31.9631 37.3089 31.7185C37.7438 31.6097 38.1789 31.4738 38.6137 31.3378V31.0933C38.1246 30.6038 37.7711 29.9515 37.2545 29.4893C35.8682 28.293 34.3457 27.1243 32.7691 26.1457C31.9263 25.602 30.8389 25.2485 29.9418 24.7865C29.6158 24.6231 29.0719 24.5417 28.8818 24.2699C28.3923 23.6718 28.1205 22.8836 27.7671 22.1767C26.979 20.6813 26.2175 19.0233 25.5379 17.4467C25.0488 16.3864 24.7497 15.3261 24.1516 14.3476C21.3517 9.72624 18.307 6.92627 13.6312 4.18054C12.6253 3.60974 11.4293 3.36501 10.1516 3.06605C9.4722 3.03876 8.79241 2.98453 8.1128 2.95724C7.67792 2.76692 7.24286 2.25052 6.86221 2.00579C5.31301 1.02705 1.31669 -1.09314 0.174915 1.70683C-0.5591 3.47382 1.26229 5.21351 1.88749 6.11073C2.34983 6.73594 2.94775 7.44266 3.274 8.14957C3.46433 8.61139 3.51856 9.10102 3.70888 9.59031C4.14394 10.7861 4.55153 12.1184 5.12251 13.2331C5.42164 13.8039 5.74771 14.402 6.12836 14.9184C6.3458 15.2173 6.72628 15.3534 6.80797 15.8427C6.4275 16.3864 6.40021 17.2019 6.18259 17.8816C5.20402 20.9534 5.58467 24.7592 6.97101 27.0155C7.40589 27.6949 8.43903 29.1904 9.82538 28.6194C11.0487 28.1301 10.7768 26.5806 11.1302 25.2213C11.2119 24.8949 11.1575 24.6777 11.3205 24.4602C11.3207 24.4873 11.3205 24.5146 11.3205 24.5146C11.7012 25.2757 12.0817 26.0098 12.435 26.7709C13.2778 28.1028 14.7457 29.4893 15.969 30.4137C16.6217 30.9028 17.1381 31.7456 17.9536 32.0447V31.963H17.8992C17.736 31.7183 17.4914 31.6097 17.274 31.4194C16.7847 30.9301 16.2408 30.332 15.8603 29.7883C14.7187 28.2659 13.7127 26.5806 12.8157 24.8407C12.3808 23.9981 12.0001 23.0737 11.6468 22.2311C11.4836 21.9046 11.4836 21.4155 11.2117 21.2525C10.8039 21.8504 10.206 22.367 9.9069 23.101C9.39067 24.2699 9.33609 25.7106 9.14577 27.2058C9.03713 27.2331 9.09136 27.2058 9.03696 27.2602C8.1672 27.0426 7.86807 26.1457 7.54181 25.3844C6.72628 23.4544 6.59036 20.3553 7.29726 18.1263C7.48758 17.5553 8.30311 15.7612 7.97687 15.2175C7.81383 14.7009 7.26997 14.402 6.97101 13.9942C6.61764 13.4776 6.23699 12.8253 5.99244 12.2544C5.33994 10.7321 5.0137 9.04663 4.30697 7.52419C3.98073 6.81729 3.40992 6.08345 2.94775 5.43113C2.43135 4.69711 1.86038 4.18054 1.4526 3.3106C1.31685 3.01164 1.12636 2.52236 1.3438 2.19611C1.3982 1.97867 1.50684 1.89715 1.72445 1.84275C2.07781 1.54361 3.08367 1.92426 3.43702 2.0873C4.44288 2.49489 5.28553 2.87572 6.12835 3.44652C6.50883 3.71837 6.9166 4.23494 7.40588 4.37086H7.97686C8.84679 4.56102 9.82536 4.42526 10.6409 4.66982C12.0818 5.13182 13.3864 5.8116 14.5555 6.54562C18.1168 8.80188 21.0525 12.0098 23.0371 15.8427C23.3634 16.4678 23.4991 17.0389 23.7982 17.6912C24.3692 19.0233 25.0759 20.3826 25.6467 21.6874C26.2175 22.9649 26.7612 24.2699 27.5768 25.3302C27.9847 25.9008 29.6156 26.1999 30.3496 26.4991C30.8933 26.7436 31.7361 26.9612 32.2254 27.2602C33.1496 27.8308 34.0739 28.4835 34.9438 29.1087C35.3789 29.4348 36.7379 30.1146 36.8196 30.6581L36.8196 30.6581Z" fill="#00546B"/>
<path d="M9.09154 7.03125C8.62937 7.03125 8.3033 7.08583 7.97705 7.16735C7.97705 7.1672 7.97705 7.19463 7.97705 7.22175H8.03145C8.24907 7.65663 8.62937 7.95576 8.90122 8.33624C9.11883 8.77112 9.30898 9.20618 9.5266 9.64123C9.55371 9.61394 9.58083 9.58683 9.58083 9.58683C9.96165 9.31481 10.1518 8.87993 10.1518 8.22761C9.98859 8.03728 9.96148 7.84696 9.82556 7.65663C9.66252 7.38461 9.30898 7.24886 9.09154 7.03125Z" fill="#00546B"/>
</g>
<defs>
<clipPath id="clip0_4493_8908">
<rect width="40" height="40" fill="white"/>
</clipPath>
</defs>
</svg>
