<svg width="276" height="188" viewBox="0 0 276 188" fill="none" xmlns="http://www.w3.org/2000/svg">
<rect width="276" height="188" rx="16" fill="#F745BA"/>
<line x1="138.5" y1="31.5" x2="138.5" y2="156.5" stroke="white" stroke-opacity="0.24" stroke-linecap="round" stroke-dasharray="4 4"/>
<rect x="62" y="75" width="24" height="64" rx="4" fill="url(#paint0_linear_4822_2653)"/>
<rect x="97" y="48" width="24" height="91" rx="4" fill="url(#paint1_linear_4822_2653)"/>
<rect x="27" y="84" width="24" height="55" rx="4" fill="url(#paint2_linear_4822_2653)"/>
<path d="M194.224 73.6856H199.759L189.34 47H183.419L173 73.6856H178.413L180.916 66.7877H191.721L194.224 73.6856ZM186.247 51.7158H186.39L190.48 63.1075H182.137L186.247 51.7158Z" fill="#FFD0B6"/>
<path d="M210.076 70.5233C207.878 70.5233 206.413 69.5062 206.413 67.8973C206.413 66.3438 207.817 65.3452 210.259 65.1973L215.244 64.9199V66.4178C215.244 68.7849 212.945 70.5233 210.076 70.5233ZM208.549 74C211.317 74 214.023 72.687 215.265 70.5603H215.366V73.6856H220.25V60.1856C220.25 56.2466 216.77 53.676 211.419 53.676C205.924 53.676 202.485 56.3021 202.262 59.9637H206.962C207.288 58.3363 208.814 57.2822 211.215 57.2822C213.718 57.2822 215.244 58.4658 215.244 60.5185V61.924L209.547 62.2199C204.297 62.5158 201.346 64.6055 201.346 68.0822C201.346 71.6144 204.378 74 208.549 74Z" fill="#FFD0B6"/>
<path d="M189.171 111.497H193.388L185.45 90H180.938L173 111.497H177.124L179.031 105.94H187.264L189.171 111.497ZM183.093 93.7988H183.202L186.318 102.976H179.961L183.093 93.7988Z" fill="#FFD0B6"/>
<path d="M201.248 108.949C199.574 108.949 198.457 108.13 198.457 106.834C198.457 105.583 199.527 104.778 201.388 104.659L205.186 104.435V105.642C205.186 107.549 203.434 108.949 201.248 108.949ZM200.085 111.75C202.194 111.75 204.256 110.692 205.202 108.979H205.279V111.497H209V100.622C209 97.4486 206.349 95.3779 202.271 95.3779C198.085 95.3779 195.465 97.4933 195.295 100.443H198.876C199.124 99.132 200.287 98.2829 202.116 98.2829C204.023 98.2829 205.186 99.2363 205.186 100.89V102.022L200.845 102.26C196.845 102.499 194.597 104.182 194.597 106.983C194.597 109.828 196.907 111.75 200.085 111.75Z" fill="#FFD0B6"/>
<path d="M182.702 140.648H185.233L180.47 127.75H177.763L173 140.648H175.474L176.619 137.314H181.558L182.702 140.648ZM179.056 130.029H179.121L180.991 135.535H177.177L179.056 130.029Z" fill="#FFD0B6"/>
<path d="M189.949 139.12C188.944 139.12 188.274 138.628 188.274 137.85C188.274 137.1 188.916 136.617 190.033 136.545L192.312 136.411V137.135C192.312 138.279 191.26 139.12 189.949 139.12ZM189.251 140.8C190.516 140.8 191.753 140.165 192.321 139.137H192.367V140.648H194.6V134.123C194.6 132.219 193.009 130.977 190.563 130.977C188.051 130.977 186.479 132.246 186.377 134.016H188.526C188.674 133.229 189.372 132.72 190.47 132.72C191.614 132.72 192.312 133.292 192.312 134.284V134.963L189.707 135.106C187.307 135.249 185.958 136.259 185.958 137.94C185.958 139.647 187.344 140.8 189.251 140.8Z" fill="#FFD0B6"/>
<defs>
<linearGradient id="paint0_linear_4822_2653" x1="74" y1="75" x2="74" y2="139" gradientUnits="userSpaceOnUse">
<stop stop-color="#FFFCA8" stop-opacity="0.53"/>
<stop offset="1" stop-color="#EEBFFF" stop-opacity="0"/>
</linearGradient>
<linearGradient id="paint1_linear_4822_2653" x1="109" y1="48" x2="109" y2="139" gradientUnits="userSpaceOnUse">
<stop stop-color="#FFFCA8" stop-opacity="0.53"/>
<stop offset="1" stop-color="#EEBFFF" stop-opacity="0"/>
</linearGradient>
<linearGradient id="paint2_linear_4822_2653" x1="39" y1="84" x2="39" y2="139" gradientUnits="userSpaceOnUse">
<stop stop-color="#FFFCA8" stop-opacity="0.53"/>
<stop offset="1" stop-color="#EEBFFF" stop-opacity="0"/>
</linearGradient>
</defs>
</svg>
