<svg width="16" height="16" viewBox="0 0 16 16" fill="none" xmlns="http://www.w3.org/2000/svg">
<path fill-rule="evenodd" clip-rule="evenodd" d="M9.00002 3.6665C9.00002 3.11422 8.55231 2.6665 8.00002 2.6665C7.44774 2.6665 7.00002 3.11422 7.00002 3.6665V6.99984H3.66669C3.1144 6.99984 2.66669 7.44755 2.66669 7.99984C2.66669 8.55212 3.1144 8.99984 3.66669 8.99984H7.00002V12.3332C7.00002 12.8855 7.44774 13.3332 8.00002 13.3332C8.55231 13.3332 9.00002 12.8855 9.00002 12.3332V8.99984H12.3334C12.8856 8.99984 13.3334 8.55212 13.3334 7.99984C13.3334 7.44755 12.8856 6.99984 12.3334 6.99984H9.00002V3.6665Z" fill="#F99005"/>
</svg>
