<svg width="1200" height="480" viewBox="0 0 1200 480" fill="none" xmlns="http://www.w3.org/2000/svg">
<g filter="url(#filter0_i_9086_2142)">
<path d="M0 240C0 107.452 107.452 0 240 0H960C1092.55 0 1200 107.452 1200 240C1200 372.548 1092.55 480 960 480H240C107.452 480 0 372.548 0 240Z" fill="white" fill-opacity="0.06"/>
</g>
<path d="M2 240C2 108.556 108.556 2 240 2H960C1091.44 2 1198 108.556 1198 240C1198 371.444 1091.44 478 960 478H240C108.556 478 2 371.444 2 240Z" stroke="white" stroke-opacity="0.08" stroke-width="4"/>
<defs>
<filter id="filter0_i_9086_2142" x="0" y="0" width="1200" height="484" filterUnits="userSpaceOnUse" color-interpolation-filters="sRGB">
<feFlood flood-opacity="0" result="BackgroundImageFix"/>
<feBlend mode="normal" in="SourceGraphic" in2="BackgroundImageFix" result="shape"/>
<feColorMatrix in="SourceAlpha" type="matrix" values="0 0 0 0 0 0 0 0 0 0 0 0 0 0 0 0 0 0 127 0" result="hardAlpha"/>
<feOffset dy="4"/>
<feGaussianBlur stdDeviation="24"/>
<feComposite in2="hardAlpha" operator="arithmetic" k2="-1" k3="1"/>
<feColorMatrix type="matrix" values="0 0 0 0 0.94 0 0 0 0 1 0 0 0 0 0.8125 0 0 0 0.16 0"/>
<feBlend mode="normal" in2="shape" result="effect1_innerShadow_9086_2142"/>
</filter>
</defs>
</svg>
