<svg width="1200" height="690" viewBox="0 0 1200 690" fill="none" xmlns="http://www.w3.org/2000/svg">
<mask id="path-1-inside-1_7942_107" fill="white">
<path fill-rule="evenodd" clip-rule="evenodd" d="M93.5 0C41.8614 0 0 41.8614 0 93.5V171.39C0 223.029 41.8614 264.89 93.5 264.89C145.139 264.89 187 223.029 187 171.39V93.5C187 41.8614 145.139 0 93.5 0ZM93.5 303.874C41.8614 303.874 0 345.735 0 397.374V596.214C0 647.852 41.8614 689.714 93.5 689.714C145.139 689.714 187 647.852 187 596.214V397.374C187 345.735 145.139 303.874 93.5 303.874ZM255.632 8.59775H443.095V690H255.632V8.59775ZM859.158 502.614C943.866 502.614 1012.54 433.973 1012.54 349.299C1012.54 264.625 943.866 195.983 859.158 195.983C774.449 195.983 705.778 264.625 705.778 349.299C705.778 433.973 774.449 502.614 859.158 502.614ZM1200 349.299V349.505V690H1012.54V653.637C966.434 676.898 914.327 690 859.158 690C670.915 690 518.315 537.463 518.315 349.299C518.315 161.135 670.915 8.59775 859.158 8.59775C1047.4 8.59775 1200 161.135 1200 349.299Z"/>
</mask>
<path d="M443.095 8.59775H446.095V5.59775H443.095V8.59775ZM255.632 8.59775V5.59775H252.632V8.59775H255.632ZM443.095 690V693H446.095V690H443.095ZM255.632 690H252.632V693H255.632V690ZM1200 690V693H1203V690H1200ZM1012.54 690H1009.54V693H1012.54V690ZM1012.54 653.637H1015.54V648.763L1011.19 650.959L1012.54 653.637ZM3 93.5C3 43.5182 43.5182 3 93.5 3V-3C40.2045 -3 -3 40.2045 -3 93.5H3ZM3 171.39V93.5H-3V171.39H3ZM93.5 261.89C43.5182 261.89 3 221.372 3 171.39H-3C-3 224.686 40.2045 267.89 93.5 267.89V261.89ZM184 171.39C184 221.372 143.482 261.89 93.5 261.89V267.89C146.795 267.89 190 224.686 190 171.39H184ZM184 93.5V171.39H190V93.5H184ZM93.5 3C143.482 3 184 43.5182 184 93.5H190C190 40.2045 146.795 -3 93.5 -3V3ZM3 397.374C3 347.392 43.5182 306.874 93.5 306.874V300.874C40.2045 300.874 -3 344.078 -3 397.374H3ZM3 596.214V397.374H-3V596.214H3ZM93.5 686.714C43.5182 686.714 3 646.196 3 596.214H-3C-3 649.509 40.2045 692.714 93.5 692.714V686.714ZM184 596.214C184 646.196 143.482 686.714 93.5 686.714V692.714C146.795 692.714 190 649.509 190 596.214H184ZM184 397.374V596.214H190V397.374H184ZM93.5 306.874C143.482 306.874 184 347.392 184 397.374H190C190 344.078 146.795 300.874 93.5 300.874V306.874ZM443.095 5.59775H255.632V11.5978H443.095V5.59775ZM446.095 690V8.59775H440.095V690H446.095ZM255.632 693H443.095V687H255.632V693ZM252.632 8.59775V690H258.632V8.59775H252.632ZM1009.54 349.299C1009.54 432.315 942.211 499.614 859.158 499.614V505.614C945.522 505.614 1015.54 435.631 1015.54 349.299H1009.54ZM859.158 198.983C942.211 198.983 1009.54 266.283 1009.54 349.299H1015.54C1015.54 262.967 945.522 192.983 859.158 192.983V198.983ZM708.778 349.299C708.778 266.283 776.104 198.983 859.158 198.983V192.983C772.793 192.983 702.778 262.967 702.778 349.299H708.778ZM859.158 499.614C776.104 499.614 708.778 432.315 708.778 349.299H702.778C702.778 435.631 772.793 505.614 859.158 505.614V499.614ZM1203 349.505V349.299H1197V349.505H1203ZM1203 690V349.505H1197V690H1203ZM1012.54 693H1200V687H1012.54V693ZM1009.54 653.637V690H1015.54V653.637H1009.54ZM859.158 693C914.807 693 967.376 679.783 1013.89 656.316L1011.19 650.959C965.493 674.013 913.847 687 859.158 687V693ZM515.315 349.299C515.315 539.121 669.26 693 859.158 693V687C672.571 687 521.315 535.805 521.315 349.299H515.315ZM859.158 5.59775C669.26 5.59775 515.315 159.477 515.315 349.299H521.315C521.315 162.793 672.571 11.5978 859.158 11.5978V5.59775ZM1203 349.299C1203 159.477 1049.06 5.59775 859.158 5.59775V11.5978C1045.74 11.5978 1197 162.793 1197 349.299H1203Z" fill="url(#paint0_radial_7942_107)" mask="url(#path-1-inside-1_7942_107)"/>
<defs>
<radialGradient id="paint0_radial_7942_107" cx="0" cy="0" r="1" gradientUnits="userSpaceOnUse" gradientTransform="translate(521.5 344.857) rotate(88.8806) scale(383.914 1106.22)">
<stop stop-color="#805D07" stop-opacity="0.81"/>
<stop offset="1" stop-color="#57310F" stop-opacity="0"/>
</radialGradient>
</defs>
</svg>
