<svg width="48" height="48" viewBox="0 0 48 48" fill="none" xmlns="http://www.w3.org/2000/svg">
<path fill-rule="evenodd" clip-rule="evenodd" d="M24 0C37.2549 0 48 10.7452 48 24C48 37.2549 37.2549 48 24 48C10.7452 48 0 37.2549 0 24C0 10.7452 10.7452 0 24 0Z" fill="#FFEEEE"/>
<path fill-rule="evenodd" clip-rule="evenodd" d="M28.7071 19.2929C29.0976 19.6834 29.0976 20.3166 28.7071 20.7071L20.7071 28.7071C20.3166 29.0976 19.6834 29.0976 19.2929 28.7071C18.9024 28.3166 18.9024 27.6834 19.2929 27.2929L27.2929 19.2929C27.6834 18.9024 28.3166 18.9024 28.7071 19.2929Z" fill="#FF4747"/>
<path fill-rule="evenodd" clip-rule="evenodd" d="M28.7071 28.7071C29.0976 28.3166 29.0976 27.6834 28.7071 27.2929L20.7071 19.2929C20.3166 18.9024 19.6834 18.9024 19.2929 19.2929C18.9024 19.6834 18.9024 20.3166 19.2929 20.7071L27.2929 28.7071C27.6834 29.0976 28.3166 29.0976 28.7071 28.7071Z" fill="#FF4747"/>
</svg>
