<svg width="48" height="48" viewBox="0 0 48 48" fill="none" xmlns="http://www.w3.org/2000/svg">
<path fill-rule="evenodd" clip-rule="evenodd" d="M24 0C37.2549 0 48 10.7452 48 24C48 37.2549 37.2549 48 24 48C10.7452 48 0 37.2549 0 24C0 10.7452 10.7452 0 24 0Z" fill="#ECFBF5"/>
<path fill-rule="evenodd" clip-rule="evenodd" d="M30.6402 19.2318C31.0645 19.5854 31.1218 20.2159 30.7682 20.6402L23.2682 29.6402C23.0884 29.856 22.826 29.9863 22.5453 29.999C22.2646 30.0117 21.9916 29.9058 21.7929 29.7071L17.2929 25.2071C16.9024 24.8166 16.9024 24.1834 17.2929 23.7929C17.6834 23.4024 18.3166 23.4024 18.7071 23.7929L22.4328 27.5186L29.2318 19.3598C29.5853 18.9356 30.2159 18.8782 30.6402 19.2318Z" fill="#00AA5B"/>
</svg>
