<svg width="516" height="400" viewBox="0 0 516 400" fill="none" xmlns="http://www.w3.org/2000/svg">
<mask id="path-1-inside-1_6004_76674" fill="white">
<path d="M0 16C0 7.16345 7.16344 0 16 0H516V400H16C7.16345 400 0 392.837 0 384V16Z"/>
</mask>
<path d="M0 16C0 7.16345 7.16344 0 16 0H516V400H16C7.16345 400 0 392.837 0 384V16Z" fill="url(#paint0_linear_6004_76674)"/>
<path d="M-1 16C-1 6.61116 6.61116 -1 16 -1H516V1H16C7.71573 1 1 7.71573 1 16H-1ZM516 401H16C6.61116 401 -1 393.389 -1 384H1C1 392.284 7.71573 399 16 399H516V401ZM16 401C6.61116 401 -1 393.389 -1 384V16C-1 6.61116 6.61116 -1 16 -1V1C7.71573 1 1 7.71573 1 16V384C1 392.284 7.71573 399 16 399V401ZM516 0V400V0Z" fill="url(#paint1_linear_6004_76674)" mask="url(#path-1-inside-1_6004_76674)"/>
<defs>
<linearGradient id="paint0_linear_6004_76674" x1="258" y1="0" x2="258" y2="400" gradientUnits="userSpaceOnUse">
<stop stop-color="white" stop-opacity="0.06"/>
<stop offset="1" stop-color="white" stop-opacity="0"/>
</linearGradient>
<linearGradient id="paint1_linear_6004_76674" x1="258" y1="0" x2="258" y2="400" gradientUnits="userSpaceOnUse">
<stop stop-color="white" stop-opacity="0.12"/>
<stop offset="1" stop-color="white" stop-opacity="0"/>
</linearGradient>
</defs>
</svg>
