<svg width="516" height="400" viewBox="0 0 516 400" fill="none" xmlns="http://www.w3.org/2000/svg">
<g clip-path="url(#clip0_6997_13169)">
<mask id="path-1-inside-1_6997_13169" fill="white">
<path d="M0 16C0 7.16345 7.16344 0 16 0H516V400H16C7.16345 400 0 392.837 0 384V16Z"/>
</mask>
<path d="M0 16C0 7.16345 7.16344 0 16 0H516V400H16C7.16345 400 0 392.837 0 384V16Z" fill="url(#paint0_linear_6997_13169)"/>
<g clip-path="url(#clip1_6997_13169)">
<circle cx="1" cy="1" r="1" fill="white" fill-opacity="0.1"/>
<circle cx="19" cy="1" r="1" fill="white" fill-opacity="0.1"/>
<circle cx="37" cy="1" r="1" fill="white" fill-opacity="0.1"/>
<circle cx="55" cy="1" r="1" fill="white" fill-opacity="0.1"/>
<circle cx="73" cy="1" r="1" fill="white" fill-opacity="0.1"/>
<circle cx="91" cy="1" r="1" fill="white" fill-opacity="0.1"/>
<circle cx="109" cy="1" r="1" fill="white" fill-opacity="0.1"/>
<circle cx="127" cy="1" r="1" fill="white" fill-opacity="0.1"/>
<circle cx="145" cy="1" r="1" fill="white" fill-opacity="0.1"/>
<circle cx="163" cy="1" r="1" fill="white" fill-opacity="0.1"/>
<circle cx="181" cy="1" r="1" fill="white" fill-opacity="0.1"/>
<circle cx="199" cy="1" r="1" fill="white" fill-opacity="0.1"/>
<circle cx="217" cy="1" r="1" fill="white" fill-opacity="0.1"/>
<circle cx="235" cy="1" r="1" fill="white" fill-opacity="0.1"/>
<circle cx="253" cy="1" r="1" fill="white" fill-opacity="0.1"/>
<circle cx="271" cy="1" r="1" fill="white" fill-opacity="0.1"/>
<circle cx="289" cy="1" r="1" fill="white" fill-opacity="0.1"/>
<circle cx="307" cy="1" r="1" fill="white" fill-opacity="0.1"/>
<circle cx="325" cy="1" r="1" fill="white" fill-opacity="0.1"/>
<circle cx="343" cy="1" r="1" fill="white" fill-opacity="0.1"/>
<circle cx="361" cy="1" r="1" fill="white" fill-opacity="0.1"/>
<circle cx="379" cy="1" r="1" fill="white" fill-opacity="0.1"/>
<circle cx="397" cy="1" r="1" fill="white" fill-opacity="0.1"/>
<circle cx="415" cy="1" r="1" fill="white" fill-opacity="0.1"/>
<circle cx="433" cy="1" r="1" fill="white" fill-opacity="0.1"/>
<circle cx="451" cy="1" r="1" fill="white" fill-opacity="0.1"/>
<circle cx="469" cy="1" r="1" fill="white" fill-opacity="0.1"/>
<circle cx="487" cy="1" r="1" fill="white" fill-opacity="0.1"/>
<circle cx="505" cy="1" r="1" fill="white" fill-opacity="0.1"/>
<circle cx="1" cy="19" r="1" fill="white" fill-opacity="0.1"/>
<circle cx="19" cy="19" r="1" fill="white" fill-opacity="0.1"/>
<circle cx="37" cy="19" r="1" fill="white" fill-opacity="0.1"/>
<circle cx="55" cy="19" r="1" fill="white" fill-opacity="0.1"/>
<circle cx="73" cy="19" r="1" fill="white" fill-opacity="0.1"/>
<circle cx="91" cy="19" r="1" fill="white" fill-opacity="0.1"/>
<circle cx="109" cy="19" r="1" fill="white" fill-opacity="0.1"/>
<circle cx="127" cy="19" r="1" fill="white" fill-opacity="0.1"/>
<circle cx="145" cy="19" r="1" fill="white" fill-opacity="0.1"/>
<circle cx="163" cy="19" r="1" fill="white" fill-opacity="0.1"/>
<circle cx="181" cy="19" r="1" fill="white" fill-opacity="0.1"/>
<circle cx="199" cy="19" r="1" fill="white" fill-opacity="0.1"/>
<circle cx="217" cy="19" r="1" fill="white" fill-opacity="0.1"/>
<circle cx="235" cy="19" r="1" fill="white" fill-opacity="0.1"/>
<circle cx="253" cy="19" r="1" fill="white" fill-opacity="0.1"/>
<circle cx="271" cy="19" r="1" fill="white" fill-opacity="0.1"/>
<circle cx="289" cy="19" r="1" fill="white" fill-opacity="0.1"/>
<circle cx="307" cy="19" r="1" fill="white" fill-opacity="0.1"/>
<circle cx="325" cy="19" r="1" fill="white" fill-opacity="0.1"/>
<circle cx="343" cy="19" r="1" fill="white" fill-opacity="0.1"/>
<circle cx="361" cy="19" r="1" fill="white" fill-opacity="0.1"/>
<circle cx="379" cy="19" r="1" fill="white" fill-opacity="0.1"/>
<circle cx="397" cy="19" r="1" fill="white" fill-opacity="0.1"/>
<circle cx="415" cy="19" r="1" fill="white" fill-opacity="0.1"/>
<circle cx="433" cy="19" r="1" fill="white" fill-opacity="0.1"/>
<circle cx="451" cy="19" r="1" fill="white" fill-opacity="0.1"/>
<circle cx="469" cy="19" r="1" fill="white" fill-opacity="0.1"/>
<circle cx="487" cy="19" r="1" fill="white" fill-opacity="0.1"/>
<circle cx="505" cy="19" r="1" fill="white" fill-opacity="0.1"/>
<circle cx="1" cy="37" r="1" fill="white" fill-opacity="0.1"/>
<circle cx="19" cy="37" r="1" fill="white" fill-opacity="0.1"/>
<circle cx="37" cy="37" r="1" fill="white" fill-opacity="0.1"/>
<circle cx="55" cy="37" r="1" fill="white" fill-opacity="0.1"/>
<circle cx="73" cy="37" r="1" fill="white" fill-opacity="0.1"/>
<circle cx="91" cy="37" r="1" fill="white" fill-opacity="0.1"/>
<circle cx="109" cy="37" r="1" fill="white" fill-opacity="0.1"/>
<circle cx="127" cy="37" r="1" fill="white" fill-opacity="0.1"/>
<circle cx="145" cy="37" r="1" fill="white" fill-opacity="0.1"/>
<circle cx="163" cy="37" r="1" fill="white" fill-opacity="0.1"/>
<circle cx="181" cy="37" r="1" fill="white" fill-opacity="0.1"/>
<circle cx="199" cy="37" r="1" fill="white" fill-opacity="0.1"/>
<circle cx="217" cy="37" r="1" fill="white" fill-opacity="0.1"/>
<circle cx="235" cy="37" r="1" fill="white" fill-opacity="0.1"/>
<circle cx="253" cy="37" r="1" fill="white" fill-opacity="0.1"/>
<circle cx="271" cy="37" r="1" fill="white" fill-opacity="0.1"/>
<circle cx="289" cy="37" r="1" fill="white" fill-opacity="0.1"/>
<circle cx="307" cy="37" r="1" fill="white" fill-opacity="0.1"/>
<circle cx="325" cy="37" r="1" fill="white" fill-opacity="0.1"/>
<circle cx="343" cy="37" r="1" fill="white" fill-opacity="0.1"/>
<circle cx="361" cy="37" r="1" fill="white" fill-opacity="0.1"/>
<circle cx="379" cy="37" r="1" fill="white" fill-opacity="0.1"/>
<circle cx="397" cy="37" r="1" fill="white" fill-opacity="0.1"/>
<circle cx="415" cy="37" r="1" fill="white" fill-opacity="0.1"/>
<circle cx="433" cy="37" r="1" fill="white" fill-opacity="0.1"/>
<circle cx="451" cy="37" r="1" fill="white" fill-opacity="0.1"/>
<circle cx="469" cy="37" r="1" fill="white" fill-opacity="0.1"/>
<circle cx="487" cy="37" r="1" fill="white" fill-opacity="0.1"/>
<circle cx="505" cy="37" r="1" fill="white" fill-opacity="0.1"/>
<circle cx="1" cy="55" r="1" fill="white" fill-opacity="0.1"/>
<circle cx="19" cy="55" r="1" fill="white" fill-opacity="0.1"/>
<circle cx="37" cy="55" r="1" fill="white" fill-opacity="0.1"/>
<circle cx="55" cy="55" r="1" fill="white" fill-opacity="0.1"/>
<circle cx="73" cy="55" r="1" fill="white" fill-opacity="0.1"/>
<circle cx="91" cy="55" r="1" fill="white" fill-opacity="0.1"/>
<circle cx="109" cy="55" r="1" fill="white" fill-opacity="0.1"/>
<circle cx="127" cy="55" r="1" fill="white" fill-opacity="0.1"/>
<circle cx="145" cy="55" r="1" fill="white" fill-opacity="0.1"/>
<circle cx="163" cy="55" r="1" fill="white" fill-opacity="0.1"/>
<circle cx="181" cy="55" r="1" fill="white" fill-opacity="0.1"/>
<circle cx="199" cy="55" r="1" fill="white" fill-opacity="0.1"/>
<circle cx="217" cy="55" r="1" fill="white" fill-opacity="0.1"/>
<circle cx="235" cy="55" r="1" fill="white" fill-opacity="0.1"/>
<circle cx="253" cy="55" r="1" fill="white" fill-opacity="0.1"/>
<circle cx="271" cy="55" r="1" fill="white" fill-opacity="0.1"/>
<circle cx="289" cy="55" r="1" fill="white" fill-opacity="0.1"/>
<circle cx="307" cy="55" r="1" fill="white" fill-opacity="0.1"/>
<circle cx="325" cy="55" r="1" fill="white" fill-opacity="0.1"/>
<circle cx="343" cy="55" r="1" fill="white" fill-opacity="0.1"/>
<circle cx="361" cy="55" r="1" fill="white" fill-opacity="0.1"/>
<circle cx="379" cy="55" r="1" fill="white" fill-opacity="0.1"/>
<circle cx="397" cy="55" r="1" fill="white" fill-opacity="0.1"/>
<circle cx="415" cy="55" r="1" fill="white" fill-opacity="0.1"/>
<circle cx="433" cy="55" r="1" fill="white" fill-opacity="0.1"/>
<circle cx="451" cy="55" r="1" fill="white" fill-opacity="0.1"/>
<circle cx="469" cy="55" r="1" fill="white" fill-opacity="0.1"/>
<circle cx="487" cy="55" r="1" fill="white" fill-opacity="0.1"/>
<circle cx="505" cy="55" r="1" fill="white" fill-opacity="0.1"/>
<circle cx="1" cy="73" r="1" fill="white" fill-opacity="0.1"/>
<circle cx="19" cy="73" r="1" fill="white" fill-opacity="0.1"/>
<circle cx="37" cy="73" r="1" fill="white" fill-opacity="0.1"/>
<circle cx="55" cy="73" r="1" fill="white" fill-opacity="0.1"/>
<circle cx="73" cy="73" r="1" fill="white" fill-opacity="0.1"/>
<circle cx="91" cy="73" r="1" fill="white" fill-opacity="0.1"/>
<circle cx="109" cy="73" r="1" fill="white" fill-opacity="0.1"/>
<circle cx="127" cy="73" r="1" fill="white" fill-opacity="0.1"/>
<circle cx="145" cy="73" r="1" fill="white" fill-opacity="0.1"/>
<circle cx="163" cy="73" r="1" fill="white" fill-opacity="0.1"/>
<circle cx="181" cy="73" r="1" fill="white" fill-opacity="0.1"/>
<circle cx="199" cy="73" r="1" fill="white" fill-opacity="0.1"/>
<circle cx="217" cy="73" r="1" fill="white" fill-opacity="0.1"/>
<circle cx="235" cy="73" r="1" fill="white" fill-opacity="0.1"/>
<circle cx="253" cy="73" r="1" fill="white" fill-opacity="0.1"/>
<circle cx="271" cy="73" r="1" fill="white" fill-opacity="0.1"/>
<circle cx="289" cy="73" r="1" fill="white" fill-opacity="0.1"/>
<circle cx="307" cy="73" r="1" fill="white" fill-opacity="0.1"/>
<circle cx="325" cy="73" r="1" fill="white" fill-opacity="0.1"/>
<circle cx="343" cy="73" r="1" fill="white" fill-opacity="0.1"/>
<circle cx="361" cy="73" r="1" fill="white" fill-opacity="0.1"/>
<circle cx="379" cy="73" r="1" fill="white" fill-opacity="0.1"/>
<circle cx="397" cy="73" r="1" fill="white" fill-opacity="0.1"/>
<circle cx="415" cy="73" r="1" fill="white" fill-opacity="0.1"/>
<circle cx="433" cy="73" r="1" fill="white" fill-opacity="0.1"/>
<circle cx="451" cy="73" r="1" fill="white" fill-opacity="0.1"/>
<circle cx="469" cy="73" r="1" fill="white" fill-opacity="0.1"/>
<circle cx="487" cy="73" r="1" fill="white" fill-opacity="0.1"/>
<circle cx="505" cy="73" r="1" fill="white" fill-opacity="0.1"/>
<circle cx="1" cy="91" r="1" fill="white" fill-opacity="0.1"/>
<circle cx="19" cy="91" r="1" fill="white" fill-opacity="0.1"/>
<circle cx="37" cy="91" r="1" fill="white" fill-opacity="0.1"/>
<circle cx="55" cy="91" r="1" fill="white" fill-opacity="0.1"/>
<circle cx="73" cy="91" r="1" fill="white" fill-opacity="0.1"/>
<circle cx="91" cy="91" r="1" fill="white" fill-opacity="0.1"/>
<circle cx="109" cy="91" r="1" fill="white" fill-opacity="0.1"/>
<circle cx="127" cy="91" r="1" fill="white" fill-opacity="0.1"/>
<circle cx="145" cy="91" r="1" fill="white" fill-opacity="0.1"/>
<circle cx="163" cy="91" r="1" fill="white" fill-opacity="0.1"/>
<circle cx="181" cy="91" r="1" fill="white" fill-opacity="0.1"/>
<circle cx="199" cy="91" r="1" fill="white" fill-opacity="0.1"/>
<circle cx="217" cy="91" r="1" fill="white" fill-opacity="0.1"/>
<circle cx="235" cy="91" r="1" fill="white" fill-opacity="0.1"/>
<circle cx="253" cy="91" r="1" fill="white" fill-opacity="0.1"/>
<circle cx="271" cy="91" r="1" fill="white" fill-opacity="0.1"/>
<circle cx="289" cy="91" r="1" fill="white" fill-opacity="0.1"/>
<circle cx="307" cy="91" r="1" fill="white" fill-opacity="0.1"/>
<circle cx="325" cy="91" r="1" fill="white" fill-opacity="0.1"/>
<circle cx="343" cy="91" r="1" fill="white" fill-opacity="0.1"/>
<circle cx="361" cy="91" r="1" fill="white" fill-opacity="0.1"/>
<circle cx="379" cy="91" r="1" fill="white" fill-opacity="0.1"/>
<circle cx="397" cy="91" r="1" fill="white" fill-opacity="0.1"/>
<circle cx="415" cy="91" r="1" fill="white" fill-opacity="0.1"/>
<circle cx="433" cy="91" r="1" fill="white" fill-opacity="0.1"/>
<circle cx="451" cy="91" r="1" fill="white" fill-opacity="0.1"/>
<circle cx="469" cy="91" r="1" fill="white" fill-opacity="0.1"/>
<circle cx="487" cy="91" r="1" fill="white" fill-opacity="0.1"/>
<circle cx="505" cy="91" r="1" fill="white" fill-opacity="0.1"/>
<circle cx="1" cy="109" r="1" fill="white" fill-opacity="0.1"/>
<circle cx="19" cy="109" r="1" fill="white" fill-opacity="0.1"/>
<circle cx="37" cy="109" r="1" fill="white" fill-opacity="0.1"/>
<circle cx="55" cy="109" r="1" fill="white" fill-opacity="0.1"/>
<circle cx="73" cy="109" r="1" fill="white" fill-opacity="0.1"/>
<circle cx="91" cy="109" r="1" fill="white" fill-opacity="0.1"/>
<circle cx="109" cy="109" r="1" fill="white" fill-opacity="0.1"/>
<circle cx="127" cy="109" r="1" fill="white" fill-opacity="0.1"/>
<circle cx="145" cy="109" r="1" fill="white" fill-opacity="0.1"/>
<circle cx="163" cy="109" r="1" fill="white" fill-opacity="0.1"/>
<circle cx="181" cy="109" r="1" fill="white" fill-opacity="0.1"/>
<circle cx="199" cy="109" r="1" fill="white" fill-opacity="0.1"/>
<circle cx="217" cy="109" r="1" fill="white" fill-opacity="0.1"/>
<circle cx="235" cy="109" r="1" fill="white" fill-opacity="0.1"/>
<circle cx="253" cy="109" r="1" fill="white" fill-opacity="0.1"/>
<circle cx="271" cy="109" r="1" fill="white" fill-opacity="0.1"/>
<circle cx="289" cy="109" r="1" fill="white" fill-opacity="0.1"/>
<circle cx="307" cy="109" r="1" fill="white" fill-opacity="0.1"/>
<circle cx="325" cy="109" r="1" fill="white" fill-opacity="0.1"/>
<circle cx="343" cy="109" r="1" fill="white" fill-opacity="0.1"/>
<circle cx="361" cy="109" r="1" fill="white" fill-opacity="0.1"/>
<circle cx="379" cy="109" r="1" fill="white" fill-opacity="0.1"/>
<circle cx="397" cy="109" r="1" fill="white" fill-opacity="0.1"/>
<circle cx="415" cy="109" r="1" fill="white" fill-opacity="0.1"/>
<circle cx="433" cy="109" r="1" fill="white" fill-opacity="0.1"/>
<circle cx="451" cy="109" r="1" fill="white" fill-opacity="0.1"/>
<circle cx="469" cy="109" r="1" fill="white" fill-opacity="0.1"/>
<circle cx="487" cy="109" r="1" fill="white" fill-opacity="0.1"/>
<circle cx="505" cy="109" r="1" fill="white" fill-opacity="0.1"/>
<circle cx="1" cy="127" r="1" fill="white" fill-opacity="0.1"/>
<circle cx="19" cy="127" r="1" fill="white" fill-opacity="0.1"/>
<circle cx="37" cy="127" r="1" fill="white" fill-opacity="0.1"/>
<circle cx="55" cy="127" r="1" fill="white" fill-opacity="0.1"/>
<circle cx="73" cy="127" r="1" fill="white" fill-opacity="0.1"/>
<circle cx="91" cy="127" r="1" fill="white" fill-opacity="0.1"/>
<circle cx="109" cy="127" r="1" fill="white" fill-opacity="0.1"/>
<circle cx="127" cy="127" r="1" fill="white" fill-opacity="0.1"/>
<circle cx="145" cy="127" r="1" fill="white" fill-opacity="0.1"/>
<circle cx="163" cy="127" r="1" fill="white" fill-opacity="0.1"/>
<circle cx="181" cy="127" r="1" fill="white" fill-opacity="0.1"/>
<circle cx="199" cy="127" r="1" fill="white" fill-opacity="0.1"/>
<circle cx="217" cy="127" r="1" fill="white" fill-opacity="0.1"/>
<circle cx="235" cy="127" r="1" fill="white" fill-opacity="0.1"/>
<circle cx="253" cy="127" r="1" fill="white" fill-opacity="0.1"/>
<circle cx="271" cy="127" r="1" fill="white" fill-opacity="0.1"/>
<circle cx="289" cy="127" r="1" fill="white" fill-opacity="0.1"/>
<circle cx="307" cy="127" r="1" fill="white" fill-opacity="0.1"/>
<circle cx="325" cy="127" r="1" fill="white" fill-opacity="0.1"/>
<circle cx="343" cy="127" r="1" fill="white" fill-opacity="0.1"/>
<circle cx="361" cy="127" r="1" fill="white" fill-opacity="0.1"/>
<circle cx="379" cy="127" r="1" fill="white" fill-opacity="0.1"/>
<circle cx="397" cy="127" r="1" fill="white" fill-opacity="0.1"/>
<circle cx="415" cy="127" r="1" fill="white" fill-opacity="0.1"/>
<circle cx="433" cy="127" r="1" fill="white" fill-opacity="0.1"/>
<circle cx="451" cy="127" r="1" fill="white" fill-opacity="0.1"/>
<circle cx="469" cy="127" r="1" fill="white" fill-opacity="0.1"/>
<circle cx="487" cy="127" r="1" fill="white" fill-opacity="0.1"/>
<circle cx="505" cy="127" r="1" fill="white" fill-opacity="0.1"/>
<circle cx="1" cy="145" r="1" fill="white" fill-opacity="0.1"/>
<circle cx="19" cy="145" r="1" fill="white" fill-opacity="0.1"/>
<circle cx="37" cy="145" r="1" fill="white" fill-opacity="0.1"/>
<circle cx="55" cy="145" r="1" fill="white" fill-opacity="0.1"/>
<circle cx="73" cy="145" r="1" fill="white" fill-opacity="0.1"/>
<circle cx="91" cy="145" r="1" fill="white" fill-opacity="0.1"/>
<circle cx="109" cy="145" r="1" fill="white" fill-opacity="0.1"/>
<circle cx="127" cy="145" r="1" fill="white" fill-opacity="0.1"/>
<circle cx="145" cy="145" r="1" fill="white" fill-opacity="0.1"/>
<circle cx="163" cy="145" r="1" fill="white" fill-opacity="0.1"/>
<circle cx="181" cy="145" r="1" fill="white" fill-opacity="0.1"/>
<circle cx="199" cy="145" r="1" fill="white" fill-opacity="0.1"/>
<circle cx="217" cy="145" r="1" fill="white" fill-opacity="0.1"/>
<circle cx="235" cy="145" r="1" fill="white" fill-opacity="0.1"/>
<circle cx="253" cy="145" r="1" fill="white" fill-opacity="0.1"/>
<circle cx="271" cy="145" r="1" fill="white" fill-opacity="0.1"/>
<circle cx="289" cy="145" r="1" fill="white" fill-opacity="0.1"/>
<circle cx="307" cy="145" r="1" fill="white" fill-opacity="0.1"/>
<circle cx="325" cy="145" r="1" fill="white" fill-opacity="0.1"/>
<circle cx="343" cy="145" r="1" fill="white" fill-opacity="0.1"/>
<circle cx="361" cy="145" r="1" fill="white" fill-opacity="0.1"/>
<circle cx="379" cy="145" r="1" fill="white" fill-opacity="0.1"/>
<circle cx="397" cy="145" r="1" fill="white" fill-opacity="0.1"/>
<circle cx="415" cy="145" r="1" fill="white" fill-opacity="0.1"/>
<circle cx="433" cy="145" r="1" fill="white" fill-opacity="0.1"/>
<circle cx="451" cy="145" r="1" fill="white" fill-opacity="0.1"/>
<circle cx="469" cy="145" r="1" fill="white" fill-opacity="0.1"/>
<circle cx="487" cy="145" r="1" fill="white" fill-opacity="0.1"/>
<circle cx="505" cy="145" r="1" fill="white" fill-opacity="0.1"/>
<circle cx="1" cy="163" r="1" fill="white" fill-opacity="0.1"/>
<circle cx="19" cy="163" r="1" fill="white" fill-opacity="0.1"/>
<circle cx="37" cy="163" r="1" fill="white" fill-opacity="0.1"/>
<circle cx="55" cy="163" r="1" fill="white" fill-opacity="0.1"/>
<circle cx="73" cy="163" r="1" fill="white" fill-opacity="0.1"/>
<circle cx="91" cy="163" r="1" fill="white" fill-opacity="0.1"/>
<circle cx="109" cy="163" r="1" fill="white" fill-opacity="0.1"/>
<circle cx="127" cy="163" r="1" fill="white" fill-opacity="0.1"/>
<circle cx="145" cy="163" r="1" fill="white" fill-opacity="0.1"/>
<circle cx="163" cy="163" r="1" fill="white" fill-opacity="0.1"/>
<circle cx="181" cy="163" r="1" fill="white" fill-opacity="0.1"/>
<circle cx="199" cy="163" r="1" fill="white" fill-opacity="0.1"/>
<circle cx="217" cy="163" r="1" fill="white" fill-opacity="0.1"/>
<circle cx="235" cy="163" r="1" fill="white" fill-opacity="0.1"/>
<circle cx="253" cy="163" r="1" fill="white" fill-opacity="0.1"/>
<circle cx="271" cy="163" r="1" fill="white" fill-opacity="0.1"/>
<circle cx="289" cy="163" r="1" fill="white" fill-opacity="0.1"/>
<circle cx="307" cy="163" r="1" fill="white" fill-opacity="0.1"/>
<circle cx="325" cy="163" r="1" fill="white" fill-opacity="0.1"/>
<circle cx="343" cy="163" r="1" fill="white" fill-opacity="0.1"/>
<circle cx="361" cy="163" r="1" fill="white" fill-opacity="0.1"/>
<circle cx="379" cy="163" r="1" fill="white" fill-opacity="0.1"/>
<circle cx="397" cy="163" r="1" fill="white" fill-opacity="0.1"/>
<circle cx="415" cy="163" r="1" fill="white" fill-opacity="0.1"/>
<circle cx="433" cy="163" r="1" fill="white" fill-opacity="0.1"/>
<circle cx="451" cy="163" r="1" fill="white" fill-opacity="0.1"/>
<circle cx="469" cy="163" r="1" fill="white" fill-opacity="0.1"/>
<circle cx="487" cy="163" r="1" fill="white" fill-opacity="0.1"/>
<circle cx="505" cy="163" r="1" fill="white" fill-opacity="0.1"/>
<circle cx="1" cy="181" r="1" fill="white" fill-opacity="0.1"/>
<circle cx="19" cy="181" r="1" fill="white" fill-opacity="0.1"/>
<circle cx="37" cy="181" r="1" fill="white" fill-opacity="0.1"/>
<circle cx="55" cy="181" r="1" fill="white" fill-opacity="0.1"/>
<circle cx="73" cy="181" r="1" fill="white" fill-opacity="0.1"/>
<circle cx="91" cy="181" r="1" fill="white" fill-opacity="0.1"/>
<circle cx="109" cy="181" r="1" fill="white" fill-opacity="0.1"/>
<circle cx="127" cy="181" r="1" fill="white" fill-opacity="0.1"/>
<circle cx="145" cy="181" r="1" fill="white" fill-opacity="0.1"/>
<circle cx="163" cy="181" r="1" fill="white" fill-opacity="0.1"/>
<circle cx="181" cy="181" r="1" fill="white" fill-opacity="0.1"/>
<circle cx="199" cy="181" r="1" fill="white" fill-opacity="0.1"/>
<circle cx="217" cy="181" r="1" fill="white" fill-opacity="0.1"/>
<circle cx="235" cy="181" r="1" fill="white" fill-opacity="0.1"/>
<circle cx="253" cy="181" r="1" fill="white" fill-opacity="0.1"/>
<circle cx="271" cy="181" r="1" fill="white" fill-opacity="0.1"/>
<circle cx="289" cy="181" r="1" fill="white" fill-opacity="0.1"/>
<circle cx="307" cy="181" r="1" fill="white" fill-opacity="0.1"/>
<circle cx="325" cy="181" r="1" fill="white" fill-opacity="0.1"/>
<circle cx="343" cy="181" r="1" fill="white" fill-opacity="0.1"/>
<circle cx="361" cy="181" r="1" fill="white" fill-opacity="0.1"/>
<circle cx="379" cy="181" r="1" fill="white" fill-opacity="0.1"/>
<circle cx="397" cy="181" r="1" fill="white" fill-opacity="0.1"/>
<circle cx="415" cy="181" r="1" fill="white" fill-opacity="0.1"/>
<circle cx="433" cy="181" r="1" fill="white" fill-opacity="0.1"/>
<circle cx="451" cy="181" r="1" fill="white" fill-opacity="0.1"/>
<circle cx="469" cy="181" r="1" fill="white" fill-opacity="0.1"/>
<circle cx="487" cy="181" r="1" fill="white" fill-opacity="0.1"/>
<circle cx="505" cy="181" r="1" fill="white" fill-opacity="0.1"/>
<circle cx="1" cy="199" r="1" fill="white" fill-opacity="0.1"/>
<circle cx="19" cy="199" r="1" fill="white" fill-opacity="0.1"/>
<circle cx="37" cy="199" r="1" fill="white" fill-opacity="0.1"/>
<circle cx="55" cy="199" r="1" fill="white" fill-opacity="0.1"/>
<circle cx="73" cy="199" r="1" fill="white" fill-opacity="0.1"/>
<circle cx="91" cy="199" r="1" fill="white" fill-opacity="0.1"/>
<circle cx="109" cy="199" r="1" fill="white" fill-opacity="0.1"/>
<circle cx="127" cy="199" r="1" fill="white" fill-opacity="0.1"/>
<circle cx="145" cy="199" r="1" fill="white" fill-opacity="0.1"/>
<circle cx="163" cy="199" r="1" fill="white" fill-opacity="0.1"/>
<circle cx="181" cy="199" r="1" fill="white" fill-opacity="0.1"/>
<circle cx="199" cy="199" r="1" fill="white" fill-opacity="0.1"/>
<circle cx="217" cy="199" r="1" fill="white" fill-opacity="0.1"/>
<circle cx="235" cy="199" r="1" fill="white" fill-opacity="0.1"/>
<circle cx="253" cy="199" r="1" fill="white" fill-opacity="0.1"/>
<circle cx="271" cy="199" r="1" fill="white" fill-opacity="0.1"/>
<circle cx="289" cy="199" r="1" fill="white" fill-opacity="0.1"/>
<circle cx="307" cy="199" r="1" fill="white" fill-opacity="0.1"/>
<circle cx="325" cy="199" r="1" fill="white" fill-opacity="0.1"/>
<circle cx="343" cy="199" r="1" fill="white" fill-opacity="0.1"/>
<circle cx="361" cy="199" r="1" fill="white" fill-opacity="0.1"/>
<circle cx="379" cy="199" r="1" fill="white" fill-opacity="0.1"/>
<circle cx="397" cy="199" r="1" fill="white" fill-opacity="0.1"/>
<circle cx="415" cy="199" r="1" fill="white" fill-opacity="0.1"/>
<circle cx="433" cy="199" r="1" fill="white" fill-opacity="0.1"/>
<circle cx="451" cy="199" r="1" fill="white" fill-opacity="0.1"/>
<circle cx="469" cy="199" r="1" fill="white" fill-opacity="0.1"/>
<circle cx="487" cy="199" r="1" fill="white" fill-opacity="0.1"/>
<circle cx="505" cy="199" r="1" fill="white" fill-opacity="0.1"/>
<circle cx="1" cy="217" r="1" fill="white" fill-opacity="0.1"/>
<circle cx="19" cy="217" r="1" fill="white" fill-opacity="0.1"/>
<circle cx="37" cy="217" r="1" fill="white" fill-opacity="0.1"/>
<circle cx="55" cy="217" r="1" fill="white" fill-opacity="0.1"/>
<circle cx="73" cy="217" r="1" fill="white" fill-opacity="0.1"/>
<circle cx="91" cy="217" r="1" fill="white" fill-opacity="0.1"/>
<circle cx="109" cy="217" r="1" fill="white" fill-opacity="0.1"/>
<circle cx="127" cy="217" r="1" fill="white" fill-opacity="0.1"/>
<circle cx="145" cy="217" r="1" fill="white" fill-opacity="0.1"/>
<circle cx="163" cy="217" r="1" fill="white" fill-opacity="0.1"/>
<circle cx="181" cy="217" r="1" fill="white" fill-opacity="0.1"/>
<circle cx="199" cy="217" r="1" fill="white" fill-opacity="0.1"/>
<circle cx="217" cy="217" r="1" fill="white" fill-opacity="0.1"/>
<circle cx="235" cy="217" r="1" fill="white" fill-opacity="0.1"/>
<circle cx="253" cy="217" r="1" fill="white" fill-opacity="0.1"/>
<circle cx="271" cy="217" r="1" fill="white" fill-opacity="0.1"/>
<circle cx="289" cy="217" r="1" fill="white" fill-opacity="0.1"/>
<circle cx="307" cy="217" r="1" fill="white" fill-opacity="0.1"/>
<circle cx="325" cy="217" r="1" fill="white" fill-opacity="0.1"/>
<circle cx="343" cy="217" r="1" fill="white" fill-opacity="0.1"/>
<circle cx="361" cy="217" r="1" fill="white" fill-opacity="0.1"/>
<circle cx="379" cy="217" r="1" fill="white" fill-opacity="0.1"/>
<circle cx="397" cy="217" r="1" fill="white" fill-opacity="0.1"/>
<circle cx="415" cy="217" r="1" fill="white" fill-opacity="0.1"/>
<circle cx="433" cy="217" r="1" fill="white" fill-opacity="0.1"/>
<circle cx="451" cy="217" r="1" fill="white" fill-opacity="0.1"/>
<circle cx="469" cy="217" r="1" fill="white" fill-opacity="0.1"/>
<circle cx="487" cy="217" r="1" fill="white" fill-opacity="0.1"/>
<circle cx="505" cy="217" r="1" fill="white" fill-opacity="0.1"/>
<circle cx="1" cy="235" r="1" fill="white" fill-opacity="0.1"/>
<circle cx="19" cy="235" r="1" fill="white" fill-opacity="0.1"/>
<circle cx="37" cy="235" r="1" fill="white" fill-opacity="0.1"/>
<circle cx="55" cy="235" r="1" fill="white" fill-opacity="0.1"/>
<circle cx="73" cy="235" r="1" fill="white" fill-opacity="0.1"/>
<circle cx="91" cy="235" r="1" fill="white" fill-opacity="0.1"/>
<circle cx="109" cy="235" r="1" fill="white" fill-opacity="0.1"/>
<circle cx="127" cy="235" r="1" fill="white" fill-opacity="0.1"/>
<circle cx="145" cy="235" r="1" fill="white" fill-opacity="0.1"/>
<circle cx="163" cy="235" r="1" fill="white" fill-opacity="0.1"/>
<circle cx="181" cy="235" r="1" fill="white" fill-opacity="0.1"/>
<circle cx="199" cy="235" r="1" fill="white" fill-opacity="0.1"/>
<circle cx="217" cy="235" r="1" fill="white" fill-opacity="0.1"/>
<circle cx="235" cy="235" r="1" fill="white" fill-opacity="0.1"/>
<circle cx="253" cy="235" r="1" fill="white" fill-opacity="0.1"/>
<circle cx="271" cy="235" r="1" fill="white" fill-opacity="0.1"/>
<circle cx="289" cy="235" r="1" fill="white" fill-opacity="0.1"/>
<circle cx="307" cy="235" r="1" fill="white" fill-opacity="0.1"/>
<circle cx="325" cy="235" r="1" fill="white" fill-opacity="0.1"/>
<circle cx="343" cy="235" r="1" fill="white" fill-opacity="0.1"/>
<circle cx="361" cy="235" r="1" fill="white" fill-opacity="0.1"/>
<circle cx="379" cy="235" r="1" fill="white" fill-opacity="0.1"/>
<circle cx="397" cy="235" r="1" fill="white" fill-opacity="0.1"/>
<circle cx="415" cy="235" r="1" fill="white" fill-opacity="0.1"/>
<circle cx="433" cy="235" r="1" fill="white" fill-opacity="0.1"/>
<circle cx="451" cy="235" r="1" fill="white" fill-opacity="0.1"/>
<circle cx="469" cy="235" r="1" fill="white" fill-opacity="0.1"/>
<circle cx="487" cy="235" r="1" fill="white" fill-opacity="0.1"/>
<circle cx="505" cy="235" r="1" fill="white" fill-opacity="0.1"/>
<circle cx="1" cy="253" r="1" fill="white" fill-opacity="0.1"/>
<circle cx="19" cy="253" r="1" fill="white" fill-opacity="0.1"/>
<circle cx="37" cy="253" r="1" fill="white" fill-opacity="0.1"/>
<circle cx="55" cy="253" r="1" fill="white" fill-opacity="0.1"/>
<circle cx="73" cy="253" r="1" fill="white" fill-opacity="0.1"/>
<circle cx="91" cy="253" r="1" fill="white" fill-opacity="0.1"/>
<circle cx="109" cy="253" r="1" fill="white" fill-opacity="0.1"/>
<circle cx="127" cy="253" r="1" fill="white" fill-opacity="0.1"/>
<circle cx="145" cy="253" r="1" fill="white" fill-opacity="0.1"/>
<circle cx="163" cy="253" r="1" fill="white" fill-opacity="0.1"/>
<circle cx="181" cy="253" r="1" fill="white" fill-opacity="0.1"/>
<circle cx="199" cy="253" r="1" fill="white" fill-opacity="0.1"/>
<circle cx="217" cy="253" r="1" fill="white" fill-opacity="0.1"/>
<circle cx="235" cy="253" r="1" fill="white" fill-opacity="0.1"/>
<circle cx="253" cy="253" r="1" fill="white" fill-opacity="0.1"/>
<circle cx="271" cy="253" r="1" fill="white" fill-opacity="0.1"/>
<circle cx="289" cy="253" r="1" fill="white" fill-opacity="0.1"/>
<circle cx="307" cy="253" r="1" fill="white" fill-opacity="0.1"/>
<circle cx="325" cy="253" r="1" fill="white" fill-opacity="0.1"/>
<circle cx="343" cy="253" r="1" fill="white" fill-opacity="0.1"/>
<circle cx="361" cy="253" r="1" fill="white" fill-opacity="0.1"/>
<circle cx="379" cy="253" r="1" fill="white" fill-opacity="0.1"/>
<circle cx="397" cy="253" r="1" fill="white" fill-opacity="0.1"/>
<circle cx="415" cy="253" r="1" fill="white" fill-opacity="0.1"/>
<circle cx="433" cy="253" r="1" fill="white" fill-opacity="0.1"/>
<circle cx="451" cy="253" r="1" fill="white" fill-opacity="0.1"/>
<circle cx="469" cy="253" r="1" fill="white" fill-opacity="0.1"/>
<circle cx="487" cy="253" r="1" fill="white" fill-opacity="0.1"/>
<circle cx="505" cy="253" r="1" fill="white" fill-opacity="0.1"/>
<circle cx="1" cy="271" r="1" fill="white" fill-opacity="0.1"/>
<circle cx="19" cy="271" r="1" fill="white" fill-opacity="0.1"/>
<circle cx="37" cy="271" r="1" fill="white" fill-opacity="0.1"/>
<circle cx="55" cy="271" r="1" fill="white" fill-opacity="0.1"/>
<circle cx="73" cy="271" r="1" fill="white" fill-opacity="0.1"/>
<circle cx="91" cy="271" r="1" fill="white" fill-opacity="0.1"/>
<circle cx="109" cy="271" r="1" fill="white" fill-opacity="0.1"/>
<circle cx="127" cy="271" r="1" fill="white" fill-opacity="0.1"/>
<circle cx="145" cy="271" r="1" fill="white" fill-opacity="0.1"/>
<circle cx="163" cy="271" r="1" fill="white" fill-opacity="0.1"/>
<circle cx="181" cy="271" r="1" fill="white" fill-opacity="0.1"/>
<circle cx="199" cy="271" r="1" fill="white" fill-opacity="0.1"/>
<circle cx="217" cy="271" r="1" fill="white" fill-opacity="0.1"/>
<circle cx="235" cy="271" r="1" fill="white" fill-opacity="0.1"/>
<circle cx="253" cy="271" r="1" fill="white" fill-opacity="0.1"/>
<circle cx="271" cy="271" r="1" fill="white" fill-opacity="0.1"/>
<circle cx="289" cy="271" r="1" fill="white" fill-opacity="0.1"/>
<circle cx="307" cy="271" r="1" fill="white" fill-opacity="0.1"/>
<circle cx="325" cy="271" r="1" fill="white" fill-opacity="0.1"/>
<circle cx="343" cy="271" r="1" fill="white" fill-opacity="0.1"/>
<circle cx="361" cy="271" r="1" fill="white" fill-opacity="0.1"/>
<circle cx="379" cy="271" r="1" fill="white" fill-opacity="0.1"/>
<circle cx="397" cy="271" r="1" fill="white" fill-opacity="0.1"/>
<circle cx="415" cy="271" r="1" fill="white" fill-opacity="0.1"/>
<circle cx="433" cy="271" r="1" fill="white" fill-opacity="0.1"/>
<circle cx="451" cy="271" r="1" fill="white" fill-opacity="0.1"/>
<circle cx="469" cy="271" r="1" fill="white" fill-opacity="0.1"/>
<circle cx="487" cy="271" r="1" fill="white" fill-opacity="0.1"/>
<circle cx="505" cy="271" r="1" fill="white" fill-opacity="0.1"/>
<circle cx="1" cy="289" r="1" fill="white" fill-opacity="0.1"/>
<circle cx="19" cy="289" r="1" fill="white" fill-opacity="0.1"/>
<circle cx="37" cy="289" r="1" fill="white" fill-opacity="0.1"/>
<circle cx="55" cy="289" r="1" fill="white" fill-opacity="0.1"/>
<circle cx="73" cy="289" r="1" fill="white" fill-opacity="0.1"/>
<circle cx="91" cy="289" r="1" fill="white" fill-opacity="0.1"/>
<circle cx="109" cy="289" r="1" fill="white" fill-opacity="0.1"/>
<circle cx="127" cy="289" r="1" fill="white" fill-opacity="0.1"/>
<circle cx="145" cy="289" r="1" fill="white" fill-opacity="0.1"/>
<circle cx="163" cy="289" r="1" fill="white" fill-opacity="0.1"/>
<circle cx="181" cy="289" r="1" fill="white" fill-opacity="0.1"/>
<circle cx="199" cy="289" r="1" fill="white" fill-opacity="0.1"/>
<circle cx="217" cy="289" r="1" fill="white" fill-opacity="0.1"/>
<circle cx="235" cy="289" r="1" fill="white" fill-opacity="0.1"/>
<circle cx="253" cy="289" r="1" fill="white" fill-opacity="0.1"/>
<circle cx="271" cy="289" r="1" fill="white" fill-opacity="0.1"/>
<circle cx="289" cy="289" r="1" fill="white" fill-opacity="0.1"/>
<circle cx="307" cy="289" r="1" fill="white" fill-opacity="0.1"/>
<circle cx="325" cy="289" r="1" fill="white" fill-opacity="0.1"/>
<circle cx="343" cy="289" r="1" fill="white" fill-opacity="0.1"/>
<circle cx="361" cy="289" r="1" fill="white" fill-opacity="0.1"/>
<circle cx="379" cy="289" r="1" fill="white" fill-opacity="0.1"/>
<circle cx="397" cy="289" r="1" fill="white" fill-opacity="0.1"/>
<circle cx="415" cy="289" r="1" fill="white" fill-opacity="0.1"/>
<circle cx="433" cy="289" r="1" fill="white" fill-opacity="0.1"/>
<circle cx="451" cy="289" r="1" fill="white" fill-opacity="0.1"/>
<circle cx="469" cy="289" r="1" fill="white" fill-opacity="0.1"/>
<circle cx="487" cy="289" r="1" fill="white" fill-opacity="0.1"/>
<circle cx="505" cy="289" r="1" fill="white" fill-opacity="0.1"/>
<circle cx="1" cy="307" r="1" fill="white" fill-opacity="0.1"/>
<circle cx="19" cy="307" r="1" fill="white" fill-opacity="0.1"/>
<circle cx="37" cy="307" r="1" fill="white" fill-opacity="0.1"/>
<circle cx="55" cy="307" r="1" fill="white" fill-opacity="0.1"/>
<circle cx="73" cy="307" r="1" fill="white" fill-opacity="0.1"/>
<circle cx="91" cy="307" r="1" fill="white" fill-opacity="0.1"/>
<circle cx="109" cy="307" r="1" fill="white" fill-opacity="0.1"/>
<circle cx="127" cy="307" r="1" fill="white" fill-opacity="0.1"/>
<circle cx="145" cy="307" r="1" fill="white" fill-opacity="0.1"/>
<circle cx="163" cy="307" r="1" fill="white" fill-opacity="0.1"/>
<circle cx="181" cy="307" r="1" fill="white" fill-opacity="0.1"/>
<circle cx="199" cy="307" r="1" fill="white" fill-opacity="0.1"/>
<circle cx="217" cy="307" r="1" fill="white" fill-opacity="0.1"/>
<circle cx="235" cy="307" r="1" fill="white" fill-opacity="0.1"/>
<circle cx="253" cy="307" r="1" fill="white" fill-opacity="0.1"/>
<circle cx="271" cy="307" r="1" fill="white" fill-opacity="0.1"/>
<circle cx="289" cy="307" r="1" fill="white" fill-opacity="0.1"/>
<circle cx="307" cy="307" r="1" fill="white" fill-opacity="0.1"/>
<circle cx="325" cy="307" r="1" fill="white" fill-opacity="0.1"/>
<circle cx="343" cy="307" r="1" fill="white" fill-opacity="0.1"/>
<circle cx="361" cy="307" r="1" fill="white" fill-opacity="0.1"/>
<circle cx="379" cy="307" r="1" fill="white" fill-opacity="0.1"/>
<circle cx="397" cy="307" r="1" fill="white" fill-opacity="0.1"/>
<circle cx="415" cy="307" r="1" fill="white" fill-opacity="0.1"/>
<circle cx="433" cy="307" r="1" fill="white" fill-opacity="0.1"/>
<circle cx="451" cy="307" r="1" fill="white" fill-opacity="0.1"/>
<circle cx="469" cy="307" r="1" fill="white" fill-opacity="0.1"/>
<circle cx="487" cy="307" r="1" fill="white" fill-opacity="0.1"/>
<circle cx="505" cy="307" r="1" fill="white" fill-opacity="0.1"/>
<circle cx="1" cy="325" r="1" fill="white" fill-opacity="0.1"/>
<circle cx="19" cy="325" r="1" fill="white" fill-opacity="0.1"/>
<circle cx="37" cy="325" r="1" fill="white" fill-opacity="0.1"/>
<circle cx="55" cy="325" r="1" fill="white" fill-opacity="0.1"/>
<circle cx="73" cy="325" r="1" fill="white" fill-opacity="0.1"/>
<circle cx="91" cy="325" r="1" fill="white" fill-opacity="0.1"/>
<circle cx="109" cy="325" r="1" fill="white" fill-opacity="0.1"/>
<circle cx="127" cy="325" r="1" fill="white" fill-opacity="0.1"/>
<circle cx="145" cy="325" r="1" fill="white" fill-opacity="0.1"/>
<circle cx="163" cy="325" r="1" fill="white" fill-opacity="0.1"/>
<circle cx="181" cy="325" r="1" fill="white" fill-opacity="0.1"/>
<circle cx="199" cy="325" r="1" fill="white" fill-opacity="0.1"/>
<circle cx="217" cy="325" r="1" fill="white" fill-opacity="0.1"/>
<circle cx="235" cy="325" r="1" fill="white" fill-opacity="0.1"/>
<circle cx="253" cy="325" r="1" fill="white" fill-opacity="0.1"/>
<circle cx="271" cy="325" r="1" fill="white" fill-opacity="0.1"/>
<circle cx="289" cy="325" r="1" fill="white" fill-opacity="0.1"/>
<circle cx="307" cy="325" r="1" fill="white" fill-opacity="0.1"/>
<circle cx="325" cy="325" r="1" fill="white" fill-opacity="0.1"/>
<circle cx="343" cy="325" r="1" fill="white" fill-opacity="0.1"/>
<circle cx="361" cy="325" r="1" fill="white" fill-opacity="0.1"/>
<circle cx="379" cy="325" r="1" fill="white" fill-opacity="0.1"/>
<circle cx="397" cy="325" r="1" fill="white" fill-opacity="0.1"/>
<circle cx="415" cy="325" r="1" fill="white" fill-opacity="0.1"/>
<circle cx="433" cy="325" r="1" fill="white" fill-opacity="0.1"/>
<circle cx="451" cy="325" r="1" fill="white" fill-opacity="0.1"/>
<circle cx="469" cy="325" r="1" fill="white" fill-opacity="0.1"/>
<circle cx="487" cy="325" r="1" fill="white" fill-opacity="0.1"/>
<circle cx="505" cy="325" r="1" fill="white" fill-opacity="0.1"/>
<circle cx="1" cy="343" r="1" fill="white" fill-opacity="0.1"/>
<circle cx="19" cy="343" r="1" fill="white" fill-opacity="0.1"/>
<circle cx="37" cy="343" r="1" fill="white" fill-opacity="0.1"/>
<circle cx="55" cy="343" r="1" fill="white" fill-opacity="0.1"/>
<circle cx="73" cy="343" r="1" fill="white" fill-opacity="0.1"/>
<circle cx="91" cy="343" r="1" fill="white" fill-opacity="0.1"/>
<circle cx="109" cy="343" r="1" fill="white" fill-opacity="0.1"/>
<circle cx="127" cy="343" r="1" fill="white" fill-opacity="0.1"/>
<circle cx="145" cy="343" r="1" fill="white" fill-opacity="0.1"/>
<circle cx="163" cy="343" r="1" fill="white" fill-opacity="0.1"/>
<circle cx="181" cy="343" r="1" fill="white" fill-opacity="0.1"/>
<circle cx="199" cy="343" r="1" fill="white" fill-opacity="0.1"/>
<circle cx="217" cy="343" r="1" fill="white" fill-opacity="0.1"/>
<circle cx="235" cy="343" r="1" fill="white" fill-opacity="0.1"/>
<circle cx="253" cy="343" r="1" fill="white" fill-opacity="0.1"/>
<circle cx="271" cy="343" r="1" fill="white" fill-opacity="0.1"/>
<circle cx="289" cy="343" r="1" fill="white" fill-opacity="0.1"/>
<circle cx="307" cy="343" r="1" fill="white" fill-opacity="0.1"/>
<circle cx="325" cy="343" r="1" fill="white" fill-opacity="0.1"/>
<circle cx="343" cy="343" r="1" fill="white" fill-opacity="0.1"/>
<circle cx="361" cy="343" r="1" fill="white" fill-opacity="0.1"/>
<circle cx="379" cy="343" r="1" fill="white" fill-opacity="0.1"/>
<circle cx="397" cy="343" r="1" fill="white" fill-opacity="0.1"/>
<circle cx="415" cy="343" r="1" fill="white" fill-opacity="0.1"/>
<circle cx="433" cy="343" r="1" fill="white" fill-opacity="0.1"/>
<circle cx="451" cy="343" r="1" fill="white" fill-opacity="0.1"/>
<circle cx="469" cy="343" r="1" fill="white" fill-opacity="0.1"/>
<circle cx="487" cy="343" r="1" fill="white" fill-opacity="0.1"/>
<circle cx="505" cy="343" r="1" fill="white" fill-opacity="0.1"/>
<circle cx="1" cy="361" r="1" fill="white" fill-opacity="0.1"/>
<circle cx="19" cy="361" r="1" fill="white" fill-opacity="0.1"/>
<circle cx="37" cy="361" r="1" fill="white" fill-opacity="0.1"/>
<circle cx="55" cy="361" r="1" fill="white" fill-opacity="0.1"/>
<circle cx="73" cy="361" r="1" fill="white" fill-opacity="0.1"/>
<circle cx="91" cy="361" r="1" fill="white" fill-opacity="0.1"/>
<circle cx="109" cy="361" r="1" fill="white" fill-opacity="0.1"/>
<circle cx="127" cy="361" r="1" fill="white" fill-opacity="0.1"/>
<circle cx="145" cy="361" r="1" fill="white" fill-opacity="0.1"/>
<circle cx="163" cy="361" r="1" fill="white" fill-opacity="0.1"/>
<circle cx="181" cy="361" r="1" fill="white" fill-opacity="0.1"/>
<circle cx="199" cy="361" r="1" fill="white" fill-opacity="0.1"/>
<circle cx="217" cy="361" r="1" fill="white" fill-opacity="0.1"/>
<circle cx="235" cy="361" r="1" fill="white" fill-opacity="0.1"/>
<circle cx="253" cy="361" r="1" fill="white" fill-opacity="0.1"/>
<circle cx="271" cy="361" r="1" fill="white" fill-opacity="0.1"/>
<circle cx="289" cy="361" r="1" fill="white" fill-opacity="0.1"/>
<circle cx="307" cy="361" r="1" fill="white" fill-opacity="0.1"/>
<circle cx="325" cy="361" r="1" fill="white" fill-opacity="0.1"/>
<circle cx="343" cy="361" r="1" fill="white" fill-opacity="0.1"/>
<circle cx="361" cy="361" r="1" fill="white" fill-opacity="0.1"/>
<circle cx="379" cy="361" r="1" fill="white" fill-opacity="0.1"/>
<circle cx="397" cy="361" r="1" fill="white" fill-opacity="0.1"/>
<circle cx="415" cy="361" r="1" fill="white" fill-opacity="0.1"/>
<circle cx="433" cy="361" r="1" fill="white" fill-opacity="0.1"/>
<circle cx="451" cy="361" r="1" fill="white" fill-opacity="0.1"/>
<circle cx="469" cy="361" r="1" fill="white" fill-opacity="0.1"/>
<circle cx="487" cy="361" r="1" fill="white" fill-opacity="0.1"/>
<circle cx="505" cy="361" r="1" fill="white" fill-opacity="0.1"/>
<circle cx="1" cy="379" r="1" fill="white" fill-opacity="0.1"/>
<circle cx="19" cy="379" r="1" fill="white" fill-opacity="0.1"/>
<circle cx="37" cy="379" r="1" fill="white" fill-opacity="0.1"/>
<circle cx="55" cy="379" r="1" fill="white" fill-opacity="0.1"/>
<circle cx="73" cy="379" r="1" fill="white" fill-opacity="0.1"/>
<circle cx="91" cy="379" r="1" fill="white" fill-opacity="0.1"/>
<circle cx="109" cy="379" r="1" fill="white" fill-opacity="0.1"/>
<circle cx="127" cy="379" r="1" fill="white" fill-opacity="0.1"/>
<circle cx="145" cy="379" r="1" fill="white" fill-opacity="0.1"/>
<circle cx="163" cy="379" r="1" fill="white" fill-opacity="0.1"/>
<circle cx="181" cy="379" r="1" fill="white" fill-opacity="0.1"/>
<circle cx="199" cy="379" r="1" fill="white" fill-opacity="0.1"/>
<circle cx="217" cy="379" r="1" fill="white" fill-opacity="0.1"/>
<circle cx="235" cy="379" r="1" fill="white" fill-opacity="0.1"/>
<circle cx="253" cy="379" r="1" fill="white" fill-opacity="0.1"/>
<circle cx="271" cy="379" r="1" fill="white" fill-opacity="0.1"/>
<circle cx="289" cy="379" r="1" fill="white" fill-opacity="0.1"/>
<circle cx="307" cy="379" r="1" fill="white" fill-opacity="0.1"/>
<circle cx="325" cy="379" r="1" fill="white" fill-opacity="0.1"/>
<circle cx="343" cy="379" r="1" fill="white" fill-opacity="0.1"/>
<circle cx="361" cy="379" r="1" fill="white" fill-opacity="0.1"/>
<circle cx="379" cy="379" r="1" fill="white" fill-opacity="0.1"/>
<circle cx="397" cy="379" r="1" fill="white" fill-opacity="0.1"/>
<circle cx="415" cy="379" r="1" fill="white" fill-opacity="0.1"/>
<circle cx="433" cy="379" r="1" fill="white" fill-opacity="0.1"/>
<circle cx="451" cy="379" r="1" fill="white" fill-opacity="0.1"/>
<circle cx="469" cy="379" r="1" fill="white" fill-opacity="0.1"/>
<circle cx="487" cy="379" r="1" fill="white" fill-opacity="0.1"/>
<circle cx="505" cy="379" r="1" fill="white" fill-opacity="0.1"/>
<circle cx="1" cy="397" r="1" fill="white" fill-opacity="0.1"/>
<circle cx="19" cy="397" r="1" fill="white" fill-opacity="0.1"/>
<circle cx="37" cy="397" r="1" fill="white" fill-opacity="0.1"/>
<circle cx="55" cy="397" r="1" fill="white" fill-opacity="0.1"/>
<circle cx="73" cy="397" r="1" fill="white" fill-opacity="0.1"/>
<circle cx="91" cy="397" r="1" fill="white" fill-opacity="0.1"/>
<circle cx="109" cy="397" r="1" fill="white" fill-opacity="0.1"/>
<circle cx="127" cy="397" r="1" fill="white" fill-opacity="0.1"/>
<circle cx="145" cy="397" r="1" fill="white" fill-opacity="0.1"/>
<circle cx="163" cy="397" r="1" fill="white" fill-opacity="0.1"/>
<circle cx="181" cy="397" r="1" fill="white" fill-opacity="0.1"/>
<circle cx="199" cy="397" r="1" fill="white" fill-opacity="0.1"/>
<circle cx="217" cy="397" r="1" fill="white" fill-opacity="0.1"/>
<circle cx="235" cy="397" r="1" fill="white" fill-opacity="0.1"/>
<circle cx="253" cy="397" r="1" fill="white" fill-opacity="0.1"/>
<circle cx="271" cy="397" r="1" fill="white" fill-opacity="0.1"/>
<circle cx="289" cy="397" r="1" fill="white" fill-opacity="0.1"/>
<circle cx="307" cy="397" r="1" fill="white" fill-opacity="0.1"/>
<circle cx="325" cy="397" r="1" fill="white" fill-opacity="0.1"/>
<circle cx="343" cy="397" r="1" fill="white" fill-opacity="0.1"/>
<circle cx="361" cy="397" r="1" fill="white" fill-opacity="0.1"/>
<circle cx="379" cy="397" r="1" fill="white" fill-opacity="0.1"/>
<circle cx="397" cy="397" r="1" fill="white" fill-opacity="0.1"/>
<circle cx="415" cy="397" r="1" fill="white" fill-opacity="0.1"/>
<circle cx="433" cy="397" r="1" fill="white" fill-opacity="0.1"/>
<circle cx="451" cy="397" r="1" fill="white" fill-opacity="0.1"/>
<circle cx="469" cy="397" r="1" fill="white" fill-opacity="0.1"/>
<circle cx="487" cy="397" r="1" fill="white" fill-opacity="0.1"/>
<circle cx="505" cy="397" r="1" fill="white" fill-opacity="0.1"/>
</g>
</g>
<path d="M-1 16C-1 6.61116 6.61116 -1 16 -1H516V1H16C7.71573 1 1 7.71573 1 16H-1ZM516 401H16C6.61116 401 -1 393.389 -1 384H1C1 392.284 7.71573 399 16 399H516V401ZM16 401C6.61116 401 -1 393.389 -1 384V16C-1 6.61116 6.61116 -1 16 -1V1C7.71573 1 1 7.71573 1 16V384C1 392.284 7.71573 399 16 399V401ZM516 0V400V0Z" fill="url(#paint1_linear_6997_13169)" mask="url(#path-1-inside-1_6997_13169)"/>
<defs>
<linearGradient id="paint0_linear_6997_13169" x1="258" y1="0" x2="258" y2="400" gradientUnits="userSpaceOnUse">
<stop stop-color="white" stop-opacity="0.06"/>
<stop offset="1" stop-color="white" stop-opacity="0"/>
</linearGradient>
<linearGradient id="paint1_linear_6997_13169" x1="258" y1="0" x2="258" y2="400" gradientUnits="userSpaceOnUse">
<stop stop-color="white" stop-opacity="0.12"/>
<stop offset="1" stop-color="white" stop-opacity="0"/>
</linearGradient>
<clipPath id="clip0_6997_13169">
<path d="M0 16C0 7.16345 7.16344 0 16 0H516V400H16C7.16345 400 0 392.837 0 384V16Z" fill="white"/>
</clipPath>
<clipPath id="clip1_6997_13169">
<rect width="580" height="400" fill="white"/>
</clipPath>
</defs>
</svg>
