<svg width="348" height="240" viewBox="0 0 348 240" fill="none" xmlns="http://www.w3.org/2000/svg">
<g filter="url(#filter0_d_5970_47848)">
<g clip-path="url(#clip0_5970_47848)">
<rect x="14" y="11" width="320" height="212" rx="6.4" fill="white"/>
<rect width="320" height="39.2" transform="translate(14 11)" fill="white"/>
<path fill-rule="evenodd" clip-rule="evenodd" d="M25.7333 36.7333C25.8806 36.7333 26 36.8527 26 36.9999V38.0666C26 38.2139 25.8806 38.3333 25.7333 38.3333H24.6667C24.5194 38.3333 24.4 38.2139 24.4 38.0666V36.9999C24.4 36.8527 24.5194 36.7333 24.6667 36.7333H25.7333ZM22.5333 36.7333C22.6806 36.7333 22.8 36.8527 22.8 36.9999V38.0666C22.8 38.2139 22.6806 38.3333 22.5333 38.3333H21.4667C21.3194 38.3333 21.2 38.2139 21.2 38.0666V36.9999C21.2 36.8527 21.3194 36.7333 21.4667 36.7333H22.5333ZM24.6667 32.9999H25.7333C25.8806 32.9999 26 33.1193 26 33.2666V34.3333C26 34.4805 25.8806 34.5999 25.7333 34.5999H24.6667C24.5194 34.5999 24.4 34.4805 24.4 34.3333V33.2666C24.4 33.1193 24.5194 32.9999 24.6667 32.9999ZM21.4667 32.9999H22.5333C22.6806 32.9999 22.8 33.1193 22.8 33.2666V34.3333C22.8 34.4805 22.6806 34.5999 22.5333 34.5999H21.4667C21.3194 34.5999 21.2 34.4805 21.2 34.3333V33.2666C21.2 33.1193 21.3194 32.9999 21.4667 32.9999ZM25.7333 29.2666C25.8806 29.2666 26 29.386 26 29.5333V30.5999C26 30.7472 25.8806 30.8666 25.7333 30.8666H24.6667C24.5194 30.8666 24.4 30.7472 24.4 30.5999V29.5333C24.4 29.386 24.5194 29.2666 24.6667 29.2666H25.7333ZM22.5333 29.2666C22.6806 29.2666 22.8 29.386 22.8 29.5333V30.5999C22.8 30.7472 22.6806 30.8666 22.5333 30.8666H21.4667C21.3194 30.8666 21.2 30.7472 21.2 30.5999V29.5333C21.2 29.386 21.3194 29.2666 21.4667 29.2666H22.5333Z" fill="#A9AEB8"/>
<path d="M40.9909 28.4907H42.6636V35.0362C42.6606 35.6362 42.5333 36.1528 42.2818 36.5862C42.0303 37.0165 41.6788 37.3483 41.2273 37.5816C40.7788 37.8119 40.2561 37.9271 39.6591 37.9271C39.1136 37.9271 38.6227 37.8301 38.1864 37.6362C37.753 37.4392 37.4091 37.1483 37.1545 36.7634C36.9 36.3786 36.7727 35.8998 36.7727 35.3271H38.45C38.453 35.5786 38.5076 35.7953 38.6136 35.9771C38.7227 36.1589 38.8727 36.2983 39.0636 36.3953C39.2545 36.4922 39.4742 36.5407 39.7227 36.5407C39.9924 36.5407 40.2212 36.4847 40.4091 36.3725C40.597 36.2574 40.7394 36.0877 40.8364 35.8634C40.9364 35.6392 40.9879 35.3634 40.9909 35.0362V28.4907ZM46.4295 37.9407C45.9871 37.9407 45.5886 37.8619 45.2341 37.7044C44.8826 37.5437 44.6038 37.3074 44.3977 36.9953C44.1947 36.6831 44.0932 36.2983 44.0932 35.8407C44.0932 35.4468 44.1659 35.121 44.3114 34.8634C44.4568 34.6059 44.6553 34.3998 44.9068 34.2453C45.1583 34.0907 45.4417 33.974 45.7568 33.8953C46.075 33.8134 46.4038 33.7543 46.7432 33.718C47.1523 33.6756 47.4841 33.6377 47.7386 33.6043C47.9932 33.568 48.178 33.5134 48.2932 33.4407C48.4114 33.365 48.4704 33.2483 48.4704 33.0907V33.0634C48.4704 32.721 48.3689 32.4559 48.1659 32.268C47.9629 32.0801 47.6704 31.9862 47.2886 31.9862C46.8856 31.9862 46.5659 32.074 46.3295 32.2498C46.0962 32.4256 45.9386 32.6331 45.8568 32.8725L44.3204 32.6543C44.4417 32.2301 44.6417 31.8756 44.9204 31.5907C45.1992 31.3028 45.5401 31.0877 45.9432 30.9453C46.3462 30.7998 46.7917 30.7271 47.2795 30.7271C47.6159 30.7271 47.9508 30.7665 48.2841 30.8453C48.6174 30.924 48.922 31.0543 49.1977 31.2362C49.4735 31.415 49.6947 31.6589 49.8614 31.968C50.0311 32.2771 50.1159 32.6634 50.1159 33.1271V37.7998H48.5341V36.8407H48.4795C48.3795 37.0347 48.2386 37.2165 48.0568 37.3862C47.878 37.5528 47.6523 37.6877 47.3795 37.7907C47.1098 37.8907 46.7932 37.9407 46.4295 37.9407ZM46.8568 36.7316C47.1871 36.7316 47.4735 36.6665 47.7159 36.5362C47.9583 36.4028 48.1447 36.2271 48.275 36.0089C48.4083 35.7907 48.475 35.5528 48.475 35.2953V34.4725C48.4235 34.515 48.3356 34.5543 48.2114 34.5907C48.0901 34.6271 47.9538 34.6589 47.8023 34.6862C47.6508 34.7134 47.5008 34.7377 47.3523 34.7589C47.2038 34.7801 47.075 34.7983 46.9659 34.8134C46.7204 34.8468 46.5008 34.9013 46.3068 34.9771C46.1129 35.0528 45.9598 35.1589 45.8477 35.2953C45.7356 35.4286 45.6795 35.6013 45.6795 35.8134C45.6795 36.1165 45.7901 36.3453 46.0114 36.4998C46.2326 36.6544 46.5144 36.7316 46.8568 36.7316ZM57.7568 30.818L55.2704 37.7998H53.4523L50.9659 30.818H52.7204L54.325 36.0044H54.3977L56.0068 30.818H57.7568ZM60.7045 37.9407C60.2621 37.9407 59.8636 37.8619 59.5091 37.7044C59.1576 37.5437 58.8788 37.3074 58.6727 36.9953C58.4697 36.6831 58.3682 36.2983 58.3682 35.8407C58.3682 35.4468 58.4409 35.121 58.5864 34.8634C58.7318 34.6059 58.9303 34.3998 59.1818 34.2453C59.4333 34.0907 59.7167 33.974 60.0318 33.8953C60.35 33.8134 60.6788 33.7543 61.0182 33.718C61.4273 33.6756 61.7591 33.6377 62.0136 33.6043C62.2682 33.568 62.453 33.5134 62.5682 33.4407C62.6864 33.365 62.7454 33.2483 62.7454 33.0907V33.0634C62.7454 32.721 62.6439 32.4559 62.4409 32.268C62.2379 32.0801 61.9454 31.9862 61.5636 31.9862C61.1606 31.9862 60.8409 32.074 60.6045 32.2498C60.3712 32.4256 60.2136 32.6331 60.1318 32.8725L58.5954 32.6543C58.7167 32.2301 58.9167 31.8756 59.1954 31.5907C59.4742 31.3028 59.8151 31.0877 60.2182 30.9453C60.6212 30.7998 61.0667 30.7271 61.5545 30.7271C61.8909 30.7271 62.2258 30.7665 62.5591 30.8453C62.8924 30.924 63.197 31.0543 63.4727 31.2362C63.7485 31.415 63.9697 31.6589 64.1364 31.968C64.3061 32.2771 64.3909 32.6634 64.3909 33.1271V37.7998H62.8091V36.8407H62.7545C62.6545 37.0347 62.5136 37.2165 62.3318 37.3862C62.153 37.5528 61.9273 37.6877 61.6545 37.7907C61.3848 37.8907 61.0682 37.9407 60.7045 37.9407ZM61.1318 36.7316C61.4621 36.7316 61.7485 36.6665 61.9909 36.5362C62.2333 36.4028 62.4197 36.2271 62.55 36.0089C62.6833 35.7907 62.75 35.5528 62.75 35.2953V34.4725C62.6985 34.515 62.6106 34.5543 62.4864 34.5907C62.3651 34.6271 62.2288 34.6589 62.0773 34.6862C61.9258 34.7134 61.7758 34.7377 61.6273 34.7589C61.4788 34.7801 61.35 34.7983 61.2409 34.8134C60.9954 34.8468 60.7758 34.9013 60.5818 34.9771C60.3879 35.0528 60.2348 35.1589 60.1227 35.2953C60.0106 35.4286 59.9545 35.6013 59.9545 35.8134C59.9545 36.1165 60.0651 36.3453 60.2864 36.4998C60.5076 36.6544 60.7894 36.7316 61.1318 36.7316ZM71.5636 32.6634L70.0636 32.8271C70.0212 32.6756 69.947 32.5331 69.8409 32.3998C69.7379 32.2665 69.5985 32.1589 69.4227 32.0771C69.247 31.9953 69.0318 31.9543 68.7773 31.9543C68.4348 31.9543 68.147 32.0286 67.9136 32.1771C67.6833 32.3256 67.5697 32.518 67.5727 32.7543C67.5697 32.9574 67.6439 33.1225 67.7954 33.2498C67.95 33.3771 68.2045 33.4816 68.5591 33.5634L69.75 33.818C70.4106 33.9604 70.9015 34.1862 71.2227 34.4953C71.547 34.8043 71.7106 35.2089 71.7136 35.7089C71.7106 36.1483 71.5818 36.5362 71.3273 36.8725C71.0758 37.2059 70.7258 37.4665 70.2773 37.6544C69.8288 37.8422 69.3136 37.9362 68.7318 37.9362C67.8773 37.9362 67.1894 37.7574 66.6682 37.3998C66.147 37.0392 65.8364 36.5377 65.7364 35.8953L67.3409 35.7407C67.4136 36.0559 67.5682 36.2937 67.8045 36.4544C68.0409 36.615 68.3485 36.6953 68.7273 36.6953C69.1182 36.6953 69.4318 36.615 69.6682 36.4544C69.9076 36.2937 70.0273 36.0953 70.0273 35.8589C70.0273 35.6589 69.95 35.4937 69.7954 35.3634C69.6439 35.2331 69.4076 35.1331 69.0864 35.0634L67.8954 34.8134C67.2258 34.674 66.7303 34.4392 66.4091 34.1089C66.0879 33.7756 65.9288 33.3543 65.9318 32.8453C65.9288 32.415 66.0454 32.0422 66.2818 31.7271C66.5212 31.4089 66.853 31.1634 67.2773 30.9907C67.7045 30.815 68.197 30.7271 68.7545 30.7271C69.5727 30.7271 70.2167 30.9013 70.6864 31.2498C71.1591 31.5983 71.4515 32.0695 71.5636 32.6634ZM76.1159 37.9362C75.4189 37.9362 74.8204 37.7831 74.3204 37.4771C73.8235 37.171 73.4401 36.7483 73.1704 36.2089C72.9038 35.6665 72.7704 35.0422 72.7704 34.3362C72.7704 33.6271 72.9068 33.0013 73.1795 32.4589C73.4523 31.9134 73.8371 31.4892 74.3341 31.1862C74.8341 30.8801 75.425 30.7271 76.1068 30.7271C76.6735 30.7271 77.175 30.8316 77.6114 31.0407C78.0508 31.2468 78.4008 31.5392 78.6614 31.918C78.922 32.2937 79.0704 32.7331 79.1068 33.2362H77.5341C77.4704 32.8998 77.3189 32.6195 77.0795 32.3953C76.8432 32.168 76.5265 32.0543 76.1295 32.0543C75.7932 32.0543 75.4977 32.1453 75.2432 32.3271C74.9886 32.5059 74.7901 32.7634 74.6477 33.0998C74.5083 33.4362 74.4386 33.8392 74.4386 34.3089C74.4386 34.7847 74.5083 35.1937 74.6477 35.5362C74.7871 35.8756 74.9826 36.1377 75.2341 36.3225C75.4886 36.5044 75.7871 36.5953 76.1295 36.5953C76.372 36.5953 76.5886 36.5498 76.7795 36.4589C76.9735 36.365 77.1356 36.2301 77.2659 36.0544C77.3962 35.8786 77.4856 35.665 77.5341 35.4134H79.1068C79.0674 35.9074 78.922 36.3453 78.6704 36.7271C78.4189 37.1059 78.0765 37.4028 77.6432 37.618C77.2098 37.8301 76.7008 37.9362 76.1159 37.9362ZM80.458 37.7998V30.818H82.0534V31.9816H82.1261C82.2534 31.5786 82.4716 31.268 82.7807 31.0498C83.0928 30.8286 83.4489 30.718 83.8489 30.718C83.9398 30.718 84.0413 30.7225 84.1534 30.7316C84.2686 30.7377 84.364 30.7483 84.4398 30.7634V32.2771C84.3701 32.2528 84.2595 32.2316 84.108 32.2134C83.9595 32.1922 83.8155 32.1816 83.6761 32.1816C83.3761 32.1816 83.1064 32.2468 82.867 32.3771C82.6307 32.5043 82.4443 32.6816 82.308 32.9089C82.1716 33.1362 82.1034 33.3983 82.1034 33.6953V37.7998H80.458ZM85.533 37.7998V30.818H87.1784V37.7998H85.533ZM86.3602 29.8271C86.0996 29.8271 85.8754 29.7407 85.6875 29.568C85.4996 29.3922 85.4057 29.1816 85.4057 28.9362C85.4057 28.6877 85.4996 28.4771 85.6875 28.3043C85.8754 28.1286 86.0996 28.0407 86.3602 28.0407C86.6239 28.0407 86.8481 28.1286 87.033 28.3043C87.2208 28.4771 87.3148 28.6877 87.3148 28.9362C87.3148 29.1816 87.2208 29.3922 87.033 29.568C86.8481 29.7407 86.6239 29.8271 86.3602 29.8271ZM88.8704 40.418V30.818H90.4886V31.9725H90.5841C90.6689 31.8028 90.7886 31.6225 90.9432 31.4316C91.0977 31.2377 91.3068 31.0725 91.5704 30.9362C91.8341 30.7968 92.1704 30.7271 92.5795 30.7271C93.1189 30.7271 93.6053 30.865 94.0386 31.1407C94.475 31.4134 94.8204 31.818 95.075 32.3543C95.3326 32.8877 95.4614 33.5422 95.4614 34.318C95.4614 35.0847 95.3356 35.7362 95.0841 36.2725C94.8326 36.8089 94.4901 37.218 94.0568 37.4998C93.6235 37.7816 93.1326 37.9225 92.5841 37.9225C92.1841 37.9225 91.8523 37.8559 91.5886 37.7225C91.325 37.5892 91.1129 37.4286 90.9523 37.2407C90.7947 37.0498 90.672 36.8695 90.5841 36.6998H90.5159V40.418H88.8704ZM90.4841 34.3089C90.4841 34.7604 90.5477 35.1559 90.675 35.4953C90.8053 35.8347 90.9917 36.0998 91.2341 36.2907C91.4795 36.4786 91.7765 36.5725 92.125 36.5725C92.4886 36.5725 92.7932 36.4756 93.0386 36.2816C93.2841 36.0847 93.4689 35.8165 93.5932 35.4771C93.7204 35.1347 93.7841 34.7453 93.7841 34.3089C93.7841 33.8756 93.722 33.4907 93.5977 33.1543C93.4735 32.818 93.2886 32.5543 93.0432 32.3634C92.7977 32.1725 92.4917 32.0771 92.125 32.0771C91.7735 32.0771 91.475 32.1695 91.2295 32.3543C90.9841 32.5392 90.7977 32.7983 90.6704 33.1316C90.5462 33.465 90.4841 33.8574 90.4841 34.3089ZM100.357 30.818V32.0907H96.3432V30.818H100.357ZM97.3341 29.1453H98.9795V35.6998C98.9795 35.921 99.0129 36.0907 99.0795 36.2089C99.1492 36.324 99.2401 36.4028 99.3523 36.4453C99.4644 36.4877 99.5886 36.5089 99.725 36.5089C99.828 36.5089 99.922 36.5013 100.007 36.4862C100.095 36.471 100.161 36.4574 100.207 36.4453L100.484 37.7316C100.396 37.7619 100.27 37.7953 100.107 37.8316C99.9462 37.868 99.7492 37.8892 99.5159 37.8953C99.1038 37.9074 98.7326 37.8453 98.4023 37.7089C98.072 37.5695 97.8098 37.3544 97.6159 37.0634C97.425 36.7725 97.3311 36.4089 97.3341 35.9725V29.1453Z" fill="#1D2129"/>
<path fill-rule="evenodd" clip-rule="evenodd" d="M308.176 30.3759C308.41 30.1416 308.79 30.1416 309.024 30.3759L311.6 32.9517L314.176 30.3759C314.41 30.1416 314.79 30.1416 315.024 30.3759C315.259 30.6102 315.259 30.9901 315.024 31.2245L312.449 33.8002L315.024 36.3759C315.259 36.6102 315.259 36.9901 315.024 37.2245C314.79 37.4588 314.41 37.4588 314.176 37.2245L311.6 34.6487L309.024 37.2245C308.79 37.4588 308.41 37.4588 308.176 37.2245C307.941 36.9901 307.941 36.6102 308.176 36.3759L310.751 33.8002L308.176 31.2245C307.941 30.9901 307.941 30.6102 308.176 30.3759Z" fill="#1D2129"/>
<path d="M28.1204 64H27.0864L30.0773 55.8545H31.0954L34.0864 64H33.0523L30.6182 57.1432H30.5545L28.1204 64ZM28.5023 60.8182H32.6704V61.6932H28.5023V60.8182ZM37.5346 64.1273C37.0256 64.1273 36.5761 63.9987 36.1864 63.7415C35.7966 63.4816 35.4917 63.1157 35.2716 62.6438C35.0515 62.1691 34.9415 61.6083 34.9415 60.9614C34.9415 60.3197 35.0515 59.7629 35.2716 59.2909C35.4917 58.8189 35.7979 58.4544 36.1903 58.1972C36.5828 57.94 37.0362 57.8114 37.5506 57.8114C37.9483 57.8114 38.2625 57.8777 38.4932 58.0102C38.7265 58.1402 38.9042 58.2886 39.0261 58.4557C39.1507 58.6201 39.2475 58.7553 39.3165 58.8614H39.396V55.8545H40.3346V64H39.4278V63.0614H39.3165C39.2475 63.1727 39.1494 63.3133 39.0221 63.483C38.8949 63.65 38.7132 63.7998 38.4773 63.9324C38.2413 64.0623 37.9271 64.1273 37.5346 64.1273ZM37.6619 63.2841C38.0384 63.2841 38.3566 63.186 38.6165 62.9898C38.8763 62.7909 39.0739 62.5165 39.2091 62.1665C39.3443 61.8138 39.4119 61.4068 39.4119 60.9455C39.4119 60.4894 39.3456 60.0903 39.2131 59.7483C39.0805 59.4036 38.8843 59.1358 38.6244 58.9449C38.3646 58.7513 38.0437 58.6545 37.6619 58.6545C37.2642 58.6545 36.9328 58.7566 36.6676 58.9608C36.4051 59.1623 36.2076 59.4367 36.075 59.7841C35.9451 60.1288 35.8801 60.5159 35.8801 60.9455C35.8801 61.3803 35.9464 61.7754 36.079 62.1307C36.2142 62.4833 36.4131 62.7644 36.6756 62.9739C36.9407 63.1807 37.2695 63.2841 37.6619 63.2841ZM44.4909 64.1273C43.9818 64.1273 43.5324 63.9987 43.1426 63.7415C42.7528 63.4816 42.4479 63.1157 42.2278 62.6438C42.0078 62.1691 41.8977 61.6083 41.8977 60.9614C41.8977 60.3197 42.0078 59.7629 42.2278 59.2909C42.4479 58.8189 42.7542 58.4544 43.1466 58.1972C43.539 57.94 43.9924 57.8114 44.5068 57.8114C44.9045 57.8114 45.2187 57.8777 45.4494 58.0102C45.6828 58.1402 45.8604 58.2886 45.9824 58.4557C46.107 58.6201 46.2038 58.7553 46.2727 58.8614H46.3523V55.8545H47.2909V64H46.3841V63.0614H46.2727C46.2038 63.1727 46.1057 63.3133 45.9784 63.483C45.8511 63.65 45.6695 63.7998 45.4335 63.9324C45.1975 64.0623 44.8833 64.1273 44.4909 64.1273ZM44.6182 63.2841C44.9947 63.2841 45.3129 63.186 45.5727 62.9898C45.8326 62.7909 46.0301 62.5165 46.1653 62.1665C46.3006 61.8138 46.3682 61.4068 46.3682 60.9455C46.3682 60.4894 46.3019 60.0903 46.1693 59.7483C46.0367 59.4036 45.8405 59.1358 45.5807 58.9449C45.3208 58.7513 45 58.6545 44.6182 58.6545C44.2204 58.6545 43.889 58.7566 43.6239 58.9608C43.3614 59.1623 43.1638 59.4367 43.0312 59.7841C42.9013 60.1288 42.8364 60.5159 42.8364 60.9455C42.8364 61.3803 42.9026 61.7754 43.0352 62.1307C43.1704 62.4833 43.3693 62.7644 43.6318 62.9739C43.897 63.1807 44.2257 63.2841 44.6182 63.2841ZM54.7562 66.4182C54.3028 66.4182 53.9131 66.3598 53.5869 66.2432C53.2608 66.1292 52.989 65.978 52.7716 65.7898C52.5568 65.6042 52.3858 65.4053 52.2585 65.1932L53.0062 64.6682C53.0911 64.7795 53.1985 64.9068 53.3284 65.05C53.4583 65.1958 53.636 65.3218 53.8613 65.4278C54.0894 65.5366 54.3877 65.5909 54.7562 65.5909C55.2494 65.5909 55.6564 65.4716 55.9773 65.233C56.2981 64.9943 56.4585 64.6205 56.4585 64.1114V62.8705H56.379C56.31 62.9818 56.2119 63.1197 56.0846 63.2841C55.96 63.4458 55.7797 63.5903 55.5437 63.7176C55.3104 63.8422 54.9949 63.9045 54.5971 63.9045C54.104 63.9045 53.6612 63.7879 53.2687 63.5545C52.879 63.3212 52.5701 62.9818 52.342 62.5364C52.1167 62.0909 52.004 61.55 52.004 60.9136C52.004 60.2879 52.114 59.743 52.3341 59.279C52.5542 58.8123 52.8604 58.4517 53.2528 58.1972C53.6453 57.94 54.0987 57.8114 54.6131 57.8114C55.0108 57.8114 55.3263 57.8777 55.5596 58.0102C55.7956 58.1402 55.9759 58.2886 56.1006 58.4557C56.2278 58.6201 56.3259 58.7553 56.3949 58.8614H56.4903V57.8909H57.3971V64.175C57.3971 64.7 57.2778 65.1269 57.0392 65.4557C56.8032 65.7871 56.485 66.0297 56.0846 66.1835C55.6869 66.34 55.2441 66.4182 54.7562 66.4182ZM54.7244 63.0614C55.1009 63.0614 55.4191 62.9752 55.679 62.8028C55.9388 62.6305 56.1363 62.3826 56.2716 62.0591C56.4068 61.7356 56.4744 61.3485 56.4744 60.8977C56.4744 60.4576 56.4081 60.0691 56.2756 59.7324C56.143 59.3956 55.9468 59.1318 55.6869 58.9409C55.4271 58.75 55.1062 58.6545 54.7244 58.6545C54.3267 58.6545 53.9953 58.7553 53.7301 58.9568C53.4676 59.1583 53.2701 59.4288 53.1375 59.7682C53.0076 60.1076 52.9426 60.4841 52.9426 60.8977C52.9426 61.322 53.0089 61.6972 53.1415 62.0233C53.2767 62.3468 53.4756 62.6013 53.7381 62.7869C54.0032 62.9699 54.332 63.0614 54.7244 63.0614ZM60.054 55.8545V64H59.1153V55.8545H60.054ZM64.255 64.1273C63.7034 64.1273 63.2195 63.996 62.8033 63.7335C62.3896 63.471 62.0661 63.1038 61.8328 62.6318C61.6021 62.1598 61.4868 61.6083 61.4868 60.9773C61.4868 60.3409 61.6021 59.7854 61.8328 59.3108C62.0661 58.8362 62.3896 58.4676 62.8033 58.2051C63.2195 57.9426 63.7034 57.8114 64.255 57.8114C64.8065 57.8114 65.289 57.9426 65.7027 58.2051C66.119 58.4676 66.4425 58.8362 66.6731 59.3108C66.9065 59.7854 67.0231 60.3409 67.0231 60.9773C67.0231 61.6083 66.9065 62.1598 66.6731 62.6318C66.4425 63.1038 66.119 63.471 65.7027 63.7335C65.289 63.996 64.8065 64.1273 64.255 64.1273ZM64.255 63.2841C64.6739 63.2841 65.0186 63.1767 65.289 62.9619C65.5595 62.7472 65.7597 62.4648 65.8896 62.1148C66.0195 61.7648 66.0845 61.3856 66.0845 60.9773C66.0845 60.5689 66.0195 60.1884 65.8896 59.8358C65.7597 59.4831 65.5595 59.1981 65.289 58.9807C65.0186 58.7633 64.6739 58.6545 64.255 58.6545C63.836 58.6545 63.4913 58.7633 63.2209 58.9807C62.9504 59.1981 62.7502 59.4831 62.6203 59.8358C62.4904 60.1884 62.4254 60.5689 62.4254 60.9773C62.4254 61.3856 62.4904 61.7648 62.6203 62.1148C62.7502 62.4648 62.9504 62.7472 63.2209 62.9619C63.4913 63.1767 63.836 63.2841 64.255 63.2841ZM68.5832 64V55.8545H69.5219V58.8614H69.6014C69.6703 58.7553 69.7658 58.6201 69.8878 58.4557C70.0124 58.2886 70.19 58.1402 70.4207 58.0102C70.6541 57.8777 70.9696 57.8114 71.3673 57.8114C71.8817 57.8114 72.3351 57.94 72.7275 58.1972C73.12 58.4544 73.4262 58.8189 73.6463 59.2909C73.8664 59.7629 73.9764 60.3197 73.9764 60.9614C73.9764 61.6083 73.8664 62.1691 73.6463 62.6438C73.4262 63.1157 73.1213 63.4816 72.7315 63.7415C72.3417 63.9987 71.8923 64.1273 71.3832 64.1273C70.9908 64.1273 70.6766 64.0623 70.4406 63.9324C70.2046 63.7998 70.023 63.65 69.8957 63.483C69.7685 63.3133 69.6703 63.1727 69.6014 63.0614H69.49V64H68.5832ZM69.506 60.9455C69.506 61.4068 69.5736 61.8138 69.7088 62.1665C69.844 62.5165 70.0416 62.7909 70.3014 62.9898C70.5613 63.186 70.8794 63.2841 71.256 63.2841C71.6484 63.2841 71.9758 63.1807 72.2383 62.9739C72.5035 62.7644 72.7024 62.4833 72.8349 62.1307C72.9702 61.7754 73.0378 61.3803 73.0378 60.9455C73.0378 60.5159 72.9715 60.1288 72.8389 59.7841C72.709 59.4367 72.5114 59.1623 72.2463 58.9608C71.9838 58.7566 71.6537 58.6545 71.256 58.6545C70.8741 58.6545 70.5533 58.7513 70.2935 58.9449C70.0336 59.1358 69.8374 59.4036 69.7048 59.7483C69.5722 60.0903 69.506 60.4894 69.506 60.9455ZM77.2099 64.1432C76.8228 64.1432 76.4715 64.0703 76.156 63.9244C75.8404 63.7759 75.5899 63.5625 75.4042 63.2841C75.2186 63.003 75.1258 62.6636 75.1258 62.2659C75.1258 61.9159 75.1948 61.6322 75.3327 61.4148C75.4705 61.1947 75.6548 61.0223 75.8855 60.8977C76.1162 60.7731 76.3707 60.6803 76.6491 60.6193C76.9302 60.5557 77.2126 60.5053 77.4963 60.4682C77.8675 60.4205 78.1685 60.3847 78.3991 60.3608C78.6325 60.3343 78.8022 60.2905 78.9082 60.2295C79.0169 60.1686 79.0713 60.0625 79.0713 59.9114V59.8795C79.0713 59.4871 78.9639 59.1822 78.7491 58.9648C78.537 58.7473 78.2149 58.6386 77.7827 58.6386C77.3346 58.6386 76.9832 58.7367 76.7287 58.933C76.4741 59.1292 76.2952 59.3386 76.1917 59.5614L75.3008 59.2432C75.4599 58.872 75.6721 58.583 75.9372 58.3761C76.205 58.1667 76.4967 58.0208 76.8122 57.9386C77.1304 57.8538 77.4433 57.8114 77.7508 57.8114C77.9471 57.8114 78.1724 57.8352 78.427 57.883C78.6842 57.928 78.9321 58.0222 79.1707 58.1653C79.412 58.3085 79.6122 58.5246 79.7713 58.8136C79.9304 59.1027 80.0099 59.4898 80.0099 59.975V64H79.0713V63.1727H79.0236C78.9599 63.3053 78.8539 63.4472 78.7054 63.5983C78.5569 63.7494 78.3594 63.878 78.1128 63.9841C77.8662 64.0902 77.5652 64.1432 77.2099 64.1432ZM77.3531 63.3C77.7243 63.3 78.0372 63.2271 78.2917 63.0813C78.5489 62.9354 78.7425 62.7472 78.8724 62.5165C79.005 62.2858 79.0713 62.0432 79.0713 61.7886V60.9295C79.0315 60.9773 78.944 61.021 78.8088 61.0608C78.6762 61.0979 78.5224 61.1311 78.3474 61.1602C78.1751 61.1867 78.0067 61.2106 77.8423 61.2318C77.6806 61.2504 77.5493 61.2663 77.4486 61.2795C77.2046 61.3114 76.9766 61.3631 76.7645 61.4347C76.555 61.5036 76.3853 61.6083 76.2554 61.7489C76.1281 61.8867 76.0645 62.075 76.0645 62.3136C76.0645 62.6398 76.1851 62.8864 76.4264 63.0534C76.6703 63.2178 76.9792 63.3 77.3531 63.3ZM82.6618 55.8545V64H81.7231V55.8545H82.6618ZM90.2514 57.8909V58.6864H86.9582V57.8909H90.2514ZM87.9446 64V57.0477C87.9446 56.6977 88.0268 56.4061 88.1912 56.1727C88.3556 55.9394 88.569 55.7644 88.8315 55.6477C89.094 55.5311 89.3711 55.4727 89.6628 55.4727C89.8935 55.4727 90.0817 55.4913 90.2275 55.5284C90.3734 55.5655 90.4821 55.6 90.5537 55.6318L90.2832 56.4432C90.2355 56.4273 90.1692 56.4074 90.0844 56.3835C90.0022 56.3597 89.8935 56.3477 89.7582 56.3477C89.448 56.3477 89.2239 56.4259 89.0861 56.5824C88.9508 56.7388 88.8832 56.9682 88.8832 57.2705V64H87.9446ZM95.4169 61.5023V57.8909H96.3555V64H95.4169V62.9659H95.3533C95.2101 63.2761 94.9873 63.54 94.6851 63.7574C94.3828 63.9722 94.001 64.0795 93.5396 64.0795C93.1578 64.0795 92.8184 63.996 92.5214 63.829C92.2245 63.6593 91.9911 63.4047 91.8214 63.0653C91.6517 62.7233 91.5669 62.2924 91.5669 61.7727V57.8909H92.5055V61.7091C92.5055 62.1545 92.6301 62.5098 92.8794 62.775C93.1313 63.0402 93.4521 63.1727 93.8419 63.1727C94.0752 63.1727 94.3125 63.1131 94.5538 62.9938C94.7978 62.8744 95.0019 62.6915 95.1663 62.4449C95.3334 62.1983 95.4169 61.8841 95.4169 61.5023ZM99.0133 60.325V64H98.0747V57.8909H98.9815V58.8455H99.0611C99.2042 58.5352 99.4217 58.286 99.7133 58.0977C100.005 57.9068 100.382 57.8114 100.843 57.8114C101.257 57.8114 101.618 57.8962 101.929 58.0659C102.239 58.233 102.48 58.4875 102.653 58.8295C102.825 59.1689 102.911 59.5985 102.911 60.1182V64H101.972V60.1818C101.972 59.7019 101.848 59.328 101.599 59.0602C101.349 58.7898 101.007 58.6545 100.572 58.6545C100.273 58.6545 100.005 58.7195 99.769 58.8494C99.5357 58.9794 99.3514 59.1689 99.2162 59.4182C99.0809 59.6674 99.0133 59.9697 99.0133 60.325ZM107.108 64.1273C106.535 64.1273 106.042 63.992 105.629 63.7216C105.215 63.4511 104.897 63.0786 104.674 62.604C104.451 62.1294 104.34 61.5871 104.34 60.9773C104.34 60.3568 104.454 59.8093 104.682 59.3347C104.913 58.8574 105.233 58.4848 105.644 58.217C106.058 57.9466 106.541 57.8114 107.092 57.8114C107.522 57.8114 107.909 57.8909 108.254 58.05C108.598 58.2091 108.881 58.4318 109.101 58.7182C109.321 59.0045 109.457 59.3386 109.51 59.7205H108.572C108.5 59.442 108.341 59.1955 108.094 58.9807C107.851 58.7633 107.522 58.6545 107.108 58.6545C106.742 58.6545 106.421 58.75 106.146 58.9409C105.872 59.1292 105.659 59.3956 105.505 59.7403C105.354 60.0824 105.279 60.4841 105.279 60.9455C105.279 61.4174 105.353 61.8284 105.501 62.1784C105.652 62.5284 105.865 62.8002 106.138 62.9938C106.413 63.1873 106.737 63.2841 107.108 63.2841C107.352 63.2841 107.573 63.2417 107.772 63.1568C107.971 63.072 108.14 62.95 108.277 62.7909C108.415 62.6318 108.513 62.4409 108.572 62.2182H109.51C109.457 62.5788 109.326 62.9036 109.117 63.1926C108.91 63.479 108.635 63.707 108.293 63.8767C107.954 64.0437 107.559 64.1273 107.108 64.1273ZM113.539 57.8909V58.6864H110.373V57.8909H113.539ZM111.296 56.4273H112.235V62.25C112.235 62.5152 112.273 62.714 112.35 62.8466C112.43 62.9765 112.53 63.064 112.652 63.1091C112.777 63.1515 112.908 63.1727 113.046 63.1727C113.15 63.1727 113.234 63.1674 113.301 63.1568C113.367 63.1436 113.42 63.133 113.46 63.125L113.651 63.9682C113.587 63.992 113.498 64.0159 113.384 64.0398C113.27 64.0663 113.126 64.0795 112.951 64.0795C112.686 64.0795 112.426 64.0225 112.171 63.9085C111.919 63.7945 111.71 63.6208 111.543 63.3875C111.378 63.1542 111.296 62.8598 111.296 62.5045V56.4273ZM114.951 64V57.8909H115.89V64H114.951ZM115.429 56.8727C115.246 56.8727 115.088 56.8104 114.955 56.6858C114.825 56.5612 114.76 56.4114 114.76 56.2364C114.76 56.0614 114.825 55.9116 114.955 55.7869C115.088 55.6623 115.246 55.6 115.429 55.6C115.611 55.6 115.768 55.6623 115.898 55.7869C116.03 55.9116 116.097 56.0614 116.097 56.2364C116.097 56.4114 116.03 56.5612 115.898 56.6858C115.768 56.8104 115.611 56.8727 115.429 56.8727ZM120.091 64.1273C119.539 64.1273 119.055 63.996 118.639 63.7335C118.226 63.471 117.902 63.1038 117.669 62.6318C117.438 62.1598 117.323 61.6083 117.323 60.9773C117.323 60.3409 117.438 59.7854 117.669 59.3108C117.902 58.8362 118.226 58.4676 118.639 58.2051C119.055 57.9426 119.539 57.8114 120.091 57.8114C120.642 57.8114 121.125 57.9426 121.539 58.2051C121.955 58.4676 122.278 58.8362 122.509 59.3108C122.742 59.7854 122.859 60.3409 122.859 60.9773C122.859 61.6083 122.742 62.1598 122.509 62.6318C122.278 63.1038 121.955 63.471 121.539 63.7335C121.125 63.996 120.642 64.1273 120.091 64.1273ZM120.091 63.2841C120.51 63.2841 120.855 63.1767 121.125 62.9619C121.395 62.7472 121.596 62.4648 121.726 62.1148C121.855 61.7648 121.92 61.3856 121.92 60.9773C121.92 60.5689 121.855 60.1884 121.726 59.8358C121.596 59.4831 121.395 59.1981 121.125 58.9807C120.855 58.7633 120.51 58.6545 120.091 58.6545C119.672 58.6545 119.327 58.7633 119.057 58.9807C118.786 59.1981 118.586 59.4831 118.456 59.8358C118.326 60.1884 118.261 60.5689 118.261 60.9773C118.261 61.3856 118.326 61.7648 118.456 62.1148C118.586 62.4648 118.786 62.7472 119.057 62.9619C119.327 63.1767 119.672 63.2841 120.091 63.2841ZM125.231 60.325V64H124.292V57.8909H125.199V58.8455H125.278C125.421 58.5352 125.639 58.286 125.931 58.0977C126.222 57.9068 126.599 57.8114 127.06 57.8114C127.474 57.8114 127.836 57.8962 128.146 58.0659C128.456 58.233 128.697 58.4875 128.87 58.8295C129.042 59.1689 129.128 59.5985 129.128 60.1182V64H128.19V60.1818C128.19 59.7019 128.065 59.328 127.816 59.0602C127.567 58.7898 127.224 58.6545 126.79 58.6545C126.49 58.6545 126.222 58.7195 125.986 58.8494C125.753 58.9794 125.569 59.1689 125.433 59.4182C125.298 59.6674 125.231 59.9697 125.231 60.325ZM135.171 59.2591L134.328 59.4977C134.275 59.3572 134.196 59.2206 134.093 59.0881C133.992 58.9528 133.854 58.8415 133.679 58.754C133.504 58.6665 133.28 58.6227 133.007 58.6227C132.633 58.6227 132.322 58.7089 132.072 58.8813C131.826 59.0509 131.703 59.267 131.703 59.5295C131.703 59.7629 131.787 59.9472 131.957 60.0824C132.127 60.2176 132.392 60.3303 132.753 60.4205L133.659 60.6432C134.206 60.7758 134.613 60.9786 134.88 61.2517C135.148 61.5222 135.282 61.8708 135.282 62.2977C135.282 62.6477 135.181 62.9606 134.98 63.2364C134.781 63.5121 134.503 63.7295 134.145 63.8886C133.787 64.0477 133.37 64.1273 132.896 64.1273C132.273 64.1273 131.757 63.992 131.349 63.7216C130.94 63.4511 130.682 63.0561 130.573 62.5364L131.464 62.3136C131.549 62.6424 131.709 62.889 131.945 63.0534C132.184 63.2178 132.495 63.3 132.88 63.3C133.317 63.3 133.665 63.2072 133.922 63.0216C134.182 62.8333 134.312 62.608 134.312 62.3455C134.312 62.1333 134.237 61.9557 134.089 61.8125C133.94 61.6667 133.712 61.558 133.405 61.4864L132.387 61.2477C131.827 61.1152 131.416 60.9097 131.154 60.6313C130.894 60.3502 130.764 59.9989 130.764 59.5773C130.764 59.2326 130.861 58.9277 131.054 58.6625C131.25 58.3973 131.517 58.1892 131.854 58.0381C132.193 57.8869 132.578 57.8114 133.007 57.8114C133.612 57.8114 134.086 57.9439 134.431 58.2091C134.778 58.4742 135.025 58.8242 135.171 59.2591ZM142.327 64.1273C141.775 64.1273 141.291 63.996 140.875 63.7335C140.461 63.471 140.138 63.1038 139.905 62.6318C139.674 62.1598 139.559 61.6083 139.559 60.9773C139.559 60.3409 139.674 59.7854 139.905 59.3108C140.138 58.8362 140.461 58.4676 140.875 58.2051C141.291 57.9426 141.775 57.8114 142.327 57.8114C142.878 57.8114 143.361 57.9426 143.775 58.2051C144.191 58.4676 144.514 58.8362 144.745 59.3108C144.978 59.7854 145.095 60.3409 145.095 60.9773C145.095 61.6083 144.978 62.1598 144.745 62.6318C144.514 63.1038 144.191 63.471 143.775 63.7335C143.361 63.996 142.878 64.1273 142.327 64.1273ZM142.327 63.2841C142.746 63.2841 143.09 63.1767 143.361 62.9619C143.631 62.7472 143.832 62.4648 143.961 62.1148C144.091 61.7648 144.156 61.3856 144.156 60.9773C144.156 60.5689 144.091 60.1884 143.961 59.8358C143.832 59.4831 143.631 59.1981 143.361 58.9807C143.09 58.7633 142.746 58.6545 142.327 58.6545C141.908 58.6545 141.563 58.7633 141.293 58.9807C141.022 59.1981 140.822 59.4831 140.692 59.8358C140.562 60.1884 140.497 60.5689 140.497 60.9773C140.497 61.3856 140.562 61.7648 140.692 62.1148C140.822 62.4648 141.022 62.7472 141.293 62.9619C141.563 63.1767 141.908 63.2841 142.327 63.2841ZM146.528 64V57.8909H147.435V58.8136H147.498C147.61 58.5114 147.811 58.2661 148.103 58.0778C148.394 57.8896 148.723 57.7955 149.089 57.7955C149.158 57.7955 149.244 57.7968 149.348 57.7994C149.451 57.8021 149.529 57.8061 149.582 57.8114V58.7659C149.551 58.758 149.478 58.746 149.364 58.7301C149.252 58.7116 149.134 58.7023 149.01 58.7023C148.713 58.7023 148.448 58.7646 148.214 58.8892C147.984 59.0112 147.801 59.1809 147.665 59.3983C147.533 59.6131 147.466 59.8583 147.466 60.1341V64H146.528ZM158.84 57.8909L156.581 64H155.627L153.368 57.8909H154.386L156.072 62.7591H156.136L157.822 57.8909H158.84ZM161.691 64.1432C161.304 64.1432 160.953 64.0703 160.637 63.9244C160.322 63.7759 160.071 63.5625 159.885 63.2841C159.7 63.003 159.607 62.6636 159.607 62.2659C159.607 61.9159 159.676 61.6322 159.814 61.4148C159.952 61.1947 160.136 61.0223 160.367 60.8977C160.597 60.7731 160.852 60.6803 161.13 60.6193C161.411 60.5557 161.694 60.5053 161.978 60.4682C162.349 60.4205 162.65 60.3847 162.88 60.3608C163.114 60.3343 163.283 60.2905 163.389 60.2295C163.498 60.1686 163.553 60.0625 163.553 59.9114V59.8795C163.553 59.4871 163.445 59.1822 163.23 58.9648C163.018 58.7473 162.696 58.6386 162.264 58.6386C161.816 58.6386 161.464 58.7367 161.21 58.933C160.955 59.1292 160.776 59.3386 160.673 59.5614L159.782 59.2432C159.941 58.872 160.153 58.583 160.418 58.3761C160.686 58.1667 160.978 58.0208 161.293 57.9386C161.612 57.8538 161.925 57.8114 162.232 57.8114C162.428 57.8114 162.654 57.8352 162.908 57.883C163.165 57.928 163.413 58.0222 163.652 58.1653C163.893 58.3085 164.093 58.5246 164.253 58.8136C164.412 59.1027 164.491 59.4898 164.491 59.975V64H163.553V63.1727H163.505C163.441 63.3053 163.335 63.4472 163.187 63.5983C163.038 63.7494 162.841 63.878 162.594 63.9841C162.347 64.0902 162.046 64.1432 161.691 64.1432ZM161.834 63.3C162.206 63.3 162.518 63.2271 162.773 63.0813C163.03 62.9354 163.224 62.7472 163.354 62.5165C163.486 62.2858 163.553 62.0432 163.553 61.7886V60.9295C163.513 60.9773 163.425 61.021 163.29 61.0608C163.157 61.0979 163.004 61.1311 162.829 61.1602C162.656 61.1867 162.488 61.2106 162.324 61.2318C162.162 61.2504 162.031 61.2663 161.93 61.2795C161.686 61.3114 161.458 61.3631 161.246 61.4347C161.036 61.5036 160.867 61.6083 160.737 61.7489C160.609 61.8867 160.546 62.075 160.546 62.3136C160.546 62.6398 160.666 62.8864 160.908 63.0534C161.152 63.2178 161.46 63.3 161.834 63.3ZM166.204 64V57.8909H167.111V58.8136H167.175C167.286 58.5114 167.488 58.2661 167.779 58.0778C168.071 57.8896 168.4 57.7955 168.766 57.7955C168.835 57.7955 168.921 57.7968 169.024 57.7994C169.128 57.8021 169.206 57.8061 169.259 57.8114V58.7659C169.227 58.758 169.154 58.746 169.04 58.7301C168.929 58.7116 168.811 58.7023 168.686 58.7023C168.389 58.7023 168.124 58.7646 167.891 58.8892C167.66 59.0112 167.477 59.1809 167.342 59.3983C167.209 59.6131 167.143 59.8583 167.143 60.1341V64H166.204ZM170.372 64V57.8909H171.31V64H170.372ZM170.849 56.8727C170.666 56.8727 170.508 56.8104 170.376 56.6858C170.246 56.5612 170.181 56.4114 170.181 56.2364C170.181 56.0614 170.246 55.9116 170.376 55.7869C170.508 55.6623 170.666 55.6 170.849 55.6C171.032 55.6 171.188 55.6623 171.318 55.7869C171.451 55.9116 171.517 56.0614 171.517 56.2364C171.517 56.4114 171.451 56.5612 171.318 56.6858C171.188 56.8104 171.032 56.8727 170.849 56.8727ZM174.827 64.1432C174.44 64.1432 174.089 64.0703 173.773 63.9244C173.458 63.7759 173.207 63.5625 173.021 63.2841C172.836 63.003 172.743 62.6636 172.743 62.2659C172.743 61.9159 172.812 61.6322 172.95 61.4148C173.088 61.1947 173.272 61.0223 173.503 60.8977C173.733 60.7731 173.988 60.6803 174.266 60.6193C174.547 60.5557 174.83 60.5053 175.113 60.4682C175.485 60.4205 175.786 60.3847 176.016 60.3608C176.25 60.3343 176.419 60.2905 176.525 60.2295C176.634 60.1686 176.688 60.0625 176.688 59.9114V59.8795C176.688 59.4871 176.581 59.1822 176.366 58.9648C176.154 58.7473 175.832 58.6386 175.4 58.6386C174.952 58.6386 174.6 58.7367 174.346 58.933C174.091 59.1292 173.912 59.3386 173.809 59.5614L172.918 59.2432C173.077 58.872 173.289 58.583 173.554 58.3761C173.822 58.1667 174.114 58.0208 174.429 57.9386C174.748 57.8538 175.06 57.8114 175.368 57.8114C175.564 57.8114 175.79 57.8352 176.044 57.883C176.301 57.928 176.549 58.0222 176.788 58.1653C177.029 58.3085 177.229 58.5246 177.388 58.8136C177.548 59.1027 177.627 59.4898 177.627 59.975V64H176.688V63.1727H176.641C176.577 63.3053 176.471 63.4472 176.323 63.5983C176.174 63.7494 175.977 63.878 175.73 63.9841C175.483 64.0902 175.182 64.1432 174.827 64.1432ZM174.97 63.3C175.342 63.3 175.654 63.2271 175.909 63.0813C176.166 62.9354 176.36 62.7472 176.49 62.5165C176.622 62.2858 176.688 62.0432 176.688 61.7886V60.9295C176.649 60.9773 176.561 61.021 176.426 61.0608C176.293 61.0979 176.14 61.1311 175.965 61.1602C175.792 61.1867 175.624 61.2106 175.459 61.2318C175.298 61.2504 175.167 61.2663 175.066 61.2795C174.822 61.3114 174.594 61.3631 174.382 61.4347C174.172 61.5036 174.002 61.6083 173.873 61.7489C173.745 61.8867 173.682 62.075 173.682 62.3136C173.682 62.6398 173.802 62.8864 174.044 63.0534C174.288 63.2178 174.596 63.3 174.97 63.3ZM179.468 64V55.8545H180.406V58.8614H180.486C180.555 58.7553 180.65 58.6201 180.772 58.4557C180.897 58.2886 181.074 58.1402 181.305 58.0102C181.538 57.8777 181.854 57.8114 182.252 57.8114C182.766 57.8114 183.219 57.94 183.612 58.1972C184.004 58.4544 184.311 58.8189 184.531 59.2909C184.751 59.7629 184.861 60.3197 184.861 60.9614C184.861 61.6083 184.751 62.1691 184.531 62.6438C184.311 63.1157 184.006 63.4816 183.616 63.7415C183.226 63.9987 182.777 64.1273 182.268 64.1273C181.875 64.1273 181.561 64.0623 181.325 63.9324C181.089 63.7998 180.907 63.65 180.78 63.483C180.653 63.3133 180.555 63.1727 180.486 63.0614H180.374V64H179.468ZM180.39 60.9455C180.39 61.4068 180.458 61.8138 180.593 62.1665C180.728 62.5165 180.926 62.7909 181.186 62.9898C181.446 63.186 181.764 63.2841 182.14 63.2841C182.533 63.2841 182.86 63.1807 183.123 62.9739C183.388 62.7644 183.587 62.4833 183.719 62.1307C183.855 61.7754 183.922 61.3803 183.922 60.9455C183.922 60.5159 183.856 60.1288 183.723 59.7841C183.593 59.4367 183.396 59.1623 183.131 58.9608C182.868 58.7566 182.538 58.6545 182.14 58.6545C181.759 58.6545 181.438 58.7513 181.178 58.9449C180.918 59.1358 180.722 59.4036 180.589 59.7483C180.457 60.0903 180.39 60.4894 180.39 60.9455ZM187.235 55.8545V64H186.297V55.8545H187.235ZM191.516 64.1273C190.927 64.1273 190.419 63.9973 189.992 63.7375C189.568 63.475 189.241 63.1091 189.01 62.6398C188.782 62.1678 188.668 61.6189 188.668 60.9932C188.668 60.3674 188.782 59.8159 189.01 59.3386C189.241 58.8587 189.562 58.4848 189.973 58.217C190.386 57.9466 190.869 57.8114 191.42 57.8114C191.738 57.8114 192.053 57.8644 192.363 57.9705C192.673 58.0765 192.956 58.2489 193.21 58.4875C193.465 58.7235 193.667 59.0364 193.819 59.4261C193.97 59.8159 194.045 60.2958 194.045 60.8659V61.2636H189.336V60.4523H193.091C193.091 60.1076 193.022 59.8 192.884 59.5295C192.749 59.2591 192.555 59.0456 192.303 58.8892C192.054 58.7328 191.76 58.6545 191.42 58.6545C191.046 58.6545 190.723 58.7473 190.45 58.933C190.179 59.1159 189.971 59.3545 189.825 59.6489C189.68 59.9432 189.607 60.2587 189.607 60.5955V61.1364C189.607 61.5977 189.686 61.9888 189.845 62.3097C190.007 62.6278 190.231 62.8705 190.517 63.0375C190.804 63.2019 191.137 63.2841 191.516 63.2841C191.762 63.2841 191.985 63.2496 192.184 63.1807C192.385 63.1091 192.559 63.003 192.705 62.8625C192.851 62.7193 192.963 62.5417 193.043 62.3295L193.95 62.5841C193.854 62.8917 193.694 63.1621 193.469 63.3955C193.243 63.6261 192.965 63.8064 192.633 63.9364C192.302 64.0636 191.929 64.1273 191.516 64.1273ZM199.8 59.2591L198.957 59.4977C198.904 59.3572 198.826 59.2206 198.723 59.0881C198.622 58.9528 198.484 58.8415 198.309 58.754C198.134 58.6665 197.91 58.6227 197.637 58.6227C197.263 58.6227 196.951 58.7089 196.702 58.8813C196.456 59.0509 196.332 59.267 196.332 59.5295C196.332 59.7629 196.417 59.9472 196.587 60.0824C196.756 60.2176 197.022 60.3303 197.382 60.4205L198.289 60.6432C198.835 60.7758 199.242 60.9786 199.51 61.2517C199.778 61.5222 199.912 61.8708 199.912 62.2977C199.912 62.6477 199.811 62.9606 199.609 63.2364C199.411 63.5121 199.132 63.7295 198.774 63.8886C198.416 64.0477 198 64.1273 197.525 64.1273C196.902 64.1273 196.387 63.992 195.978 63.7216C195.57 63.4511 195.311 63.0561 195.203 62.5364L196.094 62.3136C196.178 62.6424 196.339 62.889 196.575 63.0534C196.813 63.2178 197.125 63.3 197.509 63.3C197.947 63.3 198.294 63.2072 198.552 63.0216C198.811 62.8333 198.941 62.608 198.941 62.3455C198.941 62.1333 198.867 61.9557 198.719 61.8125C198.57 61.6667 198.342 61.558 198.034 61.4864L197.016 61.2477C196.457 61.1152 196.046 60.9097 195.783 60.6313C195.524 60.3502 195.394 59.9989 195.394 59.5773C195.394 59.2326 195.49 58.9277 195.684 58.6625C195.88 58.3973 196.147 58.1892 196.483 58.0381C196.823 57.8869 197.207 57.8114 197.637 57.8114C198.241 57.8114 198.716 57.9439 199.061 58.2091C199.408 58.4742 199.655 58.8242 199.8 59.2591ZM207.132 57.8909V58.6864H203.966V57.8909H207.132ZM204.888 56.4273H205.827V62.25C205.827 62.5152 205.865 62.714 205.942 62.8466C206.022 62.9765 206.123 63.064 206.245 63.1091C206.369 63.1515 206.5 63.1727 206.638 63.1727C206.742 63.1727 206.827 63.1674 206.893 63.1568C206.959 63.1436 207.012 63.133 207.052 63.125L207.243 63.9682C207.179 63.992 207.09 64.0159 206.976 64.0398C206.862 64.0663 206.718 64.0795 206.543 64.0795C206.278 64.0795 206.018 64.0225 205.763 63.9085C205.511 63.7945 205.302 63.6208 205.135 63.3875C204.971 63.1542 204.888 62.8598 204.888 62.5045V56.4273ZM210.96 64.1273C210.408 64.1273 209.924 63.996 209.508 63.7335C209.094 63.471 208.771 63.1038 208.537 62.6318C208.307 62.1598 208.191 61.6083 208.191 60.9773C208.191 60.3409 208.307 59.7854 208.537 59.3108C208.771 58.8362 209.094 58.4676 209.508 58.2051C209.924 57.9426 210.408 57.8114 210.96 57.8114C211.511 57.8114 211.994 57.9426 212.407 58.2051C212.824 58.4676 213.147 58.8362 213.378 59.3108C213.611 59.7854 213.728 60.3409 213.728 60.9773C213.728 61.6083 213.611 62.1598 213.378 62.6318C213.147 63.1038 212.824 63.471 212.407 63.7335C211.994 63.996 211.511 64.1273 210.96 64.1273ZM210.96 63.2841C211.379 63.2841 211.723 63.1767 211.994 62.9619C212.264 62.7472 212.464 62.4648 212.594 62.1148C212.724 61.7648 212.789 61.3856 212.789 60.9773C212.789 60.5689 212.724 60.1884 212.594 59.8358C212.464 59.4831 212.264 59.1981 211.994 58.9807C211.723 58.7633 211.379 58.6545 210.96 58.6545C210.541 58.6545 210.196 58.7633 209.926 58.9807C209.655 59.1981 209.455 59.4831 209.325 59.8358C209.195 60.1884 209.13 60.5689 209.13 60.9773C209.13 61.3856 209.195 61.7648 209.325 62.1148C209.455 62.4648 209.655 62.7472 209.926 62.9619C210.196 63.1767 210.541 63.2841 210.96 63.2841ZM220.967 57.8909V58.6864H217.802V57.8909H220.967ZM218.724 56.4273H219.663V62.25C219.663 62.5152 219.701 62.714 219.778 62.8466C219.858 62.9765 219.959 63.064 220.081 63.1091C220.205 63.1515 220.336 63.1727 220.474 63.1727C220.578 63.1727 220.663 63.1674 220.729 63.1568C220.795 63.1436 220.848 63.133 220.888 63.125L221.079 63.9682C221.015 63.992 220.926 64.0159 220.812 64.0398C220.698 64.0663 220.554 64.0795 220.379 64.0795C220.114 64.0795 219.854 64.0225 219.599 63.9085C219.347 63.7945 219.138 63.6208 218.971 63.3875C218.806 63.1542 218.724 62.8598 218.724 62.5045V56.4273ZM223.449 60.325V64H222.511V55.8545H223.449V58.8455H223.529C223.672 58.5299 223.887 58.2794 224.173 58.0938C224.462 57.9055 224.847 57.8114 225.327 57.8114C225.743 57.8114 226.107 57.8949 226.42 58.0619C226.733 58.2263 226.976 58.4795 227.148 58.8216C227.323 59.161 227.411 59.5932 227.411 60.1182V64H226.472V60.1818C226.472 59.6966 226.346 59.3214 226.094 59.0563C225.845 58.7884 225.499 58.6545 225.056 58.6545C224.749 58.6545 224.473 58.7195 224.229 58.8494C223.988 58.9794 223.797 59.1689 223.656 59.4182C223.518 59.6674 223.449 59.9697 223.449 60.325ZM229.128 64V57.8909H230.066V64H229.128ZM229.605 56.8727C229.422 56.8727 229.264 56.8104 229.132 56.6858C229.002 56.5612 228.937 56.4114 228.937 56.2364C228.937 56.0614 229.002 55.9116 229.132 55.7869C229.264 55.6623 229.422 55.6 229.605 55.6C229.788 55.6 229.944 55.6623 230.074 55.7869C230.207 55.9116 230.273 56.0614 230.273 56.2364C230.273 56.4114 230.207 56.5612 230.074 56.6858C229.944 56.8104 229.788 56.8727 229.605 56.8727ZM236.113 59.2591L235.27 59.4977C235.217 59.3572 235.138 59.2206 235.035 59.0881C234.934 58.9528 234.796 58.8415 234.621 58.754C234.446 58.6665 234.222 58.6227 233.949 58.6227C233.575 58.6227 233.264 58.7089 233.015 58.8813C232.768 59.0509 232.645 59.267 232.645 59.5295C232.645 59.7629 232.73 59.9472 232.899 60.0824C233.069 60.2176 233.334 60.3303 233.695 60.4205L234.602 60.6432C235.148 60.7758 235.555 60.9786 235.823 61.2517C236.09 61.5222 236.224 61.8708 236.224 62.2977C236.224 62.6477 236.124 62.9606 235.922 63.2364C235.723 63.5121 235.445 63.7295 235.087 63.8886C234.729 64.0477 234.313 64.1273 233.838 64.1273C233.215 64.1273 232.699 63.992 232.291 63.7216C231.882 63.4511 231.624 63.0561 231.515 62.5364L232.406 62.3136C232.491 62.6424 232.651 62.889 232.887 63.0534C233.126 63.2178 233.438 63.3 233.822 63.3C234.259 63.3 234.607 63.2072 234.864 63.0216C235.124 62.8333 235.254 62.608 235.254 62.3455C235.254 62.1333 235.18 61.9557 235.031 61.8125C234.883 61.6667 234.655 61.558 234.347 61.4864L233.329 61.2477C232.769 61.1152 232.358 60.9097 232.096 60.6313C231.836 60.3502 231.706 59.9989 231.706 59.5773C231.706 59.2326 231.803 58.9277 231.996 58.6625C232.193 58.3973 232.459 58.1892 232.796 58.0381C233.135 57.8869 233.52 57.8114 233.949 57.8114C234.554 57.8114 235.028 57.9439 235.373 58.2091C235.72 58.4742 235.967 58.8242 236.113 59.2591ZM242.585 64.1432C242.198 64.1432 241.846 64.0703 241.531 63.9244C241.215 63.7759 240.965 63.5625 240.779 63.2841C240.594 63.003 240.501 62.6636 240.501 62.2659C240.501 61.9159 240.57 61.6322 240.708 61.4148C240.846 61.1947 241.03 61.0223 241.26 60.8977C241.491 60.7731 241.746 60.6803 242.024 60.6193C242.305 60.5557 242.588 60.5053 242.871 60.4682C243.242 60.4205 243.543 60.3847 243.774 60.3608C244.007 60.3343 244.177 60.2905 244.283 60.2295C244.392 60.1686 244.446 60.0625 244.446 59.9114V59.8795C244.446 59.4871 244.339 59.1822 244.124 58.9648C243.912 58.7473 243.59 58.6386 243.158 58.6386C242.71 58.6386 242.358 58.7367 242.104 58.933C241.849 59.1292 241.67 59.3386 241.567 59.5614L240.676 59.2432C240.835 58.872 241.047 58.583 241.312 58.3761C241.58 58.1667 241.872 58.0208 242.187 57.9386C242.505 57.8538 242.818 57.8114 243.126 57.8114C243.322 57.8114 243.547 57.8352 243.802 57.883C244.059 57.928 244.307 58.0222 244.546 58.1653C244.787 58.3085 244.987 58.5246 245.146 58.8136C245.305 59.1027 245.385 59.4898 245.385 59.975V64H244.446V63.1727H244.399C244.335 63.3053 244.229 63.4472 244.08 63.5983C243.932 63.7494 243.734 63.878 243.488 63.9841C243.241 64.0902 242.94 64.1432 242.585 64.1432ZM242.728 63.3C243.099 63.3 243.412 63.2271 243.667 63.0813C243.924 62.9354 244.117 62.7472 244.247 62.5165C244.38 62.2858 244.446 62.0432 244.446 61.7886V60.9295C244.407 60.9773 244.319 61.021 244.184 61.0608C244.051 61.0979 243.897 61.1311 243.722 61.1602C243.55 61.1867 243.382 61.2106 243.217 61.2318C243.056 61.2504 242.924 61.2663 242.824 61.2795C242.58 61.3114 242.352 61.3631 242.139 61.4347C241.93 61.5036 241.76 61.6083 241.63 61.7489C241.503 61.8867 241.439 62.075 241.439 62.3136C241.439 62.6398 241.56 62.8864 241.801 63.0534C242.045 63.2178 242.354 63.3 242.728 63.3ZM247.098 66.2909V57.8909H248.005V58.8614H248.116C248.185 58.7553 248.281 58.6201 248.403 58.4557C248.527 58.2886 248.705 58.1402 248.936 58.0102C249.169 57.8777 249.484 57.8114 249.882 57.8114C250.397 57.8114 250.85 57.94 251.242 58.1972C251.635 58.4544 251.941 58.8189 252.161 59.2909C252.381 59.7629 252.491 60.3197 252.491 60.9614C252.491 61.6083 252.381 62.1691 252.161 62.6438C251.941 63.1157 251.636 63.4816 251.246 63.7415C250.857 63.9987 250.407 64.1273 249.898 64.1273C249.506 64.1273 249.192 64.0623 248.956 63.9324C248.72 63.7998 248.538 63.65 248.411 63.483C248.283 63.3133 248.185 63.1727 248.116 63.0614H248.037V66.2909H247.098ZM248.021 60.9455C248.021 61.4068 248.088 61.8138 248.224 62.1665C248.359 62.5165 248.556 62.7909 248.816 62.9898C249.076 63.186 249.394 63.2841 249.771 63.2841C250.163 63.2841 250.491 63.1807 250.753 62.9739C251.018 62.7644 251.217 62.4833 251.35 62.1307C251.485 61.7754 251.553 61.3803 251.553 60.9455C251.553 60.5159 251.486 60.1288 251.354 59.7841C251.224 59.4367 251.026 59.1623 250.761 58.9608C250.499 58.7566 250.169 58.6545 249.771 58.6545C249.389 58.6545 249.068 58.7513 248.808 58.9449C248.549 59.1358 248.352 59.4036 248.22 59.7483C248.087 60.0903 248.021 60.4894 248.021 60.9455ZM253.923 66.2909V57.8909H254.83V58.8614H254.941C255.01 58.7553 255.106 58.6201 255.228 58.4557C255.352 58.2886 255.53 58.1402 255.761 58.0102C255.994 57.8777 256.309 57.8114 256.707 57.8114C257.222 57.8114 257.675 57.94 258.067 58.1972C258.46 58.4544 258.766 58.8189 258.986 59.2909C259.206 59.7629 259.316 60.3197 259.316 60.9614C259.316 61.6083 259.206 62.1691 258.986 62.6438C258.766 63.1157 258.461 63.4816 258.071 63.7415C257.682 63.9987 257.232 64.1273 256.723 64.1273C256.331 64.1273 256.017 64.0623 255.781 63.9324C255.545 63.7998 255.363 63.65 255.236 63.483C255.108 63.3133 255.01 63.1727 254.941 63.0614H254.862V66.2909H253.923ZM254.846 60.9455C254.846 61.4068 254.913 61.8138 255.049 62.1665C255.184 62.5165 255.381 62.7909 255.641 62.9898C255.901 63.186 256.219 63.2841 256.596 63.2841C256.988 63.2841 257.316 63.1807 257.578 62.9739C257.843 62.7644 258.042 62.4833 258.175 62.1307C258.31 61.7754 258.378 61.3803 258.378 60.9455C258.378 60.5159 258.311 60.1288 258.179 59.7841C258.049 59.4367 257.851 59.1623 257.586 58.9608C257.324 58.7566 256.994 58.6545 256.596 58.6545C256.214 58.6545 255.893 58.7513 255.633 58.9449C255.374 59.1358 255.177 59.4036 255.045 59.7483C254.912 60.0903 254.846 60.4894 254.846 60.9455ZM264.025 64V55.8545H264.964V58.8614H265.044C265.113 58.7553 265.208 58.6201 265.33 58.4557C265.455 58.2886 265.632 58.1402 265.863 58.0102C266.096 57.8777 266.412 57.8114 266.81 57.8114C267.324 57.8114 267.777 57.94 268.17 58.1972C268.562 58.4544 268.868 58.8189 269.088 59.2909C269.309 59.7629 269.419 60.3197 269.419 60.9614C269.419 61.6083 269.309 62.1691 269.088 62.6438C268.868 63.1157 268.563 63.4816 268.174 63.7415C267.784 63.9987 267.335 64.1273 266.825 64.1273C266.433 64.1273 266.119 64.0623 265.883 63.9324C265.647 63.7998 265.465 63.65 265.338 63.483C265.211 63.3133 265.113 63.1727 265.044 63.0614H264.932V64H264.025ZM264.948 60.9455C264.948 61.4068 265.016 61.8138 265.151 62.1665C265.286 62.5165 265.484 62.7909 265.744 62.9898C266.003 63.186 266.322 63.2841 266.698 63.2841C267.091 63.2841 267.418 63.1807 267.681 62.9739C267.946 62.7644 268.145 62.4833 268.277 62.1307C268.412 61.7754 268.48 61.3803 268.48 60.9455C268.48 60.5159 268.414 60.1288 268.281 59.7841C268.151 59.4367 267.954 59.1623 267.688 58.9608C267.426 58.7566 267.096 58.6545 266.698 58.6545C266.316 58.6545 265.995 58.7513 265.736 58.9449C265.476 59.1358 265.28 59.4036 265.147 59.7483C265.014 60.0903 264.948 60.4894 264.948 60.9455ZM271.24 66.2909C271.081 66.2909 270.939 66.2777 270.815 66.2511C270.69 66.2273 270.604 66.2034 270.556 66.1795L270.795 65.3523C271.023 65.4106 271.224 65.4318 271.399 65.4159C271.574 65.4 271.729 65.3218 271.865 65.1812C272.002 65.0434 272.128 64.8193 272.242 64.5091L272.417 64.0318L270.158 57.8909H271.177L272.863 62.7591H272.927L274.613 57.8909H275.631L273.038 64.8909C272.921 65.2064 272.777 65.4676 272.604 65.6744C272.432 65.8839 272.232 66.039 272.004 66.1398C271.778 66.2405 271.524 66.2909 271.24 66.2909ZM29.4568 81.1432C29.0697 81.1432 28.7184 81.0703 28.4028 80.9244C28.0873 80.7759 27.8367 80.5625 27.6511 80.2841C27.4655 80.003 27.3727 79.6636 27.3727 79.2659C27.3727 78.9159 27.4417 78.6322 27.5795 78.4148C27.7174 78.1947 27.9017 78.0223 28.1324 77.8977C28.3631 77.7731 28.6176 77.6803 28.896 77.6193C29.1771 77.5557 29.4595 77.5053 29.7432 77.4682C30.1144 77.4205 30.4153 77.3847 30.646 77.3608C30.8793 77.3343 31.049 77.2905 31.1551 77.2295C31.2638 77.1686 31.3182 77.0625 31.3182 76.9114V76.8795C31.3182 76.4871 31.2108 76.1822 30.996 75.9648C30.7839 75.7473 30.4617 75.6386 30.0295 75.6386C29.5814 75.6386 29.2301 75.7367 28.9756 75.933C28.721 76.1292 28.542 76.3386 28.4386 76.5614L27.5477 76.2432C27.7068 75.872 27.9189 75.583 28.1841 75.3761C28.4519 75.1667 28.7435 75.0208 29.0591 74.9386C29.3773 74.8538 29.6901 74.8114 29.9977 74.8114C30.1939 74.8114 30.4193 74.8352 30.6739 74.883C30.931 74.928 31.179 75.0222 31.4176 75.1653C31.6589 75.3085 31.8591 75.5246 32.0182 75.8136C32.1773 76.1027 32.2568 76.4898 32.2568 76.975V81H31.3182V80.1727H31.2704C31.2068 80.3053 31.1007 80.4472 30.9523 80.5983C30.8038 80.7494 30.6062 80.878 30.3596 80.9841C30.1131 81.0902 29.8121 81.1432 29.4568 81.1432ZM29.6 80.3C29.9712 80.3 30.2841 80.2271 30.5386 80.0813C30.7958 79.9354 30.9894 79.7472 31.1193 79.5165C31.2519 79.2858 31.3182 79.0432 31.3182 78.7886V77.9295C31.2784 77.9773 31.1909 78.021 31.0557 78.0608C30.9231 78.0979 30.7693 78.1311 30.5943 78.1602C30.422 78.1867 30.2536 78.2106 30.0892 78.2318C29.9275 78.2504 29.7962 78.2663 29.6954 78.2795C29.4515 78.3114 29.2235 78.3631 29.0114 78.4347C28.8019 78.5036 28.6322 78.6083 28.5023 78.7489C28.375 78.8867 28.3114 79.075 28.3114 79.3136C28.3114 79.6398 28.432 79.8864 28.6733 80.0534C28.9172 80.2178 29.2261 80.3 29.6 80.3ZM38.2973 76.2591L37.4541 76.4977C37.4011 76.3572 37.3229 76.2206 37.2194 76.0881C37.1187 75.9528 36.9808 75.8415 36.8058 75.754C36.6308 75.6665 36.4068 75.6227 36.1337 75.6227C35.7598 75.6227 35.4482 75.7089 35.199 75.8813C34.9524 76.0509 34.8291 76.267 34.8291 76.5295C34.8291 76.7629 34.914 76.9472 35.0837 77.0824C35.2533 77.2176 35.5185 77.3303 35.8791 77.4205L36.7859 77.6432C37.3321 77.7758 37.7391 77.9786 38.0069 78.2517C38.2748 78.5222 38.4087 78.8708 38.4087 79.2977C38.4087 79.6477 38.3079 79.9606 38.1064 80.2364C37.9075 80.5121 37.6291 80.7295 37.2712 80.8886C36.9132 81.0477 36.4969 81.1273 36.0223 81.1273C35.3992 81.1273 34.8835 80.992 34.4751 80.7216C34.0668 80.4511 33.8083 80.0561 33.6996 79.5364L34.5905 79.3136C34.6753 79.6424 34.8357 79.889 35.0717 80.0534C35.3104 80.2178 35.6219 80.3 36.0064 80.3C36.4439 80.3 36.7912 80.2072 37.0484 80.0216C37.3083 79.8333 37.4382 79.608 37.4382 79.3455C37.4382 79.1333 37.364 78.9557 37.2155 78.8125C37.067 78.6667 36.839 78.558 36.5314 78.4864L35.5132 78.2477C34.9537 78.1152 34.5427 77.9097 34.2802 77.6313C34.0204 77.3502 33.8905 76.9989 33.8905 76.5773C33.8905 76.2326 33.9873 75.9277 34.1808 75.6625C34.377 75.3973 34.6435 75.1892 34.9802 75.0381C35.3196 74.8869 35.7041 74.8114 36.1337 74.8114C36.7382 74.8114 37.2128 74.9439 37.5575 75.2091C37.9049 75.4742 38.1515 75.8242 38.2973 76.2591ZM44.1489 76.2591L43.3057 76.4977C43.2526 76.3572 43.1744 76.2206 43.071 76.0881C42.9703 75.9528 42.8324 75.8415 42.6574 75.754C42.4824 75.6665 42.2583 75.6227 41.9852 75.6227C41.6114 75.6227 41.2998 75.7089 41.0506 75.8813C40.804 76.0509 40.6807 76.267 40.6807 76.5295C40.6807 76.7629 40.7655 76.9472 40.9352 77.0824C41.1049 77.2176 41.3701 77.3303 41.7307 77.4205L42.6375 77.6432C43.1837 77.7758 43.5907 77.9786 43.8585 78.2517C44.1263 78.5222 44.2602 78.8708 44.2602 79.2977C44.2602 79.6477 44.1595 79.9606 43.9579 80.2364C43.7591 80.5121 43.4807 80.7295 43.1227 80.8886C42.7648 81.0477 42.3485 81.1273 41.8739 81.1273C41.2507 81.1273 40.735 80.992 40.3267 80.7216C39.9184 80.4511 39.6598 80.0561 39.5511 79.5364L40.442 79.3136C40.5269 79.6424 40.6873 79.889 40.9233 80.0534C41.1619 80.2178 41.4735 80.3 41.8579 80.3C42.2954 80.3 42.6428 80.2072 42.9 80.0216C43.1598 79.8333 43.2898 79.608 43.2898 79.3455C43.2898 79.1333 43.2155 78.9557 43.067 78.8125C42.9185 78.6667 42.6905 78.558 42.3829 78.4864L41.3648 78.2477C40.8053 78.1152 40.3943 77.9097 40.1318 77.6313C39.872 77.3502 39.742 76.9989 39.742 76.5773C39.742 76.2326 39.8388 75.9277 40.0324 75.6625C40.2286 75.3973 40.4951 75.1892 40.8318 75.0381C41.1712 74.8869 41.5557 74.8114 41.9852 74.8114C42.5898 74.8114 43.0644 74.9439 43.4091 75.2091C43.7564 75.4742 44.003 75.8242 44.1489 76.2591ZM45.6731 81V74.8909H46.6118V81H45.6731ZM46.1504 73.8727C45.9675 73.8727 45.8097 73.8104 45.6771 73.6858C45.5472 73.5612 45.4822 73.4114 45.4822 73.2364C45.4822 73.0614 45.5472 72.9116 45.6771 72.7869C45.8097 72.6623 45.9675 72.6 46.1504 72.6C46.3334 72.6 46.4898 72.6623 46.6197 72.7869C46.7523 72.9116 46.8186 73.0614 46.8186 73.2364C46.8186 73.4114 46.7523 73.5612 46.6197 73.6858C46.4898 73.8104 46.3334 73.8727 46.1504 73.8727ZM50.7969 83.4182C50.3435 83.4182 49.9537 83.3598 49.6275 83.2432C49.3014 83.1292 49.0296 82.978 48.8122 82.7898C48.5974 82.6042 48.4264 82.4053 48.2991 82.1932L49.0469 81.6682C49.1317 81.7795 49.2391 81.9068 49.369 82.05C49.4989 82.1958 49.6766 82.3218 49.902 82.4278C50.13 82.5366 50.4283 82.5909 50.7969 82.5909C51.29 82.5909 51.6971 82.4716 52.0179 82.233C52.3387 81.9943 52.4991 81.6205 52.4991 81.1114V79.8705H52.4196C52.3507 79.9818 52.2525 80.1197 52.1253 80.2841C52.0007 80.4458 51.8203 80.5903 51.5844 80.7176C51.351 80.8422 51.0355 80.9045 50.6378 80.9045C50.1446 80.9045 49.7018 80.7879 49.3094 80.5545C48.9196 80.3212 48.6107 79.9818 48.3827 79.5364C48.1573 79.0909 48.0446 78.55 48.0446 77.9136C48.0446 77.2879 48.1546 76.743 48.3747 76.279C48.5948 75.8123 48.901 75.4517 49.2935 75.1972C49.6859 74.94 50.1393 74.8114 50.6537 74.8114C51.0514 74.8114 51.3669 74.8777 51.6003 75.0102C51.8363 75.1402 52.0166 75.2886 52.1412 75.4557C52.2685 75.6201 52.3666 75.7553 52.4355 75.8614H52.531V74.8909H53.4378V81.175C53.4378 81.7 53.3185 82.1269 53.0798 82.4557C52.8438 82.7871 52.5257 83.0297 52.1253 83.1835C51.7275 83.34 51.2847 83.4182 50.7969 83.4182ZM50.765 80.0614C51.1416 80.0614 51.4597 79.9752 51.7196 79.8028C51.9794 79.6305 52.177 79.3826 52.3122 79.0591C52.4474 78.7356 52.515 78.3485 52.515 77.8977C52.515 77.4576 52.4488 77.0691 52.3162 76.7324C52.1836 76.3956 51.9874 76.1318 51.7275 75.9409C51.4677 75.75 51.1469 75.6545 50.765 75.6545C50.3673 75.6545 50.0359 75.7553 49.7707 75.9568C49.5082 76.1583 49.3107 76.4288 49.1781 76.7682C49.0482 77.1076 48.9832 77.4841 48.9832 77.8977C48.9832 78.322 49.0495 78.6972 49.1821 79.0233C49.3173 79.3468 49.5162 79.6013 49.7787 79.7869C50.0438 79.9699 50.3726 80.0614 50.765 80.0614ZM56.0946 77.325V81H55.156V74.8909H56.0628V75.8455H56.1423C56.2855 75.5352 56.5029 75.286 56.7946 75.0977C57.0863 74.9068 57.4628 74.8114 57.9241 74.8114C58.3378 74.8114 58.6997 74.8962 59.0099 75.0659C59.3202 75.233 59.5614 75.4875 59.7338 75.8295C59.9061 76.1689 59.9923 76.5985 59.9923 77.1182V81H59.0537V77.1818C59.0537 76.7019 58.9291 76.328 58.6798 76.0602C58.4306 75.7898 58.0885 75.6545 57.6537 75.6545C57.3541 75.6545 57.0863 75.7195 56.8503 75.8494C56.6169 75.9794 56.4327 76.1689 56.2974 76.4182C56.1622 76.6674 56.0946 76.9697 56.0946 77.325ZM61.7075 81V74.8909H62.6462V81H61.7075ZM62.1848 73.8727C62.0018 73.8727 61.8441 73.8104 61.7115 73.6858C61.5816 73.5612 61.5166 73.4114 61.5166 73.2364C61.5166 73.0614 61.5816 72.9116 61.7115 72.7869C61.8441 72.6623 62.0018 72.6 62.1848 72.6C62.3677 72.6 62.5242 72.6623 62.6541 72.7869C62.7867 72.9116 62.853 73.0614 62.853 73.2364C62.853 73.4114 62.7867 73.5612 62.6541 73.6858C62.5242 73.8104 62.3677 73.8727 62.1848 73.8727ZM65.304 77.325V81H64.3653V74.8909H65.2721V75.8455H65.3517C65.4949 75.5352 65.7123 75.286 66.004 75.0977C66.2956 74.9068 66.6721 74.8114 67.1335 74.8114C67.5471 74.8114 67.9091 74.8962 68.2193 75.0659C68.5295 75.233 68.7708 75.4875 68.9432 75.8295C69.1155 76.1689 69.2017 76.5985 69.2017 77.1182V81H68.2631V77.1818C68.2631 76.7019 68.1384 76.328 67.8892 76.0602C67.6399 75.7898 67.2979 75.6545 66.8631 75.6545C66.5634 75.6545 66.2956 75.7195 66.0596 75.8494C65.8263 75.9794 65.642 76.1689 65.5068 76.4182C65.3716 76.6674 65.304 76.9697 65.304 77.325ZM73.3828 83.4182C72.9294 83.4182 72.5396 83.3598 72.2135 83.2432C71.8873 83.1292 71.6156 82.978 71.3981 82.7898C71.1834 82.6042 71.0123 82.4053 70.8851 82.1932L71.6328 81.6682C71.7176 81.7795 71.825 81.9068 71.955 82.05C72.0849 82.1958 72.2625 82.3218 72.4879 82.4278C72.7159 82.5366 73.0142 82.5909 73.3828 82.5909C73.876 82.5909 74.283 82.4716 74.6038 82.233C74.9247 81.9943 75.0851 81.6205 75.0851 81.1114V79.8705H75.0055C74.9366 79.9818 74.8385 80.1197 74.7112 80.2841C74.5866 80.4458 74.4063 80.5903 74.1703 80.7176C73.937 80.8422 73.6214 80.9045 73.2237 80.9045C72.7305 80.9045 72.2877 80.7879 71.8953 80.5545C71.5055 80.3212 71.1966 79.9818 70.9686 79.5364C70.7432 79.0909 70.6305 78.55 70.6305 77.9136C70.6305 77.2879 70.7406 76.743 70.9606 76.279C71.1807 75.8123 71.487 75.4517 71.8794 75.1972C72.2718 74.94 72.7252 74.8114 73.2396 74.8114C73.6373 74.8114 73.9529 74.8777 74.1862 75.0102C74.4222 75.1402 74.6025 75.2886 74.7271 75.4557C74.8544 75.6201 74.9525 75.7553 75.0214 75.8614H75.1169V74.8909H76.0237V81.175C76.0237 81.7 75.9044 82.1269 75.6658 82.4557C75.4298 82.7871 75.1116 83.0297 74.7112 83.1835C74.3135 83.34 73.8707 83.4182 73.3828 83.4182ZM73.351 80.0614C73.7275 80.0614 74.0457 79.9752 74.3055 79.8028C74.5654 79.6305 74.7629 79.3826 74.8981 79.0591C75.0334 78.7356 75.101 78.3485 75.101 77.8977C75.101 77.4576 75.0347 77.0691 74.9021 76.7324C74.7695 76.3956 74.5733 76.1318 74.3135 75.9409C74.0536 75.75 73.7328 75.6545 73.351 75.6545C72.9533 75.6545 72.6218 75.7553 72.3567 75.9568C72.0942 76.1583 71.8966 76.4288 71.7641 76.7682C71.6341 77.1076 71.5692 77.4841 71.5692 77.8977C71.5692 78.322 71.6355 78.6972 71.768 79.0233C71.9033 79.3468 72.1021 79.6013 72.3646 79.7869C72.6298 79.9699 72.9586 80.0614 73.351 80.0614ZM83.5487 74.8909V75.6864H80.3828V74.8909H83.5487ZM81.3055 73.4273H82.2442V79.25C82.2442 79.5152 82.2826 79.714 82.3595 79.8466C82.439 79.9765 82.5398 80.064 82.6618 80.1091C82.7864 80.1515 82.9176 80.1727 83.0555 80.1727C83.1589 80.1727 83.2438 80.1674 83.3101 80.1568C83.3764 80.1436 83.4294 80.133 83.4692 80.125L83.6601 80.9682C83.5964 80.992 83.5076 81.0159 83.3936 81.0398C83.2796 81.0663 83.1351 81.0795 82.9601 81.0795C82.6949 81.0795 82.4351 81.0225 82.1805 80.9085C81.9286 80.7945 81.7192 80.6208 81.5521 80.3875C81.3877 80.1542 81.3055 79.8598 81.3055 79.5045V73.4273ZM86.0305 77.325V81H85.0919V72.8545H86.0305V75.8455H86.1101C86.2533 75.5299 86.468 75.2794 86.7544 75.0938C87.0434 74.9055 87.4279 74.8114 87.9078 74.8114C88.3241 74.8114 88.6887 74.8949 89.0015 75.0619C89.3144 75.2263 89.557 75.4795 89.7294 75.8216C89.9044 76.161 89.9919 76.5932 89.9919 77.1182V81H89.0533V77.1818C89.0533 76.6966 88.9273 76.3214 88.6754 76.0563C88.4262 75.7884 88.0801 75.6545 87.6373 75.6545C87.3298 75.6545 87.054 75.7195 86.8101 75.8494C86.5688 75.9794 86.3779 76.1689 86.2373 76.4182C86.0995 76.6674 86.0305 76.9697 86.0305 77.325ZM94.2704 81.1273C93.6818 81.1273 93.174 80.9973 92.7471 80.7375C92.3229 80.475 91.9954 80.1091 91.7648 79.6398C91.5367 79.1678 91.4227 78.6189 91.4227 77.9932C91.4227 77.3674 91.5367 76.8159 91.7648 76.3386C91.9954 75.8587 92.3163 75.4848 92.7273 75.217C93.1409 74.9466 93.6235 74.8114 94.175 74.8114C94.4932 74.8114 94.8074 74.8644 95.1176 74.9705C95.4278 75.0765 95.7102 75.2489 95.9648 75.4875C96.2193 75.7235 96.4221 76.0364 96.5733 76.4261C96.7244 76.8159 96.8 77.2958 96.8 77.8659V78.2636H92.0909V77.4523H95.8454C95.8454 77.1076 95.7765 76.8 95.6386 76.5295C95.5034 76.2591 95.3098 76.0456 95.0579 75.8892C94.8087 75.7328 94.5144 75.6545 94.175 75.6545C93.8011 75.6545 93.4776 75.7473 93.2045 75.933C92.9341 76.1159 92.7259 76.3545 92.5801 76.6489C92.4343 76.9432 92.3613 77.2587 92.3613 77.5955V78.1364C92.3613 78.5977 92.4409 78.9888 92.6 79.3097C92.7617 79.6278 92.9858 79.8705 93.2721 80.0375C93.5585 80.2019 93.8913 80.2841 94.2704 80.2841C94.517 80.2841 94.7398 80.2496 94.9386 80.1807C95.1401 80.1091 95.3138 80.003 95.4596 79.8625C95.6055 79.7193 95.7182 79.5417 95.7977 79.3295L96.7045 79.5841C96.6091 79.8917 96.4487 80.1621 96.2233 80.3955C95.9979 80.6261 95.7195 80.8064 95.3881 80.9364C95.0566 81.0636 94.6841 81.1273 94.2704 81.1273ZM98.2278 81V74.8909H99.1346V75.8455H99.2142C99.3415 75.5193 99.547 75.2661 99.8307 75.0858C100.114 74.9028 100.455 74.8114 100.853 74.8114C101.256 74.8114 101.591 74.9028 101.859 75.0858C102.13 75.2661 102.34 75.5193 102.491 75.8455H102.555C102.712 75.5299 102.946 75.2794 103.259 75.0938C103.572 74.9055 103.947 74.8114 104.385 74.8114C104.931 74.8114 105.378 74.9824 105.725 75.3244C106.072 75.6638 106.246 76.1928 106.246 76.9114V81H105.307V76.9114C105.307 76.4606 105.184 76.1384 104.937 75.9449C104.691 75.7513 104.401 75.6545 104.066 75.6545C103.637 75.6545 103.304 75.7845 103.068 76.0443C102.832 76.3015 102.714 76.6277 102.714 77.0227V81H101.76V76.8159C101.76 76.4686 101.647 76.1888 101.422 75.9767C101.196 75.7619 100.906 75.6545 100.551 75.6545C100.307 75.6545 100.079 75.7195 99.8665 75.8494C99.657 75.9794 99.4873 76.1597 99.3574 76.3903C99.2301 76.6184 99.1665 76.8822 99.1665 77.1818V81H98.2278ZM113.769 74.8909V75.6864H110.603V74.8909H113.769ZM111.526 73.4273H112.464V79.25C112.464 79.5152 112.503 79.714 112.58 79.8466C112.659 79.9765 112.76 80.064 112.882 80.1091C113.007 80.1515 113.138 80.1727 113.276 80.1727C113.379 80.1727 113.464 80.1674 113.53 80.1568C113.597 80.1436 113.65 80.133 113.689 80.125L113.88 80.9682C113.817 80.992 113.728 81.0159 113.614 81.0398C113.5 81.0663 113.355 81.0795 113.18 81.0795C112.915 81.0795 112.655 81.0225 112.401 80.9085C112.149 80.7945 111.939 80.6208 111.772 80.3875C111.608 80.1542 111.526 79.8598 111.526 79.5045V73.4273ZM117.597 81.1273C117.046 81.1273 116.562 80.996 116.145 80.7335C115.732 80.471 115.408 80.1038 115.175 79.6318C114.944 79.1598 114.829 78.6083 114.829 77.9773C114.829 77.3409 114.944 76.7854 115.175 76.3108C115.408 75.8362 115.732 75.4676 116.145 75.2051C116.562 74.9426 117.046 74.8114 117.597 74.8114C118.149 74.8114 118.631 74.9426 119.045 75.2051C119.461 75.4676 119.785 75.8362 120.015 76.3108C120.249 76.7854 120.365 77.3409 120.365 77.9773C120.365 78.6083 120.249 79.1598 120.015 79.6318C119.785 80.1038 119.461 80.471 119.045 80.7335C118.631 80.996 118.149 81.1273 117.597 81.1273ZM117.597 80.2841C118.016 80.2841 118.361 80.1767 118.631 79.9619C118.902 79.7472 119.102 79.4648 119.232 79.1148C119.362 78.7648 119.427 78.3856 119.427 77.9773C119.427 77.5689 119.362 77.1884 119.232 76.8358C119.102 76.4831 118.902 76.1981 118.631 75.9807C118.361 75.7633 118.016 75.6545 117.597 75.6545C117.178 75.6545 116.834 75.7633 116.563 75.9807C116.293 76.1981 116.092 76.4831 115.962 76.8358C115.833 77.1884 115.768 77.5689 115.768 77.9773C115.768 78.3856 115.833 78.7648 115.962 79.1148C116.092 79.4648 116.293 79.7472 116.563 79.9619C116.834 80.1767 117.178 80.2841 117.597 80.2841ZM127.605 74.8909V75.6864H124.439V74.8909H127.605ZM125.362 73.4273H126.3V79.25C126.3 79.5152 126.339 79.714 126.416 79.8466C126.495 79.9765 126.596 80.064 126.718 80.1091C126.843 80.1515 126.974 80.1727 127.112 80.1727C127.215 80.1727 127.3 80.1674 127.366 80.1568C127.433 80.1436 127.486 80.133 127.525 80.125L127.716 80.9682C127.653 80.992 127.564 81.0159 127.45 81.0398C127.336 81.0663 127.191 81.0795 127.016 81.0795C126.751 81.0795 126.491 81.0225 126.237 80.9085C125.985 80.7945 125.775 80.6208 125.608 80.3875C125.444 80.1542 125.362 79.8598 125.362 79.5045V73.4273ZM130.087 77.325V81H129.148V72.8545H130.087V75.8455H130.166C130.31 75.5299 130.524 75.2794 130.811 75.0938C131.1 74.9055 131.484 74.8114 131.964 74.8114C132.38 74.8114 132.745 74.8949 133.058 75.0619C133.371 75.2263 133.613 75.4795 133.786 75.8216C133.961 76.161 134.048 76.5932 134.048 77.1182V81H133.11V77.1818C133.11 76.6966 132.984 76.3214 132.732 76.0563C132.482 75.7884 132.136 75.6545 131.694 75.6545C131.386 75.6545 131.11 75.7195 130.866 75.8494C130.625 75.9794 130.434 76.1689 130.294 76.4182C130.156 76.6674 130.087 76.9697 130.087 77.325ZM138.327 81.1273C137.738 81.1273 137.23 80.9973 136.803 80.7375C136.379 80.475 136.052 80.1091 135.821 79.6398C135.593 79.1678 135.479 78.6189 135.479 77.9932C135.479 77.3674 135.593 76.8159 135.821 76.3386C136.052 75.8587 136.373 75.4848 136.784 75.217C137.197 74.9466 137.68 74.8114 138.231 74.8114C138.549 74.8114 138.864 74.8644 139.174 74.9705C139.484 75.0765 139.766 75.2489 140.021 75.4875C140.276 75.7235 140.478 76.0364 140.63 76.4261C140.781 76.8159 140.856 77.2958 140.856 77.8659V78.2636H136.147V77.4523H139.902C139.902 77.1076 139.833 76.8 139.695 76.5295C139.56 76.2591 139.366 76.0456 139.114 75.8892C138.865 75.7328 138.571 75.6545 138.231 75.6545C137.857 75.6545 137.534 75.7473 137.261 75.933C136.99 76.1159 136.782 76.3545 136.636 76.6489C136.491 76.9432 136.418 77.2587 136.418 77.5955V78.1364C136.418 78.5977 136.497 78.9888 136.656 79.3097C136.818 79.6278 137.042 79.8705 137.328 80.0375C137.615 80.2019 137.948 80.2841 138.327 80.2841C138.573 80.2841 138.796 80.2496 138.995 80.1807C139.196 80.1091 139.37 80.003 139.516 79.8625C139.662 79.7193 139.774 79.5417 139.854 79.3295L140.761 79.5841C140.665 79.8917 140.505 80.1621 140.28 80.3955C140.054 80.6261 139.776 80.8064 139.444 80.9364C139.113 81.0636 138.74 81.1273 138.327 81.1273ZM146.818 81L144.957 74.8909H145.943L147.264 79.5682H147.327L148.632 74.8909H149.634L150.923 79.5523H150.986L152.307 74.8909H153.293L151.432 81H150.509L149.173 76.3068H149.077L147.741 81H146.818ZM154.534 81V74.8909H155.473V81H154.534ZM155.011 73.8727C154.828 73.8727 154.671 73.8104 154.538 73.6858C154.408 73.5612 154.343 73.4114 154.343 73.2364C154.343 73.0614 154.408 72.9116 154.538 72.7869C154.671 72.6623 154.828 72.6 155.011 72.6C155.194 72.6 155.351 72.6623 155.481 72.7869C155.613 72.9116 155.68 73.0614 155.68 73.2364C155.68 73.4114 155.613 73.5612 155.481 73.6858C155.351 73.8104 155.194 73.8727 155.011 73.8727ZM158.131 77.325V81H157.192V74.8909H158.099V75.8455H158.178C158.321 75.5352 158.539 75.286 158.831 75.0977C159.122 74.9068 159.499 74.8114 159.96 74.8114C160.374 74.8114 160.736 74.8962 161.046 75.0659C161.356 75.233 161.597 75.4875 161.77 75.8295C161.942 76.1689 162.028 76.5985 162.028 77.1182V81H161.09V77.1818C161.09 76.7019 160.965 76.328 160.716 76.0602C160.467 75.7898 160.124 75.6545 159.69 75.6545C159.39 75.6545 159.122 75.7195 158.886 75.8494C158.653 75.9794 158.469 76.1689 158.333 76.4182C158.198 76.6674 158.131 76.9697 158.131 77.325ZM166.05 81.1273C165.541 81.1273 165.092 80.9987 164.702 80.7415C164.312 80.4816 164.007 80.1157 163.787 79.6438C163.567 79.1691 163.457 78.6083 163.457 77.9614C163.457 77.3197 163.567 76.7629 163.787 76.2909C164.007 75.8189 164.314 75.4544 164.706 75.1972C165.098 74.94 165.552 74.8114 166.066 74.8114C166.464 74.8114 166.778 74.8777 167.009 75.0102C167.242 75.1402 167.42 75.2886 167.542 75.4557C167.666 75.6201 167.763 75.7553 167.832 75.8614H167.912V72.8545H168.85V81H167.943V80.0614H167.832C167.763 80.1727 167.665 80.3133 167.538 80.483C167.41 80.65 167.229 80.7998 166.993 80.9324C166.757 81.0623 166.443 81.1273 166.05 81.1273ZM166.178 80.2841C166.554 80.2841 166.872 80.186 167.132 79.9898C167.392 79.7909 167.589 79.5165 167.725 79.1665C167.86 78.8138 167.928 78.4068 167.928 77.9455C167.928 77.4894 167.861 77.0903 167.729 76.7483C167.596 76.4036 167.4 76.1358 167.14 75.9449C166.88 75.7513 166.559 75.6545 166.178 75.6545C165.78 75.6545 165.448 75.7566 165.183 75.9608C164.921 76.1623 164.723 76.4367 164.591 76.7841C164.461 77.1288 164.396 77.5159 164.396 77.9455C164.396 78.3803 164.462 78.7754 164.595 79.1307C164.73 79.4833 164.929 79.7644 165.191 79.9739C165.456 80.1807 165.785 80.2841 166.178 80.2841ZM173.182 81.1273C172.63 81.1273 172.146 80.996 171.73 80.7335C171.316 80.471 170.993 80.1038 170.759 79.6318C170.529 79.1598 170.413 78.6083 170.413 77.9773C170.413 77.3409 170.529 76.7854 170.759 76.3108C170.993 75.8362 171.316 75.4676 171.73 75.2051C172.146 74.9426 172.63 74.8114 173.182 74.8114C173.733 74.8114 174.216 74.9426 174.629 75.2051C175.046 75.4676 175.369 75.8362 175.6 76.3108C175.833 76.7854 175.95 77.3409 175.95 77.9773C175.95 78.6083 175.833 79.1598 175.6 79.6318C175.369 80.1038 175.046 80.471 174.629 80.7335C174.216 80.996 173.733 81.1273 173.182 81.1273ZM173.182 80.2841C173.6 80.2841 173.945 80.1767 174.216 79.9619C174.486 79.7472 174.686 79.4648 174.816 79.1148C174.946 78.7648 175.011 78.3856 175.011 77.9773C175.011 77.5689 174.946 77.1884 174.816 76.8358C174.686 76.4831 174.486 76.1981 174.216 75.9807C173.945 75.7633 173.6 75.6545 173.182 75.6545C172.763 75.6545 172.418 75.7633 172.147 75.9807C171.877 76.1981 171.677 76.4831 171.547 76.8358C171.417 77.1884 171.352 77.5689 171.352 77.9773C171.352 78.3856 171.417 78.7648 171.547 79.1148C171.677 79.4648 171.877 79.7472 172.147 79.9619C172.418 80.1767 172.763 80.2841 173.182 80.2841ZM178.559 81L176.697 74.8909H177.684L179.004 79.5682H179.068L180.372 74.8909H181.375L182.663 79.5523H182.727L184.047 74.8909H185.034L183.172 81H182.25L180.913 76.3068H180.818L179.482 81H178.559ZM193.752 76.2591L192.909 76.4977C192.856 76.3572 192.778 76.2206 192.674 76.0881C192.573 75.9528 192.435 75.8415 192.26 75.754C192.085 75.6665 191.861 75.6227 191.588 75.6227C191.214 75.6227 190.903 75.7089 190.654 75.8813C190.407 76.0509 190.284 76.267 190.284 76.5295C190.284 76.7629 190.369 76.9472 190.538 77.0824C190.708 77.2176 190.973 77.3303 191.334 77.4205L192.241 77.6432C192.787 77.7758 193.194 77.9786 193.462 78.2517C193.729 78.5222 193.863 78.8708 193.863 79.2977C193.863 79.6477 193.763 79.9606 193.561 80.2364C193.362 80.5121 193.084 80.7295 192.726 80.8886C192.368 81.0477 191.952 81.1273 191.477 81.1273C190.854 81.1273 190.338 80.992 189.93 80.7216C189.521 80.4511 189.263 80.0561 189.154 79.5364L190.045 79.3136C190.13 79.6424 190.29 79.889 190.526 80.0534C190.765 80.2178 191.077 80.3 191.461 80.3C191.899 80.3 192.246 80.2072 192.503 80.0216C192.763 79.8333 192.893 79.608 192.893 79.3455C192.893 79.1333 192.819 78.9557 192.67 78.8125C192.522 78.6667 192.294 78.558 191.986 78.4864L190.968 78.2477C190.408 78.1152 189.997 77.9097 189.735 77.6313C189.475 77.3502 189.345 76.9989 189.345 76.5773C189.345 76.2326 189.442 75.9277 189.635 75.6625C189.832 75.3973 190.098 75.1892 190.435 75.0381C190.774 74.8869 191.159 74.8114 191.588 74.8114C192.193 74.8114 192.668 74.9439 193.012 75.2091C193.36 75.4742 193.606 75.8242 193.752 76.2591ZM197.758 81.1273C197.185 81.1273 196.692 80.992 196.279 80.7216C195.865 80.4511 195.547 80.0786 195.324 79.604C195.101 79.1294 194.99 78.5871 194.99 77.9773C194.99 77.3568 195.104 76.8093 195.332 76.3347C195.563 75.8574 195.883 75.4848 196.294 75.217C196.708 74.9466 197.191 74.8114 197.742 74.8114C198.172 74.8114 198.559 74.8909 198.904 75.05C199.248 75.2091 199.531 75.4318 199.751 75.7182C199.971 76.0045 200.107 76.3386 200.16 76.7205H199.222C199.15 76.442 198.991 76.1955 198.744 75.9807C198.501 75.7633 198.172 75.6545 197.758 75.6545C197.392 75.6545 197.071 75.75 196.796 75.9409C196.522 76.1292 196.309 76.3956 196.155 76.7403C196.004 77.0824 195.929 77.4841 195.929 77.9455C195.929 78.4174 196.003 78.8284 196.151 79.1784C196.302 79.5284 196.515 79.8002 196.788 79.9938C197.063 80.1873 197.387 80.2841 197.758 80.2841C198.002 80.2841 198.223 80.2417 198.422 80.1568C198.621 80.072 198.79 79.95 198.927 79.7909C199.065 79.6318 199.163 79.4409 199.222 79.2182H200.16C200.107 79.5788 199.976 79.9036 199.767 80.1926C199.56 80.479 199.285 80.707 198.943 80.8767C198.604 81.0437 198.209 81.1273 197.758 81.1273ZM204.014 81.1273C203.463 81.1273 202.979 80.996 202.563 80.7335C202.149 80.471 201.825 80.1038 201.592 79.6318C201.361 79.1598 201.246 78.6083 201.246 77.9773C201.246 77.3409 201.361 76.7854 201.592 76.3108C201.825 75.8362 202.149 75.4676 202.563 75.2051C202.979 74.9426 203.463 74.8114 204.014 74.8114C204.566 74.8114 205.048 74.9426 205.462 75.2051C205.878 75.4676 206.202 75.8362 206.433 76.3108C206.666 76.7854 206.783 77.3409 206.783 77.9773C206.783 78.6083 206.666 79.1598 206.433 79.6318C206.202 80.1038 205.878 80.471 205.462 80.7335C205.048 80.996 204.566 81.1273 204.014 81.1273ZM204.014 80.2841C204.433 80.2841 204.778 80.1767 205.048 79.9619C205.319 79.7472 205.519 79.4648 205.649 79.1148C205.779 78.7648 205.844 78.3856 205.844 77.9773C205.844 77.5689 205.779 77.1884 205.649 76.8358C205.519 76.4831 205.319 76.1981 205.048 75.9807C204.778 75.7633 204.433 75.6545 204.014 75.6545C203.595 75.6545 203.251 75.7633 202.98 75.9807C202.71 76.1981 202.51 76.4831 202.38 76.8358C202.25 77.1884 202.185 77.5689 202.185 77.9773C202.185 78.3856 202.25 78.7648 202.38 79.1148C202.51 79.4648 202.71 79.7472 202.98 79.9619C203.251 80.1767 203.595 80.2841 204.014 80.2841ZM208.215 83.2909V74.8909H209.122V75.8614H209.234C209.302 75.7553 209.398 75.6201 209.52 75.4557C209.644 75.2886 209.822 75.1402 210.053 75.0102C210.286 74.8777 210.602 74.8114 210.999 74.8114C211.514 74.8114 211.967 74.94 212.36 75.1972C212.752 75.4544 213.058 75.8189 213.278 76.2909C213.498 76.7629 213.609 77.3197 213.609 77.9614C213.609 78.6083 213.498 79.1691 213.278 79.6438C213.058 80.1157 212.753 80.4816 212.364 80.7415C211.974 80.9987 211.524 81.1273 211.015 81.1273C210.623 81.1273 210.309 81.0623 210.073 80.9324C209.837 80.7998 209.655 80.65 209.528 80.483C209.401 80.3133 209.302 80.1727 209.234 80.0614H209.154V83.2909H208.215ZM209.138 77.9455C209.138 78.4068 209.206 78.8138 209.341 79.1665C209.476 79.5165 209.674 79.7909 209.934 79.9898C210.193 80.186 210.512 80.2841 210.888 80.2841C211.28 80.2841 211.608 80.1807 211.87 79.9739C212.136 79.7644 212.334 79.4833 212.467 79.1307C212.602 78.7754 212.67 78.3803 212.67 77.9455C212.67 77.5159 212.604 77.1288 212.471 76.7841C212.341 76.4367 212.144 76.1623 211.878 75.9608C211.616 75.7566 211.286 75.6545 210.888 75.6545C210.506 75.6545 210.185 75.7513 209.926 75.9449C209.666 76.1358 209.469 76.4036 209.337 76.7483C209.204 77.0903 209.138 77.4894 209.138 77.9455ZM217.602 81.1273C217.013 81.1273 216.505 80.9973 216.078 80.7375C215.654 80.475 215.327 80.1091 215.096 79.6398C214.868 79.1678 214.754 78.6189 214.754 77.9932C214.754 77.3674 214.868 76.8159 215.096 76.3386C215.327 75.8587 215.648 75.4848 216.059 75.217C216.472 74.9466 216.955 74.8114 217.506 74.8114C217.824 74.8114 218.139 74.8644 218.449 74.9705C218.759 75.0765 219.041 75.2489 219.296 75.4875C219.551 75.7235 219.753 76.0364 219.905 76.4261C220.056 76.8159 220.131 77.2958 220.131 77.8659V78.2636H215.422V77.4523H219.177C219.177 77.1076 219.108 76.8 218.97 76.5295C218.835 76.2591 218.641 76.0456 218.389 75.8892C218.14 75.7328 217.846 75.6545 217.506 75.6545C217.132 75.6545 216.809 75.7473 216.536 75.933C216.265 76.1159 216.057 76.3545 215.911 76.6489C215.766 76.9432 215.693 77.2587 215.693 77.5955V78.1364C215.693 78.5977 215.772 78.9888 215.931 79.3097C216.093 79.6278 216.317 79.8705 216.603 80.0375C216.89 80.2019 217.223 80.2841 217.602 80.2841C217.848 80.2841 218.071 80.2496 218.27 80.1807C218.471 80.1091 218.645 80.003 218.791 79.8625C218.937 79.7193 219.049 79.5417 219.129 79.3295L220.036 79.5841C219.94 79.8917 219.78 80.1621 219.555 80.3955C219.329 80.6261 219.051 80.8064 218.719 80.9364C218.388 81.0636 218.015 81.1273 217.602 81.1273ZM222.243 81.0636C222.047 81.0636 221.879 80.9934 221.738 80.8528C221.598 80.7123 221.527 80.5439 221.527 80.3477C221.527 80.1515 221.598 79.9831 221.738 79.8426C221.879 79.7021 222.047 79.6318 222.243 79.6318C222.439 79.6318 222.608 79.7021 222.748 79.8426C222.889 79.9831 222.959 80.1515 222.959 80.3477C222.959 80.4777 222.926 80.597 222.86 80.7057C222.796 80.8144 222.71 80.9019 222.601 80.9682C222.495 81.0318 222.376 81.0636 222.243 81.0636Z" fill="#A9AEB8"/>
<g clip-path="url(#clip1_5970_47848)">
<g clip-path="url(#clip2_5970_47848)">
<rect x="26.8" y="100.6" width="294.4" height="70.4" rx="6.4" fill="white"/>
<path d="M27.2 107C27.2 103.686 29.8863 101 33.2 101H58.4V170.6H33.2C29.8863 170.6 27.2 167.914 27.2 164.6V107Z" fill="#F2F3F5"/>
<path d="M51.1446 116.613V117.4H46.5785V116.613H48.5256V110.536L46.7106 111.639L46.2913 110.95L48.6462 109.491H49.4905V116.613H51.1446Z" fill="#787E85"/>
<path d="M27.2 107C27.2 103.686 29.8863 101 33.2 101H58.4V170.6H33.2C29.8863 170.6 27.2 167.914 27.2 164.6V107Z" stroke="#F2F3F5" stroke-width="0.8"/>
<path d="M72.9629 115.212C72.9629 115.667 72.8499 116.069 72.624 116.418C72.3981 116.766 72.0688 117.04 71.6361 117.239C71.2072 117.434 70.6865 117.532 70.0738 117.532C69.4956 117.532 68.9711 117.444 68.5001 117.268C68.0329 117.092 67.6328 116.843 67.2997 116.521L67.8913 115.855C68.1631 116.111 68.4771 116.316 68.8332 116.469C69.1893 116.619 69.6086 116.693 70.0911 116.693C70.4127 116.693 70.7133 116.642 70.9928 116.538C71.2723 116.431 71.4982 116.27 71.6706 116.056C71.8429 115.838 71.929 115.562 71.929 115.229C71.929 114.976 71.8792 114.76 71.7797 114.58C71.6801 114.396 71.504 114.235 71.2513 114.097C70.9986 113.956 70.6463 113.818 70.1944 113.684C69.6737 113.531 69.2219 113.358 68.839 113.167C68.4599 112.972 68.165 112.734 67.9544 112.455C67.7477 112.171 67.6443 111.819 67.6443 111.398C67.6443 111.003 67.7534 110.653 67.9717 110.347C68.1899 110.04 68.4905 109.801 68.8734 109.629C69.2602 109.453 69.7043 109.365 70.2059 109.365C70.7535 109.365 71.2283 109.443 71.6303 109.6C72.0362 109.753 72.4038 109.975 72.7331 110.266L72.1473 110.915C71.8639 110.667 71.5595 110.485 71.234 110.37C70.9086 110.255 70.5774 110.197 70.2404 110.197C69.8077 110.197 69.4363 110.293 69.1261 110.485C68.816 110.676 68.6609 110.969 68.6609 111.363C68.6609 111.593 68.7222 111.79 68.8447 111.955C68.9672 112.116 69.174 112.265 69.465 112.403C69.756 112.541 70.1523 112.683 70.6539 112.828C71.0636 112.947 71.4427 113.096 71.7912 113.276C72.1434 113.452 72.4268 113.693 72.6412 114C72.8556 114.302 72.9629 114.706 72.9629 115.212ZM75.6032 114.718C75.63 115.418 75.8138 115.93 76.1546 116.251C76.4992 116.569 76.9051 116.728 77.3723 116.728C77.6824 116.728 77.9619 116.682 78.2108 116.59C78.4597 116.498 78.7182 116.362 78.9862 116.182L79.4399 116.82C79.1604 117.042 78.8388 117.216 78.475 117.342C78.1113 117.469 77.7398 117.532 77.3608 117.532C76.7711 117.532 76.2695 117.4 75.8559 117.136C75.4462 116.871 75.1323 116.504 74.914 116.033C74.6996 115.558 74.5924 115.009 74.5924 114.385C74.5924 113.772 74.6996 113.228 74.914 112.753C75.1323 112.279 75.4386 111.905 75.833 111.633C76.2312 111.361 76.6983 111.226 77.2344 111.226C77.9964 111.226 78.5956 111.49 79.0322 112.018C79.4725 112.547 79.6927 113.27 79.6927 114.189C79.6927 114.293 79.6888 114.39 79.6812 114.482C79.6773 114.574 79.6735 114.653 79.6697 114.718H75.6032ZM77.2459 112.018C76.7979 112.018 76.4226 112.177 76.1202 112.495C75.8177 112.813 75.6473 113.305 75.609 113.971H78.7622C78.7507 113.324 78.609 112.838 78.3372 112.512C78.0653 112.183 77.7016 112.018 77.2459 112.018ZM84.0906 108.917V115.907C84.0906 116.205 84.1825 116.418 84.3663 116.544C84.5539 116.667 84.7951 116.728 85.09 116.728C85.2699 116.728 85.4422 116.709 85.6069 116.67C85.7754 116.632 85.9419 116.58 86.1066 116.515L86.365 117.222C86.2004 117.302 85.9955 117.373 85.7505 117.434C85.5092 117.499 85.2355 117.532 84.9291 117.532C84.3931 117.532 83.9585 117.385 83.6253 117.09C83.2922 116.791 83.1256 116.379 83.1256 115.855V109.681H81.2705V108.917H84.0906ZM89.3845 114.718C89.4113 115.418 89.5951 115.93 89.9359 116.251C90.2805 116.569 90.6864 116.728 91.1535 116.728C91.4637 116.728 91.7432 116.682 91.9921 116.59C92.241 116.498 92.4994 116.362 92.7675 116.182L93.2212 116.82C92.9417 117.042 92.62 117.216 92.2563 117.342C91.8925 117.469 91.5211 117.532 91.142 117.532C90.5523 117.532 90.0507 117.4 89.6372 117.136C89.2275 116.871 88.9135 116.504 88.6952 116.033C88.4808 115.558 88.3736 115.009 88.3736 114.385C88.3736 113.772 88.4808 113.228 88.6952 112.753C88.9135 112.279 89.2198 111.905 89.6142 111.633C90.0124 111.361 90.4796 111.226 91.0157 111.226C91.7776 111.226 92.3769 111.49 92.8134 112.018C93.2537 112.547 93.4739 113.27 93.4739 114.189C93.4739 114.293 93.4701 114.39 93.4624 114.482C93.4586 114.574 93.4548 114.653 93.4509 114.718H89.3845ZM91.0271 112.018C90.5791 112.018 90.2039 112.177 89.9014 112.495C89.5989 112.813 89.4285 113.305 89.3902 113.971H92.5435C92.532 113.324 92.3903 112.838 92.1184 112.512C91.8466 112.183 91.4828 112.018 91.0271 112.018ZM98.2509 116.699C98.5534 116.699 98.8348 116.651 99.0952 116.556C99.3594 116.456 99.6026 116.328 99.8246 116.171L100.296 116.803C100.031 117.028 99.7136 117.207 99.3422 117.337C98.9708 117.467 98.607 117.532 98.2509 117.532C97.6497 117.532 97.1366 117.404 96.7116 117.147C96.2904 116.887 95.9688 116.523 95.7467 116.056C95.5246 115.585 95.4136 115.034 95.4136 114.402C95.4136 113.797 95.5246 113.255 95.7467 112.776C95.9688 112.298 96.2923 111.921 96.7174 111.645C97.1424 111.365 97.6574 111.226 98.2624 111.226C99.032 111.226 99.7059 111.459 100.284 111.926L99.8132 112.57C99.2886 112.21 98.7678 112.03 98.2509 112.03C97.7301 112.03 97.3013 112.227 96.9643 112.621C96.6274 113.012 96.4589 113.605 96.4589 114.402C96.4589 115.21 96.6274 115.796 96.9643 116.159C97.3013 116.519 97.7301 116.699 98.2509 116.699ZM107.209 117.095C107.002 117.233 106.752 117.341 106.457 117.417C106.162 117.494 105.873 117.532 105.59 117.532C104.939 117.532 104.437 117.362 104.085 117.021C103.732 116.68 103.556 116.242 103.556 115.706V112.099H102.166V111.352H103.556V109.979L104.521 109.864V111.352H106.612L106.497 112.099H104.521V115.694C104.521 116.031 104.609 116.288 104.785 116.464C104.965 116.64 105.262 116.728 105.676 116.728C105.902 116.728 106.11 116.701 106.302 116.647C106.493 116.594 106.671 116.525 106.836 116.441L107.209 117.095ZM117.992 110.755H118.969L118.894 113.081L121.077 112.305L121.37 113.213L119.147 113.868L120.565 115.706L119.796 116.268L118.481 114.35L117.165 116.268L116.396 115.706L117.814 113.868L115.591 113.213L115.884 112.305L118.067 113.081L117.992 110.755ZM131.394 110.307V113.075H134.496V113.879H131.394V117.4H130.407V109.491H135.065L134.944 110.307H131.394ZM136.918 117.4V116.659H137.86V112.093H136.918V111.352H138.595L138.773 112.782C139.007 112.284 139.29 111.899 139.623 111.628C139.956 111.356 140.397 111.22 140.944 111.22C141.113 111.22 141.262 111.233 141.392 111.26C141.526 111.283 141.662 111.314 141.8 111.352L141.662 113.397H140.87V112.11C140.854 112.11 140.837 112.11 140.818 112.11C139.891 112.11 139.227 112.772 138.825 114.097V116.659H140.054V117.4H136.918ZM146.055 111.226C146.908 111.226 147.554 111.511 147.99 112.081C148.427 112.652 148.645 113.416 148.645 114.373C148.645 114.99 148.545 115.535 148.346 116.01C148.147 116.485 147.854 116.858 147.467 117.13C147.081 117.398 146.606 117.532 146.043 117.532C145.189 117.532 144.542 117.245 144.102 116.67C143.661 116.096 143.441 115.334 143.441 114.385C143.441 113.764 143.541 113.217 143.74 112.742C143.939 112.263 144.232 111.892 144.619 111.628C145.009 111.36 145.488 111.226 146.055 111.226ZM146.055 112.012C145.534 112.012 145.139 112.206 144.871 112.593C144.607 112.979 144.475 113.577 144.475 114.385C144.475 115.185 144.605 115.778 144.866 116.165C145.13 116.548 145.522 116.739 146.043 116.739C146.564 116.739 146.954 116.546 147.215 116.159C147.479 115.773 147.611 115.177 147.611 114.373C147.611 113.569 147.481 112.975 147.22 112.593C146.96 112.206 146.571 112.012 146.055 112.012ZM154.628 111.226C154.819 111.226 155.005 111.268 155.185 111.352C155.365 111.436 155.513 111.599 155.627 111.84C155.742 112.081 155.8 112.434 155.8 112.897V117.4H154.904V113.052C154.904 112.673 154.881 112.399 154.835 112.231C154.789 112.062 154.657 111.978 154.438 111.978C154.258 111.978 154.079 112.035 153.899 112.15C153.719 112.261 153.546 112.445 153.382 112.702V117.4H152.48V113.052C152.48 112.673 152.457 112.399 152.411 112.231C152.365 112.062 152.233 111.978 152.015 111.978C151.827 111.978 151.645 112.035 151.469 112.15C151.293 112.261 151.122 112.445 150.958 112.702V117.4H150.068V111.352H150.826L150.883 112.053C151.048 111.819 151.232 111.624 151.435 111.467C151.641 111.306 151.896 111.226 152.198 111.226C152.428 111.226 152.645 111.281 152.847 111.392C153.05 111.499 153.2 111.71 153.295 112.024C153.46 111.787 153.646 111.595 153.853 111.45C154.059 111.3 154.318 111.226 154.628 111.226ZM169.328 109.491V114.838C169.328 115.371 169.221 115.84 169.007 116.245C168.792 116.651 168.488 116.967 168.093 117.193C167.699 117.419 167.236 117.532 166.703 117.532C166.16 117.532 165.693 117.419 165.302 117.193C164.915 116.963 164.618 116.647 164.412 116.245C164.205 115.84 164.102 115.371 164.102 114.838V109.491H165.089V114.873C165.089 115.474 165.229 115.924 165.509 116.222C165.792 116.521 166.19 116.67 166.703 116.67C167.22 116.67 167.619 116.521 167.898 116.222C168.181 115.924 168.323 115.474 168.323 114.873V109.491H169.328ZM173.37 116.734C173.837 116.734 174.205 116.647 174.473 116.475C174.741 116.303 174.875 116.069 174.875 115.774C174.875 115.595 174.84 115.438 174.771 115.303C174.706 115.169 174.57 115.049 174.364 114.942C174.157 114.831 173.839 114.721 173.41 114.614C172.993 114.511 172.629 114.392 172.319 114.258C172.013 114.12 171.773 113.942 171.601 113.724C171.433 113.506 171.348 113.222 171.348 112.874C171.348 112.365 171.561 111.963 171.986 111.668C172.411 111.373 172.964 111.226 173.646 111.226C174.132 111.226 174.555 111.291 174.915 111.421C175.279 111.551 175.587 111.708 175.84 111.892L175.415 112.547C175.189 112.39 174.936 112.261 174.657 112.162C174.381 112.058 174.048 112.007 173.657 112.007C173.182 112.007 172.845 112.081 172.646 112.231C172.447 112.376 172.348 112.566 172.348 112.799C172.348 112.979 172.396 113.129 172.491 113.247C172.591 113.362 172.757 113.466 172.991 113.557C173.225 113.649 173.546 113.751 173.956 113.862C174.35 113.969 174.695 114.095 174.99 114.241C175.285 114.386 175.512 114.578 175.673 114.815C175.838 115.049 175.92 115.353 175.92 115.729C175.92 116.157 175.798 116.506 175.553 116.774C175.308 117.038 174.99 117.231 174.599 117.354C174.212 117.473 173.803 117.532 173.37 117.532C172.822 117.532 172.355 117.454 171.969 117.297C171.586 117.136 171.264 116.942 171.004 116.716L171.555 116.079C171.792 116.274 172.064 116.433 172.371 116.556C172.681 116.674 173.014 116.734 173.37 116.734ZM178.963 114.718C178.989 115.418 179.173 115.93 179.514 116.251C179.859 116.569 180.264 116.728 180.732 116.728C181.042 116.728 181.321 116.682 181.57 116.59C181.819 116.498 182.078 116.362 182.346 116.182L182.799 116.82C182.52 117.042 182.198 117.216 181.834 117.342C181.471 117.469 181.099 117.532 180.72 117.532C180.13 117.532 179.629 117.4 179.215 117.136C178.806 116.871 178.492 116.504 178.273 116.033C178.059 115.558 177.952 115.009 177.952 114.385C177.952 113.772 178.059 113.228 178.273 112.753C178.492 112.279 178.798 111.905 179.192 111.633C179.591 111.361 180.058 111.226 180.594 111.226C181.356 111.226 181.955 111.49 182.392 112.018C182.832 112.547 183.052 113.27 183.052 114.189C183.052 114.293 183.048 114.39 183.041 114.482C183.037 114.574 183.033 114.653 183.029 114.718H178.963ZM180.605 112.018C180.157 112.018 179.782 112.177 179.48 112.495C179.177 112.813 179.007 113.305 178.968 113.971H182.122C182.11 113.324 181.968 112.838 181.697 112.512C181.425 112.183 181.061 112.018 180.605 112.018ZM185.153 117.4V116.659H186.094V112.093H185.153V111.352H186.83L187.008 112.782C187.241 112.284 187.525 111.899 187.858 111.628C188.191 111.356 188.631 111.22 189.179 111.22C189.347 111.22 189.497 111.233 189.627 111.26C189.761 111.283 189.897 111.314 190.035 111.352L189.897 113.397H189.104V112.11C189.089 112.11 189.072 112.11 189.052 112.11C188.126 112.11 187.461 112.772 187.059 114.097V116.659H188.289V117.4H185.153ZM194.042 116.734C194.509 116.734 194.877 116.647 195.145 116.475C195.413 116.303 195.547 116.069 195.547 115.774C195.547 115.595 195.512 115.438 195.443 115.303C195.378 115.169 195.242 115.049 195.036 114.942C194.829 114.831 194.511 114.721 194.082 114.614C193.665 114.511 193.301 114.392 192.991 114.258C192.685 114.12 192.445 113.942 192.273 113.724C192.104 113.506 192.02 113.222 192.02 112.874C192.02 112.365 192.233 111.963 192.658 111.668C193.083 111.373 193.636 111.226 194.318 111.226C194.804 111.226 195.227 111.291 195.587 111.421C195.951 111.551 196.259 111.708 196.512 111.892L196.087 112.547C195.861 112.39 195.608 112.261 195.328 112.162C195.053 112.058 194.72 112.007 194.329 112.007C193.854 112.007 193.517 112.081 193.318 112.231C193.119 112.376 193.02 112.566 193.02 112.799C193.02 112.979 193.067 113.129 193.163 113.247C193.263 113.362 193.429 113.466 193.663 113.557C193.896 113.649 194.218 113.751 194.628 113.862C195.022 113.969 195.367 114.095 195.662 114.241C195.956 114.386 196.184 114.578 196.345 114.815C196.51 115.049 196.592 115.353 196.592 115.729C196.592 116.157 196.47 116.506 196.224 116.774C195.979 117.038 195.662 117.231 195.271 117.354C194.884 117.473 194.475 117.532 194.042 117.532C193.494 117.532 193.027 117.454 192.64 117.297C192.258 117.136 191.936 116.942 191.676 116.716L192.227 116.079C192.464 116.274 192.736 116.433 193.043 116.556C193.353 116.674 193.686 116.734 194.042 116.734ZM201.157 111.53C201.425 111.53 201.647 111.62 201.823 111.8C202.003 111.98 202.093 112.198 202.093 112.455C202.093 112.711 202.003 112.931 201.823 113.115C201.647 113.299 201.425 113.391 201.157 113.391C200.896 113.391 200.676 113.299 200.496 113.115C200.32 112.931 200.232 112.711 200.232 112.455C200.232 112.198 200.32 111.98 200.496 111.8C200.676 111.62 200.896 111.53 201.157 111.53ZM201.157 115.499C201.425 115.499 201.647 115.589 201.823 115.769C202.003 115.949 202.093 116.165 202.093 116.418C202.093 116.559 202.076 116.703 202.041 116.849C202.01 116.99 201.951 117.151 201.863 117.331L200.933 119.468H200.06L200.611 117.187C200.358 117.011 200.232 116.757 200.232 116.423C200.232 116.167 200.32 115.949 200.496 115.769C200.676 115.589 200.896 115.499 201.157 115.499Z" fill="#A9AEB8"/>
</g>
<rect x="27.2" y="101" width="293.6" height="69.6" rx="6" stroke="#E5E6EB" stroke-width="0.8"/>
</g>
<rect x="270" y="184.6" width="51.6" height="26" rx="6.4" fill="#654AEC"/>
<path d="M288.241 195.491C288.193 195.087 288 194.775 287.66 194.552C287.321 194.329 286.905 194.218 286.411 194.218C286.051 194.218 285.735 194.276 285.465 194.393C285.197 194.509 284.988 194.67 284.836 194.874C284.688 195.078 284.614 195.31 284.614 195.57C284.614 195.787 284.665 195.974 284.769 196.131C284.875 196.285 285.01 196.413 285.174 196.517C285.339 196.617 285.511 196.701 285.691 196.767C285.872 196.831 286.038 196.883 286.189 196.922L287.016 197.145C287.228 197.201 287.464 197.278 287.724 197.376C287.986 197.474 288.237 197.608 288.476 197.777C288.717 197.944 288.916 198.159 289.072 198.422C289.229 198.684 289.307 199.006 289.307 199.388C289.307 199.828 289.191 200.226 288.961 200.581C288.733 200.937 288.399 201.219 287.959 201.429C287.521 201.638 286.989 201.743 286.364 201.743C285.78 201.743 285.275 201.649 284.848 201.46C284.424 201.272 284.09 201.01 283.846 200.673C283.605 200.336 283.468 199.945 283.436 199.5H284.455C284.481 199.807 284.584 200.062 284.765 200.263C284.948 200.462 285.178 200.611 285.457 200.709C285.738 200.804 286.04 200.852 286.364 200.852C286.74 200.852 287.078 200.791 287.378 200.669C287.677 200.544 287.915 200.372 288.09 200.152C288.265 199.929 288.352 199.669 288.352 199.372C288.352 199.102 288.277 198.882 288.126 198.712C287.974 198.542 287.776 198.405 287.529 198.298C287.282 198.192 287.016 198.1 286.73 198.02L285.727 197.734C285.091 197.551 284.587 197.29 284.216 196.95C283.845 196.611 283.659 196.167 283.659 195.618C283.659 195.162 283.782 194.764 284.029 194.425C284.278 194.083 284.612 193.817 285.031 193.629C285.453 193.438 285.923 193.343 286.443 193.343C286.968 193.343 287.435 193.437 287.843 193.625C288.252 193.811 288.575 194.065 288.814 194.389C289.055 194.712 289.182 195.08 289.195 195.491H288.241ZM292.599 201.743C292.212 201.743 291.861 201.67 291.545 201.524C291.23 201.376 290.979 201.162 290.793 200.884C290.608 200.603 290.515 200.263 290.515 199.866C290.515 199.516 290.584 199.232 290.722 199.014C290.86 198.794 291.044 198.622 291.275 198.497C291.505 198.373 291.76 198.28 292.038 198.219C292.319 198.155 292.602 198.105 292.885 198.068C293.257 198.02 293.558 197.984 293.788 197.96C294.022 197.934 294.191 197.89 294.297 197.829C294.406 197.768 294.46 197.662 294.46 197.511V197.479C294.46 197.087 294.353 196.782 294.138 196.564C293.926 196.347 293.604 196.238 293.172 196.238C292.724 196.238 292.372 196.336 292.118 196.533C291.863 196.729 291.684 196.938 291.581 197.161L290.69 196.843C290.849 196.472 291.061 196.183 291.326 195.976C291.594 195.766 291.886 195.62 292.201 195.538C292.519 195.453 292.832 195.411 293.14 195.411C293.336 195.411 293.562 195.435 293.816 195.483C294.073 195.528 294.321 195.622 294.56 195.765C294.801 195.908 295.001 196.124 295.16 196.413C295.319 196.702 295.399 197.089 295.399 197.575V201.6H294.46V200.772H294.413C294.349 200.905 294.243 201.047 294.094 201.198C293.946 201.349 293.748 201.478 293.502 201.584C293.255 201.69 292.954 201.743 292.599 201.743ZM292.742 200.9C293.113 200.9 293.426 200.827 293.681 200.681C293.938 200.535 294.132 200.347 294.262 200.116C294.394 199.885 294.46 199.643 294.46 199.388V198.529C294.421 198.577 294.333 198.621 294.198 198.66C294.065 198.698 293.912 198.731 293.737 198.76C293.564 198.786 293.396 198.81 293.231 198.831C293.07 198.85 292.938 198.866 292.838 198.879C292.594 198.911 292.366 198.963 292.154 199.034C291.944 199.103 291.774 199.208 291.644 199.348C291.517 199.486 291.454 199.675 291.454 199.913C291.454 200.239 291.574 200.486 291.815 200.653C292.059 200.817 292.368 200.9 292.742 200.9ZM301.889 195.491L299.63 201.6H298.675L296.416 195.491H297.434L299.121 200.359H299.184L300.871 195.491H301.889ZM305.47 201.727C304.882 201.727 304.374 201.597 303.947 201.337C303.523 201.075 303.195 200.709 302.965 200.239C302.737 199.767 302.623 199.219 302.623 198.593C302.623 197.967 302.737 197.416 302.965 196.938C303.195 196.458 303.516 196.084 303.927 195.817C304.341 195.546 304.823 195.411 305.375 195.411C305.693 195.411 306.007 195.464 306.318 195.57C306.628 195.676 306.91 195.848 307.165 196.087C307.419 196.323 307.622 196.636 307.773 197.026C307.924 197.416 308 197.895 308 198.466V198.863H303.291V198.052H307.045C307.045 197.707 306.977 197.4 306.839 197.129C306.703 196.859 306.51 196.645 306.258 196.489C306.009 196.332 305.714 196.254 305.375 196.254C305.001 196.254 304.678 196.347 304.405 196.533C304.134 196.716 303.926 196.954 303.78 197.248C303.634 197.543 303.561 197.858 303.561 198.195V198.736C303.561 199.197 303.641 199.588 303.8 199.909C303.962 200.227 304.186 200.47 304.472 200.637C304.759 200.802 305.091 200.884 305.47 200.884C305.717 200.884 305.94 200.849 306.139 200.78C306.34 200.709 306.514 200.603 306.66 200.462C306.805 200.319 306.918 200.141 306.998 199.929L307.905 200.184C307.809 200.491 307.649 200.762 307.423 200.995C307.198 201.226 306.92 201.406 306.588 201.536C306.257 201.663 305.884 201.727 305.47 201.727Z" fill="white"/>
<path fill-rule="evenodd" clip-rule="evenodd" d="M330.172 213.399L324.4 219.218L324.977 219.799L330.749 213.981L330.172 213.399ZM329.895 216.6L327.586 218.927L328.163 219.509L330.472 217.181L329.895 216.6Z" fill="#999999"/>
</g>
<rect x="13.6" y="10.6" width="320.8" height="212.8" rx="6.8" stroke="#E5E6EB" stroke-width="0.8"/>
</g>
<defs>
<filter id="filter0_d_5970_47848" x="0.400012" y="0.600195" width="347.2" height="239.2" filterUnits="userSpaceOnUse" color-interpolation-filters="sRGB">
<feFlood flood-opacity="0" result="BackgroundImageFix"/>
<feColorMatrix in="SourceAlpha" type="matrix" values="0 0 0 0 0 0 0 0 0 0 0 0 0 0 0 0 0 0 127 0" result="hardAlpha"/>
<feOffset dy="3.2"/>
<feGaussianBlur stdDeviation="6.4"/>
<feColorMatrix type="matrix" values="0 0 0 0 0 0 0 0 0 0 0 0 0 0 0 0 0 0 0.08 0"/>
<feBlend mode="normal" in2="BackgroundImageFix" result="effect1_dropShadow_5970_47848"/>
<feBlend mode="normal" in="SourceGraphic" in2="effect1_dropShadow_5970_47848" result="shape"/>
</filter>
<clipPath id="clip0_5970_47848">
<rect x="14" y="11" width="320" height="212" rx="6.4" fill="white"/>
</clipPath>
<clipPath id="clip1_5970_47848">
<rect width="320" height="70.4" fill="white" transform="translate(14 100.6)"/>
</clipPath>
<clipPath id="clip2_5970_47848">
<rect x="26.8" y="100.6" width="294.4" height="70.4" rx="6.4" fill="white"/>
</clipPath>
</defs>
</svg>
