<svg width="204" height="168" viewBox="0 0 204 168" fill="none" xmlns="http://www.w3.org/2000/svg">
<g filter="url(#filter0_i_5999_75576)">
<g clip-path="url(#clip0_5999_75576)">
<rect width="204" height="168" rx="8" fill="white"/>
<rect width="204" height="38.4" fill="white"/>
<path d="M15.7904 15.2034H17.28L20.36 23.2002H18.8592L18.1088 21.0834H14.9168L14.1664 23.2002H12.7216L15.7904 15.2034ZM15.2976 20.0194H17.7392L16.5408 16.581H16.5072L15.2976 20.0194ZM24.8512 19.3474C24.7989 18.989 24.6533 18.7202 24.4144 18.541C24.1829 18.3543 23.888 18.261 23.5296 18.261C23.3653 18.261 23.1898 18.2909 23.0032 18.3506C22.8165 18.4029 22.6448 18.5074 22.488 18.6642C22.3312 18.8135 22.2005 19.0263 22.096 19.3026C21.9914 19.5714 21.9392 19.9261 21.9392 20.3666C21.9392 20.6055 21.9653 20.8445 22.0176 21.0834C22.0773 21.3223 22.1669 21.5351 22.2864 21.7218C22.4133 21.9085 22.5738 22.0615 22.768 22.181C22.9621 22.293 23.1973 22.349 23.4736 22.349C23.8469 22.349 24.153 22.2333 24.392 22.0018C24.6384 21.7703 24.7914 21.4455 24.8512 21.0274H26.128C26.0085 21.7815 25.721 22.3602 25.2656 22.7634C24.8176 23.1591 24.2202 23.357 23.4736 23.357C23.0181 23.357 22.6149 23.2823 22.264 23.133C21.9205 22.9762 21.6293 22.7671 21.3904 22.5058C21.1514 22.237 20.9685 21.9197 20.8416 21.5538C20.7221 21.1879 20.6624 20.7922 20.6624 20.3666C20.6624 19.9335 20.7221 19.5266 20.8416 19.1458C20.961 18.765 21.1402 18.4365 21.3792 18.1602C21.6181 17.8765 21.913 17.6562 22.264 17.4994C22.6224 17.3351 23.0405 17.253 23.5184 17.253C23.8544 17.253 24.1717 17.2978 24.4704 17.3874C24.7765 17.4695 25.0453 17.5965 25.2768 17.7682C25.5157 17.9399 25.7098 18.1565 25.8592 18.4178C26.0085 18.6791 26.0981 18.989 26.128 19.3474H24.8512ZM26.5834 17.4098H27.5466V15.6738H28.8234V17.4098H29.977V18.3618H28.8234V21.453C28.8234 21.5874 28.8271 21.7031 28.8346 21.8002C28.8495 21.8973 28.8757 21.9794 28.913 22.0466C28.9578 22.1138 29.0213 22.1661 29.1034 22.2034C29.1855 22.2333 29.2975 22.2482 29.4394 22.2482C29.529 22.2482 29.6186 22.2482 29.7082 22.2482C29.7978 22.2407 29.8874 22.2258 29.977 22.2034V23.189C29.8351 23.2039 29.697 23.2189 29.5626 23.2338C29.4282 23.2487 29.2901 23.2562 29.1482 23.2562C28.8122 23.2562 28.5397 23.2263 28.3306 23.1666C28.129 23.0994 27.9685 23.0061 27.849 22.8866C27.737 22.7597 27.6586 22.6029 27.6138 22.4162C27.5765 22.2295 27.5541 22.0167 27.5466 21.7778V18.3618H26.5834V17.4098ZM30.9291 15.2034H32.2059V16.413H30.9291V15.2034ZM30.9291 17.4098H32.2059V23.2002H30.9291V17.4098ZM36.2514 23.357C35.7885 23.357 35.3741 23.2823 35.0082 23.133C34.6498 22.9762 34.3437 22.7634 34.0898 22.4946C33.8434 22.2258 33.653 21.9047 33.5186 21.5314C33.3917 21.1581 33.3282 20.7474 33.3282 20.2994C33.3282 19.8589 33.3917 19.4519 33.5186 19.0786C33.653 18.7053 33.8434 18.3842 34.0898 18.1154C34.3437 17.8466 34.6498 17.6375 35.0082 17.4882C35.3741 17.3314 35.7885 17.253 36.2514 17.253C36.7144 17.253 37.125 17.3314 37.4834 17.4882C37.8493 17.6375 38.1554 17.8466 38.4018 18.1154C38.6557 18.3842 38.8461 18.7053 38.973 19.0786C39.1074 19.4519 39.1746 19.8589 39.1746 20.2994C39.1746 20.7474 39.1074 21.1581 38.973 21.5314C38.8461 21.9047 38.6557 22.2258 38.4018 22.4946C38.1554 22.7634 37.8493 22.9762 37.4834 23.133C37.125 23.2823 36.7144 23.357 36.2514 23.357ZM36.2514 22.349C36.5352 22.349 36.7816 22.2893 36.9906 22.1698C37.1997 22.0503 37.3714 21.8935 37.5058 21.6994C37.6402 21.5053 37.7373 21.2887 37.797 21.0498C37.8642 20.8034 37.8978 20.5533 37.8978 20.2994C37.8978 20.053 37.8642 19.8066 37.797 19.5602C37.7373 19.3138 37.6402 19.0973 37.5058 18.9106C37.3714 18.7165 37.1997 18.5597 36.9906 18.4402C36.7816 18.3207 36.5352 18.261 36.2514 18.261C35.9677 18.261 35.7213 18.3207 35.5122 18.4402C35.3032 18.5597 35.1314 18.7165 34.997 18.9106C34.8626 19.0973 34.7618 19.3138 34.6946 19.5602C34.6349 19.8066 34.605 20.053 34.605 20.2994C34.605 20.5533 34.6349 20.8034 34.6946 21.0498C34.7618 21.2887 34.8626 21.5053 34.997 21.6994C35.1314 21.8935 35.3032 22.0503 35.5122 22.1698C35.7213 22.2893 35.9677 22.349 36.2514 22.349ZM40.2361 17.4098H41.4457V18.261L41.4681 18.2834C41.6622 17.9623 41.9161 17.7122 42.2297 17.533C42.5433 17.3463 42.8905 17.253 43.2713 17.253C43.906 17.253 44.4062 17.4173 44.7721 17.7458C45.138 18.0743 45.3209 18.5671 45.3209 19.2242V23.2002H44.0441V19.5602C44.0292 19.1047 43.9321 18.7762 43.7529 18.5746C43.5737 18.3655 43.2937 18.261 42.9129 18.261C42.6964 18.261 42.5022 18.3021 42.3305 18.3842C42.1588 18.4589 42.0132 18.5671 41.8937 18.709C41.7742 18.8434 41.6809 19.0039 41.6137 19.1906C41.5465 19.3773 41.5129 19.5751 41.5129 19.7842V23.2002H40.2361V17.4098ZM49.9637 15.2034H51.3637V21.9906H55.4293V23.2002H49.9637V15.2034ZM56.2494 15.2034H57.5262V16.413H56.2494V15.2034ZM56.2494 17.4098H57.5262V23.2002H56.2494V17.4098ZM59.8806 21.341C59.9179 21.7143 60.0598 21.9757 60.3062 22.125C60.5526 22.2743 60.8475 22.349 61.191 22.349C61.3104 22.349 61.4448 22.3415 61.5942 22.3266C61.751 22.3042 61.8966 22.2669 62.031 22.2146C62.1654 22.1623 62.2736 22.0877 62.3558 21.9906C62.4454 21.8861 62.4864 21.7517 62.479 21.5874C62.4715 21.4231 62.4118 21.2887 62.2998 21.1842C62.1878 21.0797 62.0422 20.9975 61.863 20.9378C61.6912 20.8706 61.4934 20.8146 61.2694 20.7698C61.0454 20.725 60.8176 20.6765 60.5862 20.6242C60.3472 20.5719 60.1158 20.5085 59.8918 20.4338C59.6752 20.3591 59.4774 20.2583 59.2982 20.1314C59.1264 20.0045 58.9883 19.8439 58.8838 19.6498C58.7792 19.4482 58.727 19.2018 58.727 18.9106C58.727 18.597 58.8016 18.3357 58.951 18.1266C59.1078 17.9101 59.3019 17.7383 59.5334 17.6114C59.7723 17.477 60.0336 17.3837 60.3174 17.3314C60.6086 17.2791 60.8848 17.253 61.1462 17.253C61.4448 17.253 61.7286 17.2866 61.9974 17.3538C62.2736 17.4135 62.52 17.5143 62.7366 17.6562C62.9606 17.7981 63.1435 17.9847 63.2854 18.2162C63.4347 18.4402 63.528 18.7127 63.5654 19.0338H62.2326C62.1728 18.7277 62.031 18.5223 61.807 18.4178C61.5904 18.3133 61.3403 18.261 61.0566 18.261C60.967 18.261 60.8587 18.2685 60.7318 18.2834C60.6123 18.2983 60.4966 18.3282 60.3846 18.373C60.28 18.4103 60.1904 18.4701 60.1158 18.5522C60.0411 18.6269 60.0038 18.7277 60.0038 18.8546C60.0038 19.0114 60.056 19.1383 60.1606 19.2354C60.2726 19.3325 60.4144 19.4146 60.5862 19.4818C60.7654 19.5415 60.967 19.5938 61.191 19.6386C61.415 19.6834 61.6464 19.7319 61.8854 19.7842C62.1168 19.8365 62.3446 19.8999 62.5686 19.9746C62.7926 20.0493 62.9904 20.1501 63.1622 20.277C63.3414 20.4039 63.4832 20.5645 63.5878 20.7586C63.6998 20.9527 63.7558 21.1917 63.7558 21.4754C63.7558 21.8189 63.6774 22.1101 63.5206 22.349C63.3638 22.5879 63.1584 22.7821 62.9046 22.9314C62.6582 23.0807 62.3819 23.189 62.0758 23.2562C61.7696 23.3234 61.4672 23.357 61.1686 23.357C60.8027 23.357 60.463 23.3159 60.1494 23.2338C59.8432 23.1517 59.5744 23.0285 59.343 22.8642C59.119 22.6925 58.9398 22.4834 58.8054 22.237C58.6784 21.9831 58.6112 21.6845 58.6038 21.341H59.8806ZM64.1428 17.4098H65.106V15.6738H66.3828V17.4098H67.5364V18.3618H66.3828V21.453C66.3828 21.5874 66.3865 21.7031 66.394 21.8002C66.4089 21.8973 66.435 21.9794 66.4724 22.0466C66.5172 22.1138 66.5806 22.1661 66.6628 22.2034C66.7449 22.2333 66.8569 22.2482 66.9988 22.2482C67.0884 22.2482 67.178 22.2482 67.2676 22.2482C67.3572 22.2407 67.4468 22.2258 67.5364 22.2034V23.189C67.3945 23.2039 67.2564 23.2189 67.122 23.2338C66.9876 23.2487 66.8494 23.2562 66.7076 23.2562C66.3716 23.2562 66.099 23.2263 65.89 23.1666C65.6884 23.0994 65.5278 23.0061 65.4084 22.8866C65.2964 22.7597 65.218 22.6029 65.1732 22.4162C65.1358 22.2295 65.1134 22.0167 65.106 21.7778V18.3618H64.1428V17.4098Z" fill="#A9AEB8"/>
<rect x="172" y="9.6001" width="19.2" height="19.2" rx="3.2" fill="white"/>
<g clip-path="url(#clip1_5999_75576)">
<path fill-rule="evenodd" clip-rule="evenodd" d="M183.04 18.4002C183.04 19.6373 182.037 20.6402 180.8 20.6402C179.563 20.6402 178.56 19.6373 178.56 18.4002C178.56 17.1631 179.563 16.1602 180.8 16.1602C182.037 16.1602 183.04 17.1631 183.04 18.4002ZM182.698 20.9768C182.167 21.3686 181.511 21.6002 180.8 21.6002C179.033 21.6002 177.6 20.1675 177.6 18.4002C177.6 16.6329 179.033 15.2002 180.8 15.2002C182.567 15.2002 184 16.6329 184 18.4002C184 19.1106 183.769 19.767 183.377 20.298L185.539 22.4605C185.727 22.648 185.727 22.9519 185.539 23.1393C185.352 23.3268 185.048 23.3268 184.861 23.1393L182.698 20.9768Z" fill="#959EA9"/>
</g>
<g clip-path="url(#clip2_5999_75576)">
<rect x="12.8" y="38.3999" width="178.4" height="26" rx="6.4" fill="#F8F5FF"/>
<path fill-rule="evenodd" clip-rule="evenodd" d="M87.9001 48.8002C87.9001 48.4688 87.6315 48.2002 87.3001 48.2002C86.9687 48.2002 86.7001 48.4688 86.7001 48.8002V50.8002H84.7001C84.3687 50.8002 84.1001 51.0688 84.1001 51.4002C84.1001 51.7316 84.3687 52.0002 84.7001 52.0002H86.7001V54.0002C86.7001 54.3316 86.9687 54.6002 87.3001 54.6002C87.6315 54.6002 87.9001 54.3316 87.9001 54.0002V52.0002H89.9001C90.2315 52.0002 90.5001 51.7316 90.5001 51.4002C90.5001 51.0688 90.2315 50.8002 89.9001 50.8002H87.9001V48.8002Z" fill="#654AEC"/>
<path d="M99.3624 47.4031H100.494L104.705 53.8879H104.727V47.4031H105.735V55.3999H104.57L100.393 48.9823H100.37V55.3999H99.3624V47.4031ZM111.32 51.9503C111.305 51.7263 111.253 51.5135 111.164 51.3119C111.081 51.1103 110.966 50.9386 110.816 50.7967C110.675 50.6474 110.503 50.5316 110.301 50.4495C110.107 50.3599 109.891 50.3151 109.652 50.3151C109.405 50.3151 109.181 50.3599 108.98 50.4495C108.785 50.5316 108.617 50.6474 108.476 50.7967C108.334 50.946 108.222 51.1215 108.14 51.3231C108.057 51.5172 108.009 51.7263 107.994 51.9503H111.32ZM112.239 53.5631C112.112 54.2127 111.832 54.7018 111.399 55.0303C110.966 55.3588 110.421 55.5231 109.764 55.5231C109.301 55.5231 108.897 55.4484 108.554 55.2991C108.218 55.1498 107.934 54.9407 107.703 54.6719C107.471 54.4031 107.296 54.082 107.176 53.7087C107.064 53.3354 107.001 52.9284 106.986 52.4879C106.986 52.0474 107.053 51.6442 107.188 51.2783C107.322 50.9124 107.509 50.5951 107.748 50.3263C107.994 50.0575 108.281 49.8484 108.61 49.6991C108.946 49.5498 109.312 49.4751 109.708 49.4751C110.223 49.4751 110.648 49.5834 110.984 49.7999C111.328 50.009 111.6 50.2778 111.802 50.6063C112.011 50.9348 112.153 51.2932 112.228 51.6815C112.31 52.0698 112.343 52.4394 112.328 52.7903H107.994C107.987 53.0442 108.016 53.2868 108.084 53.5183C108.151 53.7423 108.259 53.9439 108.408 54.1231C108.558 54.2948 108.748 54.433 108.98 54.5375C109.211 54.642 109.484 54.6943 109.797 54.6943C110.2 54.6943 110.529 54.601 110.783 54.4143C111.044 54.2276 111.216 53.9439 111.298 53.5631H112.239ZM119.05 55.3999H118.042L116.866 50.7967H116.843L115.678 55.3999H114.648L112.789 49.6095H113.842L115.152 54.3471H115.174L116.339 49.6095H117.381L118.59 54.3471H118.613L119.912 49.6095H120.898L119.05 55.3999Z" fill="#654AEC"/>
</g>
<rect width="204" height="32.4" transform="translate(0 70.7998)" fill="white"/>
<g clip-path="url(#clip3_5999_75576)">
<path fill-rule="evenodd" clip-rule="evenodd" d="M15.2001 81.7999C15.2001 81.579 15.3792 81.3999 15.6001 81.3999H18.0001C18.221 81.3999 18.4001 81.579 18.4001 81.7999V82.1999H20.0001V81.7999C20.0001 81.579 20.1792 81.3999 20.4001 81.3999H22.8001C23.021 81.3999 23.2001 81.579 23.2001 81.7999L23.2001 82.1999C24.0838 82.1999 24.8001 82.9162 24.8001 83.7999V90.9999C24.8001 91.8836 24.0838 92.5999 23.2001 92.5999H15.2001C14.3164 92.5999 13.6001 91.8836 13.6001 90.9999V83.7999C13.6001 82.9162 14.3164 82.1999 15.2001 82.1999V81.7999Z" fill="#FFCD00"/>
<path d="M18.3513 87.9441C18.3513 88.1697 18.3321 88.3881 18.2937 88.5993C18.2553 88.8105 18.1761 89.0001 18.0561 89.1681C17.9409 89.3361 17.7705 89.4705 17.5449 89.5713C17.3241 89.6721 17.0289 89.7225 16.6593 89.7225C16.3857 89.7225 16.1529 89.6817 15.9609 89.6001C15.7689 89.5137 15.6105 89.3985 15.4857 89.2545C15.3609 89.1057 15.2697 88.9305 15.2121 88.7289C15.1545 88.5273 15.1257 88.3089 15.1257 88.0737V87.8001H16.0257V88.0665C16.0257 88.3593 16.0737 88.5873 16.1697 88.7505C16.2705 88.9089 16.4577 88.9881 16.7313 88.9881C16.8753 88.9881 16.9929 88.9665 17.0841 88.9233C17.1801 88.8801 17.2545 88.8177 17.3073 88.7361C17.3649 88.6497 17.4033 88.5441 17.4225 88.4193C17.4417 88.2945 17.4513 88.1529 17.4513 87.9945V84.4593H18.3513V87.9441ZM20.0369 87.8865C20.0369 88.0833 20.0705 88.2513 20.1377 88.3905C20.2049 88.5297 20.2985 88.6449 20.4185 88.7361C20.5385 88.8225 20.6753 88.8873 20.8289 88.9305C20.9873 88.9689 21.1577 88.9881 21.3401 88.9881C21.5369 88.9881 21.7049 88.9665 21.8441 88.9233C21.9833 88.8753 22.0961 88.8153 22.1825 88.7433C22.2689 88.6713 22.3313 88.5897 22.3697 88.4985C22.4081 88.4025 22.4273 88.3065 22.4273 88.2105C22.4273 88.0137 22.3817 87.8697 22.2905 87.7785C22.2041 87.6825 22.1081 87.6153 22.0025 87.5769C21.8201 87.5097 21.6065 87.4473 21.3617 87.3897C21.1217 87.3273 20.8241 87.2481 20.4689 87.1521C20.2481 87.0945 20.0633 87.0201 19.9145 86.9289C19.7705 86.8329 19.6553 86.7273 19.5689 86.6121C19.4825 86.4969 19.4201 86.3745 19.3817 86.2449C19.3481 86.1153 19.3313 85.9833 19.3313 85.8489C19.3313 85.5897 19.3841 85.3665 19.4897 85.1793C19.6001 84.9873 19.7441 84.8289 19.9217 84.7041C20.0993 84.5793 20.3009 84.4881 20.5265 84.4305C20.7521 84.3681 20.9801 84.3369 21.2105 84.3369C21.4793 84.3369 21.7313 84.3729 21.9665 84.4449C22.2065 84.5121 22.4153 84.6153 22.5929 84.7545C22.7753 84.8937 22.9193 85.0665 23.0249 85.2729C23.1305 85.4745 23.1833 85.7097 23.1833 85.9785H22.2833C22.2593 85.6473 22.1465 85.4145 21.9449 85.2801C21.7433 85.1409 21.4865 85.0713 21.1745 85.0713C21.0689 85.0713 20.9609 85.0833 20.8505 85.1073C20.7401 85.1265 20.6393 85.1625 20.5481 85.2153C20.4569 85.2633 20.3801 85.3305 20.3177 85.4169C20.2601 85.5033 20.2313 85.6113 20.2313 85.7409C20.2313 85.9233 20.2865 86.0673 20.3969 86.1729C20.5121 86.2737 20.6609 86.3505 20.8433 86.4033C20.8625 86.4081 20.9369 86.4297 21.0665 86.4681C21.2009 86.5017 21.3497 86.5401 21.5129 86.5833C21.6761 86.6265 21.8345 86.6697 21.9881 86.7129C22.1465 86.7513 22.2593 86.7801 22.3265 86.7993C22.4945 86.8521 22.6409 86.9241 22.7657 87.0153C22.8905 87.1065 22.9937 87.2121 23.0753 87.3321C23.1617 87.4473 23.2241 87.5721 23.2625 87.7065C23.3057 87.8409 23.3273 87.9753 23.3273 88.1097C23.3273 88.3977 23.2673 88.6449 23.1473 88.8513C23.0321 89.0529 22.8785 89.2185 22.6865 89.3481C22.4945 89.4777 22.2761 89.5713 22.0313 89.6289C21.7865 89.6913 21.5369 89.7225 21.2825 89.7225C20.9897 89.7225 20.7137 89.6865 20.4545 89.6145C20.1953 89.5425 19.9697 89.4321 19.7777 89.2833C19.5857 89.1345 19.4321 88.9449 19.3169 88.7145C19.2017 88.4793 19.1417 88.2033 19.1369 87.8865H20.0369Z" fill="white"/>
<path d="M34.0384 85.2096H35.192V86.0496H34.0384V89.6448C34.0384 89.7568 34.0459 89.8464 34.0608 89.9136C34.0832 89.9808 34.1205 90.0331 34.1728 90.0704C34.2251 90.1077 34.296 90.1339 34.3856 90.1488C34.4827 90.1563 34.6059 90.16 34.7552 90.16H35.192V91H34.464C34.2176 91 34.0048 90.9851 33.8256 90.9552C33.6539 90.9179 33.512 90.8544 33.4 90.7648C33.2955 90.6752 33.2171 90.5483 33.1648 90.384C33.1125 90.2197 33.0864 90.0032 33.0864 89.7344V86.0496H32.1008V85.2096H33.0864V83.4736H34.0384V85.2096ZM36.216 85.2096H37.112V86.4304H37.1344C37.3659 85.96 37.6496 85.6128 37.9856 85.3888C38.3216 85.1648 38.7472 85.0603 39.2624 85.0752V86.0832C38.8816 86.0832 38.5568 86.1355 38.288 86.24C38.0192 86.3445 37.8027 86.4976 37.6384 86.6992C37.4741 86.9008 37.3547 87.1472 37.28 87.4384C37.2053 87.7221 37.168 88.0507 37.168 88.424V91H36.216V85.2096ZM45.1089 90.9776C44.9446 91.0747 44.7169 91.1232 44.4257 91.1232C44.1793 91.1232 43.9814 91.056 43.8321 90.9216C43.6902 90.7797 43.6193 90.552 43.6193 90.2384C43.358 90.552 43.0518 90.7797 42.7009 90.9216C42.3574 91.056 41.9841 91.1232 41.5809 91.1232C41.3196 91.1232 41.0694 91.0933 40.8305 91.0336C40.599 90.9739 40.3974 90.8805 40.2257 90.7536C40.054 90.6267 39.9158 90.4624 39.8113 90.2608C39.7142 90.0517 39.6657 89.8016 39.6657 89.5104C39.6657 89.1819 39.7217 88.9131 39.8337 88.704C39.9457 88.4949 40.0913 88.3269 40.2705 88.2C40.4572 88.0656 40.6662 87.9648 40.8977 87.8976C41.1366 87.8304 41.3793 87.7744 41.6257 87.7296C41.887 87.6773 42.1334 87.64 42.3649 87.6176C42.6038 87.5877 42.8129 87.5504 42.9921 87.5056C43.1713 87.4533 43.3132 87.3824 43.4177 87.2928C43.5222 87.1957 43.5745 87.0576 43.5745 86.8784C43.5745 86.6693 43.5334 86.5013 43.4513 86.3744C43.3766 86.2475 43.2758 86.1504 43.1489 86.0832C43.0294 86.016 42.8913 85.9712 42.7345 85.9488C42.5852 85.9264 42.4358 85.9152 42.2865 85.9152C41.8833 85.9152 41.5473 85.9936 41.2785 86.1504C41.0097 86.2997 40.8641 86.5872 40.8417 87.0128H39.8897C39.9046 86.6544 39.9793 86.352 40.1137 86.1056C40.2481 85.8592 40.4273 85.6613 40.6513 85.512C40.8753 85.3552 41.1292 85.2432 41.4129 85.176C41.7041 85.1088 42.014 85.0752 42.3425 85.0752C42.6038 85.0752 42.8614 85.0939 43.1153 85.1312C43.3766 85.1685 43.6118 85.2469 43.8209 85.3664C44.03 85.4784 44.198 85.6389 44.3249 85.848C44.4518 86.0571 44.5153 86.3296 44.5153 86.6656V89.6448C44.5153 89.8688 44.5265 90.0331 44.5489 90.1376C44.5788 90.2421 44.6684 90.2944 44.8177 90.2944C44.8998 90.2944 44.9969 90.2757 45.1089 90.2384V90.9776ZM43.5633 88.0096C43.4438 88.0992 43.287 88.1664 43.0929 88.2112C42.8988 88.2485 42.6934 88.2821 42.4769 88.312C42.2678 88.3344 42.055 88.3643 41.8385 88.4016C41.622 88.4315 41.4278 88.4837 41.2561 88.5584C41.0844 88.6331 40.9425 88.7413 40.8305 88.8832C40.726 89.0176 40.6737 89.2043 40.6737 89.4432C40.6737 89.6 40.7036 89.7344 40.7633 89.8464C40.8305 89.9509 40.9126 90.0368 41.0097 90.104C41.1142 90.1712 41.2337 90.2197 41.3681 90.2496C41.5025 90.2795 41.6444 90.2944 41.7937 90.2944C42.1073 90.2944 42.3761 90.2533 42.6001 90.1712C42.8241 90.0816 43.007 89.9733 43.1489 89.8464C43.2908 89.712 43.3953 89.5701 43.4625 89.4208C43.5297 89.264 43.5633 89.1184 43.5633 88.984V88.0096ZM45.9949 85.2096H46.8909V86.128H46.9133C47.3091 85.4261 47.9363 85.0752 48.7949 85.0752C49.1757 85.0752 49.4931 85.1275 49.7469 85.232C50.0008 85.3365 50.2061 85.4821 50.3629 85.6688C50.5197 85.8555 50.628 86.0795 50.6877 86.3408C50.7549 86.5947 50.7885 86.8784 50.7885 87.192V91H49.8365V87.08C49.8365 86.7216 49.732 86.4379 49.5229 86.2288C49.3139 86.0197 49.0264 85.9152 48.6605 85.9152C48.3693 85.9152 48.1155 85.96 47.8989 86.0496C47.6899 86.1392 47.5144 86.2661 47.3725 86.4304C47.2307 86.5947 47.1224 86.7888 47.0477 87.0128C46.9805 87.2293 46.9469 87.4683 46.9469 87.7296V91H45.9949V85.2096ZM52.8008 89.1744C52.8082 89.3835 52.8568 89.5627 52.9464 89.712C53.036 89.8539 53.1517 89.9696 53.2936 90.0592C53.4429 90.1413 53.6072 90.2011 53.7864 90.2384C53.973 90.2757 54.1634 90.2944 54.3576 90.2944C54.5069 90.2944 54.6637 90.2832 54.828 90.2608C54.9922 90.2384 55.1416 90.1973 55.276 90.1376C55.4178 90.0779 55.5336 89.992 55.6232 89.88C55.7128 89.7605 55.7576 89.6112 55.7576 89.432C55.7576 89.1856 55.6642 88.9989 55.4776 88.872C55.2909 88.7451 55.0557 88.6443 54.772 88.5696C54.4957 88.4875 54.1933 88.4165 53.8648 88.3568C53.5362 88.2896 53.2301 88.2 52.9464 88.088C52.6701 87.9685 52.4386 87.8043 52.252 87.5952C52.0653 87.3861 51.972 87.0949 51.972 86.7216C51.972 86.4304 52.0354 86.1803 52.1624 85.9712C52.2968 85.7621 52.4648 85.5941 52.6664 85.4672C52.8754 85.3328 53.1069 85.2357 53.3608 85.176C53.6221 85.1088 53.8797 85.0752 54.1336 85.0752C54.4621 85.0752 54.7645 85.1051 55.0408 85.1648C55.317 85.2171 55.5597 85.3141 55.7688 85.456C55.9853 85.5904 56.157 85.7771 56.284 86.016C56.4109 86.2475 56.4856 86.5387 56.508 86.8896H55.556C55.541 86.7029 55.4925 86.5499 55.4104 86.4304C55.3282 86.3035 55.2237 86.2027 55.0968 86.128C54.9698 86.0533 54.828 86.0011 54.6712 85.9712C54.5218 85.9339 54.3688 85.9152 54.212 85.9152C54.0701 85.9152 53.9245 85.9264 53.7752 85.9488C53.6333 85.9712 53.5026 86.0123 53.3832 86.072C53.2637 86.1243 53.1666 86.1989 53.092 86.296C53.0173 86.3856 52.98 86.5051 52.98 86.6544C52.98 86.8187 53.036 86.9568 53.148 87.0688C53.2674 87.1733 53.4168 87.2629 53.596 87.3376C53.7752 87.4048 53.9768 87.4645 54.2008 87.5168C54.4248 87.5616 54.6488 87.6101 54.8728 87.6624C55.1117 87.7147 55.3432 87.7781 55.5672 87.8528C55.7986 87.9275 56.0002 88.0283 56.172 88.1552C56.3512 88.2747 56.493 88.4277 56.5976 88.6144C56.7096 88.8011 56.7656 89.0325 56.7656 89.3088C56.7656 89.6597 56.6909 89.9509 56.5416 90.1824C56.3997 90.4139 56.2093 90.6005 55.9704 90.7424C55.7389 90.8843 55.4738 90.9813 55.1752 91.0336C54.884 91.0933 54.5928 91.1232 54.3016 91.1232C53.9805 91.1232 53.6744 91.0896 53.3832 91.0224C53.092 90.9552 52.8344 90.8469 52.6104 90.6976C52.3864 90.5408 52.2072 90.3392 52.0728 90.0928C51.9384 89.8389 51.8637 89.5328 51.8488 89.1744H52.8008ZM58.2104 86.0496H57.236V85.2096H58.2104V84.3472C58.2104 83.8768 58.3448 83.5221 58.6136 83.2832C58.8898 83.0368 59.2893 82.9136 59.812 82.9136C59.9016 82.9136 60.0024 82.9211 60.1144 82.936C60.2338 82.9509 60.3384 82.9733 60.428 83.0032V83.832C60.3458 83.8021 60.2562 83.7835 60.1592 83.776C60.0621 83.7611 59.9725 83.7536 59.8904 83.7536C59.6589 83.7536 59.4797 83.7984 59.3528 83.888C59.2258 83.9776 59.1624 84.1493 59.1624 84.4032V85.2096H60.2824V86.0496H59.1624V91H58.2104V86.0496ZM61.8268 88.1104C61.8268 88.4613 61.8716 88.7749 61.9612 89.0512C62.0583 89.32 62.189 89.5477 62.3532 89.7344C62.5175 89.9136 62.7079 90.0517 62.9244 90.1488C63.1484 90.2459 63.3836 90.2944 63.63 90.2944C63.8764 90.2944 64.1079 90.2459 64.3244 90.1488C64.5484 90.0517 64.7426 89.9136 64.9068 89.7344C65.0711 89.5477 65.198 89.32 65.2876 89.0512C65.3847 88.7749 65.4332 88.4613 65.4332 88.1104C65.4332 87.7595 65.3847 87.4496 65.2876 87.1808C65.198 86.9045 65.0711 86.6731 64.9068 86.4864C64.7426 86.2997 64.5484 86.1579 64.3244 86.0608C64.1079 85.9637 63.8764 85.9152 63.63 85.9152C63.3836 85.9152 63.1484 85.9637 62.9244 86.0608C62.7079 86.1579 62.5175 86.2997 62.3532 86.4864C62.189 86.6731 62.0583 86.9045 61.9612 87.1808C61.8716 87.4496 61.8268 87.7595 61.8268 88.1104ZM60.8188 88.1104C60.8188 87.6848 60.8786 87.2891 60.998 86.9232C61.1175 86.5499 61.2967 86.2288 61.5356 85.96C61.7746 85.6837 62.0695 85.4672 62.4204 85.3104C62.7714 85.1536 63.1746 85.0752 63.63 85.0752C64.093 85.0752 64.4962 85.1536 64.8396 85.3104C65.1906 85.4672 65.4855 85.6837 65.7244 85.96C65.9634 86.2288 66.1426 86.5499 66.262 86.9232C66.3815 87.2891 66.4412 87.6848 66.4412 88.1104C66.4412 88.536 66.3815 88.9317 66.262 89.2976C66.1426 89.6635 65.9634 89.9845 65.7244 90.2608C65.4855 90.5296 65.1906 90.7424 64.8396 90.8992C64.4962 91.0485 64.093 91.1232 63.63 91.1232C63.1746 91.1232 62.7714 91.0485 62.4204 90.8992C62.0695 90.7424 61.7746 90.5296 61.5356 90.2608C61.2967 89.9845 61.1175 89.6635 60.998 89.2976C60.8786 88.9317 60.8188 88.536 60.8188 88.1104ZM67.5301 85.2096H68.4261V86.4304H68.4485C68.6799 85.96 68.9637 85.6128 69.2997 85.3888C69.6357 85.1648 70.0613 85.0603 70.5765 85.0752V86.0832C70.1957 86.0832 69.8709 86.1355 69.6021 86.24C69.3333 86.3445 69.1167 86.4976 68.9525 86.6992C68.7882 86.9008 68.6687 87.1472 68.5941 87.4384C68.5194 87.7221 68.4821 88.0507 68.4821 88.424V91H67.5301V85.2096ZM71.2934 85.2096H72.1894V86.0608H72.2118C72.6448 85.4037 73.2683 85.0752 74.0822 85.0752C74.4406 85.0752 74.7654 85.1499 75.0566 85.2992C75.3478 85.4485 75.5531 85.7024 75.6726 86.0608C75.8667 85.7472 76.1206 85.5045 76.4342 85.3328C76.7552 85.1611 77.1062 85.0752 77.487 85.0752C77.7782 85.0752 78.0395 85.1088 78.271 85.176C78.5099 85.2357 78.7115 85.3328 78.8758 85.4672C79.0475 85.6016 79.1782 85.7771 79.2678 85.9936C79.3648 86.2027 79.4134 86.4565 79.4134 86.7552V91H78.4614V87.2032C78.4614 87.024 78.4464 86.856 78.4166 86.6992C78.3867 86.5424 78.3307 86.408 78.2486 86.296C78.1664 86.1765 78.0507 86.0832 77.9014 86.016C77.7595 85.9488 77.5728 85.9152 77.3414 85.9152C76.871 85.9152 76.5014 86.0496 76.2326 86.3184C75.9638 86.5872 75.8294 86.9456 75.8294 87.3936V91H74.8774V87.2032C74.8774 87.0165 74.8587 86.8448 74.8214 86.688C74.7915 86.5312 74.7355 86.3968 74.6534 86.2848C74.5712 86.1653 74.4592 86.0757 74.3174 86.016C74.183 85.9488 74.0075 85.9152 73.791 85.9152C73.5147 85.9152 73.2758 85.9712 73.0742 86.0832C72.88 86.1952 72.7195 86.3296 72.5926 86.4864C72.4731 86.6432 72.3835 86.8075 72.3238 86.9792C72.2715 87.1435 72.2454 87.2816 72.2454 87.3936V91H71.2934V85.2096ZM84.8626 87.5504C84.8477 87.3264 84.7954 87.1136 84.7058 86.912C84.6237 86.7104 84.5079 86.5387 84.3586 86.3968C84.2167 86.2475 84.045 86.1317 83.8434 86.0496C83.6493 85.96 83.4327 85.9152 83.1938 85.9152C82.9474 85.9152 82.7234 85.96 82.5218 86.0496C82.3277 86.1317 82.1597 86.2475 82.0178 86.3968C81.8759 86.5461 81.7639 86.7216 81.6818 86.9232C81.5997 87.1173 81.5511 87.3264 81.5362 87.5504H84.8626ZM85.781 89.1632C85.6541 89.8128 85.3741 90.3019 84.941 90.6304C84.5079 90.9589 83.9629 91.1232 83.3058 91.1232C82.8429 91.1232 82.4397 91.0485 82.0962 90.8992C81.7602 90.7499 81.4765 90.5408 81.245 90.272C81.0135 90.0032 80.8381 89.6821 80.7186 89.3088C80.6066 88.9355 80.5431 88.5285 80.5282 88.088C80.5282 87.6475 80.5954 87.2443 80.7298 86.8784C80.8642 86.5125 81.0509 86.1952 81.2898 85.9264C81.5362 85.6576 81.8237 85.4485 82.1522 85.2992C82.4882 85.1499 82.8541 85.0752 83.2498 85.0752C83.765 85.0752 84.1906 85.1835 84.5266 85.4C84.8701 85.6091 85.1426 85.8779 85.3442 86.2064C85.5533 86.5349 85.6951 86.8933 85.7698 87.2816C85.8519 87.6699 85.8855 88.0395 85.8706 88.3904H81.5362C81.5287 88.6443 81.5586 88.8869 81.6258 89.1184C81.693 89.3424 81.8013 89.544 81.9506 89.7232C82.0999 89.8949 82.2903 90.0331 82.5218 90.1376C82.7533 90.2421 83.0258 90.2944 83.3394 90.2944C83.7426 90.2944 84.0711 90.2011 84.325 90.0144C84.5863 89.8277 84.7581 89.544 84.8402 89.1632H85.781ZM86.8238 85.2096H87.7198V86.4304H87.7422C87.9737 85.96 88.2574 85.6128 88.5934 85.3888C88.9294 85.1648 89.355 85.0603 89.8702 85.0752V86.0832C89.4894 86.0832 89.1646 86.1355 88.8958 86.24C88.627 86.3445 88.4105 86.4976 88.2462 86.6992C88.082 86.9008 87.9625 87.1472 87.8878 87.4384C87.8132 87.7221 87.7758 88.0507 87.7758 88.424V91H86.8238V85.2096ZM90.3631 85.8704C90.3407 85.4672 90.3818 85.0939 90.4863 84.7504C90.5908 84.4069 90.7514 84.112 90.9679 83.8656C91.1919 83.6117 91.4682 83.4139 91.7967 83.272C92.1252 83.1301 92.4986 83.0592 92.9167 83.0592C93.2602 83.0592 93.5812 83.1115 93.8799 83.216C94.186 83.3131 94.4511 83.4587 94.6751 83.6528C94.8991 83.8395 95.0746 84.0747 95.2015 84.3584C95.3359 84.6421 95.4031 84.9707 95.4031 85.344C95.4031 85.6949 95.3471 86.0048 95.2351 86.2736C95.1306 86.5424 94.9887 86.7851 94.8095 87.0016C94.6303 87.2107 94.425 87.4011 94.1935 87.5728C93.962 87.7445 93.7231 87.9088 93.4767 88.0656C93.2303 88.2149 92.9839 88.3643 92.7375 88.5136C92.4911 88.6555 92.2634 88.8085 92.0543 88.9728C91.8527 89.1371 91.6772 89.3163 91.5279 89.5104C91.386 89.6971 91.2927 89.9136 91.2479 90.16H95.3247V91H90.1391C90.1764 90.5296 90.2586 90.1301 90.3855 89.8016C90.5199 89.4656 90.6879 89.1744 90.8895 88.928C91.0911 88.6816 91.3188 88.4651 91.5727 88.2784C91.8266 88.0917 92.0916 87.9163 92.3679 87.752C92.7039 87.5429 92.9988 87.3525 93.2527 87.1808C93.5066 87.0016 93.7156 86.8224 93.8799 86.6432C94.0516 86.464 94.1786 86.2699 94.2607 86.0608C94.3503 85.8517 94.3951 85.6091 94.3951 85.3328C94.3951 85.1163 94.354 84.9221 94.2719 84.7504C94.1898 84.5712 94.0778 84.4181 93.9359 84.2912C93.8015 84.1643 93.641 84.0672 93.4543 84C93.2676 83.9328 93.0698 83.8992 92.8607 83.8992C92.5844 83.8992 92.3455 83.9589 92.1439 84.0784C91.9498 84.1904 91.7892 84.3397 91.6623 84.5264C91.5354 84.7131 91.442 84.9259 91.3823 85.1648C91.33 85.3963 91.3076 85.6315 91.3151 85.8704H90.3631Z" fill="#1D2129"/>
</g>
<path d="M173.467 86.6496C173.467 86.9056 173.474 87.1936 173.486 87.5136C173.506 87.8272 173.557 88.1248 173.64 88.4064C173.73 88.6816 173.87 88.9152 174.062 89.1072C174.254 89.2992 174.523 89.3952 174.869 89.3952C175.214 89.3952 175.483 89.2992 175.675 89.1072C175.867 88.9152 176.005 88.6816 176.088 88.4064C176.178 88.1248 176.229 87.8272 176.242 87.5136C176.261 87.1936 176.27 86.9056 176.27 86.6496C176.27 86.4832 176.267 86.3008 176.261 86.1024C176.261 85.8976 176.245 85.696 176.213 85.4976C176.187 85.2928 176.146 85.0944 176.088 84.9024C176.037 84.7104 175.957 84.544 175.848 84.4032C175.746 84.256 175.614 84.1376 175.454 84.048C175.294 83.9584 175.099 83.9136 174.869 83.9136C174.638 83.9136 174.443 83.9584 174.283 84.048C174.123 84.1376 173.989 84.256 173.88 84.4032C173.778 84.544 173.698 84.7104 173.64 84.9024C173.589 85.0944 173.547 85.2928 173.515 85.4976C173.49 85.696 173.474 85.8976 173.467 86.1024C173.467 86.3008 173.467 86.4832 173.467 86.6496ZM172.603 86.6592C172.603 86.4096 172.61 86.1504 172.622 85.8816C172.635 85.6128 172.667 85.3504 172.718 85.0944C172.77 84.8384 172.843 84.5952 172.939 84.3648C173.035 84.1344 173.166 83.9328 173.333 83.76C173.499 83.5872 173.707 83.4496 173.957 83.3472C174.213 83.2448 174.517 83.1936 174.869 83.1936C175.221 83.1936 175.522 83.2448 175.771 83.3472C176.027 83.4496 176.238 83.5872 176.405 83.76C176.571 83.9328 176.702 84.1344 176.798 84.3648C176.894 84.5952 176.968 84.8384 177.019 85.0944C177.07 85.3504 177.102 85.6128 177.115 85.8816C177.128 86.1504 177.134 86.4096 177.134 86.6592C177.134 86.9088 177.128 87.168 177.115 87.4368C177.102 87.7056 177.07 87.968 177.019 88.224C176.968 88.48 176.894 88.7232 176.798 88.9536C176.702 89.1776 176.571 89.376 176.405 89.5488C176.238 89.7216 176.03 89.8592 175.781 89.9616C175.531 90.0576 175.227 90.1056 174.869 90.1056C174.517 90.1056 174.213 90.0576 173.957 89.9616C173.707 89.8592 173.499 89.7216 173.333 89.5488C173.166 89.376 173.035 89.1776 172.939 88.9536C172.843 88.7232 172.77 88.48 172.718 88.224C172.667 87.968 172.635 87.7056 172.622 87.4368C172.61 87.168 172.603 86.9088 172.603 86.6592ZM178.331 88.9344H179.397V90H178.331V88.9344ZM185.093 84.0096C184.747 84.3488 184.424 84.752 184.123 85.2192C183.822 85.6864 183.553 86.1856 183.317 86.7168C183.086 87.248 182.897 87.7952 182.75 88.3584C182.603 88.9216 182.513 89.4688 182.481 90H181.569C181.608 89.424 181.701 88.864 181.848 88.32C182.001 87.7696 182.197 87.2448 182.433 86.7456C182.67 86.24 182.942 85.7632 183.249 85.3152C183.563 84.8672 183.899 84.4544 184.257 84.0768H180.686V83.3088H185.093V84.0096ZM186.654 88.4352C186.661 88.6144 186.702 88.768 186.779 88.896C186.856 89.0176 186.955 89.1168 187.077 89.1936C187.205 89.264 187.345 89.3152 187.499 89.3472C187.659 89.3792 187.822 89.3952 187.989 89.3952C188.117 89.3952 188.251 89.3856 188.392 89.3664C188.533 89.3472 188.661 89.312 188.776 89.2608C188.897 89.2096 188.997 89.136 189.073 89.04C189.15 88.9376 189.189 88.8096 189.189 88.656C189.189 88.4448 189.109 88.2848 188.949 88.176C188.789 88.0672 188.587 87.9808 188.344 87.9168C188.107 87.8464 187.848 87.7856 187.566 87.7344C187.285 87.6768 187.022 87.6 186.779 87.504C186.542 87.4016 186.344 87.2608 186.184 87.0816C186.024 86.9024 185.944 86.6528 185.944 86.3328C185.944 86.0832 185.998 85.8688 186.107 85.6896C186.222 85.5104 186.366 85.3664 186.539 85.2576C186.718 85.1424 186.917 85.0592 187.134 85.008C187.358 84.9504 187.579 84.9216 187.797 84.9216C188.078 84.9216 188.337 84.9472 188.574 84.9984C188.811 85.0432 189.019 85.1264 189.198 85.248C189.384 85.3632 189.531 85.5232 189.64 85.728C189.749 85.9264 189.813 86.176 189.832 86.4768H189.016C189.003 86.3168 188.961 86.1856 188.891 86.0832C188.821 85.9744 188.731 85.888 188.622 85.824C188.513 85.76 188.392 85.7152 188.257 85.6896C188.129 85.6576 187.998 85.6416 187.864 85.6416C187.742 85.6416 187.617 85.6512 187.489 85.6704C187.368 85.6896 187.256 85.7248 187.153 85.776C187.051 85.8208 186.968 85.8848 186.904 85.968C186.84 86.0448 186.808 86.1472 186.808 86.2752C186.808 86.416 186.856 86.5344 186.952 86.6304C187.054 86.72 187.182 86.7968 187.336 86.8608C187.489 86.9184 187.662 86.9696 187.854 87.0144C188.046 87.0528 188.238 87.0944 188.43 87.1392C188.635 87.184 188.833 87.2384 189.025 87.3024C189.224 87.3664 189.397 87.4528 189.544 87.5616C189.697 87.664 189.819 87.7952 189.909 87.9552C190.005 88.1152 190.053 88.3136 190.053 88.5504C190.053 88.8512 189.989 89.1008 189.861 89.2992C189.739 89.4976 189.576 89.6576 189.371 89.7792C189.173 89.9008 188.945 89.984 188.689 90.0288C188.44 90.08 188.19 90.1056 187.941 90.1056C187.665 90.1056 187.403 90.0768 187.153 90.0192C186.904 89.9616 186.683 89.8688 186.491 89.7408C186.299 89.6064 186.145 89.4336 186.03 89.2224C185.915 89.0048 185.851 88.7424 185.838 88.4352H186.654Z" fill="#A9AEB8"/>
<rect width="204" height="32.4" transform="translate(0 103.2)" fill="#F8F5FF"/>
<g clip-path="url(#clip4_5999_75576)">
<g clip-path="url(#clip5_5999_75576)">
<path fill-rule="evenodd" clip-rule="evenodd" d="M15.2001 114.2C15.2001 113.979 15.3792 113.8 15.6001 113.8H18.0001C18.221 113.8 18.4001 113.979 18.4001 114.2V114.6H20.0001V114.2C20.0001 113.979 20.1792 113.8 20.4001 113.8H22.8001C23.021 113.8 23.2001 113.979 23.2001 114.2L23.2001 114.6C24.0838 114.6 24.8001 115.317 24.8001 116.2V123.4C24.8001 124.284 24.0838 125 23.2001 125H15.2001C14.3164 125 13.6001 124.284 13.6001 123.4V116.2C13.6001 115.317 14.3164 114.6 15.2001 114.6V114.2Z" fill="#FFCD00"/>
<path d="M18.3513 120.344C18.3513 120.57 18.3321 120.788 18.2937 121C18.2553 121.211 18.1761 121.4 18.0561 121.568C17.9409 121.736 17.7705 121.871 17.5449 121.972C17.3241 122.072 17.0289 122.123 16.6593 122.123C16.3857 122.123 16.1529 122.082 15.9609 122C15.7689 121.914 15.6105 121.799 15.4857 121.655C15.3609 121.506 15.2697 121.331 15.2121 121.129C15.1545 120.928 15.1257 120.709 15.1257 120.474V120.2H16.0257V120.467C16.0257 120.76 16.0737 120.988 16.1697 121.151C16.2705 121.309 16.4577 121.388 16.7313 121.388C16.8753 121.388 16.9929 121.367 17.0841 121.324C17.1801 121.28 17.2545 121.218 17.3073 121.136C17.3649 121.05 17.4033 120.944 17.4225 120.82C17.4417 120.695 17.4513 120.553 17.4513 120.395V116.86H18.3513V120.344ZM20.0369 120.287C20.0369 120.484 20.0705 120.652 20.1377 120.791C20.2049 120.93 20.2985 121.045 20.4185 121.136C20.5385 121.223 20.6753 121.288 20.8289 121.331C20.9873 121.369 21.1577 121.388 21.3401 121.388C21.5369 121.388 21.7049 121.367 21.8441 121.324C21.9833 121.276 22.0961 121.216 22.1825 121.144C22.2689 121.072 22.3313 120.99 22.3697 120.899C22.4081 120.803 22.4273 120.707 22.4273 120.611C22.4273 120.414 22.3817 120.27 22.2905 120.179C22.2041 120.083 22.1081 120.016 22.0025 119.977C21.8201 119.91 21.6065 119.848 21.3617 119.79C21.1217 119.728 20.8241 119.648 20.4689 119.552C20.2481 119.495 20.0633 119.42 19.9145 119.329C19.7705 119.233 19.6553 119.128 19.5689 119.012C19.4825 118.897 19.4201 118.775 19.3817 118.645C19.3481 118.516 19.3313 118.384 19.3313 118.249C19.3313 117.99 19.3841 117.767 19.4897 117.58C19.6001 117.388 19.7441 117.229 19.9217 117.104C20.0993 116.98 20.3009 116.888 20.5265 116.831C20.7521 116.768 20.9801 116.737 21.2105 116.737C21.4793 116.737 21.7313 116.773 21.9665 116.845C22.2065 116.912 22.4153 117.016 22.5929 117.155C22.7753 117.294 22.9193 117.467 23.0249 117.673C23.1305 117.875 23.1833 118.11 23.1833 118.379H22.2833C22.2593 118.048 22.1465 117.815 21.9449 117.68C21.7433 117.541 21.4865 117.472 21.1745 117.472C21.0689 117.472 20.9609 117.484 20.8505 117.508C20.7401 117.527 20.6393 117.563 20.5481 117.616C20.4569 117.664 20.3801 117.731 20.3177 117.817C20.2601 117.904 20.2313 118.012 20.2313 118.141C20.2313 118.324 20.2865 118.468 20.3969 118.573C20.5121 118.674 20.6609 118.751 20.8433 118.804C20.8625 118.808 20.9369 118.83 21.0665 118.868C21.2009 118.902 21.3497 118.94 21.5129 118.984C21.6761 119.027 21.8345 119.07 21.9881 119.113C22.1465 119.152 22.2593 119.18 22.3265 119.2C22.4945 119.252 22.6409 119.324 22.7657 119.416C22.8905 119.507 22.9937 119.612 23.0753 119.732C23.1617 119.848 23.2241 119.972 23.2625 120.107C23.3057 120.241 23.3273 120.376 23.3273 120.51C23.3273 120.798 23.2673 121.045 23.1473 121.252C23.0321 121.453 22.8785 121.619 22.6865 121.748C22.4945 121.878 22.2761 121.972 22.0313 122.029C21.7865 122.092 21.5369 122.123 21.2825 122.123C20.9897 122.123 20.7137 122.087 20.4545 122.015C20.1953 121.943 19.9697 121.832 19.7777 121.684C19.5857 121.535 19.4321 121.345 19.3169 121.115C19.2017 120.88 19.1417 120.604 19.1369 120.287H20.0369Z" fill="white"/>
</g>
<path d="M34.0384 117.61H35.192V118.45H34.0384V122.045C34.0384 122.157 34.0459 122.247 34.0608 122.314C34.0832 122.381 34.1205 122.433 34.1728 122.471C34.2251 122.508 34.296 122.534 34.3856 122.549C34.4827 122.557 34.6059 122.56 34.7552 122.56H35.192V123.4H34.464C34.2176 123.4 34.0048 123.385 33.8256 123.356C33.6539 123.318 33.512 123.255 33.4 123.165C33.2955 123.076 33.2171 122.949 33.1648 122.784C33.1125 122.62 33.0864 122.404 33.0864 122.135V118.45H32.1008V117.61H33.0864V115.874H34.0384V117.61ZM36.216 117.61H37.112V118.831H37.1344C37.3659 118.36 37.6496 118.013 37.9856 117.789C38.3216 117.565 38.7472 117.461 39.2624 117.476V118.484C38.8816 118.484 38.5568 118.536 38.288 118.64C38.0192 118.745 37.8027 118.898 37.6384 119.1C37.4741 119.301 37.3547 119.548 37.28 119.839C37.2053 120.123 37.168 120.451 37.168 120.824V123.4H36.216V117.61ZM45.1089 123.378C44.9446 123.475 44.7169 123.524 44.4257 123.524C44.1793 123.524 43.9814 123.456 43.8321 123.322C43.6902 123.18 43.6193 122.952 43.6193 122.639C43.358 122.952 43.0518 123.18 42.7009 123.322C42.3574 123.456 41.9841 123.524 41.5809 123.524C41.3196 123.524 41.0694 123.494 40.8305 123.434C40.599 123.374 40.3974 123.281 40.2257 123.154C40.054 123.027 39.9158 122.863 39.8113 122.661C39.7142 122.452 39.6657 122.202 39.6657 121.911C39.6657 121.582 39.7217 121.313 39.8337 121.104C39.9457 120.895 40.0913 120.727 40.2705 120.6C40.4572 120.466 40.6662 120.365 40.8977 120.298C41.1366 120.231 41.3793 120.175 41.6257 120.13C41.887 120.078 42.1334 120.04 42.3649 120.018C42.6038 119.988 42.8129 119.951 42.9921 119.906C43.1713 119.854 43.3132 119.783 43.4177 119.693C43.5222 119.596 43.5745 119.458 43.5745 119.279C43.5745 119.07 43.5334 118.902 43.4513 118.775C43.3766 118.648 43.2758 118.551 43.1489 118.484C43.0294 118.416 42.8913 118.372 42.7345 118.349C42.5852 118.327 42.4358 118.316 42.2865 118.316C41.8833 118.316 41.5473 118.394 41.2785 118.551C41.0097 118.7 40.8641 118.988 40.8417 119.413H39.8897C39.9046 119.055 39.9793 118.752 40.1137 118.506C40.2481 118.26 40.4273 118.062 40.6513 117.912C40.8753 117.756 41.1292 117.644 41.4129 117.576C41.7041 117.509 42.014 117.476 42.3425 117.476C42.6038 117.476 42.8614 117.494 43.1153 117.532C43.3766 117.569 43.6118 117.647 43.8209 117.767C44.03 117.879 44.198 118.039 44.3249 118.248C44.4518 118.457 44.5153 118.73 44.5153 119.066V122.045C44.5153 122.269 44.5265 122.433 44.5489 122.538C44.5788 122.643 44.6684 122.695 44.8177 122.695C44.8998 122.695 44.9969 122.676 45.1089 122.639V123.378ZM43.5633 120.41C43.4438 120.5 43.287 120.567 43.0929 120.612C42.8988 120.649 42.6934 120.683 42.4769 120.712C42.2678 120.735 42.055 120.765 41.8385 120.802C41.622 120.832 41.4278 120.884 41.2561 120.959C41.0844 121.033 40.9425 121.142 40.8305 121.284C40.726 121.418 40.6737 121.605 40.6737 121.844C40.6737 122 40.7036 122.135 40.7633 122.247C40.8305 122.351 40.9126 122.437 41.0097 122.504C41.1142 122.572 41.2337 122.62 41.3681 122.65C41.5025 122.68 41.6444 122.695 41.7937 122.695C42.1073 122.695 42.3761 122.654 42.6001 122.572C42.8241 122.482 43.007 122.374 43.1489 122.247C43.2908 122.112 43.3953 121.971 43.4625 121.821C43.5297 121.664 43.5633 121.519 43.5633 121.384V120.41ZM45.9949 117.61H46.8909V118.528H46.9133C47.3091 117.827 47.9363 117.476 48.7949 117.476C49.1757 117.476 49.4931 117.528 49.7469 117.632C50.0008 117.737 50.2061 117.883 50.3629 118.069C50.5197 118.256 50.628 118.48 50.6877 118.741C50.7549 118.995 50.7885 119.279 50.7885 119.592V123.4H49.8365V119.48C49.8365 119.122 49.732 118.838 49.5229 118.629C49.3139 118.42 49.0264 118.316 48.6605 118.316C48.3693 118.316 48.1155 118.36 47.8989 118.45C47.6899 118.54 47.5144 118.667 47.3725 118.831C47.2307 118.995 47.1224 119.189 47.0477 119.413C46.9805 119.63 46.9469 119.869 46.9469 120.13V123.4H45.9949V117.61ZM52.8008 121.575C52.8082 121.784 52.8568 121.963 52.9464 122.112C53.036 122.254 53.1517 122.37 53.2936 122.46C53.4429 122.542 53.6072 122.601 53.7864 122.639C53.973 122.676 54.1634 122.695 54.3576 122.695C54.5069 122.695 54.6637 122.684 54.828 122.661C54.9922 122.639 55.1416 122.598 55.276 122.538C55.4178 122.478 55.5336 122.392 55.6232 122.28C55.7128 122.161 55.7576 122.012 55.7576 121.832C55.7576 121.586 55.6642 121.399 55.4776 121.272C55.2909 121.145 55.0557 121.045 54.772 120.97C54.4957 120.888 54.1933 120.817 53.8648 120.757C53.5362 120.69 53.2301 120.6 52.9464 120.488C52.6701 120.369 52.4386 120.205 52.252 119.996C52.0653 119.787 51.972 119.495 51.972 119.122C51.972 118.831 52.0354 118.581 52.1624 118.372C52.2968 118.163 52.4648 117.995 52.6664 117.868C52.8754 117.733 53.1069 117.636 53.3608 117.576C53.6221 117.509 53.8797 117.476 54.1336 117.476C54.4621 117.476 54.7645 117.505 55.0408 117.565C55.317 117.617 55.5597 117.715 55.7688 117.856C55.9853 117.991 56.157 118.177 56.284 118.416C56.4109 118.648 56.4856 118.939 56.508 119.29H55.556C55.541 119.103 55.4925 118.95 55.4104 118.831C55.3282 118.704 55.2237 118.603 55.0968 118.528C54.9698 118.454 54.828 118.401 54.6712 118.372C54.5218 118.334 54.3688 118.316 54.212 118.316C54.0701 118.316 53.9245 118.327 53.7752 118.349C53.6333 118.372 53.5026 118.413 53.3832 118.472C53.2637 118.525 53.1666 118.599 53.092 118.696C53.0173 118.786 52.98 118.905 52.98 119.055C52.98 119.219 53.036 119.357 53.148 119.469C53.2674 119.574 53.4168 119.663 53.596 119.738C53.7752 119.805 53.9768 119.865 54.2008 119.917C54.4248 119.962 54.6488 120.011 54.8728 120.063C55.1117 120.115 55.3432 120.179 55.5672 120.253C55.7986 120.328 56.0002 120.429 56.172 120.556C56.3512 120.675 56.493 120.828 56.5976 121.015C56.7096 121.201 56.7656 121.433 56.7656 121.709C56.7656 122.06 56.6909 122.351 56.5416 122.583C56.3997 122.814 56.2093 123.001 55.9704 123.143C55.7389 123.285 55.4738 123.382 55.1752 123.434C54.884 123.494 54.5928 123.524 54.3016 123.524C53.9805 123.524 53.6744 123.49 53.3832 123.423C53.092 123.356 52.8344 123.247 52.6104 123.098C52.3864 122.941 52.2072 122.74 52.0728 122.493C51.9384 122.239 51.8637 121.933 51.8488 121.575H52.8008ZM58.2104 118.45H57.236V117.61H58.2104V116.748C58.2104 116.277 58.3448 115.923 58.6136 115.684C58.8898 115.437 59.2893 115.314 59.812 115.314C59.9016 115.314 60.0024 115.321 60.1144 115.336C60.2338 115.351 60.3384 115.374 60.428 115.404V116.232C60.3458 116.203 60.2562 116.184 60.1592 116.176C60.0621 116.161 59.9725 116.154 59.8904 116.154C59.6589 116.154 59.4797 116.199 59.3528 116.288C59.2258 116.378 59.1624 116.55 59.1624 116.804V117.61H60.2824V118.45H59.1624V123.4H58.2104V118.45ZM61.8268 120.511C61.8268 120.862 61.8716 121.175 61.9612 121.452C62.0583 121.72 62.189 121.948 62.3532 122.135C62.5175 122.314 62.7079 122.452 62.9244 122.549C63.1484 122.646 63.3836 122.695 63.63 122.695C63.8764 122.695 64.1079 122.646 64.3244 122.549C64.5484 122.452 64.7426 122.314 64.9068 122.135C65.0711 121.948 65.198 121.72 65.2876 121.452C65.3847 121.175 65.4332 120.862 65.4332 120.511C65.4332 120.16 65.3847 119.85 65.2876 119.581C65.198 119.305 65.0711 119.073 64.9068 118.887C64.7426 118.7 64.5484 118.558 64.3244 118.461C64.1079 118.364 63.8764 118.316 63.63 118.316C63.3836 118.316 63.1484 118.364 62.9244 118.461C62.7079 118.558 62.5175 118.7 62.3532 118.887C62.189 119.073 62.0583 119.305 61.9612 119.581C61.8716 119.85 61.8268 120.16 61.8268 120.511ZM60.8188 120.511C60.8188 120.085 60.8786 119.689 60.998 119.324C61.1175 118.95 61.2967 118.629 61.5356 118.36C61.7746 118.084 62.0695 117.868 62.4204 117.711C62.7714 117.554 63.1746 117.476 63.63 117.476C64.093 117.476 64.4962 117.554 64.8396 117.711C65.1906 117.868 65.4855 118.084 65.7244 118.36C65.9634 118.629 66.1426 118.95 66.262 119.324C66.3815 119.689 66.4412 120.085 66.4412 120.511C66.4412 120.936 66.3815 121.332 66.262 121.698C66.1426 122.064 65.9634 122.385 65.7244 122.661C65.4855 122.93 65.1906 123.143 64.8396 123.3C64.4962 123.449 64.093 123.524 63.63 123.524C63.1746 123.524 62.7714 123.449 62.4204 123.3C62.0695 123.143 61.7746 122.93 61.5356 122.661C61.2967 122.385 61.1175 122.064 60.998 121.698C60.8786 121.332 60.8188 120.936 60.8188 120.511ZM67.5301 117.61H68.4261V118.831H68.4485C68.6799 118.36 68.9637 118.013 69.2997 117.789C69.6357 117.565 70.0613 117.461 70.5765 117.476V118.484C70.1957 118.484 69.8709 118.536 69.6021 118.64C69.3333 118.745 69.1167 118.898 68.9525 119.1C68.7882 119.301 68.6687 119.548 68.5941 119.839C68.5194 120.123 68.4821 120.451 68.4821 120.824V123.4H67.5301V117.61ZM71.2934 117.61H72.1894V118.461H72.2118C72.6448 117.804 73.2683 117.476 74.0822 117.476C74.4406 117.476 74.7654 117.55 75.0566 117.7C75.3478 117.849 75.5531 118.103 75.6726 118.461C75.8667 118.148 76.1206 117.905 76.4342 117.733C76.7552 117.561 77.1062 117.476 77.487 117.476C77.7782 117.476 78.0395 117.509 78.271 117.576C78.5099 117.636 78.7115 117.733 78.8758 117.868C79.0475 118.002 79.1782 118.177 79.2678 118.394C79.3648 118.603 79.4134 118.857 79.4134 119.156V123.4H78.4614V119.604C78.4614 119.424 78.4464 119.256 78.4166 119.1C78.3867 118.943 78.3307 118.808 78.2486 118.696C78.1664 118.577 78.0507 118.484 77.9014 118.416C77.7595 118.349 77.5728 118.316 77.3414 118.316C76.871 118.316 76.5014 118.45 76.2326 118.719C75.9638 118.988 75.8294 119.346 75.8294 119.794V123.4H74.8774V119.604C74.8774 119.417 74.8587 119.245 74.8214 119.088C74.7915 118.932 74.7355 118.797 74.6534 118.685C74.5712 118.566 74.4592 118.476 74.3174 118.416C74.183 118.349 74.0075 118.316 73.791 118.316C73.5147 118.316 73.2758 118.372 73.0742 118.484C72.88 118.596 72.7195 118.73 72.5926 118.887C72.4731 119.044 72.3835 119.208 72.3238 119.38C72.2715 119.544 72.2454 119.682 72.2454 119.794V123.4H71.2934V117.61ZM84.8626 119.951C84.8477 119.727 84.7954 119.514 84.7058 119.312C84.6237 119.111 84.5079 118.939 84.3586 118.797C84.2167 118.648 84.045 118.532 83.8434 118.45C83.6493 118.36 83.4327 118.316 83.1938 118.316C82.9474 118.316 82.7234 118.36 82.5218 118.45C82.3277 118.532 82.1597 118.648 82.0178 118.797C81.8759 118.947 81.7639 119.122 81.6818 119.324C81.5997 119.518 81.5511 119.727 81.5362 119.951H84.8626ZM85.781 121.564C85.6541 122.213 85.3741 122.702 84.941 123.031C84.5079 123.359 83.9629 123.524 83.3058 123.524C82.8429 123.524 82.4397 123.449 82.0962 123.3C81.7602 123.15 81.4765 122.941 81.245 122.672C81.0135 122.404 80.8381 122.083 80.7186 121.709C80.6066 121.336 80.5431 120.929 80.5282 120.488C80.5282 120.048 80.5954 119.645 80.7298 119.279C80.8642 118.913 81.0509 118.596 81.2898 118.327C81.5362 118.058 81.8237 117.849 82.1522 117.7C82.4882 117.55 82.8541 117.476 83.2498 117.476C83.765 117.476 84.1906 117.584 84.5266 117.8C84.8701 118.009 85.1426 118.278 85.3442 118.607C85.5533 118.935 85.6951 119.294 85.7698 119.682C85.8519 120.07 85.8855 120.44 85.8706 120.791H81.5362C81.5287 121.045 81.5586 121.287 81.6258 121.519C81.693 121.743 81.8013 121.944 81.9506 122.124C82.0999 122.295 82.2903 122.433 82.5218 122.538C82.7533 122.643 83.0258 122.695 83.3394 122.695C83.7426 122.695 84.0711 122.601 84.325 122.415C84.5863 122.228 84.7581 121.944 84.8402 121.564H85.781ZM86.8238 117.61H87.7198V118.831H87.7422C87.9737 118.36 88.2574 118.013 88.5934 117.789C88.9294 117.565 89.355 117.461 89.8702 117.476V118.484C89.4894 118.484 89.1646 118.536 88.8958 118.64C88.627 118.745 88.4105 118.898 88.2462 119.1C88.082 119.301 87.9625 119.548 87.8878 119.839C87.8132 120.123 87.7758 120.451 87.7758 120.824V123.4H86.8238V117.61ZM92.3119 118.864C92.3492 118.872 92.3828 118.876 92.4127 118.876C92.45 118.876 92.4874 118.876 92.5247 118.876H92.7263C92.9279 118.876 93.1183 118.849 93.2975 118.797C93.4842 118.737 93.6447 118.655 93.7791 118.551C93.921 118.439 94.033 118.301 94.1151 118.136C94.1972 117.972 94.2383 117.785 94.2383 117.576C94.2383 117.151 94.1039 116.833 93.8351 116.624C93.5663 116.408 93.2303 116.3 92.8271 116.3C92.5732 116.3 92.3492 116.348 92.1551 116.445C91.9684 116.535 91.8116 116.658 91.6847 116.815C91.5652 116.972 91.4756 117.155 91.4159 117.364C91.3562 117.573 91.3263 117.793 91.3263 118.024H90.3743C90.3892 117.644 90.449 117.296 90.5535 116.983C90.6655 116.669 90.8223 116.4 91.0239 116.176C91.2255 115.952 91.4756 115.777 91.7743 115.65C92.0804 115.523 92.4314 115.46 92.8271 115.46C93.1706 115.46 93.4879 115.504 93.7791 115.594C94.0778 115.676 94.3354 115.803 94.5519 115.975C94.7684 116.147 94.9364 116.367 95.0559 116.636C95.1828 116.904 95.2463 117.222 95.2463 117.588C95.2463 117.946 95.1418 118.263 94.9327 118.54C94.7236 118.816 94.4623 119.025 94.1487 119.167V119.189C94.634 119.294 94.9924 119.521 95.2239 119.872C95.4628 120.223 95.5823 120.638 95.5823 121.116C95.5823 121.511 95.5076 121.862 95.3583 122.168C95.2164 122.467 95.0223 122.717 94.7759 122.919C94.5295 123.12 94.2383 123.273 93.9023 123.378C93.5738 123.475 93.2228 123.524 92.8495 123.524C92.4463 123.524 92.0804 123.468 91.7519 123.356C91.4234 123.244 91.1434 123.079 90.9119 122.863C90.6804 122.639 90.5012 122.366 90.3743 122.045C90.2548 121.724 90.1988 121.358 90.2063 120.948H91.1583C91.1732 121.463 91.3226 121.885 91.6063 122.213C91.89 122.534 92.3044 122.695 92.8495 122.695C93.081 122.695 93.3012 122.661 93.5103 122.594C93.7194 122.519 93.9023 122.419 94.0591 122.292C94.2159 122.157 94.3391 121.997 94.4287 121.81C94.5258 121.616 94.5743 121.399 94.5743 121.16C94.5743 120.914 94.5295 120.697 94.4399 120.511C94.3503 120.317 94.2308 120.156 94.0815 120.029C93.9322 119.895 93.753 119.798 93.5439 119.738C93.3423 119.671 93.122 119.637 92.8831 119.637C92.6815 119.637 92.4911 119.648 92.3119 119.671V118.864Z" fill="#1D2129"/>
</g>
<path d="M173.467 119.05C173.467 119.306 173.474 119.594 173.486 119.914C173.506 120.228 173.557 120.525 173.64 120.807C173.73 121.082 173.87 121.316 174.062 121.508C174.254 121.7 174.523 121.796 174.869 121.796C175.214 121.796 175.483 121.7 175.675 121.508C175.867 121.316 176.005 121.082 176.088 120.807C176.178 120.525 176.229 120.228 176.242 119.914C176.261 119.594 176.27 119.306 176.27 119.05C176.27 118.884 176.267 118.701 176.261 118.503C176.261 118.298 176.245 118.096 176.213 117.898C176.187 117.693 176.146 117.495 176.088 117.303C176.037 117.111 175.957 116.944 175.848 116.804C175.746 116.656 175.614 116.538 175.454 116.448C175.294 116.359 175.099 116.314 174.869 116.314C174.638 116.314 174.443 116.359 174.283 116.448C174.123 116.538 173.989 116.656 173.88 116.804C173.778 116.944 173.698 117.111 173.64 117.303C173.589 117.495 173.547 117.693 173.515 117.898C173.49 118.096 173.474 118.298 173.467 118.503C173.467 118.701 173.467 118.884 173.467 119.05ZM172.603 119.06C172.603 118.81 172.61 118.551 172.622 118.282C172.635 118.013 172.667 117.751 172.718 117.495C172.77 117.239 172.843 116.996 172.939 116.765C173.035 116.535 173.166 116.333 173.333 116.16C173.499 115.988 173.707 115.85 173.957 115.748C174.213 115.645 174.517 115.594 174.869 115.594C175.221 115.594 175.522 115.645 175.771 115.748C176.027 115.85 176.238 115.988 176.405 116.16C176.571 116.333 176.702 116.535 176.798 116.765C176.894 116.996 176.968 117.239 177.019 117.495C177.07 117.751 177.102 118.013 177.115 118.282C177.128 118.551 177.134 118.81 177.134 119.06C177.134 119.309 177.128 119.568 177.115 119.837C177.102 120.106 177.07 120.368 177.019 120.624C176.968 120.88 176.894 121.124 176.798 121.354C176.702 121.578 176.571 121.776 176.405 121.949C176.238 122.122 176.03 122.26 175.781 122.362C175.531 122.458 175.227 122.506 174.869 122.506C174.517 122.506 174.213 122.458 173.957 122.362C173.707 122.26 173.499 122.122 173.333 121.949C173.166 121.776 173.035 121.578 172.939 121.354C172.843 121.124 172.77 120.88 172.718 120.624C172.667 120.368 172.635 120.106 172.622 119.837C172.61 119.568 172.603 119.309 172.603 119.06ZM178.331 121.335H179.397V122.4H178.331V121.335ZM185.093 116.41C184.747 116.749 184.424 117.152 184.123 117.62C183.822 118.087 183.553 118.586 183.317 119.117C183.086 119.648 182.897 120.196 182.75 120.759C182.603 121.322 182.513 121.869 182.481 122.4H181.569C181.608 121.824 181.701 121.264 181.848 120.72C182.001 120.17 182.197 119.645 182.433 119.146C182.67 118.64 182.942 118.164 183.249 117.716C183.563 117.268 183.899 116.855 184.257 116.477H180.686V115.709H185.093V116.41ZM186.654 120.836C186.661 121.015 186.702 121.168 186.779 121.296C186.856 121.418 186.955 121.517 187.077 121.594C187.205 121.664 187.345 121.716 187.499 121.748C187.659 121.78 187.822 121.796 187.989 121.796C188.117 121.796 188.251 121.786 188.392 121.767C188.533 121.748 188.661 121.712 188.776 121.661C188.897 121.61 188.997 121.536 189.073 121.44C189.15 121.338 189.189 121.21 189.189 121.056C189.189 120.845 189.109 120.685 188.949 120.576C188.789 120.468 188.587 120.381 188.344 120.317C188.107 120.247 187.848 120.186 187.566 120.135C187.285 120.077 187.022 120 186.779 119.904C186.542 119.802 186.344 119.661 186.184 119.482C186.024 119.303 185.944 119.053 185.944 118.733C185.944 118.484 185.998 118.269 186.107 118.09C186.222 117.911 186.366 117.767 186.539 117.658C186.718 117.543 186.917 117.46 187.134 117.408C187.358 117.351 187.579 117.322 187.797 117.322C188.078 117.322 188.337 117.348 188.574 117.399C188.811 117.444 189.019 117.527 189.198 117.648C189.384 117.764 189.531 117.924 189.64 118.128C189.749 118.327 189.813 118.576 189.832 118.877H189.016C189.003 118.717 188.961 118.586 188.891 118.484C188.821 118.375 188.731 118.288 188.622 118.224C188.513 118.16 188.392 118.116 188.257 118.09C188.129 118.058 187.998 118.042 187.864 118.042C187.742 118.042 187.617 118.052 187.489 118.071C187.368 118.09 187.256 118.125 187.153 118.176C187.051 118.221 186.968 118.285 186.904 118.368C186.84 118.445 186.808 118.548 186.808 118.676C186.808 118.816 186.856 118.935 186.952 119.031C187.054 119.12 187.182 119.197 187.336 119.261C187.489 119.319 187.662 119.37 187.854 119.415C188.046 119.453 188.238 119.495 188.43 119.54C188.635 119.584 188.833 119.639 189.025 119.703C189.224 119.767 189.397 119.853 189.544 119.962C189.697 120.064 189.819 120.196 189.909 120.356C190.005 120.516 190.053 120.714 190.053 120.951C190.053 121.252 189.989 121.501 189.861 121.7C189.739 121.898 189.576 122.058 189.371 122.18C189.173 122.301 188.945 122.384 188.689 122.429C188.44 122.48 188.19 122.506 187.941 122.506C187.665 122.506 187.403 122.477 187.153 122.42C186.904 122.362 186.683 122.269 186.491 122.141C186.299 122.007 186.145 121.834 186.03 121.623C185.915 121.405 185.851 121.143 185.838 120.836H186.654Z" fill="#A9AEB8"/>
<rect width="204" height="32.4" transform="translate(0 135.6)" fill="white"/>
<g clip-path="url(#clip6_5999_75576)">
<g clip-path="url(#clip7_5999_75576)">
<path d="M17.67 156.6V155.4H16.365C15.64 155.4 15.495 155.437 15.495 154.548V153.099C15.495 152.369 14.99 151.893 14.045 151.851V151.756C14.99 151.713 15.495 151.232 15.495 150.507V149.053C15.495 148.164 15.64 148.2 16.365 148.2H17.67V147H16.115C14.76 147 14.325 147.455 14.325 148.862V150.037C14.325 150.867 13.93 151.253 12.8 151.174V152.433C13.93 152.353 14.325 152.739 14.325 153.564V154.739C14.325 156.146 14.76 156.6 16.115 156.6H17.67Z" fill="#C9CDD4"/>
<path d="M22.2851 156.6C23.64 156.6 24.0751 156.146 24.0751 154.739V153.564C24.0751 152.739 24.47 152.353 25.6 152.433V151.174C24.47 151.253 24.0751 150.867 24.0751 150.037V148.862C24.0751 147.455 23.64 147 22.2851 147H20.8V148.2H21.3051C22.03 148.2 22.9051 148.164 22.9051 149.053V150.507C22.9051 151.232 23.41 151.713 24.3551 151.756V151.851C23.41 151.893 22.9051 152.369 22.9051 153.099V154.548C22.9051 155.437 22.03 155.4 21.3051 155.4H20.8V156.6H22.2851Z" fill="#C9CDD4"/>
<path d="M16.8 152.6C17.2418 152.6 17.6 152.242 17.6 151.8C17.6 151.359 17.2418 151 16.8 151C16.3582 151 16 151.359 16 151.8C16 152.242 16.3582 152.6 16.8 152.6Z" fill="#E5E6EB"/>
<path d="M19.1999 152.6C19.6417 152.6 19.9999 152.242 19.9999 151.8C19.9999 151.359 19.6417 151 19.1999 151C18.7581 151 18.3999 151.359 18.3999 151.8C18.3999 152.242 18.7581 152.6 19.1999 152.6Z" fill="#E5E6EB"/>
<path d="M21.6 152.6C22.0419 152.6 22.4 152.242 22.4 151.8C22.4 151.359 22.0419 151 21.6 151C21.1582 151 20.8 151.359 20.8 151.8C20.8 152.242 21.1582 152.6 21.6 152.6Z" fill="#E5E6EB"/>
</g>
<path d="M33.4112 152.955C33.4112 153.224 33.4448 153.489 33.512 153.751C33.5867 154.005 33.6949 154.232 33.8368 154.434C33.9861 154.635 34.1728 154.796 34.3968 154.915C34.6283 155.035 34.8971 155.095 35.2032 155.095C35.5243 155.095 35.7968 155.031 36.0208 154.904C36.2448 154.777 36.4277 154.613 36.5696 154.411C36.7115 154.202 36.8123 153.967 36.872 153.706C36.9392 153.445 36.9728 153.179 36.9728 152.911C36.9728 152.627 36.9392 152.354 36.872 152.093C36.8048 151.824 36.6965 151.589 36.5472 151.387C36.4053 151.186 36.2187 151.025 35.9872 150.906C35.7557 150.779 35.4757 150.715 35.1472 150.715C34.8261 150.715 34.5536 150.779 34.3296 150.906C34.1056 151.033 33.9264 151.201 33.792 151.41C33.6576 151.619 33.5605 151.858 33.5008 152.127C33.4411 152.395 33.4112 152.672 33.4112 152.955ZM37.8912 158.007H36.9392V155.016H36.9168C36.76 155.337 36.5136 155.569 36.1776 155.711C35.8416 155.853 35.472 155.923 35.0688 155.923C34.6208 155.923 34.2288 155.841 33.8928 155.677C33.5643 155.513 33.288 155.293 33.064 155.016C32.8475 154.74 32.6832 154.419 32.5712 154.053C32.4592 153.687 32.4032 153.299 32.4032 152.888C32.4032 152.478 32.4555 152.089 32.56 151.723C32.672 151.358 32.8363 151.04 33.0528 150.771C33.2768 150.495 33.5531 150.279 33.8816 150.122C34.2176 149.958 34.6059 149.875 35.0464 149.875C35.1957 149.875 35.3563 149.89 35.528 149.92C35.6997 149.95 35.8715 150.002 36.0432 150.077C36.2149 150.144 36.3755 150.238 36.5248 150.357C36.6816 150.469 36.8123 150.611 36.9168 150.783H36.9392V150.01H37.8912V158.007ZM44.1495 155.8H43.2535V154.882H43.2311C43.0295 155.24 42.7719 155.505 42.4583 155.677C42.1447 155.841 41.7751 155.923 41.3495 155.923C40.9687 155.923 40.6513 155.875 40.3975 155.778C40.1436 155.673 39.9383 155.528 39.7815 155.341C39.6247 155.154 39.5127 154.934 39.4455 154.68C39.3857 154.419 39.3559 154.131 39.3559 153.818V150.01H40.3079V153.93C40.3079 154.288 40.4124 154.572 40.6215 154.781C40.8305 154.99 41.118 155.095 41.4839 155.095C41.7751 155.095 42.0252 155.05 42.2343 154.96C42.4508 154.871 42.63 154.744 42.7719 154.579C42.9137 154.415 43.0183 154.225 43.0855 154.008C43.1601 153.784 43.1975 153.542 43.1975 153.28V150.01H44.1495V155.8ZM49.6001 152.351C49.5852 152.127 49.5329 151.914 49.4433 151.712C49.3612 151.511 49.2454 151.339 49.0961 151.197C48.9542 151.048 48.7825 150.932 48.5809 150.85C48.3868 150.76 48.1702 150.715 47.9313 150.715C47.6849 150.715 47.4609 150.76 47.2593 150.85C47.0652 150.932 46.8972 151.048 46.7553 151.197C46.6134 151.346 46.5014 151.522 46.4193 151.723C46.3372 151.918 46.2886 152.127 46.2737 152.351H49.6001ZM50.5185 153.963C50.3916 154.613 50.1116 155.102 49.6785 155.431C49.2454 155.759 48.7004 155.923 48.0433 155.923C47.5804 155.923 47.1772 155.849 46.8337 155.699C46.4977 155.55 46.214 155.341 45.9825 155.072C45.751 154.803 45.5756 154.482 45.4561 154.109C45.3441 153.736 45.2806 153.329 45.2657 152.888C45.2657 152.448 45.3329 152.045 45.4673 151.679C45.6017 151.313 45.7884 150.995 46.0273 150.727C46.2737 150.458 46.5612 150.249 46.8897 150.099C47.2257 149.95 47.5916 149.875 47.9873 149.875C48.5025 149.875 48.9281 149.984 49.2641 150.2C49.6076 150.409 49.8801 150.678 50.0817 151.007C50.2908 151.335 50.4326 151.694 50.5073 152.082C50.5894 152.47 50.623 152.84 50.6081 153.191H46.2737C46.2662 153.445 46.2961 153.687 46.3633 153.919C46.4305 154.143 46.5388 154.344 46.6881 154.523C46.8374 154.695 47.0278 154.833 47.2593 154.938C47.4908 155.042 47.7633 155.095 48.0769 155.095C48.4801 155.095 48.8086 155.001 49.0625 154.815C49.3238 154.628 49.4956 154.344 49.5777 153.963H50.5185ZM51.5613 150.01H52.4573V151.231H52.4797C52.7112 150.76 52.9949 150.413 53.3309 150.189C53.6669 149.965 54.0925 149.861 54.6077 149.875V150.883C54.2269 150.883 53.9021 150.936 53.6333 151.04C53.3645 151.145 53.148 151.298 52.9837 151.499C52.8195 151.701 52.7 151.947 52.6253 152.239C52.5507 152.522 52.5133 152.851 52.5133 153.224V155.8H51.5613V150.01ZM57.5982 156.573C57.4862 156.857 57.3742 157.096 57.2622 157.29C57.1577 157.484 57.0382 157.641 56.9038 157.76C56.7769 157.887 56.6313 157.977 56.467 158.029C56.3102 158.089 56.1273 158.119 55.9182 158.119C55.8062 158.119 55.6942 158.111 55.5822 158.096C55.4702 158.081 55.3619 158.055 55.2574 158.018V157.144C55.3395 157.182 55.4329 157.211 55.5374 157.234C55.6494 157.264 55.7427 157.279 55.8174 157.279C56.0115 157.279 56.1721 157.23 56.299 157.133C56.4334 157.043 56.5342 156.913 56.6014 156.741L56.9934 155.767L54.6974 150.01H55.7726L57.4638 154.747H57.4862L59.1102 150.01H60.1182L57.5982 156.573Z" fill="#1D2129"/>
</g>
<path d="M173.467 151.45C173.467 151.706 173.474 151.994 173.486 152.314C173.506 152.627 173.557 152.925 173.64 153.207C173.73 153.482 173.87 153.715 174.062 153.907C174.254 154.099 174.523 154.195 174.869 154.195C175.214 154.195 175.483 154.099 175.675 153.907C175.867 153.715 176.005 153.482 176.088 153.207C176.178 152.925 176.229 152.627 176.242 152.314C176.261 151.994 176.27 151.706 176.27 151.45C176.27 151.283 176.267 151.101 176.261 150.903C176.261 150.698 176.245 150.496 176.213 150.298C176.187 150.093 176.146 149.895 176.088 149.703C176.037 149.511 175.957 149.344 175.848 149.203C175.746 149.056 175.614 148.938 175.454 148.848C175.294 148.759 175.099 148.714 174.869 148.714C174.638 148.714 174.443 148.759 174.283 148.848C174.123 148.938 173.989 149.056 173.88 149.203C173.778 149.344 173.698 149.511 173.64 149.703C173.589 149.895 173.547 150.093 173.515 150.298C173.49 150.496 173.474 150.698 173.467 150.903C173.467 151.101 173.467 151.283 173.467 151.45ZM172.603 151.459C172.603 151.21 172.61 150.951 172.622 150.682C172.635 150.413 172.667 150.151 172.718 149.895C172.77 149.639 172.843 149.395 172.939 149.165C173.035 148.935 173.166 148.733 173.333 148.56C173.499 148.387 173.707 148.25 173.957 148.147C174.213 148.045 174.517 147.994 174.869 147.994C175.221 147.994 175.522 148.045 175.771 148.147C176.027 148.25 176.238 148.387 176.405 148.56C176.571 148.733 176.702 148.935 176.798 149.165C176.894 149.395 176.968 149.639 177.019 149.895C177.07 150.151 177.102 150.413 177.115 150.682C177.128 150.951 177.134 151.21 177.134 151.459C177.134 151.709 177.128 151.968 177.115 152.237C177.102 152.506 177.07 152.768 177.019 153.024C176.968 153.28 176.894 153.523 176.798 153.754C176.702 153.978 176.571 154.176 176.405 154.349C176.238 154.522 176.03 154.659 175.781 154.762C175.531 154.858 175.227 154.906 174.869 154.906C174.517 154.906 174.213 154.858 173.957 154.762C173.707 154.659 173.499 154.522 173.333 154.349C173.166 154.176 173.035 153.978 172.939 153.754C172.843 153.523 172.77 153.28 172.718 153.024C172.667 152.768 172.635 152.506 172.622 152.237C172.61 151.968 172.603 151.709 172.603 151.459ZM178.331 153.735H179.397V154.8H178.331V153.735ZM185.093 148.81C184.747 149.149 184.424 149.552 184.123 150.019C183.822 150.487 183.553 150.986 183.317 151.517C183.086 152.048 182.897 152.595 182.75 153.159C182.603 153.722 182.513 154.269 182.481 154.8H181.569C181.608 154.224 181.701 153.664 181.848 153.12C182.001 152.57 182.197 152.045 182.433 151.546C182.67 151.04 182.942 150.563 183.249 150.115C183.563 149.667 183.899 149.255 184.257 148.877H180.686V148.109H185.093V148.81ZM186.654 153.235C186.661 153.415 186.702 153.568 186.779 153.696C186.856 153.818 186.955 153.917 187.077 153.994C187.205 154.064 187.345 154.115 187.499 154.147C187.659 154.179 187.822 154.195 187.989 154.195C188.117 154.195 188.251 154.186 188.392 154.167C188.533 154.147 188.661 154.112 188.776 154.061C188.897 154.01 188.997 153.936 189.073 153.84C189.15 153.738 189.189 153.61 189.189 153.456C189.189 153.245 189.109 153.085 188.949 152.976C188.789 152.867 188.587 152.781 188.344 152.717C188.107 152.647 187.848 152.586 187.566 152.535C187.285 152.477 187.022 152.4 186.779 152.304C186.542 152.202 186.344 152.061 186.184 151.882C186.024 151.703 185.944 151.453 185.944 151.133C185.944 150.883 185.998 150.669 186.107 150.49C186.222 150.311 186.366 150.167 186.539 150.058C186.718 149.943 186.917 149.859 187.134 149.808C187.358 149.751 187.579 149.722 187.797 149.722C188.078 149.722 188.337 149.747 188.574 149.799C188.811 149.843 189.019 149.927 189.198 150.048C189.384 150.163 189.531 150.323 189.64 150.528C189.749 150.727 189.813 150.976 189.832 151.277H189.016C189.003 151.117 188.961 150.986 188.891 150.883C188.821 150.775 188.731 150.688 188.622 150.624C188.513 150.56 188.392 150.515 188.257 150.49C188.129 150.458 187.998 150.442 187.864 150.442C187.742 150.442 187.617 150.451 187.489 150.471C187.368 150.49 187.256 150.525 187.153 150.576C187.051 150.621 186.968 150.685 186.904 150.768C186.84 150.845 186.808 150.947 186.808 151.075C186.808 151.216 186.856 151.335 186.952 151.431C187.054 151.52 187.182 151.597 187.336 151.661C187.489 151.719 187.662 151.77 187.854 151.815C188.046 151.853 188.238 151.895 188.43 151.939C188.635 151.984 188.833 152.039 189.025 152.103C189.224 152.167 189.397 152.253 189.544 152.362C189.697 152.464 189.819 152.595 189.909 152.755C190.005 152.915 190.053 153.114 190.053 153.351C190.053 153.651 189.989 153.901 189.861 154.099C189.739 154.298 189.576 154.458 189.371 154.579C189.173 154.701 188.945 154.784 188.689 154.829C188.44 154.88 188.19 154.906 187.941 154.906C187.665 154.906 187.403 154.877 187.153 154.819C186.904 154.762 186.683 154.669 186.491 154.541C186.299 154.407 186.145 154.234 186.03 154.023C185.915 153.805 185.851 153.543 185.838 153.235H186.654Z" fill="#A9AEB8"/>
</g>
</g>
<defs>
<filter id="filter0_i_5999_75576" x="0" y="0" width="204" height="168" filterUnits="userSpaceOnUse" color-interpolation-filters="sRGB">
<feFlood flood-opacity="0" result="BackgroundImageFix"/>
<feBlend mode="normal" in="SourceGraphic" in2="BackgroundImageFix" result="shape"/>
<feColorMatrix in="SourceAlpha" type="matrix" values="0 0 0 0 0 0 0 0 0 0 0 0 0 0 0 0 0 0 127 0" result="hardAlpha"/>
<feOffset dx="-0.8"/>
<feComposite in2="hardAlpha" operator="arithmetic" k2="-1" k3="1"/>
<feColorMatrix type="matrix" values="0 0 0 0 0.898039 0 0 0 0 0.901961 0 0 0 0 0.921569 0 0 0 1 0"/>
<feBlend mode="normal" in2="shape" result="effect1_innerShadow_5999_75576"/>
</filter>
<clipPath id="clip0_5999_75576">
<rect width="204" height="168" rx="8" fill="white"/>
</clipPath>
<clipPath id="clip1_5999_75576">
<rect width="9.6" height="9.6" fill="white" transform="translate(176.8 14.3999)"/>
</clipPath>
<clipPath id="clip2_5999_75576">
<rect width="204" height="32.4" fill="white" transform="translate(0 38.3999)"/>
</clipPath>
<clipPath id="clip3_5999_75576">
<rect width="84.2" height="18" fill="white" transform="translate(12.8 78)"/>
</clipPath>
<clipPath id="clip4_5999_75576">
<rect width="84.2" height="18" fill="white" transform="translate(12.8 110.4)"/>
</clipPath>
<clipPath id="clip5_5999_75576">
<rect width="12.8" height="12.8" fill="white" transform="translate(12.8 113)"/>
</clipPath>
<clipPath id="clip6_5999_75576">
<rect width="48.2" height="18" fill="white" transform="translate(12.8 142.8)"/>
</clipPath>
<clipPath id="clip7_5999_75576">
<rect width="12.8" height="12.8" fill="white" transform="translate(12.8 145.4)"/>
</clipPath>
</defs>
</svg>
