<svg width="314" height="246" viewBox="0 0 314 246" fill="none" xmlns="http://www.w3.org/2000/svg">
<g filter="url(#filter0_d_5970_53960)">
<rect x="13" y="11.6001" width="288" height="219.6" rx="6.4" fill="white"/>
<path d="M26.7853 32.4609H33.3645V33.8433H28.3853V36.2369H32.9933V37.5425H28.3853V40.2177H33.4541V41.6001H26.7853V32.4609ZM40.8766 41.6001H39.4942V40.7041H39.4686C39.2723 41.0881 38.9865 41.3654 38.611 41.5361C38.2355 41.6982 37.8387 41.7793 37.4206 41.7793C36.9001 41.7793 36.4435 41.6897 36.051 41.5105C35.667 41.3228 35.347 41.071 35.091 40.7553C34.835 40.4396 34.643 40.0684 34.515 39.6417C34.387 39.2065 34.323 38.7414 34.323 38.2465C34.323 37.6492 34.4041 37.1329 34.5662 36.6977C34.7283 36.2625 34.9417 35.9041 35.2062 35.6225C35.4793 35.3409 35.7865 35.1361 36.1278 35.0081C36.4777 34.8716 36.8318 34.8033 37.1902 34.8033C37.395 34.8033 37.6041 34.8246 37.8174 34.8673C38.0307 34.9014 38.2355 34.9612 38.4318 35.0465C38.6281 35.1318 38.8073 35.2428 38.9694 35.3793C39.1401 35.5073 39.2809 35.6609 39.3918 35.8401H39.4174V32.4609H40.8766V41.6001ZM35.7822 38.3617C35.7822 38.6433 35.8163 38.9206 35.8846 39.1937C35.9614 39.4668 36.0723 39.71 36.2174 39.9233C36.371 40.1366 36.563 40.3073 36.7934 40.4353C37.0238 40.5633 37.2969 40.6273 37.6126 40.6273C37.9369 40.6273 38.2142 40.559 38.4446 40.4225C38.6835 40.286 38.8755 40.1068 39.0206 39.8849C39.1742 39.663 39.2851 39.4156 39.3534 39.1425C39.4302 38.8609 39.4686 38.575 39.4686 38.2849C39.4686 37.551 39.3022 36.9793 38.9694 36.5697C38.6451 36.1601 38.2014 35.9553 37.6382 35.9553C37.2969 35.9553 37.0067 36.0278 36.7678 36.1729C36.5374 36.3094 36.3454 36.4929 36.1918 36.7233C36.0467 36.9452 35.9401 37.2012 35.8718 37.4913C35.8121 37.7729 35.7822 38.063 35.7822 38.3617ZM42.5064 32.4609H43.9656V33.8433H42.5064V32.4609ZM42.5064 34.9825H43.9656V41.6001H42.5064V34.9825ZM44.8899 34.9825H45.9907V32.9985H47.4499V34.9825H48.7683V36.0705H47.4499V39.6033C47.4499 39.7569 47.4542 39.8892 47.4627 40.0001C47.4798 40.111 47.5096 40.2049 47.5523 40.2817C47.6035 40.3585 47.676 40.4182 47.7699 40.4609C47.8638 40.495 47.9918 40.5121 48.1539 40.5121C48.2563 40.5121 48.3587 40.5121 48.4611 40.5121C48.5635 40.5036 48.6659 40.4865 48.7683 40.4609V41.5873C48.6062 41.6044 48.4483 41.6214 48.2947 41.6385C48.1411 41.6556 47.9832 41.6641 47.8211 41.6641C47.4371 41.6641 47.1256 41.63 46.8867 41.5617C46.6563 41.4849 46.4728 41.3782 46.3363 41.2417C46.2083 41.0966 46.1187 40.9174 46.0675 40.7041C46.0248 40.4908 45.9992 40.2476 45.9907 39.9745V36.0705H44.8899V34.9825ZM57.8477 37.1969C57.788 36.7873 57.6216 36.4801 57.3485 36.2753C57.084 36.062 56.7469 35.9553 56.3373 35.9553C56.1496 35.9553 55.949 35.9894 55.7357 36.0577C55.5224 36.1174 55.3261 36.2369 55.1469 36.4161C54.9677 36.5868 54.8184 36.83 54.6989 37.1457C54.5794 37.4529 54.5197 37.8582 54.5197 38.3617C54.5197 38.6348 54.5496 38.9078 54.6093 39.1809C54.6776 39.454 54.78 39.6972 54.9165 39.9105C55.0616 40.1238 55.245 40.2988 55.4669 40.4353C55.6888 40.5633 55.9576 40.6273 56.2733 40.6273C56.7 40.6273 57.0498 40.495 57.3229 40.2305C57.6045 39.966 57.7794 39.5948 57.8477 39.1169H59.3069C59.1704 39.9788 58.8418 40.6401 58.3213 41.1009C57.8093 41.5532 57.1266 41.7793 56.2733 41.7793C55.7528 41.7793 55.292 41.694 54.8909 41.5233C54.4984 41.3441 54.1656 41.1052 53.8925 40.8065C53.6194 40.4993 53.4104 40.1366 53.2653 39.7185C53.1288 39.3004 53.0605 38.8481 53.0605 38.3617C53.0605 37.8668 53.1288 37.4017 53.2653 36.9665C53.4018 36.5313 53.6066 36.1558 53.8797 35.8401C54.1528 35.5158 54.4898 35.2641 54.8909 35.0849C55.3005 34.8972 55.7784 34.8033 56.3245 34.8033C56.7085 34.8033 57.0712 34.8545 57.4125 34.9569C57.7624 35.0508 58.0696 35.1958 58.3341 35.3921C58.6072 35.5884 58.829 35.8358 58.9997 36.1345C59.1704 36.4332 59.2728 36.7873 59.3069 37.1969H57.8477ZM60.5314 32.4609H61.9906V41.6001H60.5314V32.4609ZM63.6189 32.4609H65.0781V33.8433H63.6189V32.4609ZM63.6189 34.9825H65.0781V41.6001H63.6189V34.9825ZM71.1352 37.1969C71.0755 36.7873 70.9091 36.4801 70.636 36.2753C70.3715 36.062 70.0344 35.9553 69.6248 35.9553C69.4371 35.9553 69.2365 35.9894 69.0232 36.0577C68.8099 36.1174 68.6136 36.2369 68.4344 36.4161C68.2552 36.5868 68.1059 36.83 67.9864 37.1457C67.8669 37.4529 67.8072 37.8582 67.8072 38.3617C67.8072 38.6348 67.8371 38.9078 67.8968 39.1809C67.9651 39.454 68.0675 39.6972 68.204 39.9105C68.3491 40.1238 68.5325 40.2988 68.7544 40.4353C68.9763 40.5633 69.2451 40.6273 69.5608 40.6273C69.9875 40.6273 70.3373 40.495 70.6104 40.2305C70.892 39.966 71.0669 39.5948 71.1352 39.1169H72.5944C72.4579 39.9788 72.1293 40.6401 71.6088 41.1009C71.0968 41.5532 70.4141 41.7793 69.5608 41.7793C69.0403 41.7793 68.5795 41.694 68.1784 41.5233C67.7859 41.3441 67.4531 41.1052 67.18 40.8065C66.9069 40.4993 66.6979 40.1366 66.5528 39.7185C66.4163 39.3004 66.348 38.8481 66.348 38.3617C66.348 37.8668 66.4163 37.4017 66.5528 36.9665C66.6893 36.5313 66.8941 36.1558 67.1672 35.8401C67.4403 35.5158 67.7773 35.2641 68.1784 35.0849C68.588 34.8972 69.0659 34.8033 69.612 34.8033C69.996 34.8033 70.3587 34.8545 70.7 34.9569C71.0499 35.0508 71.3571 35.1958 71.6216 35.3921C71.8947 35.5884 72.1165 35.8358 72.2872 36.1345C72.4579 36.4332 72.5603 36.7873 72.5944 37.1969H71.1352ZM73.8189 32.4609H75.2781V37.6577L77.9149 34.9825H79.7069L77.1725 37.4145L79.9501 41.6001H78.1709L76.1485 38.3873L75.2781 39.2321V41.6001H73.8189V32.4609ZM84.218 32.4609H85.6772V35.8529H85.7028C85.882 35.5542 86.1465 35.3068 86.4964 35.1105C86.8548 34.9057 87.2516 34.8033 87.6868 34.8033C88.4121 34.8033 88.9839 34.991 89.402 35.3665C89.8201 35.742 90.0292 36.3052 90.0292 37.0561V41.6001H88.57V37.4401C88.5529 36.9196 88.442 36.5441 88.2372 36.3137C88.0324 36.0748 87.7124 35.9553 87.2772 35.9553C87.0297 35.9553 86.8079 36.0022 86.6116 36.0961C86.4153 36.1814 86.2489 36.3052 86.1124 36.4673C85.9759 36.6209 85.8692 36.8044 85.7924 37.0177C85.7156 37.231 85.6772 37.4572 85.6772 37.6961V41.6001H84.218V32.4609ZM97.1104 40.1281C97.1104 40.3073 97.1317 40.4353 97.1744 40.5121C97.2256 40.5889 97.3195 40.6273 97.456 40.6273C97.4987 40.6273 97.5499 40.6273 97.6096 40.6273C97.6693 40.6273 97.7376 40.6188 97.8144 40.6017V41.6129C97.7632 41.63 97.6949 41.647 97.6096 41.6641C97.5328 41.6897 97.4517 41.711 97.3664 41.7281C97.2811 41.7452 97.1957 41.758 97.1104 41.7665C97.0251 41.775 96.9525 41.7793 96.8928 41.7793C96.5941 41.7793 96.3467 41.7196 96.1504 41.6001C95.9541 41.4806 95.8261 41.2716 95.7664 40.9729C95.4763 41.2545 95.1179 41.4593 94.6912 41.5873C94.2731 41.7153 93.8677 41.7793 93.4752 41.7793C93.1765 41.7793 92.8907 41.7366 92.6176 41.6513C92.3445 41.5745 92.1013 41.4593 91.888 41.3057C91.6832 41.1436 91.5168 40.943 91.3888 40.7041C91.2693 40.4566 91.2096 40.1708 91.2096 39.8465C91.2096 39.4369 91.2821 39.1041 91.4272 38.8481C91.5808 38.5921 91.7771 38.3916 92.016 38.2465C92.2635 38.1014 92.5365 37.999 92.8352 37.9393C93.1424 37.871 93.4496 37.8198 93.7568 37.7857C94.0213 37.7345 94.2731 37.7004 94.512 37.6833C94.7509 37.6577 94.96 37.6193 95.1392 37.5681C95.3269 37.5169 95.472 37.4401 95.5744 37.3377C95.6853 37.2268 95.7408 37.0646 95.7408 36.8513C95.7408 36.6636 95.6939 36.51 95.6 36.3905C95.5147 36.271 95.4037 36.1814 95.2672 36.1217C95.1392 36.0534 94.9941 36.0108 94.832 35.9937C94.6699 35.9681 94.5163 35.9553 94.3712 35.9553C93.9616 35.9553 93.6245 36.0406 93.36 36.2113C93.0955 36.382 92.9461 36.6465 92.912 37.0049H91.4528C91.4784 36.5782 91.5808 36.2241 91.76 35.9425C91.9392 35.6609 92.1653 35.4348 92.4384 35.2641C92.72 35.0934 93.0357 34.974 93.3856 34.9057C93.7355 34.8374 94.0939 34.8033 94.4608 34.8033C94.7851 34.8033 95.1051 34.8374 95.4208 34.9057C95.7365 34.974 96.0181 35.0849 96.2656 35.2385C96.5216 35.3921 96.7264 35.5926 96.88 35.8401C97.0336 36.079 97.1104 36.3734 97.1104 36.7233V40.1281ZM95.6512 38.2849C95.4293 38.43 95.1563 38.5196 94.832 38.5537C94.5077 38.5793 94.1835 38.622 93.8592 38.6817C93.7056 38.7073 93.5563 38.7457 93.4112 38.7969C93.2661 38.8396 93.1381 38.9036 93.0272 38.9889C92.9163 39.0657 92.8267 39.1724 92.7584 39.3089C92.6987 39.4369 92.6688 39.5948 92.6688 39.7825C92.6688 39.9446 92.7157 40.0812 92.8096 40.1921C92.9035 40.303 93.0144 40.3926 93.1424 40.4609C93.2789 40.5206 93.424 40.5633 93.5776 40.5889C93.7397 40.6145 93.8848 40.6273 94.0128 40.6273C94.1749 40.6273 94.3499 40.606 94.5376 40.5633C94.7253 40.5206 94.9003 40.4481 95.0624 40.3457C95.2331 40.2433 95.3739 40.1153 95.4848 39.9617C95.5957 39.7996 95.6512 39.6033 95.6512 39.3729V38.2849ZM98.6805 34.9825H100.063V35.9553L100.089 35.9809C100.31 35.614 100.601 35.3281 100.959 35.1233C101.317 34.91 101.714 34.8033 102.149 34.8033C102.875 34.8033 103.446 34.991 103.865 35.3665C104.283 35.742 104.492 36.3052 104.492 37.0561V41.6001H103.033V37.4401C103.015 36.9196 102.905 36.5441 102.7 36.3137C102.495 36.0748 102.175 35.9553 101.74 35.9553C101.492 35.9553 101.27 36.0022 101.074 36.0961C100.878 36.1814 100.711 36.3052 100.575 36.4673C100.438 36.6209 100.332 36.8044 100.255 37.0177C100.178 37.231 100.14 37.4572 100.14 37.6961V41.6001H98.6805V34.9825ZM112.264 41.6001H110.882V40.7041H110.856C110.66 41.0881 110.374 41.3654 109.999 41.5361C109.623 41.6982 109.226 41.7793 108.808 41.7793C108.288 41.7793 107.831 41.6897 107.439 41.5105C107.055 41.3228 106.735 41.071 106.479 40.7553C106.223 40.4396 106.031 40.0684 105.903 39.6417C105.775 39.2065 105.711 38.7414 105.711 38.2465C105.711 37.6492 105.792 37.1329 105.954 36.6977C106.116 36.2625 106.329 35.9041 106.594 35.6225C106.867 35.3409 107.174 35.1361 107.515 35.0081C107.865 34.8716 108.219 34.8033 108.578 34.8033C108.783 34.8033 108.992 34.8246 109.205 34.8673C109.418 34.9014 109.623 34.9612 109.819 35.0465C110.016 35.1318 110.195 35.2428 110.357 35.3793C110.528 35.5073 110.668 35.6609 110.779 35.8401H110.805V32.4609H112.264V41.6001ZM107.17 38.3617C107.17 38.6433 107.204 38.9206 107.272 39.1937C107.349 39.4668 107.46 39.71 107.605 39.9233C107.759 40.1366 107.951 40.3073 108.181 40.4353C108.411 40.5633 108.684 40.6273 109 40.6273C109.324 40.6273 109.602 40.559 109.832 40.4225C110.071 40.286 110.263 40.1068 110.408 39.8849C110.562 39.663 110.673 39.4156 110.741 39.1425C110.818 38.8609 110.856 38.575 110.856 38.2849C110.856 37.551 110.69 36.9793 110.357 36.5697C110.033 36.1601 109.589 35.9553 109.026 35.9553C108.684 35.9553 108.394 36.0278 108.155 36.1729C107.925 36.3094 107.733 36.4929 107.579 36.7233C107.434 36.9452 107.328 37.2012 107.259 37.4913C107.2 37.7729 107.17 38.063 107.17 38.3617ZM113.894 32.4609H115.353V41.6001H113.894V32.4609ZM121.487 37.7089C121.47 37.4785 121.419 37.2566 121.333 37.0433C121.257 36.83 121.146 36.6465 121.001 36.4929C120.864 36.3308 120.693 36.2028 120.489 36.1089C120.292 36.0065 120.07 35.9553 119.823 35.9553C119.567 35.9553 119.332 36.0022 119.119 36.0961C118.914 36.1814 118.735 36.3052 118.581 36.4673C118.436 36.6209 118.317 36.8044 118.223 37.0177C118.138 37.231 118.091 37.4614 118.082 37.7089H121.487ZM118.082 38.6689C118.082 38.9249 118.116 39.1724 118.185 39.4113C118.261 39.6502 118.372 39.8593 118.517 40.0385C118.662 40.2177 118.846 40.3628 119.068 40.4737C119.29 40.5761 119.554 40.6273 119.861 40.6273C120.288 40.6273 120.629 40.5377 120.885 40.3585C121.15 40.1708 121.346 39.8934 121.474 39.5265H122.857C122.78 39.8849 122.648 40.2049 122.46 40.4865C122.272 40.7681 122.046 41.007 121.781 41.2033C121.517 41.391 121.218 41.5318 120.885 41.6257C120.561 41.7281 120.22 41.7793 119.861 41.7793C119.341 41.7793 118.88 41.694 118.479 41.5233C118.078 41.3526 117.737 41.1137 117.455 40.8065C117.182 40.4993 116.973 40.1324 116.828 39.7057C116.691 39.279 116.623 38.8097 116.623 38.2977C116.623 37.8284 116.696 37.3846 116.841 36.9665C116.994 36.5398 117.208 36.1686 117.481 35.8529C117.762 35.5286 118.099 35.2726 118.492 35.0849C118.884 34.8972 119.328 34.8033 119.823 34.8033C120.344 34.8033 120.809 34.9142 121.218 35.1361C121.636 35.3494 121.982 35.6353 122.255 35.9937C122.528 36.3521 122.724 36.766 122.844 37.2353C122.972 37.6961 123.006 38.174 122.946 38.6689H118.082ZM124.056 34.9825H125.425V36.2625H125.451C125.493 36.0833 125.574 35.9084 125.694 35.7377C125.822 35.567 125.971 35.4134 126.142 35.2769C126.321 35.1318 126.517 35.0166 126.731 34.9313C126.944 34.846 127.162 34.8033 127.384 34.8033C127.554 34.8033 127.669 34.8076 127.729 34.8161C127.797 34.8246 127.866 34.8332 127.934 34.8417V36.2497C127.832 36.2326 127.725 36.2198 127.614 36.2113C127.512 36.1942 127.409 36.1857 127.307 36.1857C127.059 36.1857 126.825 36.2369 126.603 36.3393C126.389 36.4332 126.202 36.5782 126.04 36.7745C125.877 36.9622 125.749 37.1969 125.656 37.4785C125.562 37.7601 125.515 38.0844 125.515 38.4513V41.6001H124.056V34.9825Z" fill="#A9AEB8"/>
<path fill-rule="evenodd" clip-rule="evenodd" d="M274.605 33.6049C274.878 33.3316 275.322 33.3316 275.595 33.6049L278.6 36.61L281.605 33.6049C281.878 33.3316 282.322 33.3316 282.595 33.6049C282.868 33.8783 282.868 34.3215 282.595 34.5949L279.59 37.5999L282.595 40.6049C282.868 40.8783 282.868 41.3215 282.595 41.5949C282.322 41.8682 281.878 41.8682 281.605 41.5949L278.6 38.5899L275.595 41.5949C275.322 41.8682 274.878 41.8682 274.605 41.5949C274.332 41.3215 274.332 40.8783 274.605 40.6049L277.61 37.5999L274.605 34.5949C274.332 34.3215 274.332 33.8783 274.605 33.6049Z" fill="#0B0C0F"/>
<path d="M26.6512 72.6033H32.408V73.8129H28.0512V75.9073H32.0832V77.0497H28.0512V79.3905H32.4864V80.6001H26.6512V72.6033ZM32.9555 74.8097H34.3443L35.8115 79.2561H35.8339L37.2451 74.8097H38.5667L36.4947 80.6001H35.0611L32.9555 74.8097ZM43.3105 77.1953C43.2956 76.9937 43.2508 76.7996 43.1761 76.6129C43.1089 76.4262 43.0118 76.2657 42.8849 76.1313C42.7654 75.9894 42.6161 75.8774 42.4369 75.7953C42.2652 75.7057 42.071 75.6609 41.8545 75.6609C41.6305 75.6609 41.4252 75.702 41.2385 75.7841C41.0593 75.8588 40.9025 75.967 40.7681 76.1089C40.6412 76.2433 40.5366 76.4038 40.4545 76.5905C40.3798 76.7772 40.3388 76.9788 40.3313 77.1953H43.3105ZM40.3313 78.0353C40.3313 78.2593 40.3612 78.4758 40.4209 78.6849C40.4881 78.894 40.5852 79.0769 40.7121 79.2337C40.839 79.3905 40.9996 79.5174 41.1937 79.6145C41.3878 79.7041 41.6193 79.7489 41.8881 79.7489C42.2614 79.7489 42.5601 79.6705 42.7841 79.5137C43.0156 79.3494 43.1873 79.1068 43.2993 78.7857H44.5089C44.4417 79.0993 44.326 79.3793 44.1617 79.6257C43.9974 79.8721 43.7996 80.0812 43.5681 80.2529C43.3366 80.4172 43.0753 80.5404 42.7841 80.6225C42.5004 80.7121 42.2017 80.7569 41.8881 80.7569C41.4326 80.7569 41.0294 80.6822 40.6785 80.5329C40.3276 80.3836 40.0289 80.1745 39.7825 79.9057C39.5436 79.6369 39.3606 79.3158 39.2337 78.9425C39.1142 78.5692 39.0545 78.1585 39.0545 77.7105C39.0545 77.2998 39.118 76.9116 39.2449 76.5457C39.3793 76.1724 39.566 75.8476 39.8049 75.5713C40.0513 75.2876 40.3462 75.0636 40.6897 74.8993C41.0332 74.735 41.4214 74.6529 41.8545 74.6529C42.31 74.6529 42.7169 74.75 43.0753 74.9441C43.4412 75.1308 43.7436 75.3809 43.9825 75.6945C44.2214 76.0081 44.3932 76.3702 44.4977 76.7809C44.6097 77.1841 44.6396 77.6022 44.5873 78.0353H40.3313ZM45.5579 74.8097H46.7675V75.6609L46.7899 75.6833C46.9841 75.3622 47.2379 75.1121 47.5515 74.9329C47.8651 74.7462 48.2123 74.6529 48.5931 74.6529C49.2278 74.6529 49.7281 74.8172 50.0939 75.1457C50.4598 75.4742 50.6427 75.967 50.6427 76.6241V80.6001H49.3659V76.9601C49.351 76.5046 49.2539 76.1761 49.0747 75.9745C48.8955 75.7654 48.6155 75.6609 48.2347 75.6609C48.0182 75.6609 47.8241 75.702 47.6523 75.7841C47.4806 75.8588 47.335 75.967 47.2155 76.1089C47.0961 76.2433 47.0027 76.4038 46.9355 76.5905C46.8683 76.7772 46.8347 76.975 46.8347 77.1841V80.6001H45.5579V74.8097ZM51.4068 74.8097H52.37V73.0737H53.6468V74.8097H54.8004V75.7617H53.6468V78.8529C53.6468 78.9873 53.6505 79.103 53.658 79.2001C53.6729 79.2972 53.6991 79.3793 53.7364 79.4465C53.7812 79.5137 53.8447 79.566 53.9268 79.6033C54.0089 79.6332 54.1209 79.6481 54.2628 79.6481C54.3524 79.6481 54.442 79.6481 54.5316 79.6481C54.6212 79.6406 54.7108 79.6257 54.8004 79.6033V80.5889C54.6585 80.6038 54.5204 80.6188 54.386 80.6337C54.2516 80.6486 54.1135 80.6561 53.9716 80.6561C53.6356 80.6561 53.3631 80.6262 53.154 80.5665C52.9524 80.4993 52.7919 80.406 52.6724 80.2865C52.5604 80.1596 52.482 80.0028 52.4372 79.8161C52.3999 79.6294 52.3775 79.4166 52.37 79.1777V75.7617H51.4068V74.8097Z" fill="#0B0C0F"/>
<path d="M147.496 75.0113C147.377 74.4438 147.111 74.0182 146.701 73.7345C146.298 73.4508 145.816 73.3089 145.256 73.3089C144.778 73.3089 144.367 73.3985 144.024 73.5777C143.688 73.7569 143.408 73.9996 143.184 74.3057C142.967 74.6044 142.807 74.9478 142.702 75.3361C142.598 75.7244 142.546 76.1276 142.546 76.5457C142.546 77.0012 142.598 77.4342 142.702 77.8449C142.807 78.2481 142.967 78.6028 143.184 78.9089C143.408 79.2076 143.692 79.4465 144.035 79.6257C144.379 79.8049 144.789 79.8945 145.267 79.8945C145.618 79.8945 145.928 79.8385 146.197 79.7265C146.473 79.607 146.708 79.4465 146.902 79.2449C147.104 79.0358 147.261 78.7894 147.373 78.5057C147.485 78.222 147.552 77.9158 147.574 77.5873H148.638C148.534 78.5953 148.187 79.3793 147.597 79.9393C147.007 80.4993 146.201 80.7793 145.178 80.7793C144.558 80.7793 144.017 80.6748 143.554 80.4657C143.091 80.2492 142.706 79.9542 142.4 79.5809C142.094 79.2076 141.862 78.767 141.706 78.2593C141.556 77.7516 141.482 77.2065 141.482 76.6241C141.482 76.0417 141.564 75.4966 141.728 74.9889C141.892 74.4737 142.131 74.0257 142.445 73.6449C142.766 73.2641 143.162 72.9654 143.632 72.7489C144.11 72.5249 144.655 72.4129 145.267 72.4129C145.685 72.4129 146.081 72.4689 146.454 72.5809C146.828 72.6929 147.16 72.8572 147.451 73.0737C147.742 73.2902 147.985 73.5628 148.179 73.8913C148.373 74.2124 148.5 74.5857 148.56 75.0113H147.496ZM149.856 72.6033H150.808V80.6001H149.856V72.6033ZM153.29 73.7681H152.338V72.6033H153.29V73.7681ZM152.338 74.8097H153.29V80.6001H152.338V74.8097ZM158.696 76.6689C158.622 76.303 158.465 76.0193 158.226 75.8177C157.987 75.6161 157.666 75.5153 157.263 75.5153C156.919 75.5153 156.632 75.5788 156.4 75.7057C156.169 75.8326 155.982 76.0006 155.84 76.2097C155.706 76.4188 155.609 76.6614 155.549 76.9377C155.49 77.2065 155.46 77.4865 155.46 77.7777C155.46 78.0465 155.49 78.3078 155.549 78.5617C155.616 78.8156 155.717 79.0433 155.852 79.2449C155.986 79.439 156.162 79.5958 156.378 79.7153C156.595 79.8348 156.852 79.8945 157.151 79.8945C157.621 79.8945 157.987 79.7713 158.248 79.5249C158.517 79.2785 158.682 78.9313 158.741 78.4833H159.716C159.611 79.2001 159.342 79.7526 158.909 80.1409C158.484 80.5292 157.901 80.7233 157.162 80.7233C156.722 80.7233 156.33 80.6524 155.986 80.5105C155.65 80.3686 155.366 80.167 155.135 79.9057C154.911 79.6444 154.739 79.3345 154.62 78.9761C154.508 78.6102 154.452 78.2108 154.452 77.7777C154.452 77.3446 154.508 76.9414 154.62 76.5681C154.732 76.1873 154.9 75.8588 155.124 75.5825C155.355 75.2988 155.643 75.0785 155.986 74.9217C156.33 74.7574 156.729 74.6753 157.184 74.6753C157.513 74.6753 157.819 74.7164 158.103 74.7985C158.394 74.8732 158.648 74.9926 158.864 75.1569C159.088 75.3212 159.271 75.5302 159.413 75.7841C159.555 76.0305 159.645 76.3254 159.682 76.6689H158.696ZM160.837 72.6033H161.789V77.3409L164.432 74.8097H165.709L163.413 76.9153L165.877 80.6001H164.667L162.685 77.5761L161.789 78.4049V80.6001H160.837V72.6033Z" fill="#0B0C0F"/>
<path fill-rule="evenodd" clip-rule="evenodd" d="M273.608 75.1608C273.365 74.9353 272.986 74.9494 272.76 75.1922L270.6 77.5187L268.44 75.1922C268.214 74.9494 267.835 74.9353 267.592 75.1608C267.349 75.3863 267.335 75.7659 267.56 76.0088L270.16 78.8088C270.274 78.931 270.433 79.0005 270.6 79.0005C270.767 79.0005 270.926 78.931 271.04 78.8088L273.64 76.0088C273.865 75.7659 273.851 75.3863 273.608 75.1608Z" fill="#0B0C0F"/>
<rect x="128.6" y="64.0001" width="159.2" height="25.2" rx="6" stroke="#E5E6EB" stroke-width="0.8"/>
<g clip-path="url(#clip0_5970_53960)">
<path d="M28.7904 111.603H30.28L33.36 119.6H31.8592L31.1088 117.483H27.9168L27.1664 119.6H25.7216L28.7904 111.603ZM28.2976 116.419H30.7392L29.5408 112.981H29.5072L28.2976 116.419ZM37.8511 115.747C37.7988 115.389 37.6532 115.12 37.4143 114.941C37.1828 114.754 36.8879 114.661 36.5295 114.661C36.3652 114.661 36.1898 114.691 36.0031 114.75C35.8164 114.803 35.6447 114.907 35.4879 115.064C35.3311 115.213 35.2004 115.426 35.0959 115.702C34.9914 115.971 34.9391 116.326 34.9391 116.766C34.9391 117.005 34.9652 117.244 35.0175 117.483C35.0772 117.722 35.1668 117.935 35.2863 118.122C35.4132 118.308 35.5738 118.461 35.7679 118.581C35.962 118.693 36.1972 118.749 36.4735 118.749C36.8468 118.749 37.153 118.633 37.3919 118.402C37.6383 118.17 37.7914 117.845 37.8511 117.427H39.1279C39.0084 118.181 38.721 118.76 38.2655 119.163C37.8175 119.559 37.2202 119.757 36.4735 119.757C36.018 119.757 35.6148 119.682 35.2639 119.533C34.9204 119.376 34.6292 119.167 34.3903 118.906C34.1514 118.637 33.9684 118.32 33.8415 117.954C33.722 117.588 33.6623 117.192 33.6623 116.766C33.6623 116.333 33.722 115.926 33.8415 115.546C33.961 115.165 34.1402 114.836 34.3791 114.56C34.618 114.276 34.913 114.056 35.2639 113.899C35.6223 113.735 36.0404 113.653 36.5183 113.653C36.8543 113.653 37.1716 113.698 37.4703 113.787C37.7764 113.869 38.0452 113.996 38.2767 114.168C38.5156 114.34 38.7098 114.556 38.8591 114.818C39.0084 115.079 39.098 115.389 39.1279 115.747H37.8511ZM39.5834 113.81H40.5466V112.074H41.8234V113.81H42.977V114.762H41.8234V117.853C41.8234 117.987 41.8271 118.103 41.8346 118.2C41.8495 118.297 41.8756 118.379 41.913 118.446C41.9578 118.514 42.0212 118.566 42.1034 118.603C42.1855 118.633 42.2975 118.648 42.4394 118.648C42.529 118.648 42.6186 118.648 42.7082 118.648C42.7978 118.641 42.8874 118.626 42.977 118.603V119.589C42.8351 119.604 42.697 119.619 42.5626 119.634C42.4282 119.649 42.29 119.656 42.1482 119.656C41.8122 119.656 41.5396 119.626 41.3306 119.566C41.129 119.499 40.9684 119.406 40.849 119.286C40.737 119.16 40.6586 119.003 40.6138 118.816C40.5764 118.629 40.554 118.417 40.5466 118.178V114.762H39.5834V113.81ZM43.929 111.603H45.2058V112.813H43.929V111.603ZM43.929 113.81H45.2058V119.6H43.929V113.81ZM49.2514 119.757C48.7885 119.757 48.3741 119.682 48.0082 119.533C47.6498 119.376 47.3437 119.163 47.0898 118.894C46.8434 118.626 46.653 118.305 46.5186 117.931C46.3917 117.558 46.3282 117.147 46.3282 116.699C46.3282 116.259 46.3917 115.852 46.5186 115.478C46.653 115.105 46.8434 114.784 47.0898 114.515C47.3437 114.246 47.6498 114.037 48.0082 113.888C48.3741 113.731 48.7885 113.653 49.2514 113.653C49.7143 113.653 50.125 113.731 50.4834 113.888C50.8493 114.037 51.1554 114.246 51.4018 114.515C51.6557 114.784 51.8461 115.105 51.973 115.478C52.1074 115.852 52.1746 116.259 52.1746 116.699C52.1746 117.147 52.1074 117.558 51.973 117.931C51.8461 118.305 51.6557 118.626 51.4018 118.894C51.1554 119.163 50.8493 119.376 50.4834 119.533C50.125 119.682 49.7143 119.757 49.2514 119.757ZM49.2514 118.749C49.5351 118.749 49.7815 118.689 49.9906 118.57C50.1997 118.45 50.3714 118.293 50.5058 118.099C50.6402 117.905 50.7373 117.689 50.797 117.45C50.8642 117.203 50.8978 116.953 50.8978 116.699C50.8978 116.453 50.8642 116.206 50.797 115.96C50.7373 115.714 50.6402 115.497 50.5058 115.31C50.3714 115.116 50.1997 114.96 49.9906 114.84C49.7815 114.721 49.5351 114.661 49.2514 114.661C48.9677 114.661 48.7213 114.721 48.5122 114.84C48.3031 114.96 48.1314 115.116 47.997 115.31C47.8626 115.497 47.7618 115.714 47.6946 115.96C47.6349 116.206 47.605 116.453 47.605 116.699C47.605 116.953 47.6349 117.203 47.6946 117.45C47.7618 117.689 47.8626 117.905 47.997 118.099C48.1314 118.293 48.3031 118.45 48.5122 118.57C48.7213 118.689 48.9677 118.749 49.2514 118.749ZM53.2361 113.81H54.4457V114.661L54.4681 114.683C54.6622 114.362 54.9161 114.112 55.2297 113.933C55.5433 113.746 55.8905 113.653 56.2713 113.653C56.9059 113.653 57.4062 113.817 57.7721 114.146C58.1379 114.474 58.3209 114.967 58.3209 115.624V119.6H57.0441V115.96C57.0291 115.505 56.9321 115.176 56.7529 114.974C56.5737 114.765 56.2937 114.661 55.9129 114.661C55.6963 114.661 55.5022 114.702 55.3305 114.784C55.1587 114.859 55.0131 114.967 54.8937 115.109C54.7742 115.243 54.6809 115.404 54.6137 115.59C54.5465 115.777 54.5129 115.975 54.5129 116.184V119.6H53.2361V113.81Z" fill="#0B0C0F"/>
<line x1="25.8" y1="123.8" x2="59.4" y2="123.8" stroke="#C9CDD4" stroke-width="0.8" stroke-dasharray="1.6 1.6"/>
</g>
<path d="M147.496 113.812C147.377 113.244 147.111 112.819 146.701 112.535C146.298 112.251 145.816 112.109 145.256 112.109C144.778 112.109 144.367 112.199 144.024 112.378C143.688 112.557 143.408 112.8 143.184 113.106C142.967 113.405 142.807 113.748 142.702 114.136C142.598 114.525 142.546 114.928 142.546 115.346C142.546 115.801 142.598 116.235 142.702 116.645C142.807 117.048 142.967 117.403 143.184 117.709C143.408 118.008 143.692 118.247 144.035 118.426C144.379 118.605 144.789 118.695 145.267 118.695C145.618 118.695 145.928 118.639 146.197 118.527C146.473 118.407 146.708 118.247 146.902 118.045C147.104 117.836 147.261 117.59 147.373 117.306C147.485 117.022 147.552 116.716 147.574 116.388H148.638C148.534 117.396 148.187 118.18 147.597 118.74C147.007 119.3 146.201 119.58 145.178 119.58C144.558 119.58 144.017 119.475 143.554 119.266C143.091 119.049 142.706 118.755 142.4 118.381C142.094 118.008 141.862 117.567 141.706 117.06C141.556 116.552 141.482 116.007 141.482 115.424C141.482 114.842 141.564 114.297 141.728 113.789C141.892 113.274 142.131 112.826 142.445 112.445C142.766 112.064 143.162 111.766 143.632 111.549C144.11 111.325 144.655 111.213 145.267 111.213C145.685 111.213 146.081 111.269 146.454 111.381C146.828 111.493 147.16 111.657 147.451 111.874C147.742 112.091 147.985 112.363 148.179 112.692C148.373 113.013 148.5 113.386 148.56 113.812H147.496ZM150.494 116.511C150.494 116.862 150.539 117.175 150.628 117.452C150.725 117.72 150.856 117.948 151.02 118.135C151.185 118.314 151.375 118.452 151.592 118.549C151.816 118.646 152.051 118.695 152.297 118.695C152.544 118.695 152.775 118.646 152.992 118.549C153.216 118.452 153.41 118.314 153.574 118.135C153.738 117.948 153.865 117.72 153.955 117.452C154.052 117.175 154.1 116.862 154.1 116.511C154.1 116.16 154.052 115.85 153.955 115.581C153.865 115.305 153.738 115.073 153.574 114.887C153.41 114.7 153.216 114.558 152.992 114.461C152.775 114.364 152.544 114.316 152.297 114.316C152.051 114.316 151.816 114.364 151.592 114.461C151.375 114.558 151.185 114.7 151.02 114.887C150.856 115.073 150.725 115.305 150.628 115.581C150.539 115.85 150.494 116.16 150.494 116.511ZM149.486 116.511C149.486 116.085 149.546 115.689 149.665 115.324C149.785 114.95 149.964 114.629 150.203 114.36C150.442 114.084 150.737 113.868 151.088 113.711C151.439 113.554 151.842 113.476 152.297 113.476C152.76 113.476 153.163 113.554 153.507 113.711C153.858 113.868 154.153 114.084 154.392 114.36C154.631 114.629 154.81 114.95 154.929 115.324C155.049 115.689 155.108 116.085 155.108 116.511C155.108 116.936 155.049 117.332 154.929 117.698C154.81 118.064 154.631 118.385 154.392 118.661C154.153 118.93 153.858 119.143 153.507 119.3C153.163 119.449 152.76 119.524 152.297 119.524C151.842 119.524 151.439 119.449 151.088 119.3C150.737 119.143 150.442 118.93 150.203 118.661C149.964 118.385 149.785 118.064 149.665 117.698C149.546 117.332 149.486 116.936 149.486 116.511ZM156.231 113.61H157.127V114.528H157.149C157.545 113.827 158.172 113.476 159.031 113.476C159.412 113.476 159.729 113.528 159.983 113.632C160.237 113.737 160.442 113.883 160.599 114.069C160.756 114.256 160.864 114.48 160.924 114.741C160.991 114.995 161.024 115.279 161.024 115.592V119.4H160.072V115.48C160.072 115.122 159.968 114.838 159.759 114.629C159.55 114.42 159.262 114.316 158.896 114.316C158.605 114.316 158.351 114.36 158.135 114.45C157.926 114.54 157.75 114.667 157.608 114.831C157.467 114.995 157.358 115.189 157.284 115.413C157.216 115.63 157.183 115.869 157.183 116.13V119.4H156.231V113.61ZM163.776 113.61H164.929V114.45H163.776V118.045C163.776 118.157 163.783 118.247 163.798 118.314C163.821 118.381 163.858 118.433 163.91 118.471C163.963 118.508 164.033 118.534 164.123 118.549C164.22 118.557 164.343 118.56 164.493 118.56H164.929V119.4H164.201C163.955 119.4 163.742 119.385 163.563 119.356C163.391 119.318 163.249 119.255 163.137 119.165C163.033 119.076 162.955 118.949 162.902 118.784C162.85 118.62 162.824 118.404 162.824 118.135V114.45H161.838V113.61H162.824V111.874H163.776V113.61ZM165.954 113.61H166.85V114.831H166.872C167.103 114.36 167.387 114.013 167.723 113.789C168.059 113.565 168.485 113.461 169 113.476V114.484C168.619 114.484 168.294 114.536 168.026 114.64C167.757 114.745 167.54 114.898 167.376 115.1C167.212 115.301 167.092 115.548 167.018 115.839C166.943 116.123 166.906 116.451 166.906 116.824V119.4H165.954V113.61ZM170.214 116.511C170.214 116.862 170.259 117.175 170.349 117.452C170.446 117.72 170.576 117.948 170.741 118.135C170.905 118.314 171.095 118.452 171.312 118.549C171.536 118.646 171.771 118.695 172.018 118.695C172.264 118.695 172.495 118.646 172.712 118.549C172.936 118.452 173.13 118.314 173.294 118.135C173.459 117.948 173.586 117.72 173.675 117.452C173.772 117.175 173.821 116.862 173.821 116.511C173.821 116.16 173.772 115.85 173.675 115.581C173.586 115.305 173.459 115.073 173.294 114.887C173.13 114.7 172.936 114.558 172.712 114.461C172.495 114.364 172.264 114.316 172.018 114.316C171.771 114.316 171.536 114.364 171.312 114.461C171.095 114.558 170.905 114.7 170.741 114.887C170.576 115.073 170.446 115.305 170.349 115.581C170.259 115.85 170.214 116.16 170.214 116.511ZM169.206 116.511C169.206 116.085 169.266 115.689 169.386 115.324C169.505 114.95 169.684 114.629 169.923 114.36C170.162 114.084 170.457 113.868 170.808 113.711C171.159 113.554 171.562 113.476 172.018 113.476C172.48 113.476 172.884 113.554 173.227 113.711C173.578 113.868 173.873 114.084 174.112 114.36C174.351 114.629 174.53 114.95 174.65 115.324C174.769 115.689 174.829 116.085 174.829 116.511C174.829 116.936 174.769 117.332 174.65 117.698C174.53 118.064 174.351 118.385 174.112 118.661C173.873 118.93 173.578 119.143 173.227 119.3C172.884 119.449 172.48 119.524 172.018 119.524C171.562 119.524 171.159 119.449 170.808 119.3C170.457 119.143 170.162 118.93 169.923 118.661C169.684 118.385 169.505 118.064 169.386 117.698C169.266 117.332 169.206 116.936 169.206 116.511ZM176.007 111.404H176.959V119.4H176.007V111.404ZM185.482 115.469C185.408 115.103 185.251 114.82 185.012 114.618C184.773 114.416 184.452 114.316 184.049 114.316C183.705 114.316 183.418 114.379 183.186 114.506C182.955 114.633 182.768 114.801 182.626 115.01C182.492 115.219 182.395 115.462 182.335 115.738C182.275 116.007 182.246 116.287 182.246 116.578C182.246 116.847 182.275 117.108 182.335 117.362C182.402 117.616 182.503 117.844 182.638 118.045C182.772 118.239 182.947 118.396 183.164 118.516C183.381 118.635 183.638 118.695 183.937 118.695C184.407 118.695 184.773 118.572 185.034 118.325C185.303 118.079 185.467 117.732 185.527 117.284H186.502C186.397 118 186.128 118.553 185.695 118.941C185.27 119.329 184.687 119.524 183.948 119.524C183.507 119.524 183.115 119.453 182.772 119.311C182.436 119.169 182.152 118.967 181.921 118.706C181.697 118.445 181.525 118.135 181.406 117.776C181.294 117.411 181.238 117.011 181.238 116.578C181.238 116.145 181.294 115.742 181.406 115.368C181.518 114.988 181.686 114.659 181.91 114.383C182.141 114.099 182.429 113.879 182.772 113.722C183.115 113.558 183.515 113.476 183.97 113.476C184.299 113.476 184.605 113.517 184.889 113.599C185.18 113.673 185.434 113.793 185.65 113.957C185.874 114.121 186.057 114.331 186.199 114.584C186.341 114.831 186.431 115.126 186.468 115.469H185.482ZM188.261 116.511C188.261 116.862 188.306 117.175 188.396 117.452C188.493 117.72 188.623 117.948 188.788 118.135C188.952 118.314 189.142 118.452 189.359 118.549C189.583 118.646 189.818 118.695 190.064 118.695C190.311 118.695 190.542 118.646 190.759 118.549C190.983 118.452 191.177 118.314 191.341 118.135C191.505 117.948 191.632 117.72 191.722 117.452C191.819 117.175 191.868 116.862 191.868 116.511C191.868 116.16 191.819 115.85 191.722 115.581C191.632 115.305 191.505 115.073 191.341 114.887C191.177 114.7 190.983 114.558 190.759 114.461C190.542 114.364 190.311 114.316 190.064 114.316C189.818 114.316 189.583 114.364 189.359 114.461C189.142 114.558 188.952 114.7 188.788 114.887C188.623 115.073 188.493 115.305 188.396 115.581C188.306 115.85 188.261 116.16 188.261 116.511ZM187.253 116.511C187.253 116.085 187.313 115.689 187.432 115.324C187.552 114.95 187.731 114.629 187.97 114.36C188.209 114.084 188.504 113.868 188.855 113.711C189.206 113.554 189.609 113.476 190.064 113.476C190.527 113.476 190.931 113.554 191.274 113.711C191.625 113.868 191.92 114.084 192.159 114.36C192.398 114.629 192.577 114.95 192.696 115.324C192.816 115.689 192.876 116.085 192.876 116.511C192.876 116.936 192.816 117.332 192.696 117.698C192.577 118.064 192.398 118.385 192.159 118.661C191.92 118.93 191.625 119.143 191.274 119.3C190.931 119.449 190.527 119.524 190.064 119.524C189.609 119.524 189.206 119.449 188.855 119.3C188.504 119.143 188.209 118.93 187.97 118.661C187.731 118.385 187.552 118.064 187.432 117.698C187.313 117.332 187.253 116.936 187.253 116.511ZM193.998 113.61H194.894V114.461H194.916C195.35 113.804 195.973 113.476 196.787 113.476C197.145 113.476 197.47 113.55 197.761 113.7C198.052 113.849 198.258 114.103 198.377 114.461C198.571 114.148 198.825 113.905 199.139 113.733C199.46 113.561 199.811 113.476 200.192 113.476C200.483 113.476 200.744 113.509 200.976 113.576C201.215 113.636 201.416 113.733 201.58 113.868C201.752 114.002 201.883 114.177 201.972 114.394C202.07 114.603 202.118 114.857 202.118 115.156V119.4H201.166V115.604C201.166 115.424 201.151 115.256 201.121 115.1C201.091 114.943 201.035 114.808 200.953 114.696C200.871 114.577 200.755 114.484 200.606 114.416C200.464 114.349 200.278 114.316 200.046 114.316C199.576 114.316 199.206 114.45 198.937 114.719C198.668 114.988 198.534 115.346 198.534 115.794V119.4H197.582V115.604C197.582 115.417 197.563 115.245 197.526 115.088C197.496 114.932 197.44 114.797 197.358 114.685C197.276 114.566 197.164 114.476 197.022 114.416C196.888 114.349 196.712 114.316 196.496 114.316C196.219 114.316 195.98 114.372 195.779 114.484C195.585 114.596 195.424 114.73 195.297 114.887C195.178 115.044 195.088 115.208 195.028 115.38C194.976 115.544 194.95 115.682 194.95 115.794V119.4H193.998V113.61ZM203.58 113.61H204.532V114.394H204.554C204.711 114.073 204.958 113.841 205.294 113.7C205.63 113.55 205.999 113.476 206.402 113.476C206.85 113.476 207.239 113.558 207.567 113.722C207.903 113.886 208.18 114.11 208.396 114.394C208.62 114.67 208.788 114.991 208.9 115.357C209.012 115.723 209.068 116.111 209.068 116.522C209.068 116.933 209.012 117.321 208.9 117.687C208.796 118.053 208.631 118.374 208.407 118.65C208.191 118.919 207.914 119.132 207.578 119.288C207.25 119.445 206.865 119.524 206.425 119.524C206.283 119.524 206.122 119.509 205.943 119.479C205.772 119.449 205.6 119.4 205.428 119.333C205.256 119.266 205.092 119.176 204.935 119.064C204.786 118.945 204.659 118.799 204.554 118.628H204.532V121.607H203.58V113.61ZM208.06 116.455C208.06 116.186 208.023 115.925 207.948 115.671C207.881 115.409 207.773 115.178 207.623 114.976C207.481 114.775 207.295 114.614 207.063 114.495C206.839 114.375 206.574 114.316 206.268 114.316C205.947 114.316 205.674 114.379 205.45 114.506C205.226 114.633 205.044 114.801 204.902 115.01C204.76 115.212 204.655 115.443 204.588 115.704C204.528 115.966 204.498 116.231 204.498 116.5C204.498 116.783 204.532 117.06 204.599 117.328C204.666 117.59 204.771 117.821 204.913 118.023C205.062 118.224 205.253 118.389 205.484 118.516C205.716 118.635 205.996 118.695 206.324 118.695C206.653 118.695 206.925 118.631 207.142 118.504C207.366 118.377 207.545 118.209 207.679 118C207.814 117.791 207.911 117.552 207.97 117.284C208.03 117.015 208.06 116.739 208.06 116.455ZM210.88 116.511C210.88 116.862 210.925 117.175 211.014 117.452C211.111 117.72 211.242 117.948 211.406 118.135C211.571 118.314 211.761 118.452 211.978 118.549C212.202 118.646 212.437 118.695 212.683 118.695C212.93 118.695 213.161 118.646 213.378 118.549C213.602 118.452 213.796 118.314 213.96 118.135C214.124 117.948 214.251 117.72 214.341 117.452C214.438 117.175 214.486 116.862 214.486 116.511C214.486 116.16 214.438 115.85 214.341 115.581C214.251 115.305 214.124 115.073 213.96 114.887C213.796 114.7 213.602 114.558 213.378 114.461C213.161 114.364 212.93 114.316 212.683 114.316C212.437 114.316 212.202 114.364 211.978 114.461C211.761 114.558 211.571 114.7 211.406 114.887C211.242 115.073 211.111 115.305 211.014 115.581C210.925 115.85 210.88 116.16 210.88 116.511ZM209.872 116.511C209.872 116.085 209.932 115.689 210.051 115.324C210.171 114.95 210.35 114.629 210.589 114.36C210.828 114.084 211.123 113.868 211.474 113.711C211.824 113.554 212.228 113.476 212.683 113.476C213.146 113.476 213.549 113.554 213.893 113.711C214.244 113.868 214.539 114.084 214.778 114.36C215.016 114.629 215.196 114.95 215.315 115.324C215.435 115.689 215.494 116.085 215.494 116.511C215.494 116.936 215.435 117.332 215.315 117.698C215.196 118.064 215.016 118.385 214.778 118.661C214.539 118.93 214.244 119.143 213.893 119.3C213.549 119.449 213.146 119.524 212.683 119.524C212.228 119.524 211.824 119.449 211.474 119.3C211.123 119.143 210.828 118.93 210.589 118.661C210.35 118.385 210.171 118.064 210.051 117.698C209.932 117.332 209.872 116.936 209.872 116.511ZM216.617 113.61H217.513V114.528H217.535C217.931 113.827 218.558 113.476 219.417 113.476C219.798 113.476 220.115 113.528 220.369 113.632C220.623 113.737 220.828 113.883 220.985 114.069C221.142 114.256 221.25 114.48 221.31 114.741C221.377 114.995 221.41 115.279 221.41 115.592V119.4H220.458V115.48C220.458 115.122 220.354 114.838 220.145 114.629C219.936 114.42 219.648 114.316 219.282 114.316C218.991 114.316 218.737 114.36 218.521 114.45C218.312 114.54 218.136 114.667 217.994 114.831C217.853 114.995 217.744 115.189 217.67 115.413C217.602 115.63 217.569 115.869 217.569 116.13V119.4H216.617V113.61ZM226.861 115.951C226.846 115.727 226.794 115.514 226.704 115.312C226.622 115.111 226.506 114.939 226.357 114.797C226.215 114.648 226.043 114.532 225.842 114.45C225.648 114.36 225.431 114.316 225.192 114.316C224.946 114.316 224.722 114.36 224.52 114.45C224.326 114.532 224.158 114.648 224.016 114.797C223.874 114.947 223.762 115.122 223.68 115.324C223.598 115.518 223.55 115.727 223.535 115.951H226.861ZM227.779 117.564C227.653 118.213 227.373 118.702 226.939 119.031C226.506 119.359 225.961 119.524 225.304 119.524C224.841 119.524 224.438 119.449 224.095 119.3C223.759 119.15 223.475 118.941 223.243 118.672C223.012 118.404 222.837 118.083 222.717 117.709C222.605 117.336 222.542 116.929 222.527 116.488C222.527 116.048 222.594 115.645 222.728 115.279C222.863 114.913 223.049 114.596 223.288 114.327C223.535 114.058 223.822 113.849 224.151 113.7C224.487 113.55 224.853 113.476 225.248 113.476C225.763 113.476 226.189 113.584 226.525 113.8C226.869 114.009 227.141 114.278 227.343 114.607C227.552 114.935 227.694 115.294 227.768 115.682C227.85 116.07 227.884 116.44 227.869 116.791H223.535C223.527 117.045 223.557 117.287 223.624 117.519C223.691 117.743 223.8 117.944 223.949 118.124C224.098 118.295 224.289 118.433 224.52 118.538C224.752 118.643 225.024 118.695 225.338 118.695C225.741 118.695 226.07 118.601 226.323 118.415C226.585 118.228 226.757 117.944 226.839 117.564H227.779ZM228.856 113.61H229.752V114.528H229.774C230.17 113.827 230.797 113.476 231.656 113.476C232.037 113.476 232.354 113.528 232.608 113.632C232.862 113.737 233.067 113.883 233.224 114.069C233.381 114.256 233.489 114.48 233.549 114.741C233.616 114.995 233.649 115.279 233.649 115.592V119.4H232.697V115.48C232.697 115.122 232.593 114.838 232.384 114.629C232.175 114.42 231.887 114.316 231.521 114.316C231.23 114.316 230.976 114.36 230.76 114.45C230.551 114.54 230.375 114.667 230.233 114.831C230.092 114.995 229.983 115.189 229.909 115.413C229.841 115.63 229.808 115.869 229.808 116.13V119.4H228.856V113.61ZM236.401 113.61H237.554V114.45H236.401V118.045C236.401 118.157 236.408 118.247 236.423 118.314C236.446 118.381 236.483 118.433 236.535 118.471C236.588 118.508 236.658 118.534 236.748 118.549C236.845 118.557 236.968 118.56 237.118 118.56H237.554V119.4H236.826C236.58 119.4 236.367 119.385 236.188 119.356C236.016 119.318 235.874 119.255 235.762 119.165C235.658 119.076 235.58 118.949 235.527 118.784C235.475 118.62 235.449 118.404 235.449 118.135V114.45H234.463V113.61H235.449V111.874H236.401V113.61Z" fill="#0B0C0F"/>
<path fill-rule="evenodd" clip-rule="evenodd" d="M273.608 113.961C273.365 113.735 272.986 113.749 272.76 113.992L270.6 116.319L268.44 113.992C268.214 113.749 267.835 113.735 267.592 113.961C267.349 114.186 267.335 114.566 267.56 114.809L270.16 117.609C270.274 117.731 270.433 117.8 270.6 117.8C270.767 117.8 270.926 117.731 271.04 117.609L273.64 114.809C273.865 114.566 273.851 114.186 273.608 113.961Z" fill="#0B0C0F"/>
<rect x="128.6" y="102.8" width="159.2" height="25.2" rx="6" stroke="#E5E6EB" stroke-width="0.8"/>
<g clip-path="url(#clip1_5970_53960)">
<path d="M30.056 163.955C29.6304 163.955 29.2608 164.041 28.9472 164.213C28.6411 164.385 28.3909 164.616 28.1968 164.907C28.0027 165.191 27.8571 165.516 27.76 165.882C27.6704 166.247 27.6256 166.621 27.6256 167.002C27.6256 167.382 27.6704 167.756 27.76 168.122C27.8571 168.487 28.0027 168.816 28.1968 169.107C28.3909 169.391 28.6411 169.619 28.9472 169.79C29.2608 169.962 29.6304 170.048 30.056 170.048C30.4816 170.048 30.8475 169.962 31.1536 169.79C31.4672 169.619 31.7211 169.391 31.9152 169.107C32.1093 168.816 32.2512 168.487 32.3408 168.122C32.4379 167.756 32.4864 167.382 32.4864 167.002C32.4864 166.621 32.4379 166.247 32.3408 165.882C32.2512 165.516 32.1093 165.191 31.9152 164.907C31.7211 164.616 31.4672 164.385 31.1536 164.213C30.8475 164.041 30.4816 163.955 30.056 163.955ZM30.056 162.813C30.6533 162.813 31.1872 162.925 31.6576 163.149C32.1355 163.373 32.5387 163.675 32.8672 164.056C33.1957 164.437 33.4459 164.881 33.6176 165.389C33.7968 165.897 33.8864 166.434 33.8864 167.002C33.8864 167.577 33.7968 168.118 33.6176 168.626C33.4459 169.133 33.1957 169.578 32.8672 169.958C32.5387 170.339 32.1355 170.642 31.6576 170.866C31.1872 171.082 30.6533 171.19 30.056 171.19C29.4587 171.19 28.9211 171.082 28.4432 170.866C27.9728 170.642 27.5733 170.339 27.2448 169.958C26.9163 169.578 26.6624 169.133 26.4832 168.626C26.3115 168.118 26.2256 167.577 26.2256 167.002C26.2256 166.434 26.3115 165.897 26.4832 165.389C26.6624 164.881 26.9163 164.437 27.2448 164.056C27.5733 163.675 27.9728 163.373 28.4432 163.149C28.9211 162.925 29.4587 162.813 30.056 162.813ZM34.9814 165.21H36.191V166.061L36.2134 166.083C36.4075 165.762 36.6614 165.512 36.975 165.333C37.2886 165.146 37.6358 165.053 38.0166 165.053C38.6512 165.053 39.1515 165.217 39.5174 165.546C39.8832 165.874 40.0662 166.367 40.0662 167.024V171H38.7894V167.36C38.7744 166.905 38.6774 166.576 38.4982 166.374C38.319 166.165 38.039 166.061 37.6582 166.061C37.4416 166.061 37.2475 166.102 37.0758 166.184C36.904 166.259 36.7584 166.367 36.639 166.509C36.5195 166.643 36.4262 166.804 36.359 166.99C36.2918 167.177 36.2582 167.375 36.2582 167.584V171H34.9814V165.21ZM41.4462 163.003H42.723V171H41.4462V163.003ZM43.4758 165.21H44.8758L46.3878 169.533H46.4102L47.8774 165.21H49.2102L46.959 171.314C46.8545 171.575 46.7499 171.825 46.6454 172.064C46.5483 172.303 46.4251 172.512 46.2758 172.691C46.1339 172.878 45.9547 173.023 45.7382 173.128C45.5217 173.24 45.2454 173.296 44.9094 173.296C44.6107 173.296 44.3158 173.274 44.0246 173.229V172.154C44.1291 172.169 44.2299 172.183 44.327 172.198C44.4241 172.221 44.5249 172.232 44.6294 172.232C44.7787 172.232 44.9019 172.213 44.999 172.176C45.0961 172.139 45.1745 172.083 45.2342 172.008C45.3014 171.941 45.3574 171.859 45.4022 171.762C45.447 171.665 45.4881 171.553 45.5254 171.426L45.671 170.978L43.4758 165.21ZM53.2184 163.003H57.0376C57.9187 163.003 58.5795 163.194 59.02 163.574C59.4605 163.955 59.6808 164.485 59.6808 165.165C59.6808 165.546 59.6248 165.863 59.5128 166.117C59.4008 166.363 59.2701 166.565 59.1208 166.722C58.9715 166.871 58.8221 166.979 58.6728 167.046C58.5309 167.114 58.4264 167.158 58.3592 167.181V167.203C58.4787 167.218 58.6056 167.255 58.74 167.315C58.8819 167.375 59.0125 167.472 59.132 167.606C59.2515 167.733 59.3485 167.901 59.4232 168.11C59.5053 168.319 59.5464 168.581 59.5464 168.894C59.5464 169.365 59.58 169.794 59.6472 170.182C59.7219 170.563 59.8339 170.836 59.9832 171H58.4824C58.3779 170.828 58.3144 170.638 58.292 170.429C58.2771 170.22 58.2696 170.018 58.2696 169.824C58.2696 169.458 58.2472 169.145 58.2024 168.883C58.1576 168.614 58.0755 168.394 57.956 168.222C57.8365 168.043 57.6723 167.913 57.4632 167.83C57.2616 167.748 57.0003 167.707 56.6792 167.707H54.6184V171H53.2184V163.003ZM54.6184 166.643H56.9144C57.3624 166.643 57.7021 166.539 57.9336 166.33C58.1651 166.113 58.2808 165.792 58.2808 165.366C58.2808 165.113 58.2435 164.907 58.1688 164.75C58.0941 164.586 57.9896 164.459 57.8552 164.37C57.7283 164.28 57.5789 164.22 57.4072 164.19C57.2429 164.161 57.0712 164.146 56.892 164.146H54.6184V166.643ZM66.0099 171H64.7555V170.194H64.7331C64.5763 170.485 64.3411 170.72 64.0275 170.899C63.7214 171.071 63.4078 171.157 63.0867 171.157C62.3251 171.157 61.7726 170.97 61.4291 170.597C61.0931 170.216 60.9251 169.645 60.9251 168.883V165.21H62.2019V168.76C62.2019 169.268 62.299 169.626 62.4931 169.835C62.6873 170.044 62.9598 170.149 63.3107 170.149C63.5795 170.149 63.8035 170.108 63.9827 170.026C64.1619 169.943 64.3075 169.835 64.4195 169.701C64.5315 169.559 64.6099 169.391 64.6547 169.197C64.707 169.003 64.7331 168.794 64.7331 168.57V165.21H66.0099V171ZM67.3564 165.21H68.566V166.061L68.5884 166.083C68.7825 165.762 69.0364 165.512 69.35 165.333C69.6636 165.146 70.0108 165.053 70.3916 165.053C71.0262 165.053 71.5265 165.217 71.8924 165.546C72.2582 165.874 72.4412 166.367 72.4412 167.024V171H71.1644V167.36C71.1494 166.905 71.0524 166.576 70.8732 166.374C70.694 166.165 70.414 166.061 70.0332 166.061C69.8166 166.061 69.6225 166.102 69.4508 166.184C69.279 166.259 69.1334 166.367 69.014 166.509C68.8945 166.643 68.8012 166.804 68.734 166.99C68.6668 167.177 68.6332 167.375 68.6332 167.584V171H67.3564V165.21ZM76.3 163.003H77.7224L79.1672 169.118H79.1896L80.8024 163.003H82.236L83.804 169.118H83.8264L85.316 163.003H86.7384L84.532 171H83.1096L81.508 164.885H81.4856L79.8504 171H78.4056L76.3 163.003ZM87.4814 163.003H88.7582V165.971H88.7806C88.9374 165.71 89.1688 165.493 89.475 165.322C89.7886 165.142 90.1358 165.053 90.5166 165.053C91.1512 165.053 91.6515 165.217 92.0174 165.546C92.3832 165.874 92.5662 166.367 92.5662 167.024V171H91.2894V167.36C91.2744 166.905 91.1774 166.576 90.9982 166.374C90.819 166.165 90.539 166.061 90.1582 166.061C89.9416 166.061 89.7475 166.102 89.5758 166.184C89.404 166.259 89.2584 166.367 89.139 166.509C89.0195 166.643 88.9262 166.804 88.859 166.99C88.7918 167.177 88.7582 167.375 88.7582 167.584V171H87.4814V163.003ZM97.8886 167.595C97.8737 167.394 97.8289 167.199 97.7542 167.013C97.687 166.826 97.59 166.666 97.463 166.531C97.3436 166.389 97.1942 166.277 97.015 166.195C96.8433 166.106 96.6492 166.061 96.4326 166.061C96.2086 166.061 96.0033 166.102 95.8166 166.184C95.6374 166.259 95.4806 166.367 95.3462 166.509C95.2193 166.643 95.1148 166.804 95.0326 166.99C94.958 167.177 94.9169 167.379 94.9094 167.595H97.8886ZM94.9094 168.435C94.9094 168.659 94.9393 168.876 94.999 169.085C95.0662 169.294 95.1633 169.477 95.2902 169.634C95.4172 169.79 95.5777 169.917 95.7718 170.014C95.966 170.104 96.1974 170.149 96.4662 170.149C96.8396 170.149 97.1382 170.07 97.3622 169.914C97.5937 169.749 97.7654 169.507 97.8774 169.186H99.087C99.0198 169.499 98.9041 169.779 98.7398 170.026C98.5756 170.272 98.3777 170.481 98.1462 170.653C97.9148 170.817 97.6534 170.94 97.3622 171.022C97.0785 171.112 96.7798 171.157 96.4662 171.157C96.0108 171.157 95.6076 171.082 95.2566 170.933C94.9057 170.783 94.607 170.574 94.3606 170.306C94.1217 170.037 93.9388 169.716 93.8118 169.342C93.6924 168.969 93.6326 168.558 93.6326 168.11C93.6326 167.7 93.6961 167.311 93.823 166.946C93.9574 166.572 94.1441 166.247 94.383 165.971C94.6294 165.687 94.9244 165.463 95.2678 165.299C95.6113 165.135 95.9996 165.053 96.4326 165.053C96.8881 165.053 97.295 165.15 97.6534 165.344C98.0193 165.531 98.3217 165.781 98.5606 166.094C98.7996 166.408 98.9713 166.77 99.0758 167.181C99.1878 167.584 99.2177 168.002 99.1654 168.435H94.9094ZM100.136 165.21H101.346V166.061L101.368 166.083C101.562 165.762 101.816 165.512 102.13 165.333C102.443 165.146 102.79 165.053 103.171 165.053C103.806 165.053 104.306 165.217 104.672 165.546C105.038 165.874 105.221 166.367 105.221 167.024V171H103.944V167.36C103.929 166.905 103.832 166.576 103.653 166.374C103.474 166.165 103.194 166.061 102.813 166.061C102.596 166.061 102.402 166.102 102.23 166.184C102.059 166.259 101.913 166.367 101.794 166.509C101.674 166.643 101.581 166.804 101.514 166.99C101.446 167.177 101.413 167.375 101.413 167.584V171H100.136V165.21Z" fill="#0B0C0F"/>
<line x1="25.8" y1="175.2" x2="106.6" y2="175.2" stroke="#C9CDD4" stroke-width="0.8" stroke-dasharray="1.6 1.6"/>
</g>
<path d="M145.446 161.672V162.322C145.206 162.322 144.988 162.346 144.791 162.395C144.597 162.441 144.446 162.522 144.338 162.637C144.23 162.752 144.185 162.909 144.205 163.109L144.412 165.128C144.454 165.541 144.395 165.85 144.234 166.053C144.077 166.257 143.829 166.39 143.491 166.452C143.836 166.514 144.087 166.642 144.244 166.836C144.402 167.026 144.458 167.34 144.412 167.776L144.205 169.795C144.185 169.998 144.23 170.158 144.338 170.272C144.446 170.387 144.597 170.468 144.791 170.514C144.984 170.56 145.203 170.583 145.446 170.583V171.232C145.078 171.232 144.733 171.188 144.412 171.099C144.09 171.011 143.837 170.855 143.654 170.632C143.47 170.412 143.401 170.1 143.447 169.696L143.644 167.826C143.67 167.602 143.649 167.414 143.58 167.259C143.514 167.102 143.37 166.984 143.146 166.905C142.927 166.823 142.597 166.782 142.157 166.782V166.122C142.597 166.122 142.927 166.083 143.146 166.004C143.37 165.925 143.514 165.809 143.58 165.655C143.649 165.5 143.67 165.312 143.644 165.088L143.447 163.208C143.404 162.804 143.473 162.492 143.654 162.272C143.837 162.049 144.09 161.893 144.412 161.805C144.733 161.716 145.078 161.672 145.446 161.672ZM151.352 161.672V162.322C151.112 162.322 150.894 162.346 150.697 162.395C150.503 162.441 150.352 162.522 150.244 162.637C150.136 162.752 150.091 162.909 150.111 163.109L150.318 165.128C150.361 165.541 150.302 165.85 150.141 166.053C149.983 166.257 149.735 166.39 149.397 166.452C149.742 166.514 149.993 166.642 150.151 166.836C150.308 167.026 150.364 167.34 150.318 167.776L150.111 169.795C150.091 169.998 150.136 170.158 150.244 170.272C150.352 170.387 150.503 170.468 150.697 170.514C150.891 170.56 151.109 170.583 151.352 170.583V171.232C150.984 171.232 150.64 171.188 150.318 171.099C149.996 171.011 149.744 170.855 149.56 170.632C149.376 170.412 149.307 170.1 149.353 169.696L149.55 167.826C149.576 167.602 149.555 167.414 149.486 167.259C149.42 167.102 149.276 166.984 149.053 166.905C148.833 166.823 148.503 166.782 148.063 166.782V166.122C148.503 166.122 148.833 166.083 149.053 166.004C149.276 165.925 149.42 165.809 149.486 165.655C149.555 165.5 149.576 165.312 149.55 165.088L149.353 163.208C149.31 162.804 149.379 162.492 149.56 162.272C149.744 162.049 149.996 161.893 150.318 161.805C150.64 161.716 150.984 161.672 151.352 161.672ZM157.385 163.021L157.301 167.565H156.558L156.459 163.021H157.385ZM156.937 168.594C157.127 168.594 157.286 168.658 157.414 168.786C157.539 168.914 157.601 169.068 157.601 169.248C157.601 169.432 157.539 169.59 157.414 169.721C157.286 169.849 157.127 169.913 156.937 169.913C156.75 169.913 156.594 169.849 156.469 169.721C156.344 169.59 156.282 169.432 156.282 169.248C156.282 169.068 156.344 168.914 156.469 168.786C156.594 168.658 156.75 168.594 156.937 168.594ZM160.929 163.021L160.846 167.565H160.102L160.004 163.021H160.929ZM160.481 168.594C160.672 168.594 160.829 168.658 160.954 168.786C161.082 168.914 161.146 169.068 161.146 169.248C161.146 169.432 161.082 169.59 160.954 169.721C160.829 169.849 160.672 169.913 160.481 169.913C160.294 169.913 160.138 169.849 160.014 169.721C159.889 169.59 159.826 169.432 159.826 169.248C159.826 169.068 159.889 168.914 160.014 168.786C160.138 168.658 160.294 168.594 160.481 168.594ZM166.264 167.501C166.287 168.101 166.445 168.539 166.737 168.815C167.032 169.088 167.38 169.224 167.781 169.224C168.047 169.224 168.286 169.184 168.499 169.106C168.713 169.027 168.934 168.91 169.164 168.756L169.553 169.303C169.313 169.493 169.038 169.642 168.726 169.751C168.414 169.859 168.096 169.913 167.771 169.913C167.265 169.913 166.835 169.8 166.481 169.573C166.13 169.347 165.861 169.032 165.674 168.628C165.49 168.221 165.398 167.75 165.398 167.215C165.398 166.69 165.49 166.224 165.674 165.817C165.861 165.41 166.123 165.09 166.461 164.857C166.803 164.624 167.203 164.507 167.663 164.507C168.316 164.507 168.829 164.734 169.203 165.187C169.581 165.64 169.77 166.26 169.77 167.048C169.77 167.136 169.766 167.22 169.76 167.299C169.756 167.378 169.753 167.445 169.75 167.501H166.264ZM167.672 165.187C167.288 165.187 166.967 165.323 166.707 165.595C166.448 165.868 166.302 166.29 166.269 166.861H168.972C168.962 166.306 168.841 165.889 168.608 165.61C168.375 165.328 168.063 165.187 167.672 165.187ZM172.023 169.8H171.078L172.993 167.063L171.314 164.616H172.294L173.495 166.546L174.711 164.616H175.656L173.982 167.028L175.892 169.8H174.878L173.46 167.575L172.023 169.8ZM181.139 168.667C181.139 168.878 181.173 169.03 181.242 169.125C181.311 169.221 181.418 169.289 181.562 169.332L181.361 169.913C181.137 169.883 180.942 169.813 180.775 169.701C180.607 169.586 180.486 169.414 180.41 169.184C180.223 169.424 179.989 169.606 179.706 169.731C179.427 169.852 179.121 169.913 178.786 169.913C178.267 169.913 177.859 169.767 177.56 169.475C177.261 169.183 177.112 168.795 177.112 168.313C177.112 167.778 177.32 167.368 177.737 167.082C178.154 166.797 178.756 166.654 179.544 166.654H180.307V166.221C180.307 165.847 180.197 165.582 179.977 165.428C179.761 165.271 179.459 165.192 179.071 165.192C178.901 165.192 178.7 165.213 178.471 165.256C178.241 165.295 177.992 165.362 177.722 165.458L177.506 164.832C177.821 164.714 178.118 164.631 178.397 164.581C178.679 164.532 178.947 164.507 179.199 164.507C179.843 164.507 180.327 164.658 180.652 164.96C180.977 165.262 181.139 165.669 181.139 166.181V168.667ZM178.997 169.283C179.253 169.283 179.496 169.219 179.726 169.091C179.959 168.96 180.153 168.779 180.307 168.549V167.215H179.559C178.988 167.215 178.584 167.314 178.348 167.511C178.115 167.707 177.998 167.972 177.998 168.303C177.998 168.956 178.331 169.283 178.997 169.283ZM186.75 164.507C186.914 164.507 187.073 164.544 187.227 164.616C187.382 164.688 187.508 164.827 187.607 165.034C187.705 165.241 187.754 165.543 187.754 165.94V169.8H186.986V166.073C186.986 165.748 186.967 165.513 186.927 165.369C186.888 165.225 186.775 165.152 186.587 165.152C186.433 165.152 186.279 165.202 186.125 165.3C185.97 165.395 185.823 165.553 185.682 165.773V169.8H184.909V166.073C184.909 165.748 184.889 165.513 184.85 165.369C184.81 165.225 184.697 165.152 184.51 165.152C184.349 165.152 184.193 165.202 184.042 165.3C183.891 165.395 183.745 165.553 183.604 165.773V169.8H182.841V164.616H183.491L183.54 165.216C183.681 165.016 183.839 164.849 184.013 164.714C184.19 164.576 184.408 164.507 184.667 164.507C184.864 164.507 185.05 164.555 185.224 164.65C185.398 164.742 185.526 164.923 185.608 165.192C185.749 164.988 185.908 164.824 186.085 164.699C186.263 164.571 186.484 164.507 186.75 164.507ZM191.558 164.507C192.018 164.507 192.384 164.619 192.656 164.842C192.932 165.065 193.13 165.381 193.252 165.787C193.373 166.191 193.434 166.664 193.434 167.205C193.434 167.727 193.36 168.193 193.212 168.603C193.068 169.01 192.848 169.33 192.553 169.563C192.257 169.797 191.885 169.913 191.435 169.913C190.867 169.913 190.411 169.713 190.067 169.312V171.784L189.24 171.887V164.616H189.944L190.012 165.339C190.203 165.074 190.429 164.869 190.692 164.724C190.954 164.58 191.243 164.507 191.558 164.507ZM191.361 165.172C191.076 165.172 190.823 165.259 190.603 165.433C190.383 165.604 190.204 165.794 190.067 166.004V168.574C190.201 168.774 190.37 168.933 190.574 169.051C190.78 169.166 191.007 169.224 191.253 169.224C191.683 169.224 192.006 169.06 192.223 168.731C192.44 168.403 192.548 167.893 192.548 167.2C192.548 165.848 192.152 165.172 191.361 165.172ZM197.164 162.528V168.52C197.164 168.776 197.243 168.958 197.401 169.066C197.561 169.171 197.768 169.224 198.021 169.224C198.175 169.224 198.323 169.207 198.464 169.175C198.608 169.142 198.751 169.097 198.892 169.042L199.114 169.647C198.973 169.716 198.797 169.777 198.587 169.829C198.38 169.885 198.146 169.913 197.883 169.913C197.424 169.913 197.051 169.787 196.765 169.534C196.48 169.278 196.337 168.925 196.337 168.475V163.183H194.747V162.528H197.164ZM201.702 167.501C201.725 168.101 201.882 168.539 202.175 168.815C202.47 169.088 202.818 169.224 203.218 169.224C203.484 169.224 203.724 169.184 203.937 169.106C204.15 169.027 204.372 168.91 204.602 168.756L204.991 169.303C204.751 169.493 204.475 169.642 204.163 169.751C203.852 169.859 203.533 169.913 203.208 169.913C202.703 169.913 202.273 169.8 201.919 169.573C201.567 169.347 201.298 169.032 201.111 168.628C200.927 168.221 200.835 167.75 200.835 167.215C200.835 166.69 200.927 166.224 201.111 165.817C201.298 165.41 201.561 165.09 201.899 164.857C202.24 164.624 202.641 164.507 203.1 164.507C203.753 164.507 204.267 164.734 204.641 165.187C205.018 165.64 205.207 166.26 205.207 167.048C205.207 167.136 205.204 167.22 205.197 167.299C205.194 167.378 205.191 167.445 205.187 167.501H201.702ZM203.11 165.187C202.726 165.187 202.404 165.323 202.145 165.595C201.886 165.868 201.74 166.29 201.707 166.861H204.41C204.4 166.306 204.278 165.889 204.045 165.61C203.812 165.328 203.5 165.187 203.11 165.187ZM208.051 169.042C208.051 168.802 208.133 168.599 208.297 168.431C208.461 168.264 208.667 168.18 208.913 168.18C209.162 168.18 209.369 168.264 209.533 168.431C209.7 168.599 209.784 168.802 209.784 169.042C209.784 169.285 209.7 169.491 209.533 169.662C209.369 169.829 209.162 169.913 208.913 169.913C208.667 169.913 208.461 169.829 208.297 169.662C208.133 169.491 208.051 169.285 208.051 169.042ZM217.187 164.616L215.301 169.8H214.341L212.471 164.616H213.347L214.849 169.047L216.33 164.616H217.187ZM222.483 168.667C222.483 168.878 222.517 169.03 222.586 169.125C222.655 169.221 222.762 169.289 222.906 169.332L222.704 169.913C222.481 169.883 222.286 169.813 222.118 169.701C221.951 169.586 221.83 169.414 221.754 169.184C221.567 169.424 221.332 169.606 221.05 169.731C220.771 169.852 220.464 169.913 220.13 169.913C219.611 169.913 219.202 169.767 218.904 169.475C218.605 169.183 218.456 168.795 218.456 168.313C218.456 167.778 218.664 167.368 219.081 167.082C219.498 166.797 220.1 166.654 220.888 166.654H221.651V166.221C221.651 165.847 221.541 165.582 221.321 165.428C221.104 165.271 220.802 165.192 220.415 165.192C220.244 165.192 220.044 165.213 219.814 165.256C219.585 165.295 219.335 165.362 219.066 165.458L218.85 164.832C219.165 164.714 219.462 164.631 219.741 164.581C220.023 164.532 220.29 164.507 220.543 164.507C221.186 164.507 221.67 164.658 221.995 164.96C222.32 165.262 222.483 165.669 222.483 166.181V168.667ZM220.341 169.283C220.597 169.283 220.84 169.219 221.07 169.091C221.303 168.96 221.497 168.779 221.651 168.549V167.215H220.902C220.331 167.215 219.928 167.314 219.691 167.511C219.458 167.707 219.342 167.972 219.342 168.303C219.342 168.956 219.675 169.283 220.341 169.283ZM226.696 162.528V168.52C226.696 168.776 226.774 168.958 226.932 169.066C227.093 169.171 227.299 169.224 227.552 169.224C227.706 169.224 227.854 169.207 227.995 169.175C228.14 169.142 228.282 169.097 228.423 169.042L228.645 169.647C228.504 169.716 228.328 169.777 228.118 169.829C227.911 169.885 227.677 169.913 227.414 169.913C226.955 169.913 226.582 169.787 226.297 169.534C226.011 169.278 225.868 168.925 225.868 168.475V163.183H224.278V162.528H226.696ZM231.41 164.616V168.288C231.41 168.63 231.481 168.876 231.622 169.027C231.763 169.178 231.983 169.253 232.282 169.253C232.567 169.253 232.836 169.173 233.089 169.012C233.345 168.848 233.544 168.654 233.685 168.431V164.616H234.512V169.8H233.808L233.739 169.101C233.535 169.363 233.283 169.565 232.981 169.706C232.682 169.844 232.382 169.913 232.08 169.913C231.578 169.913 231.202 169.78 230.953 169.514C230.706 169.245 230.583 168.869 230.583 168.387V164.616H231.41ZM237.139 167.501C237.162 168.101 237.32 168.539 237.612 168.815C237.907 169.088 238.255 169.224 238.656 169.224C238.922 169.224 239.161 169.184 239.374 169.106C239.588 169.027 239.809 168.91 240.039 168.756L240.428 169.303C240.188 169.493 239.913 169.642 239.601 169.751C239.289 169.859 238.971 169.913 238.646 169.913C238.14 169.913 237.71 169.8 237.356 169.573C237.005 169.347 236.736 169.032 236.549 168.628C236.365 168.221 236.273 167.75 236.273 167.215C236.273 166.69 236.365 166.224 236.549 165.817C236.736 165.41 236.998 165.09 237.336 164.857C237.678 164.624 238.078 164.507 238.538 164.507C239.191 164.507 239.704 164.734 240.078 165.187C240.456 165.64 240.645 166.26 240.645 167.048C240.645 167.136 240.641 167.22 240.635 167.299C240.631 167.378 240.628 167.445 240.625 167.501H237.139ZM238.547 165.187C238.163 165.187 237.842 165.323 237.582 165.595C237.323 165.868 237.177 166.29 237.144 166.861H239.847C239.837 166.306 239.716 165.889 239.483 165.61C239.25 165.328 238.938 165.187 238.547 165.187ZM242.868 161.672C243.236 161.672 243.581 161.716 243.902 161.805C244.224 161.893 244.477 162.049 244.66 162.272C244.844 162.492 244.913 162.804 244.867 163.208L244.67 165.088C244.634 165.423 244.721 165.679 244.931 165.856C245.141 166.034 245.55 166.122 246.157 166.122V166.782C245.553 166.782 245.145 166.872 244.931 167.053C244.721 167.233 244.634 167.491 244.67 167.826L244.867 169.696C244.91 170.1 244.839 170.412 244.655 170.632C244.475 170.855 244.224 171.011 243.902 171.099C243.581 171.188 243.236 171.232 242.868 171.232V170.583C243.108 170.583 243.325 170.56 243.518 170.514C243.715 170.468 243.868 170.387 243.976 170.272C244.084 170.158 244.129 169.998 244.109 169.795L243.902 167.776C243.856 167.34 243.915 167.026 244.079 166.836C244.247 166.646 244.531 166.521 244.931 166.462C244.544 166.396 244.265 166.262 244.094 166.058C243.924 165.851 243.86 165.541 243.902 165.128L244.109 163.109C244.129 162.909 244.084 162.752 243.976 162.637C243.868 162.522 243.717 162.441 243.523 162.395C243.33 162.346 243.111 162.322 242.868 162.322V161.672ZM248.775 161.672C249.142 161.672 249.487 161.716 249.809 161.805C250.13 161.893 250.383 162.049 250.567 162.272C250.75 162.492 250.819 162.804 250.773 163.208L250.576 165.088C250.54 165.423 250.627 165.679 250.837 165.856C251.047 166.034 251.456 166.122 252.063 166.122V166.782C251.459 166.782 251.051 166.872 250.837 167.053C250.627 167.233 250.54 167.491 250.576 167.826L250.773 169.696C250.816 170.1 250.746 170.412 250.562 170.632C250.381 170.855 250.13 171.011 249.809 171.099C249.487 171.188 249.142 171.232 248.775 171.232V170.583C249.014 170.583 249.231 170.56 249.425 170.514C249.621 170.468 249.774 170.387 249.882 170.272C249.991 170.158 250.035 169.998 250.015 169.795L249.809 167.776C249.763 167.34 249.822 167.026 249.986 166.836C250.153 166.646 250.437 166.521 250.837 166.462C250.45 166.396 250.171 166.262 250.001 166.058C249.83 165.851 249.766 165.541 249.809 165.128L250.015 163.109C250.035 162.909 249.991 162.752 249.882 162.637C249.774 162.522 249.623 162.441 249.429 162.395C249.236 162.346 249.018 162.322 248.775 162.322V161.672Z" fill="#A9AEB8"/>
<g clip-path="url(#clip2_5970_53960)">
<path d="M273.8 166.8C273.8 165.917 274.516 165.2 275.4 165.2H285C285.884 165.2 286.6 165.917 286.6 166.8V173.2C286.6 175.851 284.451 178 281.8 178H275.4C274.516 178 273.8 177.284 273.8 176.4V166.8Z" fill="#E5E6EB"/>
<path d="M279.7 168.6H277.8C277.469 168.6 277.2 168.869 277.2 169.2V171.1M281.7 168.6H282C282.663 168.6 283.2 169.137 283.2 169.8V171.1V171.6V172.1V173.4C283.2 174.063 282.663 174.6 282 174.6H280.7H279.7H278.4C277.737 174.6 277.2 174.063 277.2 173.4V173.1" stroke="#A9AEB8" stroke-width="0.9" stroke-linecap="round"/>
<path d="M277.8 169.2L280.5 171.9" stroke="#A9AEB8" stroke-width="0.9" stroke-linecap="round"/>
</g>
<rect x="128.6" y="154.4" width="159.2" height="24.8" rx="6" stroke="#E5E6EB" stroke-width="0.8"/>
<g clip-path="url(#clip3_5970_53960)">
<path d="M26.6512 201.603H29.9664C30.5787 201.603 31.1088 201.708 31.5568 201.917C32.0048 202.126 32.3707 202.413 32.6544 202.779C32.9381 203.138 33.1472 203.56 33.2816 204.045C33.4235 204.53 33.4944 205.049 33.4944 205.602C33.4944 206.154 33.4235 206.673 33.2816 207.158C33.1472 207.644 32.9381 208.069 32.6544 208.435C32.3707 208.794 32.0048 209.077 31.5568 209.286C31.1088 209.496 30.5787 209.6 29.9664 209.6H26.6512V201.603ZM28.0512 208.458H29.4288C29.9739 208.458 30.4181 208.387 30.7616 208.245C31.1125 208.096 31.3851 207.894 31.5792 207.64C31.7808 207.379 31.9152 207.076 31.9824 206.733C32.0571 206.382 32.0944 206.005 32.0944 205.602C32.0944 205.198 32.0571 204.825 31.9824 204.482C31.9152 204.131 31.7808 203.828 31.5792 203.574C31.3851 203.313 31.1125 203.112 30.7616 202.97C30.4181 202.82 29.9739 202.746 29.4288 202.746H28.0512V208.458ZM38.5308 206.195C38.5159 205.994 38.4711 205.8 38.3964 205.613C38.3292 205.426 38.2321 205.266 38.1052 205.131C37.9857 204.989 37.8364 204.877 37.6572 204.795C37.4855 204.706 37.2913 204.661 37.0748 204.661C36.8508 204.661 36.6455 204.702 36.4588 204.784C36.2796 204.859 36.1228 204.967 35.9884 205.109C35.8615 205.243 35.7569 205.404 35.6748 205.59C35.6001 205.777 35.5591 205.979 35.5516 206.195H38.5308ZM35.5516 207.035C35.5516 207.259 35.5815 207.476 35.6412 207.685C35.7084 207.894 35.8055 208.077 35.9324 208.234C36.0593 208.39 36.2199 208.517 36.414 208.614C36.6081 208.704 36.8396 208.749 37.1084 208.749C37.4817 208.749 37.7804 208.67 38.0044 208.514C38.2359 208.349 38.4076 208.107 38.5196 207.786H39.7292C39.662 208.099 39.5463 208.379 39.382 208.626C39.2177 208.872 39.0199 209.081 38.7884 209.253C38.5569 209.417 38.2956 209.54 38.0044 209.622C37.7207 209.712 37.422 209.757 37.1084 209.757C36.6529 209.757 36.2497 209.682 35.8988 209.533C35.5479 209.384 35.2492 209.174 35.0028 208.906C34.7639 208.637 34.5809 208.316 34.454 207.942C34.3345 207.569 34.2748 207.158 34.2748 206.71C34.2748 206.3 34.3383 205.912 34.4652 205.546C34.5996 205.172 34.7863 204.848 35.0252 204.571C35.2716 204.288 35.5665 204.064 35.91 203.899C36.2535 203.735 36.6417 203.653 37.0748 203.653C37.5303 203.653 37.9372 203.75 38.2956 203.944C38.6615 204.131 38.9639 204.381 39.2028 204.694C39.4417 205.008 39.6135 205.37 39.718 205.781C39.83 206.184 39.8599 206.602 39.8076 207.035H35.5516ZM40.8119 201.603H42.0887V204.56H42.1111C42.2007 204.418 42.3089 204.291 42.4359 204.179C42.5628 204.067 42.7009 203.974 42.8503 203.899C43.0071 203.817 43.1676 203.757 43.3319 203.72C43.5036 203.675 43.6716 203.653 43.8359 203.653C44.2913 203.653 44.6871 203.735 45.0231 203.899C45.3665 204.056 45.6503 204.276 45.8743 204.56C46.0983 204.836 46.2663 205.161 46.3783 205.534C46.4903 205.908 46.5463 206.307 46.5463 206.733C46.5463 207.121 46.494 207.498 46.3895 207.864C46.2924 208.23 46.1393 208.555 45.9303 208.838C45.7287 209.115 45.4711 209.339 45.1575 209.51C44.8439 209.675 44.4743 209.757 44.0487 209.757C43.8545 209.757 43.6567 209.742 43.4551 209.712C43.2609 209.69 43.0743 209.641 42.8951 209.566C42.7159 209.492 42.5516 209.395 42.4023 209.275C42.2604 209.156 42.1409 208.999 42.0439 208.805H42.0215V209.6H40.8119V201.603ZM45.2695 206.71C45.2695 206.449 45.2359 206.195 45.1687 205.949C45.1015 205.702 45.0007 205.486 44.8663 205.299C44.7319 205.105 44.5639 204.952 44.3623 204.84C44.1607 204.721 43.9292 204.661 43.6679 204.661C43.1303 204.661 42.7233 204.848 42.4471 205.221C42.1783 205.594 42.0439 206.091 42.0439 206.71C42.0439 207.002 42.0775 207.274 42.1447 207.528C42.2193 207.774 42.3276 207.987 42.4695 208.166C42.6113 208.346 42.7793 208.488 42.9735 208.592C43.1751 208.697 43.4065 208.749 43.6679 208.749C43.9591 208.749 44.2055 208.689 44.4071 208.57C44.6087 208.45 44.7729 208.297 44.8999 208.11C45.0343 207.916 45.1276 207.7 45.1799 207.461C45.2396 207.214 45.2695 206.964 45.2695 206.71ZM52.7099 209.6H51.4555V208.794H51.4331C51.2763 209.085 51.0411 209.32 50.7275 209.499C50.4214 209.671 50.1078 209.757 49.7867 209.757C49.0251 209.757 48.4726 209.57 48.1291 209.197C47.7931 208.816 47.6251 208.245 47.6251 207.483V203.81H48.9019V207.36C48.9019 207.868 48.999 208.226 49.1931 208.435C49.3873 208.644 49.6598 208.749 50.0107 208.749C50.2795 208.749 50.5035 208.708 50.6827 208.626C50.8619 208.544 51.0075 208.435 51.1195 208.301C51.2315 208.159 51.3099 207.991 51.3547 207.797C51.407 207.603 51.4331 207.394 51.4331 207.17V203.81H52.7099V209.6ZM54.0564 203.81H55.266V204.661L55.2884 204.683C55.4825 204.362 55.7364 204.112 56.05 203.933C56.3636 203.746 56.7108 203.653 57.0916 203.653C57.7262 203.653 58.2265 203.817 58.5924 204.146C58.9582 204.474 59.1412 204.967 59.1412 205.624V209.6H57.8644V205.96C57.8494 205.505 57.7524 205.176 57.5732 204.974C57.394 204.765 57.114 204.661 56.7332 204.661C56.5166 204.661 56.3225 204.702 56.1508 204.784C55.979 204.859 55.8334 204.967 55.714 205.109C55.5945 205.243 55.5012 205.404 55.434 205.59C55.3668 205.777 55.3332 205.975 55.3332 206.184V209.6H54.0564V203.81ZM64.3964 205.747C64.3442 205.389 64.1986 205.12 63.9596 204.941C63.7282 204.754 63.4332 204.661 63.0748 204.661C62.9106 204.661 62.7351 204.691 62.5484 204.75C62.3618 204.803 62.19 204.907 62.0332 205.064C61.8764 205.213 61.7458 205.426 61.6412 205.702C61.5367 205.971 61.4844 206.326 61.4844 206.766C61.4844 207.005 61.5106 207.244 61.5628 207.483C61.6226 207.722 61.7122 207.935 61.8316 208.122C61.9586 208.308 62.1191 208.461 62.3132 208.581C62.5074 208.693 62.7426 208.749 63.0188 208.749C63.3922 208.749 63.6983 208.633 63.9372 208.402C64.1836 208.17 64.3367 207.845 64.3964 207.427H65.6732C65.5538 208.181 65.2663 208.76 64.8108 209.163C64.3628 209.559 63.7655 209.757 63.0188 209.757C62.5634 209.757 62.1602 209.682 61.8092 209.533C61.4658 209.376 61.1746 209.167 60.9356 208.906C60.6967 208.637 60.5138 208.32 60.3868 207.954C60.2674 207.588 60.2076 207.192 60.2076 206.766C60.2076 206.333 60.2674 205.926 60.3868 205.546C60.5063 205.165 60.6855 204.836 60.9244 204.56C61.1634 204.276 61.4583 204.056 61.8092 203.899C62.1676 203.735 62.5858 203.653 63.0636 203.653C63.3996 203.653 63.717 203.698 64.0156 203.787C64.3218 203.869 64.5906 203.996 64.822 204.168C65.061 204.34 65.2551 204.556 65.4044 204.818C65.5538 205.079 65.6434 205.389 65.6732 205.747H64.3964ZM70.6871 206.195C70.6721 205.994 70.6273 205.8 70.5527 205.613C70.4855 205.426 70.3884 205.266 70.2615 205.131C70.142 204.989 69.9927 204.877 69.8135 204.795C69.6417 204.706 69.4476 204.661 69.2311 204.661C69.0071 204.661 68.8017 204.702 68.6151 204.784C68.4359 204.859 68.2791 204.967 68.1447 205.109C68.0177 205.243 67.9132 205.404 67.8311 205.59C67.7564 205.777 67.7153 205.979 67.7079 206.195H70.6871ZM67.7079 207.035C67.7079 207.259 67.7377 207.476 67.7975 207.685C67.8647 207.894 67.9617 208.077 68.0887 208.234C68.2156 208.39 68.3761 208.517 68.5703 208.614C68.7644 208.704 68.9959 208.749 69.2647 208.749C69.638 208.749 69.9367 208.67 70.1607 208.514C70.3921 208.349 70.5639 208.107 70.6759 207.786H71.8855C71.8183 208.099 71.7025 208.379 71.5383 208.626C71.374 208.872 71.1761 209.081 70.9447 209.253C70.7132 209.417 70.4519 209.54 70.1607 209.622C69.8769 209.712 69.5783 209.757 69.2647 209.757C68.8092 209.757 68.406 209.682 68.0551 209.533C67.7041 209.384 67.4055 209.174 67.1591 208.906C66.9201 208.637 66.7372 208.316 66.6103 207.942C66.4908 207.569 66.4311 207.158 66.4311 206.71C66.4311 206.3 66.4945 205.912 66.6215 205.546C66.7559 205.172 66.9425 204.848 67.1815 204.571C67.4279 204.288 67.7228 204.064 68.0663 203.899C68.4097 203.735 68.798 203.653 69.2311 203.653C69.6865 203.653 70.0935 203.75 70.4519 203.944C70.8177 204.131 71.1201 204.381 71.3591 204.694C71.598 205.008 71.7697 205.37 71.8743 205.781C71.9863 206.184 72.0161 206.602 71.9639 207.035H67.7079Z" fill="#0B0C0F"/>
<path fill-rule="evenodd" clip-rule="evenodd" d="M87.2083 203.961C86.9654 203.735 86.5858 203.749 86.3603 203.992L84.2 206.319L82.0397 203.992C81.8142 203.749 81.4345 203.735 81.1917 203.961C80.9489 204.186 80.9348 204.566 81.1603 204.809L83.7603 207.609C83.8738 207.731 84.0331 207.8 84.2 207.8C84.3668 207.8 84.5261 207.731 84.6397 207.609L87.2397 204.809C87.4651 204.566 87.4511 204.186 87.2083 203.961Z" fill="#0B0C0F"/>
<line x1="25.8" y1="213.8" x2="73" y2="213.8" stroke="#C9CDD4" stroke-width="0.8" stroke-dasharray="1.6 1.6"/>
</g>
<path d="M144.446 200.365C145.296 200.365 145.939 200.717 146.376 201.421C146.816 202.126 147.037 203.133 147.037 204.443C147.037 205.756 146.816 206.767 146.376 207.475C145.939 208.18 145.296 208.532 144.446 208.532C143.596 208.532 142.951 208.18 142.511 207.475C142.074 206.767 141.856 205.756 141.856 204.443C141.856 203.133 142.074 202.126 142.511 201.421C142.951 200.717 143.596 200.365 144.446 200.365ZM144.446 201.14C143.96 201.14 143.577 201.398 143.297 201.915C143.018 202.428 142.878 203.271 142.878 204.443C142.878 205.319 142.945 206.009 143.079 206.51L145.497 201.651C145.256 201.31 144.906 201.14 144.446 201.14ZM146.02 204.443C146.02 203.558 145.951 202.867 145.813 202.369L143.407 207.245C143.648 207.582 143.994 207.751 144.446 207.751C144.936 207.751 145.321 207.492 145.601 206.975C145.88 206.459 146.02 205.614 146.02 204.443Z" fill="#0B0C0F"/>
<path fill-rule="evenodd" clip-rule="evenodd" d="M273.608 203.961C273.365 203.735 272.986 203.749 272.76 203.992L270.6 206.319L268.44 203.992C268.214 203.749 267.835 203.735 267.592 203.961C267.349 204.186 267.335 204.566 267.56 204.809L270.16 207.609C270.274 207.731 270.433 207.8 270.6 207.8C270.767 207.8 270.926 207.731 271.04 207.609L273.64 204.809C273.865 204.566 273.851 204.186 273.608 203.961Z" fill="#0B0C0F"/>
<rect x="128.6" y="192.8" width="159.2" height="25.2" rx="6" stroke="#E5E6EB" stroke-width="0.8"/>
</g>
<defs>
<filter id="filter0_d_5970_53960" x="0.2" y="0.400097" width="313.6" height="245.2" filterUnits="userSpaceOnUse" color-interpolation-filters="sRGB">
<feFlood flood-opacity="0" result="BackgroundImageFix"/>
<feColorMatrix in="SourceAlpha" type="matrix" values="0 0 0 0 0 0 0 0 0 0 0 0 0 0 0 0 0 0 127 0" result="hardAlpha"/>
<feOffset dy="1.6"/>
<feGaussianBlur stdDeviation="6.4"/>
<feComposite in2="hardAlpha" operator="out"/>
<feColorMatrix type="matrix" values="0 0 0 0 0.0843056 0 0 0 0 0.0590278 0 0 0 0 0.104167 0 0 0 0.16 0"/>
<feBlend mode="normal" in2="BackgroundImageFix" result="effect1_dropShadow_5970_53960"/>
<feBlend mode="normal" in="SourceGraphic" in2="effect1_dropShadow_5970_53960" result="shape"/>
</filter>
<clipPath id="clip0_5970_53960">
<rect width="89.6" height="17.6" fill="white" transform="translate(25.8 106.6)"/>
</clipPath>
<clipPath id="clip1_5970_53960">
<rect width="89.6" height="17.6" fill="white" transform="translate(25.8 158)"/>
</clipPath>
<clipPath id="clip2_5970_53960">
<rect width="14.4" height="25.6" fill="white" transform="translate(273.8 154)"/>
</clipPath>
<clipPath id="clip3_5970_53960">
<rect width="89.6" height="17.6" fill="white" transform="translate(25.8 196.6)"/>
</clipPath>
</defs>
</svg>
