<svg width="140" height="143" viewBox="0 0 140 143" fill="none" xmlns="http://www.w3.org/2000/svg">
<g filter="url(#filter0_d_6213_8218)">
<path d="M129.968 40.6083C128.848 89.5451 98.4857 132.819 70 132.819C41.5143 132.819 11.1518 89.5451 10.0319 40.6083C9.99472 38.9813 11.1485 37.5676 12.732 37.1921C44.547 29.6474 60.6783 17.3569 66.8843 11.5172C68.5488 9.95091 71.4512 9.95091 73.1157 11.5172C79.3217 17.3569 95.453 29.6474 127.268 37.1921C128.852 37.5676 130.005 38.9813 129.968 40.6083Z" fill="#161616" shape-rendering="crispEdges"/>
<path d="M70 133.569C84.6147 133.569 99.524 122.499 110.87 105.481C122.24 88.4272 130.155 65.2361 130.718 40.6255C130.764 38.6244 129.349 36.9148 127.441 36.4623C95.7552 28.9483 79.7411 16.7216 73.6297 10.971C71.6764 9.13297 68.3236 9.13298 66.3703 10.971C60.2589 16.7217 44.2448 28.9483 12.5589 36.4623C10.6511 36.9148 9.23635 38.6244 9.28215 40.6255C9.84534 65.2361 17.7595 88.4272 29.1298 105.481C40.476 122.499 55.3853 133.569 70 133.569Z" stroke="white" stroke-opacity="0.04" stroke-width="1.5" shape-rendering="crispEdges"/>
</g>
<g filter="url(#filter1_d_6213_8218)">
<path d="M117.974 48.8006C117.079 87.95 92.7886 122.569 70 122.569C47.2114 122.569 22.9215 87.95 22.0256 48.8006C21.9958 47.499 22.9188 46.368 24.1856 46.0676C49.6376 40.0318 62.5426 30.1994 67.5074 25.5276C68.839 24.2746 71.161 24.2746 72.4926 25.5276C77.4574 30.1994 90.3624 40.0318 115.814 46.0676C117.081 46.368 118.004 47.499 117.974 48.8006Z" fill="#1B1B1B" shape-rendering="crispEdges"/>
<path d="M70 123.319C81.7661 123.319 93.7331 114.413 102.821 100.782C111.933 87.1152 118.273 68.5346 118.724 48.8177C118.763 47.142 117.579 45.7151 115.987 45.3378C90.6646 39.3327 77.8768 29.5642 73.0066 24.9814C71.3862 23.4567 68.6138 23.4567 66.9934 24.9814C62.1232 29.5642 49.3354 39.3327 24.0125 45.3378C22.4214 45.7151 21.2374 47.142 21.2758 48.8177C21.727 68.5346 28.067 87.1152 37.179 100.782C46.2669 114.413 58.2339 123.319 70 123.319Z" stroke="white" stroke-opacity="0.04" stroke-width="1.5" shape-rendering="crispEdges"/>
</g>
<g filter="url(#filter2_d_6213_8218)">
<path d="M105.981 54.7844C105.309 84.1465 87.0914 110.111 70 110.111C52.9086 110.111 34.6911 84.1465 34.0192 54.7844C33.9968 53.8082 34.6891 52.96 35.6392 52.7347C54.7282 48.2079 64.407 40.8335 68.1306 37.3297C69.1293 36.39 70.8707 36.39 71.8694 37.3297C75.593 40.8335 85.2718 48.2079 104.361 52.7347C105.311 52.96 106.003 53.8082 105.981 54.7844Z" fill="#242424" shape-rendering="crispEdges"/>
<path d="M70 110.861C78.9175 110.861 87.9421 104.118 94.7718 93.8746C101.625 83.5948 106.391 69.6248 106.731 54.8016C106.762 53.4512 105.808 52.3071 104.534 52.0049C85.574 47.5087 76.0124 40.1983 72.3834 36.7835C71.0959 35.572 68.9041 35.572 67.6166 36.7835C63.9876 40.1983 54.426 47.5087 35.4661 52.0049C34.1917 52.3071 33.2385 53.4512 33.2694 54.8016C33.6086 69.6248 38.3745 83.5948 45.2282 93.8746C52.0579 104.118 61.0825 110.861 70 110.861Z" stroke="white" stroke-opacity="0.04" stroke-width="1.5" shape-rendering="crispEdges"/>
</g>
<g filter="url(#filter3_d_6213_8218)">
<path d="M93.9872 60.7683C93.5393 80.343 81.3943 97.6527 70 97.6527C58.6057 97.6527 46.4607 80.343 46.0128 60.7683C45.9979 60.1175 46.4594 59.552 47.0928 59.4018C59.8188 56.3839 66.2713 51.4677 68.7537 49.1318C69.4195 48.5053 70.5805 48.5053 71.2463 49.1318C73.7287 51.4677 80.1812 56.3839 92.9072 59.4018C93.5406 59.552 94.0021 60.1175 93.9872 60.7683Z" fill="#5B6E70"/>
<path d="M70 98.4027C76.0689 98.4027 82.1511 93.8236 86.7225 86.9671C91.3179 80.0744 94.5098 70.715 94.737 60.7854C94.7605 59.7605 94.038 58.8991 93.0803 58.672C80.4834 55.6848 74.1481 50.8325 71.7603 48.5856C70.8057 47.6874 69.1943 47.6874 68.2397 48.5856C65.8519 50.8325 59.5166 55.6848 46.9197 58.672C45.962 58.8991 45.2395 59.7605 45.263 60.7854C45.4902 70.715 48.6821 80.0744 53.2775 86.9671C57.8489 93.8236 63.9311 98.4027 70 98.4027Z" stroke="#2E2E2E" stroke-width="1.5"/>
</g>
<defs>
<filter id="filter0_d_6213_8218" x="0.531006" y="0.842476" width="138.938" height="141.477" filterUnits="userSpaceOnUse" color-interpolation-filters="sRGB">
<feFlood flood-opacity="0" result="BackgroundImageFix"/>
<feColorMatrix in="SourceAlpha" type="matrix" values="0 0 0 0 0 0 0 0 0 0 0 0 0 0 0 0 0 0 127 0" result="hardAlpha"/>
<feOffset/>
<feGaussianBlur stdDeviation="4"/>
<feComposite in2="hardAlpha" operator="out"/>
<feColorMatrix type="matrix" values="0 0 0 0 0 0 0 0 0 0 0 0 0 0 0 0 0 0 0.08 0"/>
<feBlend mode="normal" in2="BackgroundImageFix" result="effect1_dropShadow_6213_8218"/>
<feBlend mode="normal" in="SourceGraphic" in2="effect1_dropShadow_6213_8218" result="shape"/>
</filter>
<filter id="filter1_d_6213_8218" x="12.5249" y="15.0879" width="114.95" height="116.982" filterUnits="userSpaceOnUse" color-interpolation-filters="sRGB">
<feFlood flood-opacity="0" result="BackgroundImageFix"/>
<feColorMatrix in="SourceAlpha" type="matrix" values="0 0 0 0 0 0 0 0 0 0 0 0 0 0 0 0 0 0 127 0" result="hardAlpha"/>
<feOffset/>
<feGaussianBlur stdDeviation="4"/>
<feComposite in2="hardAlpha" operator="out"/>
<feColorMatrix type="matrix" values="0 0 0 0 0 0 0 0 0 0 0 0 0 0 0 0 0 0 0.08 0"/>
<feBlend mode="normal" in2="BackgroundImageFix" result="effect1_dropShadow_6213_8218"/>
<feBlend mode="normal" in="SourceGraphic" in2="effect1_dropShadow_6213_8218" result="shape"/>
</filter>
<filter id="filter2_d_6213_8218" x="24.5186" y="27.1249" width="90.9629" height="92.4862" filterUnits="userSpaceOnUse" color-interpolation-filters="sRGB">
<feFlood flood-opacity="0" result="BackgroundImageFix"/>
<feColorMatrix in="SourceAlpha" type="matrix" values="0 0 0 0 0 0 0 0 0 0 0 0 0 0 0 0 0 0 127 0" result="hardAlpha"/>
<feOffset/>
<feGaussianBlur stdDeviation="4"/>
<feComposite in2="hardAlpha" operator="out"/>
<feColorMatrix type="matrix" values="0 0 0 0 0 0 0 0 0 0 0 0 0 0 0 0 0 0 0.08 0"/>
<feBlend mode="normal" in2="BackgroundImageFix" result="effect1_dropShadow_6213_8218"/>
<feBlend mode="normal" in="SourceGraphic" in2="effect1_dropShadow_6213_8218" result="shape"/>
</filter>
<filter id="filter3_d_6213_8218" x="36.5125" y="39.1619" width="66.9751" height="67.9908" filterUnits="userSpaceOnUse" color-interpolation-filters="sRGB">
<feFlood flood-opacity="0" result="BackgroundImageFix"/>
<feColorMatrix in="SourceAlpha" type="matrix" values="0 0 0 0 0 0 0 0 0 0 0 0 0 0 0 0 0 0 127 0" result="hardAlpha"/>
<feOffset/>
<feGaussianBlur stdDeviation="4"/>
<feComposite in2="hardAlpha" operator="out"/>
<feColorMatrix type="matrix" values="0 0 0 0 0 0 0 0 0 0 0 0 0 0 0 0 0 0 0.08 0"/>
<feBlend mode="normal" in2="BackgroundImageFix" result="effect1_dropShadow_6213_8218"/>
<feBlend mode="normal" in="SourceGraphic" in2="effect1_dropShadow_6213_8218" result="shape"/>
</filter>
</defs>
</svg>
