<svg width="48" height="48" viewBox="0 0 48 48" fill="none" xmlns="http://www.w3.org/2000/svg">
	<rect x="0.5" y="0.5" width="47" height="47" rx="23.5" fill="white" />
	<path d="M18.5492 20.2308V33.1556H14.254V20.2308H18.5492Z" fill="currentColor" />
	<path d="M18.8318 16.2326C18.8318 17.4741 17.8998 18.4651 16.4025 18.4651H16.3739C14.932 18.4651 14 17.4741 14 16.2326C14 14.966 14.9606 14 16.4311 14C17.9016 14 18.805 14.9642 18.8318 16.2326Z" fill="currentColor" />
	<path d="M25.1825 25.9374V33.1556H20.8891C20.8891 33.1556 20.9428 21.4436 20.8891 20.2308H25.1825V22.059C25.7549 21.1771 26.7764 19.9249 29.0555 19.9249C31.8819 19.9249 34 21.771 34 25.7424V33.1556H29.7048V26.2415C29.7048 24.5027 29.0841 23.3184 27.5295 23.3184C26.3417 23.3184 25.6351 24.1181 25.3256 24.8891C25.2111 25.1646 25.1825 25.551 25.1825 25.9374Z" fill="currentColor" />
	<rect x="0.5" y="0.5" width="47" height="47" rx="23.5" stroke="#F2F3F5" />
</svg>
