<svg width="48" height="48" viewBox="0 0 48 48" fill="none" xmlns="http://www.w3.org/2000/svg">
	<rect x="0.5" y="0.5" width="47" height="47" rx="23.5" fill="white" />
	<g clip-path="url(#clip0_1546_1359)">
		<path d="M35.1 23.1751C35.1 21.8346 34.0157 20.7701 32.695 20.7701C32.0444 20.7701 31.453 21.0264 31.0193 21.4403C29.3634 20.2575 27.0964 19.4887 24.5731 19.3902L25.677 14.2253L29.2649 14.9941C29.3043 15.9009 30.0534 16.6303 30.9799 16.6303C31.9261 16.6303 32.695 15.8615 32.695 14.9153C32.695 13.969 31.9261 13.2002 30.9799 13.2002C30.3097 13.2002 29.7183 13.5945 29.4423 14.1661L25.4405 13.3185C25.3222 13.2988 25.2039 13.3185 25.1251 13.3776C25.0265 13.4368 24.9674 13.5353 24.9476 13.6536L23.7254 19.4099C21.1627 19.4887 18.8562 20.2575 17.1806 21.4601C16.7469 21.0461 16.1555 20.7898 15.505 20.7898C14.1645 20.7898 13.1 21.874 13.1 23.1948C13.1 24.1805 13.6914 25.0084 14.5193 25.383C14.4799 25.6196 14.4602 25.8561 14.4602 26.1124C14.4602 29.8185 18.7774 32.8346 24.1 32.8346C29.4226 32.8346 33.7398 29.8382 33.7398 26.1124C33.7398 25.8758 33.72 25.6196 33.6806 25.383C34.5086 25.0084 35.1 24.1608 35.1 23.1751ZM18.5803 24.8902C18.5803 23.9439 19.3491 23.1751 20.2953 23.1751C21.2416 23.1751 22.0104 23.9439 22.0104 24.8902C22.0104 25.8364 21.2416 26.6052 20.2953 26.6052C19.3491 26.6249 18.5803 25.8364 18.5803 24.8902ZM28.1806 29.4439C26.9978 30.6267 24.7505 30.7056 24.1 30.7056C23.4297 30.7056 21.1824 30.607 20.0193 29.4439C19.8419 29.2665 19.8419 28.9905 20.0193 28.8131C20.1967 28.6357 20.4727 28.6357 20.6502 28.8131C21.3993 29.5622 22.9763 29.8185 24.1 29.8185C25.2236 29.8185 26.8204 29.5622 27.5498 28.8131C27.7272 28.6357 28.0032 28.6357 28.1806 28.8131C28.3383 28.9905 28.3383 29.2665 28.1806 29.4439ZM27.8652 26.6249C26.919 26.6249 26.1502 25.8561 26.1502 24.9099C26.1502 23.9636 26.919 23.1948 27.8652 23.1948C28.8114 23.1948 29.5803 23.9636 29.5803 24.9099C29.5803 25.8364 28.8114 26.6249 27.8652 26.6249Z" fill="currentColor" />
	</g>
	<rect x="0.5" y="0.5" width="47" height="47" rx="23.5" stroke="#F2F3F5" />
	<defs>
		<clipPath id="clip0_1546_1359">
			<rect width="22" height="22" fill="white" transform="translate(13 13)" />
		</clipPath>
	</defs>
</svg>
