<svg width="48" height="48" viewBox="0 0 48 48" fill="none" xmlns="http://www.w3.org/2000/svg">
	<rect x="0.5" y="0.5" width="47" height="47" rx="23.5" fill="white" />
	<path d="M14.3745 23.137C19.7431 20.798 23.3253 19.2555 25.1164 18.5096C30.2295 16.3824 31.2954 16.0118 31.986 16.0003C32.2405 15.9949 32.4902 16.0698 32.6997 16.2144C32.8468 16.3421 32.9405 16.5204 32.9621 16.7139C32.9989 16.9538 33.0089 17.197 32.9921 17.4391C32.7158 20.3514 31.5164 27.4167 30.9063 30.6789C30.6485 32.0602 30.1397 32.5206 29.647 32.5666C28.8021 32.6449 28.1138 32.1569 27.3518 31.6135C27.1515 31.4708 26.9443 31.3212 26.7302 31.183C25.883 30.6259 25.2292 30.1816 24.5754 29.735C23.9745 29.3252 23.3713 28.9177 22.6185 28.4204C21.0554 27.3891 21.7092 26.7583 22.584 25.9157C22.7306 25.7753 22.8748 25.6326 23.0168 25.4875C23.0813 25.4207 23.3967 25.1284 23.841 24.714L23.9164 24.6437C25.361 23.2996 28.0229 20.8228 28.0908 20.5309C28.1023 20.4826 28.1138 20.3007 28.0056 20.2063C27.8997 20.1096 27.7385 20.1419 27.6234 20.1695C27.4623 20.2063 24.8723 21.9168 19.8559 25.3033C19.1215 25.8098 18.4562 26.0538 17.8576 26.04C17.2015 26.0262 15.9353 25.6694 14.9961 25.3632L14.5932 25.2366L14.59 25.2356C13.6362 24.9345 12.9357 24.7133 13.0047 24.1545C13.0461 23.823 13.5043 23.4823 14.3745 23.137Z" fill="currentColor" />
	<rect x="0.5" y="0.5" width="47" height="47" rx="23.5" stroke="#F2F3F5" />
</svg>
