<svg width="48" height="48" viewBox="0 0 48 48" fill="none" xmlns="http://www.w3.org/2000/svg">
	<rect x="0.5" y="0.5" width="47" height="47" rx="23.5" fill="white" />
	<path d="M34.9235 17.2331C34.12 17.5797 33.2456 17.8292 32.3449 17.9263C33.2745 17.3723 33.9809 16.4978 34.3143 15.458C33.4557 15.97 32.4841 16.3455 31.4732 16.5399C30.6539 15.6654 29.4906 15.1245 28.2013 15.1245C25.7199 15.1245 23.7242 17.1359 23.7242 19.6042C23.7242 19.9509 23.7662 20.2975 23.8345 20.631C20.1189 20.4366 16.8051 18.6616 14.602 15.9438C14.2133 16.6108 13.9928 17.3723 13.9928 18.2047C13.9928 19.7592 14.7831 21.1299 15.9884 21.936C15.2532 21.9071 14.5599 21.6997 13.9639 21.3662V21.4213C13.9639 23.5982 15.5026 25.4022 17.5534 25.817C17.1779 25.9142 16.7762 25.9693 16.3744 25.9693C16.0829 25.9693 15.8072 25.9405 15.5289 25.9011C16.0961 27.6762 17.7477 28.9655 19.7145 29.0075C18.1758 30.2128 16.2484 30.9217 14.1556 30.9217C13.7801 30.9217 13.4334 30.9086 13.0737 30.8666C15.0589 32.1401 17.4143 32.8754 19.9508 32.8754C28.1856 32.8754 32.6916 26.0534 32.6916 20.132C32.6916 19.9377 32.6916 19.7434 32.6784 19.5491C33.5502 18.911 34.3143 18.1206 34.9235 17.2331Z" fill="currentColor" />
	<rect x="0.5" y="0.5" width="47" height="47" rx="23.5" stroke="#F2F3F5" />
</svg>
