<svg width="64" height="64" viewBox="0 0 64 64" fill="none" xmlns="http://www.w3.org/2000/svg">
<g clip-path="url(#clip0_3316_10798)">
<path d="M62.8594 47.96L39.3706 7.27283C38.2425 5.31938 36.3846 3.89403 34.2056 3.31028C32.0267 2.72653 29.705 3.03219 27.7514 4.16003C25.7981 5.28829 24.3729 7.14629 23.7895 9.3253C23.206 11.5043 23.512 13.8259 24.6402 15.7792L48.1266 56.4624C48.6781 57.4428 49.4186 58.3039 50.3052 58.9962C51.1918 59.6884 52.2069 60.1979 53.2917 60.4951C54.3765 60.7924 55.5095 60.8715 56.6252 60.728C57.7408 60.5844 58.8168 60.221 59.791 59.6588C60.7653 59.0965 61.6183 58.3467 62.3007 57.4526C62.9832 56.5584 63.4815 55.5378 63.7669 54.4498C64.0523 53.3618 64.119 52.228 63.9632 51.114C63.8075 50.0001 63.4323 48.928 62.8594 47.96Z" fill="#F5BE08"/>
<path d="M55.4832 43.6865H8.5064C6.25043 43.6867 4.08691 44.583 2.4917 46.1782C0.896488 47.7734 0.000212137 49.9369 0 52.1929C0.00021216 54.4488 0.896513 56.6123 2.49175 58.2073C4.08699 59.8024 6.2505 60.6985 8.5064 60.6985H55.4832C57.7391 60.6985 59.9026 59.8024 61.4978 58.2073C63.0931 56.6123 63.9894 54.4488 63.9896 52.1929C63.9894 49.9369 63.0931 47.7734 61.4979 46.1782C59.9027 44.583 57.7392 43.6867 55.4832 43.6865Z" fill="#F5BE08"/>
<path d="M53.0297 30.9269L39.3601 7.25495C38.8072 6.27659 38.0659 5.41749 37.179 4.72726C36.2921 4.03703 35.2773 3.52936 34.1931 3.23357C33.109 2.93777 31.9769 2.85972 30.8624 3.00392C29.7479 3.14811 28.673 3.5117 27.6998 4.07368C26.7266 4.63566 25.8744 5.38489 25.1924 6.2781C24.5104 7.1713 24.0121 8.19078 23.7264 9.27765C23.4406 10.3645 23.3731 11.4972 23.5276 12.6104C23.6821 13.7235 24.0556 14.795 24.6265 15.7629L38.2937 39.4349C39.4285 41.3761 41.2856 42.789 43.459 43.3651C45.6324 43.9411 47.9455 43.6334 49.8928 42.5091C51.84 41.3849 53.263 39.5355 53.8508 37.3652C54.4386 35.195 54.1434 32.8802 53.0297 30.9269Z" fill="#F43C7C"/>
<path d="M36.2486 4.14175C35.2812 3.58319 34.2134 3.22063 33.106 3.07478C31.9985 2.92892 30.8732 3.00263 29.7943 3.29168C28.7153 3.58073 27.7039 4.07947 26.8177 4.75942C25.9315 5.43937 25.1879 6.28722 24.6294 7.25455L1.14055 47.9385C0.0292992 49.8914 -0.264182 52.2046 0.324185 54.3731C0.912552 56.5416 2.33497 58.3892 4.28088 59.5125C6.22679 60.6359 8.53812 60.9437 10.7102 60.3689C12.8823 59.794 14.7387 58.383 15.8742 56.4441L39.3598 15.7609C40.4879 13.8076 40.794 11.486 40.2105 9.30701C39.627 7.128 38.2019 5.27001 36.2486 4.14175Z" fill="#8355EC"/>
<path d="M45.4025 43.686C43.9651 43.6427 42.5622 43.2354 41.325 42.5022C40.0879 41.7691 39.057 40.7341 38.3289 39.494L38.2945 39.4372L31.9937 28.5244L23.2393 43.6868H45.3993L45.4025 43.686Z" fill="#2DCBDF"/>
</g>
<defs>
<clipPath id="clip0_3316_10798">
<rect width="64" height="64" fill="white"/>
</clipPath>
</defs>
</svg>
