<svg width="64" height="64" viewBox="0 0 64 64" fill="none" xmlns="http://www.w3.org/2000/svg">
    <g clip-path="url(#clip0_2651_1936)">
      <path d="M22.9 24.3003H21.8L21.6 25.1003C21.5 25.5003 21.3 26.3003 21.2 26.8003C21.1 27.3003 20.9 28.2003 20.7 29.0003C20.5 29.7003 20.2 31.0003 20 31.8003C19.6 33.5003 19.2 35.4003 18.8 36.6003C18.7 37.0003 18.7 37.3003 18.8 37.4003C18.8 37.5003 19.3 37.5003 19.8 37.5003C20.8 37.5003 20.8 37.5003 21.3 35.6003C21.4 35.3003 21.4 35.0003 21.5 34.6003C21.6 34.1003 21.7 33.5003 21.8 33.1003C22 32.5003 22.3 31.2003 22.5 30.3003C22.7 29.4003 23 28.1003 23.2 27.4003C23.6 25.7003 23.9 24.6003 23.9 24.4003C23.9 24.3003 23.4 24.3003 22.9 24.3003ZM18 29.7003C18.4 29.2003 18.8 28.7003 18.8 28.6003C18.8 28.5003 18.2 28.4003 17.5 28.4003H16.2L15 29.9003L13.8 31.2003L15.1 32.6003L16.4 34.0003H17.6C18.3 34.0003 18.8 33.9003 18.8 33.8003C18.8 33.7003 18.3 33.1003 17.7 32.4003C16.5 31.2003 16.5 31.4003 18 29.7003ZM27.6 29.9003L26.4 28.5003H25.1C24.4 28.5003 23.8 28.6003 23.8 28.7003C23.8 28.8003 24.2 29.2003 24.6 29.8003C26.1 31.4003 26.1 31.2003 24.8 32.5003C24.2 33.2003 23.7 33.7003 23.7 33.9003C23.7 34.0003 24.2 34.1003 24.9 34.1003H26.1L27.1 33.1003C27.6 32.6003 28.2 31.9003 28.4 31.7003C28.8 31.3003 28.8 31.2003 27.6 29.9003Z" fill="#F02E65" />
      <path d="M64 31.5002C63.7 20.0002 54.3 10.7002 42.7 10.7002C38.8 10.7002 35.2 11.8002 32 13.6002C28.9 11.8002 25.2 10.7002 21.3 10.7002C10 10.7002 0.7 19.5002 0.1 30.8002C0.1 30.8002 0.1 30.9002 0.1 31.0002C0 31.3002 0 31.6002 0 32.0002C0 32.4002 0 32.9002 0.1 33.3002C0.8 44.5002 10 53.3002 21.4 53.3002C25.3 53.3002 28.9 52.2002 32.1 50.4002C35.2 52.2002 38.9 53.3002 42.8 53.3002C54.4 53.3002 63.8 44.0002 64.1 32.5002C64.1 32.3002 64.1 32.1002 64.1 31.9002C64.1 31.7002 64 31.7002 64 31.5002ZM26.7 46.1002C25 46.8002 23.2 47.1002 21.3 47.1002C13 47.1002 6.2 40.3002 6.2 32.0002C6.2 23.7002 13 16.9002 21.3 16.9002C23.2 16.9002 25 17.2002 26.7 17.9002C32.4 20.1002 36.4 25.6002 36.4 32.0002C36.4 38.4002 32.4 43.9002 26.7 46.1002Z" fill="#F02E65" />
    </g>
    <defs>
      <clipPath id="clip0_2651_1936">
        <rect width="64" height="64" fill="white" />
      </clipPath>
    </defs>
</svg>