<svg width="40" height="40" viewBox="0 0 40 40" fill="none" xmlns="http://www.w3.org/2000/svg">
<path fill-rule="evenodd" clip-rule="evenodd" d="M5.73272 5.73101C6.70903 4.7547 8.29194 4.7547 9.26826 5.73101L20.0005 16.4632L30.7327 5.73101C31.709 4.7547 33.2919 4.7547 34.2683 5.73101C35.2446 6.70732 35.2446 8.29024 34.2683 9.26655L23.536 19.9988L34.2683 30.731C35.2446 31.7073 35.2446 33.2902 34.2683 34.2665C33.2919 35.2429 31.709 35.2429 30.7327 34.2665L20.0005 23.5343L9.26826 34.2665C8.29194 35.2429 6.70903 35.2429 5.73272 34.2665C4.75641 33.2902 4.75641 31.7073 5.73272 30.731L16.465 19.9988L5.73272 9.26655C4.75641 8.29024 4.75641 6.70732 5.73272 5.73101Z" fill="white"/>
</svg>
