<svg width="64" height="64" viewBox="0 0 64 64" fill="none" xmlns="http://www.w3.org/2000/svg">
    <path d="M31.7927 55.3551C45.5839 55.3551 56.764 44.1751 56.764 30.3838C56.764 16.5926 45.5839 5.4126 31.7927 5.4126C18.0015 5.4126 6.8215 16.5926 6.8215 30.3838C6.8215 44.1751 18.0015 55.3551 31.7927 55.3551Z" fill="#FFD21E" />
    <path d="M56.7641 30.3832C56.7641 16.592 45.584 5.41198 31.7929 5.41198C18.0017 5.41198 6.82166 16.592 6.82166 30.3832C6.82166 44.1744 18.0017 55.3544 31.7929 55.3544C45.584 55.3544 56.7641 44.1744 56.7641 30.3832ZM3.94724 30.3832C3.94724 15.0045 16.4141 2.5376 31.7929 2.5376C47.1716 2.5376 59.6385 15.0045 59.6385 30.3832C59.6385 45.7619 47.1716 58.2288 31.7929 58.2288C16.4141 58.2288 3.94724 45.7619 3.94724 30.3832Z" fill="#FF9D0B" />
    <path d="M39.9064 23.5866C40.8222 23.9099 41.1866 25.7927 42.1117 25.3007C43.8638 24.3691 44.5289 22.1936 43.5974 20.4415C42.6658 18.6895 40.4902 18.0244 38.7381 18.9559C36.9861 19.8875 36.3209 22.0631 37.2525 23.8152C37.6922 24.6421 39.0878 23.2975 39.9064 23.5866Z" fill="#3A3B45" />
    <path d="M22.9781 23.5866C22.0623 23.9099 21.698 25.7927 20.7729 25.3007C19.0208 24.3691 18.3557 22.1936 19.2873 20.4415C20.2189 18.6895 22.3944 18.0244 24.1465 18.9559C25.8986 19.8875 26.5637 22.0631 25.6321 23.8152C25.1924 24.6421 23.7968 23.2975 22.9781 23.5866Z" fill="#3A3B45" />
    <path d="M31.6133 40.8314C38.6759 40.8314 40.955 34.5344 40.955 31.3008C40.955 29.6203 39.8253 30.1492 38.0159 31.045C36.3438 31.8728 34.0912 33.0139 31.6133 33.0139C26.454 33.0139 22.2715 28.0672 22.2715 31.3008C22.2715 34.5344 24.5505 40.8314 31.6133 40.8314Z" fill="#3A3B45" />
    <mask id="mask0_2651_1890" style="mask-type:alpha" maskUnits="userSpaceOnUse" x="22" y="30" width="19" height="11">
      <path d="M31.6133 40.8314C38.6759 40.8314 40.955 34.5344 40.955 31.3008C40.955 29.6203 39.8253 30.1492 38.0159 31.045C36.3438 31.8728 34.0912 33.0139 31.6133 33.0139C26.454 33.0139 22.2715 28.0672 22.2715 31.3008C22.2715 34.5344 24.5505 40.8314 31.6133 40.8314Z" fill="white" />
    </mask>
    <g mask="url(#mask0_2651_1890)">
      <path d="M31.7929 48.1688C35.2349 48.1688 38.0252 45.3785 38.0252 41.9365C38.0252 39.2554 36.3324 36.9699 33.9574 36.0902C33.8699 36.0578 33.7816 36.0274 33.6924 35.9988C33.0936 35.8074 32.4553 37.8657 31.7929 37.8657C31.174 37.8657 30.5761 35.7943 30.0117 35.9623C27.4376 36.7286 25.5605 39.1133 25.5605 41.9365C25.5605 45.3785 28.3508 48.1688 31.7929 48.1688Z" fill="#F94040" />
    </g>
    <path d="M48.6799 26.9692C49.9697 26.9692 51.0153 25.9236 51.0153 24.6338C51.0153 23.344 49.9697 22.2983 48.6799 22.2983C47.39 22.2983 46.3444 23.344 46.3444 24.6338C46.3444 25.9236 47.39 26.9692 48.6799 26.9692Z" fill="#FF9D0B" />
    <path d="M15.2653 26.9692C16.5551 26.9692 17.6007 25.9236 17.6007 24.6338C17.6007 23.344 16.5551 22.2983 15.2653 22.2983C13.9754 22.2983 12.9298 23.344 12.9298 24.6338C12.9298 25.9236 13.9754 26.9692 15.2653 26.9692Z" fill="#FF9D0B" />
    <path d="M10.459 34.875C9.29561 34.875 8.2558 35.3529 7.53074 36.2195C7.08234 36.7563 6.61381 37.6215 6.57573 38.9171C6.0878 38.777 5.61856 38.6987 5.18021 38.6987C4.06639 38.6987 3.06035 39.1255 2.34894 39.9009C1.43489 40.8961 1.02888 42.1192 1.20565 43.3429C1.28973 43.9257 1.48447 44.4481 1.7755 44.9318C1.16182 45.4283 0.709823 46.1196 0.491369 46.951C0.320343 47.6028 0.145006 48.9602 1.0605 50.3586C1.00229 50.4499 0.947678 50.5447 0.896658 50.6417C0.346213 51.6866 0.311001 52.8672 0.796773 53.9667C1.53333 55.6331 3.3636 56.946 6.91778 58.3551C9.1289 59.2318 11.1517 59.7923 11.1697 59.7974C14.093 60.5555 16.7367 60.9407 19.0254 60.9407C23.2321 60.9407 26.2437 59.6522 27.977 57.1112C30.7666 53.0196 30.3677 49.2771 26.7582 45.6698C24.7605 43.6735 23.4326 40.7301 23.1559 40.0841C22.5983 38.1712 21.1237 36.0449 18.6726 36.0449H18.6719C18.4656 36.0449 18.2572 36.0614 18.0517 36.0937C16.9781 36.2626 16.0396 36.8806 15.3692 37.8105C14.6456 36.9108 13.9428 36.1951 13.3068 35.7912C12.3482 35.1833 11.3903 34.875 10.459 34.875ZM10.459 37.7494C10.8255 37.7494 11.2732 37.9053 11.7669 38.2186C13.2996 39.1909 16.2574 44.275 17.3403 46.2525C17.7032 46.9151 18.3233 47.1953 18.8817 47.1953C19.9898 47.1953 20.855 46.0937 18.983 44.6939C16.1683 42.5877 17.1556 39.1449 18.4994 38.9329C18.5583 38.9236 18.6165 38.9193 18.6726 38.9193C19.8942 38.9193 20.4331 41.0247 20.4331 41.0247C20.4331 41.0247 22.0126 44.9914 24.726 47.7027C27.4395 50.4146 27.5796 52.5913 25.602 55.4915C24.2532 57.4691 21.6713 58.0663 19.0254 58.0663C16.2811 58.0663 13.4678 57.4238 11.8912 57.015C11.8136 56.9948 2.22534 54.2864 3.43977 51.9812C3.64385 51.5939 3.98016 51.4387 4.40341 51.4387C6.11367 51.4387 9.22447 53.9839 10.5618 53.9839C10.8607 53.9839 11.0713 53.8567 11.1575 53.5463C11.7273 51.5019 2.49338 50.6424 3.27162 47.6811C3.40887 47.1573 3.7811 46.9445 4.30424 46.9453C6.56423 46.9453 11.6346 50.9198 12.6974 50.9198C12.7787 50.9198 12.8369 50.8961 12.8685 50.8458C13.401 49.9864 13.1092 49.3863 9.35598 47.1149C5.60275 44.8427 2.96837 43.4759 4.46665 41.8447C4.63911 41.6564 4.88343 41.573 5.18021 41.573C7.45888 41.5738 12.8426 46.4731 12.8426 46.4731C12.8426 46.4731 14.2956 47.9844 15.1745 47.9844C15.3764 47.9844 15.5481 47.9046 15.6645 47.7077C16.2876 46.6571 9.87768 41.7994 9.51622 39.7952C9.27118 38.4371 9.68797 37.7494 10.459 37.7494Z" fill="#FF9D0B" />
    <path d="M25.602 55.4907C27.5795 52.5905 27.4394 50.4138 24.726 47.7018C22.0126 44.9906 20.4331 41.0239 20.4331 41.0239C20.4331 41.0239 19.8431 38.7201 18.4993 38.9321C17.1556 39.1441 16.1689 42.5869 18.9837 44.6931C21.7984 46.7986 18.4232 48.2293 17.3402 46.2517C16.2573 44.2741 13.3003 39.1901 11.7668 38.2178C10.234 37.2455 9.15472 37.7902 9.51617 39.7944C9.87762 41.7986 16.2882 46.6563 15.6645 47.7076C15.0407 48.7582 12.8426 46.4723 12.8426 46.4723C12.8426 46.4723 5.96415 40.2126 4.46656 41.8438C2.969 43.4751 5.60269 44.8418 9.35592 47.114C13.1099 49.3855 13.4009 49.9855 12.8684 50.845C12.3352 51.7044 4.04977 44.7189 3.27153 47.6803C2.49401 50.6416 11.7273 51.5011 11.1574 53.5455C10.5876 55.5906 4.65339 49.6758 3.43968 51.9804C2.22525 54.2856 11.8135 56.994 11.8911 57.0141C14.9883 57.8175 22.854 59.5199 25.602 55.4907Z" fill="#FFD21E" />
    <path d="M53.4862 34.875C54.6496 34.875 55.6894 35.3529 56.4144 36.2195C56.8628 36.7563 57.3314 37.6215 57.3695 38.9171C57.8574 38.777 58.3266 38.6987 58.765 38.6987C59.8788 38.6987 60.8848 39.1255 61.5962 39.9009C62.5103 40.8961 62.9163 42.1192 62.7395 43.3429C62.6555 43.9257 62.4607 44.4481 62.1697 44.9318C62.7834 45.4283 63.2354 46.1196 63.4538 46.951C63.6248 47.6028 63.8002 48.9602 62.8847 50.3586C62.9429 50.4499 62.9975 50.5447 63.0485 50.6417C63.599 51.6866 63.6342 52.8672 63.1484 53.9667C62.4119 55.6331 60.5816 56.946 57.0274 58.3551C54.8163 59.2318 52.7934 59.7923 52.7755 59.7974C49.8522 60.5555 47.2085 60.9407 44.9198 60.9407C40.7131 60.9407 37.7015 59.6522 35.9682 57.1112C33.1786 53.0196 33.5774 49.2771 37.187 45.6698C39.1847 43.6735 40.5126 40.7301 40.7893 40.0841C41.3469 38.1712 42.8215 36.0449 45.2726 36.0449H45.2733C45.4796 36.0449 45.688 36.0614 45.8935 36.0937C46.9671 36.2626 47.9055 36.8806 48.576 37.8105C49.2996 36.9108 50.0024 36.1951 50.6384 35.7912C51.597 35.1833 52.5549 34.875 53.4862 34.875ZM53.4862 37.7494C53.1197 37.7494 52.672 37.9053 52.1783 38.2186C50.6456 39.1909 47.6878 44.275 46.6049 46.2525C46.242 46.9151 45.6218 47.1953 45.0635 47.1953C43.9554 47.1953 43.0902 46.0937 44.9622 44.6939C47.7769 42.5877 46.7896 39.1449 45.4458 38.9329C45.3869 38.9236 45.3287 38.9193 45.2726 38.9193C44.051 38.9193 43.512 41.0247 43.512 41.0247C43.512 41.0247 41.9326 44.9914 39.2191 47.7027C36.5057 50.4146 36.3656 52.5913 38.3432 55.4915C39.692 57.4691 42.2739 58.0663 44.9198 58.0663C47.6641 58.0663 50.4774 57.4238 52.054 57.015C52.1316 56.9948 61.7198 54.2864 60.5054 51.9812C60.3013 51.5939 59.965 51.4387 59.5418 51.4387C57.8315 51.4387 54.7207 53.9839 53.3834 53.9839C53.0845 53.9839 52.8739 53.8567 52.7877 53.5463C52.2178 51.5019 61.4518 50.6424 60.6736 47.6811C60.5363 47.1573 60.1641 46.9445 59.6409 46.9453C57.381 46.9453 52.3105 50.9198 51.2477 50.9198C51.1665 50.9198 51.1083 50.8961 51.0767 50.8458C50.5442 49.9864 50.836 49.3863 54.5892 47.1149C58.3424 44.8427 60.9768 43.4759 59.4785 41.8447C59.3061 41.6564 59.0618 41.573 58.765 41.573C56.4863 41.5738 51.1026 46.4731 51.1026 46.4731C51.1026 46.4731 49.6496 47.9844 48.7707 47.9844C48.5688 47.9844 48.3971 47.9046 48.2807 47.7077C47.6576 46.6571 54.0675 41.7994 54.429 39.7952C54.674 38.4371 54.2572 37.7494 53.4862 37.7494Z" fill="#FF9D0B" />
    <path d="M38.3432 55.4907C36.3657 52.5905 36.5058 50.4138 39.2192 47.7018C41.9326 44.9906 43.5121 41.0239 43.5121 41.0239C43.5121 41.0239 44.1021 38.7201 45.4459 38.9321C46.7896 39.1441 47.7763 42.5869 44.9615 44.6931C42.1468 46.7986 45.522 48.2293 46.605 46.2517C47.6879 44.2741 50.6449 39.1901 52.1784 38.2178C53.7112 37.2455 54.7905 37.7902 54.429 39.7944C54.0676 41.7986 47.657 46.6563 48.2807 47.7076C48.9045 48.7582 51.1026 46.4723 51.1026 46.4723C51.1026 46.4723 57.9811 40.2126 59.4786 41.8438C60.9762 43.4751 58.3425 44.8418 54.5893 47.114C50.8353 49.3855 50.5443 49.9855 51.0768 50.845C51.61 51.7044 59.8954 44.7189 60.6736 47.6803C61.4512 50.6416 52.2179 51.5011 52.7878 53.5455C53.3576 55.5906 59.2918 49.6758 60.5055 51.9804C61.7199 54.2856 52.1317 56.994 52.0541 57.0141C48.9569 57.8175 41.0912 59.5199 38.3432 55.4907Z" fill="#FFD21E" />
  </svg>