<svg width="24" height="24" viewBox="0 0 32 32" fill="none" xmlns="http://www.w3.org/2000/svg">
<path fill-rule="evenodd" clip-rule="evenodd" d="M15.331 20.7187L3.40725 24.5132V7.44589L15.2632 3.67835L15.331 20.7187ZM15.2601 2.90209L15.9999 2.66699H15.9999L29.3332 6.90404V25.5263L15.9999 21.2832L3.40725 25.2906L2.6665 25.5263V24.749V6.90404L15.2601 2.90209ZM22.3018 26.7798L21.541 25.5264L24.3114 25.7338L23.3484 28.5042L22.6567 27.3645C22.5939 27.4036 22.5249 27.4376 22.4583 27.4704L22.4583 27.4704C22.3817 27.5081 22.3085 27.5441 22.2518 27.5846C22.1081 27.6872 21.9431 27.7685 21.7813 27.8482L21.7812 27.8483L21.7812 27.8483C21.7095 27.8836 21.6385 27.9186 21.5703 27.955C20.6066 28.4771 19.5743 28.8611 18.5036 29.0957C18.4396 29.1094 18.3755 29.1246 18.311 29.1398L18.3109 29.1398C18.1666 29.1739 18.0201 29.2086 17.8666 29.229C17.3472 29.3264 16.823 29.3957 16.2962 29.4365H14.8295C14.4444 29.4068 14.0295 29.3624 13.6444 29.3031L13.5627 29.289L13.5626 29.2889C13.2469 29.2342 12.9197 29.1775 12.5925 29.0957C12.3606 29.0571 12.1176 28.9848 11.8926 28.9179L11.8925 28.9179L11.8925 28.9179L11.8925 28.9179L11.7925 28.8883C11.348 28.7698 10.9184 28.6216 10.5036 28.4439C9.68867 28.1551 8.91244 27.767 8.19248 27.2883C8.05915 27.1994 8.04434 27.1105 8.04434 27.0068C8.04221 26.9654 8.0488 26.924 8.06368 26.8853C8.07856 26.8466 8.1014 26.8114 8.13073 26.7821C8.16005 26.7528 8.19521 26.7299 8.23392 26.715C8.27263 26.7002 8.31403 26.6936 8.35545 26.6957C8.48511 26.6957 8.70934 26.8297 8.84995 26.9137C8.90214 26.9449 8.94281 26.9692 8.96286 26.9772L9.55545 27.3031C10.9028 27.9907 12.3544 28.4512 13.8518 28.6661C13.8599 28.6661 13.9393 28.675 14.0547 28.6879C14.3598 28.7222 14.9161 28.7846 15.0666 28.7846H16.0592C16.2119 28.767 16.3623 28.754 16.5121 28.7411L16.5122 28.7411L16.5122 28.7411L16.5123 28.7411L16.5123 28.7411C16.7405 28.7214 16.9675 28.7018 17.1999 28.6661L17.2777 28.655C17.5673 28.614 17.8787 28.5698 18.1777 28.4883C18.4296 28.4439 18.6814 28.3846 18.9184 28.3105L19.674 28.0587L20.1925 27.8661L20.6814 27.6587L21.3333 27.3327L21.8962 27.0216C21.9397 26.9999 21.9984 26.9629 22.0642 26.9215L22.0642 26.9214C22.1383 26.8747 22.2215 26.8223 22.3018 26.7798ZM21.2596 14.1485L22.5781 10.9781L23.6744 14.8892L21.2596 14.1485ZM23.5114 8.48922L21.7929 7.9707L18.0151 17.2152L19.7929 17.7485L20.5929 15.8522L24.2522 16.9633L24.8892 19.2893L26.667 19.8226L23.5114 8.48922ZM4.95769 13.3311L4.91309 12.2535L8.80182 10.9335C8.5366 10.5402 8.21373 10.198 7.84263 9.89316L8.85744 9.14941C9.23112 9.5164 9.57919 9.98664 9.90167 10.5601L13.6136 9.30009L13.6582 10.3777L12.1754 10.881C11.7684 12.5953 11.1346 14.1238 10.2745 15.477C11.3211 15.9833 12.6072 16.2612 14.1239 16.3348L13.5925 17.4503C11.9955 17.3619 10.6577 17.0385 9.57908 16.4801C8.52169 17.8792 7.19783 19.0956 5.61688 20.1156L5.02751 19.349C6.57131 18.3942 7.84011 17.291 8.82366 16.0325C7.71592 15.2528 6.92496 14.1869 6.45033 12.8244L4.95769 13.3311ZM11.1149 11.2411L7.43234 12.4911C7.88556 13.5771 8.57786 14.4243 9.5199 15.0502C10.249 13.8991 10.7838 12.6248 11.1149 11.2411Z" fill="#787E85"/>
</svg>
