<svg width="64" height="64" viewBox="0 0 64 64" fill="none" xmlns="http://www.w3.org/2000/svg">
<path d="M28.0685 42.4689C24.2742 46.2632 18.1028 46.2632 14.3085 42.4689L7.42091 35.5813C3.62662 31.787 3.62662 25.6156 7.42091 21.8213L28.0685 42.4689Z" fill="url(#paint0_linear_3511_16691)"/>
<path opacity="0.4" d="M14.3084 30.6746C14.6436 30.3394 14.9941 30.0499 15.3751 29.7756L7.42077 21.8213C3.62648 25.6156 3.61124 31.787 7.42077 35.5813L14.3084 42.4689C11.0474 39.208 11.0474 33.9356 14.3084 30.6746Z" fill="#080051"/>
<path d="M14.3084 28.7089L31.9998 11.0174C28.2055 7.22316 22.0341 7.20792 18.2398 11.0174L7.42077 21.8365C3.62648 25.6308 3.61124 31.8022 7.42077 35.5965L14.3084 42.4841C10.4989 38.6746 10.4989 32.5184 14.3084 28.7089Z" fill="url(#paint1_linear_3511_16691)"/>
<path d="M35.9316 21.5313C39.7259 17.737 45.8974 17.737 49.6916 21.5313L56.5793 28.4189C60.3735 32.2132 60.3735 38.3846 56.5793 42.1789L35.9316 21.5313Z" fill="url(#paint2_linear_3511_16691)"/>
<path opacity="0.5" d="M49.6917 33.3255C49.3564 33.6608 49.006 33.9503 48.625 34.2246L56.5793 42.1789C60.3736 38.3846 60.3888 32.2132 56.5793 28.4189L49.6917 21.5312C52.9526 24.7922 52.9526 30.0646 49.6917 33.3255Z" fill="#080051"/>
<path d="M49.6914 35.2918L32 52.9833C35.7943 56.7776 41.9657 56.7928 45.76 52.9833L56.579 42.1642C60.3733 38.3699 60.3886 32.1985 56.579 28.4042L49.6914 21.5166C53.501 25.3261 53.501 31.4823 49.6914 35.2918Z" fill="url(#paint3_linear_3511_16691)"/>
<defs>
<linearGradient id="paint0_linear_3511_16691" x1="3.99383" y1="33.2358" x2="32.5742" y2="34.1786" gradientUnits="userSpaceOnUse">
<stop offset="0.36" stop-color="#7967FF"/>
<stop offset="0.77" stop-color="#6455C4"/>
</linearGradient>
<linearGradient id="paint1_linear_3511_16691" x1="17.5118" y1="43.1915" x2="18.8759" y2="1.82471" gradientUnits="userSpaceOnUse">
<stop stop-color="#54E6E1"/>
<stop offset="1" stop-color="#6AFBED"/>
</linearGradient>
<linearGradient id="paint2_linear_3511_16691" x1="58.0705" y1="38.167" x2="37.8907" y2="15.604" gradientUnits="userSpaceOnUse">
<stop stop-color="#4CD0CB"/>
<stop offset="1" stop-color="#6AFBED"/>
</linearGradient>
<linearGradient id="paint3_linear_3511_16691" x1="46.4895" y1="20.8112" x2="45.1265" y2="62.177" gradientUnits="userSpaceOnUse">
<stop stop-color="#5C4FE9"/>
<stop offset="0.08" stop-color="#6457EF"/>
<stop offset="0.25" stop-color="#7064F8"/>
<stop offset="0.47" stop-color="#776BFE"/>
<stop offset="1" stop-color="#796DFF"/>
</linearGradient>
</defs>
</svg>
