<svg width="48" height="48" viewBox="0 0 48 48" fill="none" xmlns="http://www.w3.org/2000/svg">
<path fill-rule="evenodd" clip-rule="evenodd" d="M24 48C37.2542 48 48 37.2542 48 24C48 10.745 37.2542 0 24 0C10.745 0 0 10.7442 0 24C0 37.2542 10.7442 48 24 48ZM20.3996 24H27.1991C27.6718 24 28.1399 23.9069 28.5767 23.726C29.0135 23.545 29.4104 23.2799 29.7446 22.9456C30.0789 22.6113 30.3441 22.2144 30.525 21.7777C30.7059 21.3409 30.7991 20.8728 30.7991 20.4C30.7991 19.9272 30.7059 19.4591 30.525 19.0223C30.3441 18.5856 30.0789 18.1887 29.7446 17.8544C29.4104 17.5201 29.0135 17.255 28.5767 17.074C28.1399 16.8931 27.6718 16.8 27.1991 16.8H20.3996V24ZM15.5996 12H27.1991C31.8382 12 35.5991 15.7609 35.5991 20.4C35.5991 25.0391 31.8382 28.8 27.1991 28.8H20.3996V36H15.5996V12Z" fill="white"/>
</svg>
