<svg width="64" height="64" viewBox="0 0 64 64" fill="none" xmlns="http://www.w3.org/2000/svg">
  <g clip-path="url(#clip0_2651_1925)">
    <path d="M38.307 14.9202L10.572 7.01017C9.66899 6.75217 8.69699 6.93317 7.94699 7.49817C7.19699 8.06317 6.75699 8.94817 6.75699 9.88817V61.0082C6.75629 61.4606 6.85827 61.9073 7.05523 62.3145C7.2522 62.7218 7.53902 63.0791 7.89409 63.3595C8.24916 63.6398 8.66322 63.8359 9.10508 63.9331C9.54694 64.0302 10.0051 64.0258 10.445 63.9202L38.177 57.3002C39.527 56.9822 40.482 55.7752 40.477 54.3872V17.7972C40.472 16.4622 39.587 15.2902 38.305 14.9192L38.307 14.9202Z" fill="#1A237E" />
    <path d="M57.2 13.1002C57.192 11.7682 56.3 10.6002 55.03 10.2302L19.735 0.116171C18.831 -0.143829 17.858 0.036171 17.107 0.602171C16.356 1.16817 15.914 2.05217 15.915 2.99217V41.7922C15.912 42.7102 16.332 43.5782 17.053 44.1472C17.774 44.7162 18.717 44.9202 19.609 44.7022L54.951 36.2022C56.301 35.8822 57.251 34.6742 57.245 33.2872L57.2 13.1002Z" fill="#10A6FA" />
    <path d="M38.307 14.9202L15.91 8.53223V41.7842C15.907 42.7022 16.327 43.5702 17.048 44.1392C17.769 44.7082 18.712 44.9122 19.604 44.6942L40.48 39.6702V17.7972C40.475 16.4612 39.59 15.2892 38.305 14.9192L38.307 14.9202Z" fill="#3351FF" />
  </g>
  <defs>
    <clipPath id="clip0_2651_1925">
      <rect width="64" height="64" fill="white" />
    </clipPath>
  </defs>
</svg>