<svg width="64" height="64" viewBox="0 0 64 64" fill="none" xmlns="http://www.w3.org/2000/svg">
    <g clip-path="url(#clip0_2651_1914)">
      <path d="M37.4122 62.9373C35.7772 64.9962 32.4621 63.8681 32.4227 61.2391L31.8467 22.7866H57.7021C62.3852 22.7866 64.9971 28.1957 62.085 31.8633L37.4122 62.9373Z" fill="url(#paint0_linear_2651_1914)" />
      <path d="M37.4122 62.9373C35.7772 64.9962 32.4621 63.8681 32.4227 61.2391L31.8467 22.7866H57.7021C62.3852 22.7866 64.9971 28.1957 62.085 31.8633L37.4122 62.9373Z" fill="url(#paint1_linear_2651_1914)" fill-opacity="0.2" />
      <path d="M26.8969 1.06341C28.5319 -0.995773 31.8471 0.132512 31.8865 2.76156L32.1389 41.214H6.60708C1.92383 41.214 -0.688108 35.805 2.22408 32.1373L26.8969 1.06341Z" fill="#3ECF8E" />
    </g>
    <defs>
      <linearGradient id="paint0_linear_2651_1914" x1="31.8467" y1="31.3125" x2="54.8261" y2="40.95" gradientUnits="userSpaceOnUse">
        <stop stop-color="#249361" />
        <stop offset="1" stop-color="#3ECF8E" />
      </linearGradient>
      <linearGradient id="paint1_linear_2651_1914" x1="21.6588" y1="17.3635" x2="32.1386" y2="37.0912" gradientUnits="userSpaceOnUse">
        <stop />
        <stop offset="1" stop-opacity="0" />
      </linearGradient>
      <clipPath id="clip0_2651_1914">
        <rect width="64" height="64" fill="white" />
      </clipPath>
    </defs>
  </svg>