<svg width="1465" height="890" viewBox="0 0 1465 890" fill="none" xmlns="http://www.w3.org/2000/svg">
<g filter="url(#filter0_f_717_180)">
<ellipse cx="642.5" cy="427.5" rx="172.5" ry="120.5" fill="url(#paint0_linear_717_180)"/>
</g>
<g filter="url(#filter1_f_717_180)">
<ellipse cx="906" cy="433" rx="234" ry="205" fill="url(#paint1_linear_717_180)"/>
</g>
<g filter="url(#filter2_f_717_180)">
<path d="M573.937 705.334C623.159 729.88 666.511 765.035 724.353 778.638C731.758 780.55 745.833 782.232 751.945 782.834C779.549 782.834 807.187 783.883 834.879 783.883C857.735 783.883 880.478 782.834 903.308 782.834C919.951 782.834 935.552 784.908 952.027 785.747C969.231 786.624 986.729 785.055 1003.81 783.524L1005 783.417C1038.13 780.449 1069.12 772.084 1088.1 750.552C1098.16 739.134 1104.67 726.171 1114.58 714.657C1121.89 706.169 1125.62 697.863 1126.72 687.736C1127.91 676.827 1125.01 665.475 1122.78 654.754C1118.76 635.386 1113.95 615.84 1107.49 596.833C1090.65 547.314 1051.05 503.22 1011.94 461.877C990.949 439.689 967.168 419.531 942.725 399.411C915.073 376.649 887.159 353.93 856.953 332.982C814.152 303.3 764.316 278.521 708.113 265.504C566.821 232.781 400.958 252.417 283.196 319.114C267.719 327.879 257.095 334.669 251.346 348.948C242.118 371.873 243.252 397.333 245.828 420.855C249.244 452.051 267.011 482.524 283.984 510.825C301.05 539.28 326.436 563.304 357.142 584.596C423.452 630.576 498.763 667.845 573.937 705.334Z" fill="url(#paint2_radial_717_180)"/>
</g>
<g filter="url(#filter3_f_717_180)">
<path d="M644.021 380.254C605.574 408.167 555.429 430.298 528.582 465.864C524.941 470.386 520.367 479.336 518.535 483.245C513.532 501.395 507.262 519.378 502.243 537.586C498.101 552.614 495.241 567.758 491.104 582.769C488.087 593.712 482.765 603.594 478.769 614.275C474.597 625.427 473.313 637.217 472.06 648.725L471.972 649.53C469.539 671.849 473.984 693.744 496.447 710.123C508.358 718.809 522.771 725.443 534.825 734.048C543.71 740.392 553.026 744.351 565.008 746.912C577.915 749.671 592.095 749.822 605.396 750.3C629.423 751.165 653.806 751.55 677.841 750.746C740.46 748.651 800.677 730.613 857.496 712.392C887.992 702.612 916.549 690.63 945.182 678.207C977.573 664.152 1009.96 649.918 1040.63 633.855C1084.09 611.094 1122.93 582.819 1148.78 548.225C1213.75 461.255 1220.19 348.637 1161.3 259.113C1153.56 247.348 1147.32 239.131 1131.18 232.762C1105.28 222.538 1074.45 218.668 1045.69 216.096C1007.54 212.686 967.665 218.843 930.545 224.872C893.223 230.933 859.724 243.269 828.546 259.599C761.22 294.862 702.739 337.623 644.021 380.254Z" fill="url(#paint3_radial_717_180)"/>
</g>
<g opacity="0.53" filter="url(#filter4_f_717_180)">
<path d="M768.482 269.485C730.035 297.398 679.89 319.529 653.043 355.095C649.402 359.617 644.828 368.567 642.996 372.476C637.993 390.626 631.723 408.609 626.704 426.817C622.562 441.845 619.702 456.989 615.565 472C612.548 482.943 607.227 492.825 603.23 503.505C599.058 514.658 597.774 526.448 596.521 537.956L596.433 538.761C594 561.08 598.445 582.975 620.908 599.354C632.819 608.04 647.232 614.674 659.286 623.279C668.171 629.623 677.487 633.582 689.469 636.143C702.376 638.902 716.556 639.053 729.857 639.531C753.884 640.396 778.267 640.781 802.302 639.977C864.921 637.882 925.138 619.844 981.957 601.623C1012.45 591.843 1041.01 579.861 1069.64 567.438C1102.03 553.383 1134.42 539.149 1165.09 523.085C1208.56 500.325 1247.4 472.05 1273.24 437.456C1338.21 350.486 1344.65 237.868 1285.76 148.344C1278.02 136.579 1271.78 128.362 1255.64 121.993C1229.74 111.769 1198.91 107.898 1170.15 105.327C1132 101.917 1092.13 108.074 1055.01 114.102C1017.68 120.164 984.185 132.5 953.008 148.83C885.681 184.092 827.201 226.853 768.482 269.485Z" fill="url(#paint4_radial_717_180)"/>
</g>
<g opacity="0.53" filter="url(#filter5_f_717_180)">
<path d="M199.786 310.701C178.583 326.094 150.93 338.299 136.125 357.912C134.117 360.406 131.594 365.341 130.584 367.497C127.825 377.506 124.367 387.423 121.6 397.464C119.315 405.752 117.738 414.103 115.457 422.381C113.793 428.416 110.858 433.866 108.655 439.756C106.354 445.906 105.646 452.408 104.955 458.754L104.906 459.198C103.564 471.506 106.016 483.58 118.403 492.613C124.972 497.403 132.92 501.061 139.567 505.807C144.467 509.305 149.605 511.489 156.212 512.901C163.33 514.422 171.15 514.506 178.485 514.77C191.735 515.246 205.182 515.459 218.436 515.015C252.969 513.86 286.176 503.913 317.51 493.864C334.328 488.471 350.076 481.863 365.866 475.012C383.729 467.262 401.59 459.412 418.505 450.553C442.472 438.002 463.89 422.409 478.142 403.331C513.971 355.371 517.522 293.265 485.047 243.896C480.779 237.408 477.337 232.877 468.439 229.364C454.154 223.726 437.151 221.591 421.29 220.173C400.254 218.293 378.264 221.688 357.794 225.013C337.212 228.356 318.739 235.158 301.545 244.164C264.417 263.61 232.167 287.191 199.786 310.701Z" fill="url(#paint5_radial_717_180)"/>
</g>
<defs>
<filter id="filter0_f_717_180" x="322" y="159" width="641" height="537" filterUnits="userSpaceOnUse" color-interpolation-filters="sRGB">
<feFlood flood-opacity="0" result="BackgroundImageFix"/>
<feBlend mode="normal" in="SourceGraphic" in2="BackgroundImageFix" result="shape"/>
<feGaussianBlur stdDeviation="74" result="effect1_foregroundBlur_717_180"/>
</filter>
<filter id="filter1_f_717_180" x="524" y="80" width="764" height="706" filterUnits="userSpaceOnUse" color-interpolation-filters="sRGB">
<feFlood flood-opacity="0" result="BackgroundImageFix"/>
<feBlend mode="normal" in="SourceGraphic" in2="BackgroundImageFix" result="shape"/>
<feGaussianBlur stdDeviation="74" result="effect1_foregroundBlur_717_180"/>
</filter>
<filter id="filter2_f_717_180" x="140" y="146" width="1091" height="744" filterUnits="userSpaceOnUse" color-interpolation-filters="sRGB">
<feFlood flood-opacity="0" result="BackgroundImageFix"/>
<feBlend mode="normal" in="SourceGraphic" in2="BackgroundImageFix" result="shape"/>
<feGaussianBlur stdDeviation="52" result="effect1_foregroundBlur_717_180"/>
</filter>
<filter id="filter3_f_717_180" x="367.378" y="111.121" width="938.378" height="744.066" filterUnits="userSpaceOnUse" color-interpolation-filters="sRGB">
<feFlood flood-opacity="0" result="BackgroundImageFix"/>
<feBlend mode="normal" in="SourceGraphic" in2="BackgroundImageFix" result="shape"/>
<feGaussianBlur stdDeviation="52" result="effect1_foregroundBlur_717_180"/>
</filter>
<filter id="filter4_f_717_180" x="491.839" y="0.351562" width="938.378" height="744.066" filterUnits="userSpaceOnUse" color-interpolation-filters="sRGB">
<feFlood flood-opacity="0" result="BackgroundImageFix"/>
<feBlend mode="normal" in="SourceGraphic" in2="BackgroundImageFix" result="shape"/>
<feGaussianBlur stdDeviation="52" result="effect1_foregroundBlur_717_180"/>
</filter>
<filter id="filter5_f_717_180" x="0.578491" y="115.635" width="610.78" height="503.623" filterUnits="userSpaceOnUse" color-interpolation-filters="sRGB">
<feFlood flood-opacity="0" result="BackgroundImageFix"/>
<feBlend mode="normal" in="SourceGraphic" in2="BackgroundImageFix" result="shape"/>
<feGaussianBlur stdDeviation="52" result="effect1_foregroundBlur_717_180"/>
</filter>
<linearGradient id="paint0_linear_717_180" x1="470" y1="427.5" x2="815" y2="427.5" gradientUnits="userSpaceOnUse">
<stop stop-color="#7F1BFF"/>
<stop offset="1" stop-color="#FF18CC"/>
</linearGradient>
<linearGradient id="paint1_linear_717_180" x1="672" y1="433" x2="1140" y2="433" gradientUnits="userSpaceOnUse">
<stop stop-color="#B9FF24"/>
<stop offset="1" stop-color="#2187FF"/>
</linearGradient>
<radialGradient id="paint2_radial_717_180" cx="0" cy="0" r="1" gradientUnits="userSpaceOnUse" gradientTransform="translate(450.141 402.245) rotate(24.2737) scale(724.147 501.256)">
<stop offset="0.169774" stop-color="#F531B3"/>
<stop offset="0.858743" stop-color="#F531B3" stop-opacity="0"/>
</radialGradient>
<radialGradient id="paint3_radial_717_180" cx="0" cy="0" r="1" gradientUnits="userSpaceOnUse" gradientTransform="translate(1031.04 353.81) rotate(141.495) scale(610.476 489.819)">
<stop offset="0.169774" stop-color="#E2B016"/>
<stop offset="0.858743" stop-color="#E2B016" stop-opacity="0"/>
</radialGradient>
<radialGradient id="paint4_radial_717_180" cx="0" cy="0" r="1" gradientUnits="userSpaceOnUse" gradientTransform="translate(1079.35 495.753) rotate(-136.863) scale(358.9 302.398)">
<stop offset="0.269423" stop-color="#0600FF"/>
<stop offset="1" stop-color="#5551FF" stop-opacity="0"/>
</radialGradient>
<radialGradient id="paint5_radial_717_180" cx="0" cy="0" r="1" gradientUnits="userSpaceOnUse" gradientTransform="translate(371.216 435.48) rotate(-136.863) scale(197.922 166.763)">
<stop offset="0.269423" stop-color="#0600FF"/>
<stop offset="1" stop-color="#5551FF" stop-opacity="0"/>
</radialGradient>
</defs>
</svg>
