<svg width="24" height="24" viewBox="0 0 24 24" fill="none" xmlns="http://www.w3.org/2000/svg">
<path d="M0.480103 11.8061C0.480103 16.8317 3.7009 21.1047 8.18986 22.6733C8.79466 22.8269 8.7025 22.3949 8.7025 22.1031V20.1092C5.21194 20.5181 5.07274 18.2084 4.83658 17.8234C4.36234 17.0141 3.2449 16.8077 3.57802 16.4228C4.3729 16.0138 5.18314 16.5264 6.1201 17.9136C6.79882 18.9188 8.12266 18.7488 8.79562 18.5808C8.94004 17.9856 9.2495 17.4432 9.68842 17.016C6.07306 16.369 4.5649 14.162 4.5649 11.5364C4.5649 10.2634 4.98538 9.09316 5.8081 8.14852C5.28394 6.5914 5.85706 5.25988 5.9329 5.06212C7.42858 4.92772 8.97994 6.13252 9.1009 6.2266C9.9505 5.99716 10.9191 5.8762 12.003 5.8762C13.0926 5.8762 14.067 6.001 14.9214 6.23332C15.2094 6.01252 16.6513 4.9786 18.0414 5.10532C18.1153 5.30308 18.675 6.60388 18.1825 8.13892C19.0167 9.08548 19.4411 10.2663 19.4411 11.5431C19.4411 14.1725 17.9243 16.3815 14.2983 17.0208C14.6089 17.3267 14.8554 17.6914 15.0235 18.0936C15.1916 18.4957 15.278 18.9273 15.2775 19.3632V22.2576C15.2977 22.489 15.2775 22.7184 15.6644 22.7184C20.2187 21.1834 23.498 16.8788 23.498 11.808C23.498 5.449 18.3438 0.299562 11.9905 0.299562C5.62954 0.296682 0.480103 5.44708 0.480103 11.8061Z" fill="white"/>
</svg>
