<svg width="16" height="29" viewBox="0 0 16 29" fill="none" xmlns="http://www.w3.org/2000/svg">
<path d="M8 1C6.33333 1 5 2.33333 5 4C5 5.66667 6.33333 7 8 7C9.66667 7 11 5.66667 11 4C11 2.33333 9.66667 1 8 1Z" fill="white"/>
<path d="M7.29289 28.7071C7.68342 29.0976 8.31658 29.0976 8.70711 28.7071L15.0711 22.3431C15.4616 21.9526 15.4616 21.3195 15.0711 20.9289C14.6805 20.5384 14.0474 20.5384 13.6569 20.9289L8 26.5858L2.34315 20.9289C1.95262 20.5384 1.31946 20.5384 0.928932 20.9289C0.538408 21.3195 0.538408 21.9526 0.928932 22.3431L7.29289 28.7071ZM6 4C6 2.88562 6.88562 2 8 2V0C5.78105 0 4 1.78105 4 4H6ZM8 2C9.11438 2 10 2.88562 10 4H12C12 1.78105 10.219 0 8 0V2ZM10 4C10 5.11438 9.11438 6 8 6V8C10.219 8 12 6.21895 12 4H10ZM8 6C6.88562 6 6 5.11438 6 4H4C4 6.21895 5.78105 8 8 8V6ZM7 7V28H9V7H7Z" fill="white" fill-opacity="0.12"/>
</svg>
