<svg width="24" height="25" viewBox="0 0 24 25" fill="none" xmlns="http://www.w3.org/2000/svg">
<path fill-rule="evenodd" clip-rule="evenodd" d="M5.25 2C4.83579 2 4.5 2.33579 4.5 2.75L4.5 3.5C2.84315 3.5 1.5 4.84315 1.5 6.5V20C1.5 21.6569 2.84315 23 4.5 23H19.5C21.1569 23 22.5 21.6569 22.5 20V6.5C22.5 4.84315 21.1569 3.5 19.5 3.5V2.75C19.5 2.33579 19.1642 2 18.75 2H14.25C13.8358 2 13.5 2.33579 13.5 2.75V3.5H10.5V2.75C10.5 2.33579 10.1642 2 9.75 2H5.25ZM13.8206 14.9823C13.6946 14.7213 13.6316 14.4063 13.6316 14.0373H11.9441C11.9531 14.6313 12.0656 15.1488 12.2816 15.5898C12.4976 16.0218 12.7856 16.3773 13.1456 16.6563C13.5056 16.9353 13.9286 17.1423 14.4146 17.2773C14.9006 17.4123 15.4181 17.4798 15.9671 17.4798C16.4441 17.4798 16.9121 17.4213 17.3711 17.3043C17.8301 17.1963 18.2396 17.0208 18.5996 16.7778C18.9596 16.5348 19.2476 16.2243 19.4636 15.8463C19.6886 15.4593 19.8011 14.9958 19.8011 14.4558C19.8011 14.2038 19.7606 13.9518 19.6796 13.6998C19.6076 13.4478 19.4906 13.2138 19.3286 12.9978C19.1756 12.7728 18.9821 12.5748 18.7481 12.4038C18.5141 12.2328 18.2396 12.0978 17.9246 11.9988C17.7986 11.9628 17.5871 11.9088 17.2901 11.8368C17.0021 11.7558 16.7051 11.6748 16.3991 11.5938C16.0931 11.5128 15.8141 11.4408 15.5621 11.3778C15.3191 11.3058 15.1796 11.2653 15.1436 11.2563C14.8016 11.1573 14.5226 11.0133 14.3066 10.8243C14.0996 10.6263 13.9961 10.3563 13.9961 10.0143C13.9961 9.77134 14.0501 9.56884 14.1581 9.40684C14.2751 9.24484 14.4191 9.11884 14.5901 9.02884C14.7611 8.92984 14.9501 8.86234 15.1571 8.82634C15.3641 8.78134 15.5666 8.75884 15.7646 8.75884C16.3496 8.75884 16.8311 8.88934 17.2091 9.15034C17.5871 9.40234 17.7986 9.83884 17.8436 10.4598H19.5311C19.5311 9.95584 19.4321 9.51484 19.2341 9.13684C19.0361 8.74984 18.7661 8.42584 18.4241 8.16484C18.0911 7.90384 17.6996 7.71034 17.2496 7.58434C16.8086 7.44934 16.3361 7.38184 15.8321 7.38184C15.4001 7.38184 14.9726 7.44034 14.5496 7.55734C14.1266 7.66534 13.7486 7.83634 13.4156 8.07034C13.0826 8.30434 12.8126 8.60134 12.6056 8.96134C12.4076 9.31234 12.3086 9.73084 12.3086 10.2168C12.3086 10.4688 12.3401 10.7163 12.4031 10.9593C12.4751 11.2023 12.5921 11.4318 12.7541 11.6478C12.9161 11.8638 13.1321 12.0618 13.4021 12.2418C13.6811 12.4128 14.0276 12.5523 14.4416 12.6603C15.1076 12.8403 15.6656 12.9888 16.1156 13.1058C16.5746 13.2138 16.9751 13.3308 17.3171 13.4568C17.5151 13.5288 17.6951 13.6548 17.8571 13.8348C18.0281 14.0058 18.1136 14.2758 18.1136 14.6448C18.1136 14.8248 18.0776 15.0048 18.0056 15.1848C17.9336 15.3558 17.8166 15.5088 17.6546 15.6438C17.4926 15.7788 17.2811 15.8913 17.0201 15.9813C16.7591 16.0623 16.4441 16.1028 16.0751 16.1028C15.7331 16.1028 15.4136 16.0668 15.1166 15.9948C14.8286 15.9138 14.5721 15.7923 14.3471 15.6303C14.1221 15.4593 13.9466 15.2433 13.8206 14.9823ZM10.3631 15.3738C10.4351 14.9778 10.4711 14.5683 10.4711 14.1453V7.61134H8.7836V14.2398C8.7836 14.5368 8.7656 14.8023 8.7296 15.0363C8.6936 15.2703 8.6216 15.4683 8.5136 15.6303C8.4146 15.7833 8.2751 15.9003 8.0951 15.9813C7.9241 16.0623 7.7036 16.1028 7.4336 16.1028C6.9206 16.1028 6.5696 15.9543 6.3806 15.6573C6.2006 15.3513 6.1106 14.9238 6.1106 14.3748V13.8753H4.4231V14.3883C4.4231 14.8293 4.4771 15.2388 4.5851 15.6168C4.6931 15.9948 4.8641 16.3233 5.0981 16.6023C5.3321 16.8723 5.6291 17.0883 5.9891 17.2503C6.3491 17.4033 6.7856 17.4798 7.2986 17.4798C7.9916 17.4798 8.5451 17.3853 8.9591 17.1963C9.3821 17.0073 9.7016 16.7553 9.9176 16.4403C10.1426 16.1253 10.2911 15.7698 10.3631 15.3738Z" fill="white"/>
</svg>
