<svg width="24" height="24" viewBox="0 0 24 24" fill="none" xmlns="http://www.w3.org/2000/svg">
<path fill-rule="evenodd" clip-rule="evenodd" d="M11.4984 15.5388L2.55556 18.3847V5.58418L11.4475 2.75852L11.4984 15.5388ZM11.4452 2.17632L11.9999 2.00003V2L12 2.00001L12 2V2.00003L22 5.17779V19.1445L12 15.9622L2.55556 18.9677L2 19.1445V18.5615V5.17779L11.4452 2.17632ZM16.7265 20.085L16.1556 19.1444L18.2334 19.3L17.5112 21.3778L16.9926 20.5235C16.9455 20.5529 16.8936 20.5784 16.8437 20.603L16.8436 20.603C16.7862 20.6313 16.7313 20.6583 16.6888 20.6887C16.581 20.7656 16.4572 20.8266 16.3359 20.8864C16.2822 20.9129 16.2289 20.9391 16.1777 20.9664C15.4549 21.358 14.6807 21.6461 13.8777 21.822C13.8296 21.8323 13.7815 21.8437 13.7331 21.8551C13.6249 21.8807 13.5151 21.9066 13.3999 21.922C13.0104 21.995 12.6172 22.047 12.2221 22.0776H11.1221C10.8332 22.0553 10.5221 22.022 10.2332 21.9776L10.172 21.9669C9.9352 21.9259 9.68976 21.8834 9.44432 21.822C9.27041 21.793 9.0881 21.7388 8.91931 21.6887L8.84432 21.6664C8.51099 21.5775 8.18876 21.4664 7.87765 21.3331C7.26645 21.1165 6.68428 20.8255 6.14431 20.4664C6.04431 20.3998 6.0332 20.3331 6.0332 20.2553C6.03161 20.2243 6.03655 20.1932 6.04771 20.1642C6.05887 20.1351 6.076 20.1088 6.098 20.0868C6.11999 20.0648 6.14636 20.0477 6.17539 20.0365C6.20442 20.0253 6.23547 20.0204 6.26654 20.022C6.36378 20.022 6.53195 20.1225 6.63742 20.1855L6.63743 20.1855L6.63754 20.1856C6.67662 20.2089 6.70707 20.2271 6.72209 20.2331L7.16654 20.4775C8.17706 20.9932 9.26577 21.3386 10.3888 21.4998C10.3949 21.4998 10.4545 21.5065 10.541 21.5162C10.7698 21.5418 11.187 21.5887 11.2999 21.5887H12.0443C12.1588 21.5755 12.2715 21.5657 12.3838 21.5561L12.3838 21.556L12.3839 21.556L12.384 21.556L12.3841 21.556C12.5552 21.5413 12.7255 21.5266 12.8999 21.4998L12.9582 21.4915C13.1754 21.4607 13.409 21.4276 13.6332 21.3664C13.8221 21.3331 14.011 21.2887 14.1888 21.2331L14.7554 21.0442L15.1443 20.8998L15.511 20.7442L15.9999 20.4998L16.4221 20.2664C16.4547 20.2501 16.4987 20.2224 16.5481 20.1913L16.5482 20.1912L16.5482 20.1912C16.6039 20.1562 16.6662 20.1169 16.7265 20.085ZM15.9445 10.6109L16.9334 8.2331L17.7556 11.1664L15.9445 10.6109ZM17.6334 6.36643L16.3445 5.97754L13.5112 12.9109L14.8445 13.3109L15.4445 11.8887L18.189 12.722L18.6667 14.4665L20.0001 14.8665L17.6334 6.36643ZM3.71839 9.99762L3.68494 9.18942L6.60149 8.19938C6.40257 7.90441 6.16042 7.64776 5.88209 7.41914L6.6432 6.86133C6.92346 7.13657 7.18452 7.48925 7.42637 7.91937L10.2104 6.97434L10.2438 7.78254L9.13168 8.16005C8.82641 9.44573 8.35106 10.5921 7.70596 11.607C8.49093 11.9867 9.45553 12.1952 10.593 12.2503L10.1945 13.087C8.99678 13.0207 7.99343 12.7782 7.18443 12.3593C6.39139 13.4087 5.39849 14.321 4.21279 15.086L3.77075 14.511C4.92861 13.7949 5.88021 12.9675 6.61787 12.0237C5.78706 11.4388 5.19384 10.6394 4.83787 9.6176L3.71839 9.99762ZM8.33626 8.43006L5.57437 9.36759C5.91429 10.1821 6.43351 10.8175 7.14004 11.2869C7.68686 10.4236 8.08794 9.46787 8.33626 8.43006Z" fill="white"/>
</svg>
