<svg width="43" height="20" viewBox="0 0 43 20" fill="none" xmlns="http://www.w3.org/2000/svg">
<path fill-rule="evenodd" clip-rule="evenodd" d="M7.5 0H13V20H7.5V0ZM0 7.5H5.5V20H0V7.5ZM20.5 0H15V20H20.5V0Z" fill="white"/>
<rect width="5.5" height="5.5" fill="#FF58BE"/>
<path fill-rule="evenodd" clip-rule="evenodd" d="M37 10C37 12.4853 34.9853 14.5 32.5 14.5C30.0147 14.5 28 12.4853 28 10C28 7.51472 30.0147 5.5 32.5 5.5C34.9853 5.5 37 7.51472 37 10ZM37 18.9327C35.6474 19.6154 34.1186 20 32.5 20C26.9772 20 22.5 15.5228 22.5 10C22.5 4.47715 26.9772 0 32.5 0C38.0228 0 42.5 4.47715 42.5 10H42.5V20H37V18.9327Z" fill="white"/>
</svg>
