<svg width="32" height="33" viewBox="0 0 32 33" fill="none" xmlns="http://www.w3.org/2000/svg">
<path fill-rule="evenodd" clip-rule="evenodd" d="M32 16.5C32 25.3365 24.8365 32.5 16 32.5C7.16347 32.5 0 25.3365 0 16.5C0 7.66347 7.16347 0.5 16 0.5C24.8365 0.5 32 7.66347 32 16.5Z" fill="white" fill-opacity="0.1"/>
<path fill-rule="evenodd" clip-rule="evenodd" d="M17.9953 16.9706L13.5153 16.9707V12.1707H17.9953C19.3052 12.1707 20.3671 13.2451 20.3671 14.5706C20.3671 15.896 19.3052 16.9706 17.9953 16.9706ZM17.9953 8.97058H10.3529V24.9706H13.5153V20.1707H17.9953C21.0517 20.1707 23.5294 17.6634 23.5294 14.5706C23.5294 11.4778 21.0517 8.97058 17.9953 8.97058Z" fill="white"/>
</svg>
