<svg width="10" height="8" viewBox="0 0 10 8" fill="none" xmlns="http://www.w3.org/2000/svg">
<path d="M5.73596 8V4.04598C5.73596 2.72797 5.87253 1.81865 6.14568 1.31801C6.63126 0.439336 7.66818 0 9.25645 0C9.41831 0 9.66616 0.0102171 10 0.0306513V1.90038C9.91907 1.90038 9.86343 1.90038 9.83308 1.90038C9.12494 1.90038 8.64947 2.06386 8.40668 2.3908C8.27516 2.55428 8.19929 2.80971 8.17906 3.15709C8.17906 3.19796 8.17906 3.33078 8.17906 3.55556C8.17906 3.62708 8.17906 3.6986 8.17906 3.77012H9.71168V8H5.73596ZM0 8V4.04598C0 2.72797 0.136571 1.81865 0.409712 1.31801C0.895296 0.439336 1.93222 0 3.52049 0C3.67223 0 3.91502 0.0102171 4.24886 0.0306513V1.90038C4.16793 1.90038 4.11229 1.90038 4.08194 1.90038C3.39403 1.90038 2.92362 2.06386 2.67071 2.3908C2.5392 2.5645 2.46333 2.81992 2.4431 3.15709C2.4431 3.17752 2.4431 3.38186 2.4431 3.77012H3.97572V8H0Z" fill="white" fill-opacity="0.5"/>
</svg>
