<svg width="32" height="32" viewBox="0 0 32 32" fill="none" xmlns="http://www.w3.org/2000/svg">
<rect width="32" height="32" rx="16" fill="white" fill-opacity="0.1"/>
<path fill-rule="evenodd" clip-rule="evenodd" d="M13.346 9.87022C14.2755 9.5446 15.2378 9.26324 16.2292 9.23755C17.819 9.12829 19.409 9.574 20.7901 10.3469C21.4475 10.749 22.0969 11.1854 22.6278 11.7494C22.5163 13.0652 21.9515 14.3385 21.0309 15.2876C20.6666 15.6488 20.2423 15.9419 19.8095 16.214C18.8989 16.8457 17.8552 17.2756 16.7709 17.4963C16.1348 17.6081 15.4873 17.5304 14.846 17.5418C15.6978 18.3763 16.7359 18.9873 17.7828 19.5435C18.7822 20.0255 19.8315 20.4554 20.9446 20.5743C21.7753 20.6513 22.6869 20.556 23.3552 20.0097C23.7318 19.7163 24.0934 19.2767 24.0052 18.7666C23.855 17.9687 23.2713 17.3468 22.6915 16.8182C22.8782 16.5588 23.0676 16.3019 23.2508 16.0406C23.8569 16.3601 24.4481 16.747 24.865 17.3001C25.477 18.0454 25.7868 19.0774 25.5243 20.0236C25.3581 20.7139 24.8975 21.2979 24.3444 21.7272C23.4393 22.3841 22.2876 22.5735 21.1916 22.5531C19.7021 22.5243 18.234 22.1891 16.8217 21.731C14.9834 21.0837 13.3243 19.9917 11.8761 18.6991C11.3517 18.2336 10.8574 17.7344 10.3975 17.2057C10.9329 16.2567 11.6968 15.4145 12.6579 14.8864C13.8518 15.3919 15.2041 15.5686 16.4704 15.247C17.4639 15.0062 18.456 14.553 19.1159 13.7477C19.3753 13.414 19.5885 13.0296 19.6501 12.6064C19.1564 12.2254 18.6203 11.8834 18.0177 11.7069C16.8792 11.3371 15.643 11.485 14.5241 11.8509C12.908 12.37 11.4006 13.2524 10.1926 14.4487C9.01759 15.5695 8.12306 16.9686 7.51329 18.4686C7.41641 18.7635 7.24122 19.1062 6.90383 19.1637C6.5519 19.1919 6.30769 18.8412 6.26807 18.5261C6.39373 17.7963 6.62433 17.0844 6.94252 16.4161C7.57055 15.0888 8.40132 13.8631 9.35497 12.7488C10.0656 11.9054 10.8905 11.1427 11.8538 10.5964C12.336 10.3252 12.8241 10.0572 13.346 9.87022Z" fill="white"/>
</svg>
