<svg width="64" height="36" viewBox="0 0 64 36" fill="none" xmlns="http://www.w3.org/2000/svg">
<path d="M11.8324 3.56741L18.8636 25.6697H19.1335L26.179 3.56741H32.9972L22.9688 32.6583H15.0426L5 3.56741H11.8324Z" fill="white"/>
<path d="M52.2798 11.9339C52.1662 10.788 51.6785 9.8979 50.8168 9.26343C49.955 8.62896 48.7855 8.31172 47.3082 8.31172C46.3045 8.31172 45.4569 8.45377 44.7656 8.73786C44.0743 9.01248 43.544 9.396 43.1747 9.88843C42.8149 10.3809 42.6349 10.9396 42.6349 11.5646C42.616 12.0854 42.7249 12.5399 42.9616 12.9282C43.2079 13.3165 43.544 13.6526 43.9702 13.9367C44.3963 14.2113 44.8887 14.4528 45.4474 14.6612C46.0062 14.86 46.6027 15.0305 47.2372 15.1725L49.8509 15.7975C51.1198 16.0816 52.2846 16.4604 53.3452 16.9339C54.4058 17.4074 55.3243 17.9898 56.1009 18.681C56.8774 19.3723 57.4787 20.1867 57.9048 21.1242C58.3404 22.0617 58.563 23.1365 58.5724 24.3487C58.563 26.129 58.1084 27.6725 57.2088 28.9793C56.3187 30.2767 55.0308 31.2852 53.3452 32.0049C51.669 32.7151 49.6473 33.0702 47.2798 33.0702C44.9313 33.0702 42.8859 32.7104 41.1435 31.9907C39.4105 31.271 38.0563 30.2057 37.081 28.7947C36.1151 27.3742 35.6084 25.6176 35.5611 23.5248H41.5128C41.5791 24.5002 41.8584 25.3146 42.3509 25.968C42.8527 26.6119 43.5204 27.0996 44.3537 27.431C45.1965 27.753 46.1482 27.914 47.2088 27.914C48.2505 27.914 49.1548 27.7625 49.9219 27.4595C50.6984 27.1564 51.2997 26.735 51.7259 26.1952C52.152 25.6555 52.3651 25.0352 52.3651 24.3345C52.3651 23.681 52.1709 23.1318 51.7827 22.6867C51.4039 22.2416 50.8452 21.8629 50.1065 21.5504C49.3774 21.2379 48.4825 20.9538 47.4219 20.6981L44.2543 19.9026C41.8016 19.306 39.8651 18.3733 38.4446 17.1043C37.0241 15.8354 36.3187 14.1261 36.3281 11.9765C36.3187 10.2151 36.7874 8.67631 37.7344 7.36002C38.6908 6.04373 40.0024 5.01627 41.669 4.27763C43.3357 3.539 45.2296 3.16968 47.3509 3.16968C49.5099 3.16968 51.3944 3.539 53.0043 4.27763C54.6236 5.01627 55.883 6.04373 56.7827 7.36002C57.6823 8.67631 58.1463 10.2009 58.1747 11.9339H52.2798Z" fill="white"/>
</svg>
