<svg width="1440" height="382" viewBox="0 0 1440 382" fill="none" xmlns="http://www.w3.org/2000/svg">
<g clip-path="url(#clip0_88_4962)">
<g filter="url(#filter0_f_88_4962)">
<path d="M548.937 633.334C598.159 657.88 641.511 693.035 699.353 706.638C706.758 708.55 720.833 710.232 726.945 710.834C754.549 710.834 782.187 711.883 809.879 711.883C832.735 711.883 855.478 710.834 878.308 710.834C894.951 710.834 910.552 712.908 927.027 713.747C944.231 714.624 961.729 713.055 978.809 711.524L980.004 711.417C1013.13 708.449 1044.12 700.084 1063.1 678.552C1073.16 667.134 1079.67 654.171 1089.58 642.657C1096.89 634.169 1100.62 625.863 1101.72 615.736C1102.91 604.827 1100.01 593.475 1097.78 582.754C1093.76 563.386 1088.95 543.84 1082.49 524.833C1065.65 475.314 1026.05 431.22 986.942 389.877C965.949 367.689 942.168 347.531 917.725 327.411C890.073 304.649 862.159 281.93 831.953 260.982C789.152 231.3 739.316 206.521 683.113 193.504C541.821 160.781 375.958 180.417 258.196 247.114C242.719 255.879 232.095 262.669 226.346 276.948C217.118 299.873 218.252 325.333 220.828 348.855C224.244 380.051 242.011 410.524 258.984 438.825C276.05 467.28 301.436 491.304 332.142 512.596C398.452 558.576 473.763 595.845 548.937 633.334Z" fill="url(#paint0_radial_88_4962)"/>
</g>
<g filter="url(#filter1_f_88_4962)">
<path d="M619.021 308.254C580.574 336.167 530.429 358.298 503.582 393.864C499.941 398.386 495.367 407.336 493.535 411.245C488.532 429.395 482.262 447.378 477.243 465.586C473.101 480.614 470.241 495.758 466.104 510.769C463.087 521.712 457.765 531.594 453.769 542.275C449.597 553.427 448.313 565.217 447.06 576.725L446.972 577.53C444.539 599.849 448.984 621.744 471.447 638.123C483.358 646.809 497.771 653.443 509.825 662.048C518.71 668.392 528.026 672.351 540.008 674.912C552.915 677.671 567.095 677.822 580.396 678.3C604.423 679.165 628.806 679.55 652.841 678.746C715.46 676.651 775.677 658.613 832.496 640.392C862.992 630.612 891.549 618.63 920.182 606.207C952.573 592.152 984.962 577.918 1015.63 561.855C1059.09 539.094 1097.93 510.819 1123.78 476.225C1188.75 389.255 1195.19 276.637 1136.3 187.113C1128.56 175.348 1122.32 167.131 1106.18 160.762C1080.28 150.538 1049.45 146.668 1020.69 144.096C982.54 140.686 942.665 146.843 905.545 152.872C868.223 158.933 834.724 171.269 803.546 187.599C736.22 222.862 677.739 265.623 619.021 308.254Z" fill="url(#paint1_radial_88_4962)"/>
</g>
<g opacity="0.53" filter="url(#filter2_f_88_4962)">
<path d="M743.482 197.485C705.035 225.398 654.89 247.529 628.043 283.095C624.402 287.617 619.828 296.567 617.996 300.476C612.993 318.626 606.723 336.609 601.704 354.817C597.562 369.845 594.702 384.989 590.565 400C587.548 410.943 582.227 420.825 578.23 431.505C574.058 442.658 572.774 454.448 571.521 465.956L571.433 466.761C569 489.08 573.445 510.975 595.908 527.354C607.819 536.04 622.232 542.674 634.286 551.279C643.171 557.623 652.487 561.582 664.469 564.143C677.376 566.902 691.556 567.053 704.857 567.531C728.884 568.396 753.267 568.781 777.302 567.977C839.921 565.882 900.138 547.844 956.957 529.623C987.453 519.843 1016.01 507.861 1044.64 495.438C1077.03 481.383 1109.42 467.149 1140.09 451.085C1183.56 428.325 1222.4 400.05 1248.24 365.456C1313.21 278.486 1319.65 165.868 1260.76 76.3443C1253.02 64.5785 1246.78 56.3624 1230.64 49.9934C1204.74 39.7688 1173.91 35.8985 1145.15 33.3273C1107 29.917 1067.13 36.0736 1030.01 42.1025C992.684 48.1641 959.185 60.5 928.008 76.8296C860.681 112.092 802.201 154.853 743.482 197.485Z" fill="url(#paint2_radial_88_4962)"/>
</g>
<g opacity="0.53" filter="url(#filter3_f_88_4962)">
<path d="M174.786 238.701C153.583 254.094 125.93 266.299 111.125 285.912C109.117 288.406 106.594 293.341 105.584 295.497C102.825 305.506 99.3673 315.423 96.5997 325.464C94.3154 333.752 92.7382 342.103 90.4566 350.381C88.7932 356.416 85.8584 361.866 83.6547 367.756C81.3536 373.906 80.6456 380.408 79.9546 386.754L79.9063 387.198C78.5644 399.506 81.0156 411.58 93.4032 420.613C99.9718 425.403 107.92 429.061 114.567 433.807C119.467 437.305 124.605 439.489 131.212 440.901C138.33 442.422 146.15 442.506 153.485 442.77C166.735 443.246 180.182 443.459 193.436 443.015C227.969 441.86 261.176 431.913 292.51 421.864C309.328 416.471 325.076 409.863 340.866 403.012C358.729 395.262 376.59 387.412 393.505 378.553C417.472 366.002 438.89 350.409 453.142 331.331C488.971 283.371 492.522 221.265 460.047 171.896C455.779 165.408 452.337 160.877 443.439 157.364C429.154 151.726 412.151 149.591 396.29 148.173C375.254 146.293 353.264 149.688 332.794 153.013C312.212 156.356 293.739 163.158 276.545 172.164C239.417 191.61 207.167 215.191 174.786 238.701Z" fill="url(#paint3_radial_88_4962)"/>
</g>
</g>
<defs>
<filter id="filter0_f_88_4962" x="115" y="74" width="1091" height="744" filterUnits="userSpaceOnUse" color-interpolation-filters="sRGB">
<feFlood flood-opacity="0" result="BackgroundImageFix"/>
<feBlend mode="normal" in="SourceGraphic" in2="BackgroundImageFix" result="shape"/>
<feGaussianBlur stdDeviation="52" result="effect1_foregroundBlur_88_4962"/>
</filter>
<filter id="filter1_f_88_4962" x="342.378" y="39.1206" width="938.378" height="744.066" filterUnits="userSpaceOnUse" color-interpolation-filters="sRGB">
<feFlood flood-opacity="0" result="BackgroundImageFix"/>
<feBlend mode="normal" in="SourceGraphic" in2="BackgroundImageFix" result="shape"/>
<feGaussianBlur stdDeviation="52" result="effect1_foregroundBlur_88_4962"/>
</filter>
<filter id="filter2_f_88_4962" x="466.839" y="-71.6484" width="938.378" height="744.066" filterUnits="userSpaceOnUse" color-interpolation-filters="sRGB">
<feFlood flood-opacity="0" result="BackgroundImageFix"/>
<feBlend mode="normal" in="SourceGraphic" in2="BackgroundImageFix" result="shape"/>
<feGaussianBlur stdDeviation="52" result="effect1_foregroundBlur_88_4962"/>
</filter>
<filter id="filter3_f_88_4962" x="-24.4215" y="43.6353" width="610.78" height="503.623" filterUnits="userSpaceOnUse" color-interpolation-filters="sRGB">
<feFlood flood-opacity="0" result="BackgroundImageFix"/>
<feBlend mode="normal" in="SourceGraphic" in2="BackgroundImageFix" result="shape"/>
<feGaussianBlur stdDeviation="52" result="effect1_foregroundBlur_88_4962"/>
</filter>
<radialGradient id="paint0_radial_88_4962" cx="0" cy="0" r="1" gradientUnits="userSpaceOnUse" gradientTransform="translate(425.141 330.245) rotate(24.2737) scale(724.147 501.256)">
<stop offset="0.169774" stop-color="#F531B3"/>
<stop offset="0.858743" stop-color="#F531B3" stop-opacity="0"/>
</radialGradient>
<radialGradient id="paint1_radial_88_4962" cx="0" cy="0" r="1" gradientUnits="userSpaceOnUse" gradientTransform="translate(1006.04 281.81) rotate(141.495) scale(610.476 489.819)">
<stop offset="0.169774" stop-color="#E2B016"/>
<stop offset="0.858743" stop-color="#E2B016" stop-opacity="0"/>
</radialGradient>
<radialGradient id="paint2_radial_88_4962" cx="0" cy="0" r="1" gradientUnits="userSpaceOnUse" gradientTransform="translate(1054.35 423.753) rotate(-136.863) scale(358.9 302.398)">
<stop offset="0.269423" stop-color="#0600FF"/>
<stop offset="1" stop-color="#5551FF" stop-opacity="0"/>
</radialGradient>
<radialGradient id="paint3_radial_88_4962" cx="0" cy="0" r="1" gradientUnits="userSpaceOnUse" gradientTransform="translate(346.216 363.48) rotate(-136.863) scale(197.922 166.763)">
<stop offset="0.269423" stop-color="#0600FF"/>
<stop offset="1" stop-color="#5551FF" stop-opacity="0"/>
</radialGradient>
<clipPath id="clip0_88_4962">
<rect width="1440" height="382" fill="white"/>
</clipPath>
</defs>
</svg>
